<svg width="167" height="32" viewBox="0 0 167 32" fill="none" xmlns="http://www.w3.org/2000/svg">
<g clip-path="url(#clip0_37_11188)">
<path d="M27.8134 19.2475C33.7639 20.3456 37.8113 22.5072 37.8113 24.9949C37.8113 28.5948 29.3463 31.5094 18.9057 31.5094C8.46501 31.5094 0 28.5932 0 24.9949C0 22.5072 4.04896 20.3456 9.99794 19.2475C12.5833 19.9187 15.6366 20.3047 18.9057 20.3047C22.1748 20.3047 25.228 19.9187 27.8134 19.2491V19.2475ZM25.5352 8.6966C30.5894 9.53791 34.0711 11.3072 34.0711 13.3568C34.0711 16.2163 27.2809 18.5354 18.9057 18.5354C10.5305 18.5354 3.74017 16.2163 3.74017 13.3568C3.74017 11.3087 7.22196 9.53791 12.2761 8.6966C14.2186 9.18973 16.4842 9.47174 18.9057 9.47174C21.3272 9.47174 23.5927 9.18815 25.5352 8.6966ZM18.975 0C25.2469 0 30.3326 1.75508 30.3326 3.92135C30.3326 6.08605 25.2469 7.84112 18.975 7.84112C12.703 7.84112 7.61741 6.08605 7.61741 3.92135C7.61741 1.75508 12.703 0 18.975 0ZM61.9145 25.9795C63.4915 25.9795 64.8007 25.7353 65.8421 25.2454C66.8819 24.757 67.6618 24.0858 68.1785 23.2366C68.7003 22.3694 68.9688 21.3734 68.9537 20.3614C68.9537 19.3137 68.7394 18.422 68.3093 17.6831C67.9125 16.9786 67.3419 16.3874 66.6519 15.9658C66.0149 15.5716 65.2901 15.3416 64.5423 15.2963V15.093C65.1933 14.9408 65.811 14.6712 66.3652 14.2974C66.9087 13.9287 67.342 13.4467 67.6649 12.8527C67.9863 12.2587 68.1486 11.5419 68.1486 10.7022C68.1486 9.68127 67.9013 8.76907 67.4081 7.96401C66.915 7.15737 66.173 6.52088 65.182 6.05454C64.1926 5.5882 62.9511 5.35503 61.4607 5.35503H53.566V25.978L61.9145 25.9795ZM60.9975 14.1273H57.3015V8.43823H61.0779C62.1807 8.43823 63.011 8.6966 63.5703 9.21336C64.1311 9.73011 64.4116 10.3887 64.4116 11.1874C64.4116 11.7924 64.2619 12.3139 63.9641 12.7534C63.6648 13.1946 63.2568 13.5317 62.74 13.7712C62.1921 14.0155 61.5974 14.137 60.9975 14.1273ZM61.3205 22.8585H57.3031V16.8166H61.4213C62.1933 16.8166 62.8582 16.9584 63.4143 17.2451C63.972 17.5287 64.4021 17.9194 64.7046 18.4125C65.0055 18.9057 65.1568 19.4587 65.1568 20.0699C65.1568 20.8892 64.8574 21.5588 64.2556 22.0787C63.6554 22.5986 62.677 22.8585 61.3205 22.8585ZM75.7093 26.293C76.5144 26.293 77.217 26.1812 77.8188 25.9559C78.4191 25.7306 78.9201 25.4328 79.3187 25.0595C79.7189 24.6876 80.0277 24.2859 80.2514 23.8558H80.3711V25.9811H83.8765V15.6287C83.8765 14.6015 83.689 13.746 83.3172 13.0607C82.9694 12.4034 82.4617 11.8443 81.841 11.4348C81.2222 11.0316 80.5376 10.74 79.8181 10.573C79.0888 10.3996 78.3417 10.3118 77.592 10.3115C76.5112 10.3115 75.5234 10.4706 74.6301 10.7904C73.7753 11.0857 73.0004 11.5747 72.3661 12.2194C71.7317 12.8831 71.2744 13.6958 71.0364 14.5826L74.4395 15.0647C74.6206 14.5337 74.972 14.0737 75.4919 13.6845C76.0118 13.2954 76.7192 13.1016 77.6125 13.1016C78.4585 13.1016 79.106 13.3096 79.555 13.7255C80.0056 14.1414 80.2309 14.7291 80.2309 15.4869V15.5483C80.2309 15.8965 80.1017 16.1533 79.8433 16.3187C79.585 16.4826 79.1738 16.6023 78.6097 16.6811C78.0457 16.7583 77.31 16.8434 76.4041 16.9379C75.669 17.0154 74.9404 17.1449 74.2236 17.3255C73.558 17.4881 72.9211 17.751 72.3346 18.1053C71.7843 18.4409 71.3301 18.9131 71.016 19.476C70.693 20.0463 70.5323 20.7679 70.5323 21.6407C70.5323 22.6537 70.7592 23.5076 71.2129 24.1992C71.6651 24.8893 72.2842 25.4124 73.0656 25.7637C73.8471 26.1166 74.7293 26.293 75.7093 26.293ZM76.6546 23.6147C75.8968 23.6147 75.2729 23.443 74.7829 23.1011C74.2929 22.7577 74.0472 22.2504 74.0472 21.5808C74.0472 21.1097 74.1716 20.7253 74.4206 20.4276C74.6679 20.1282 75.0066 19.8951 75.4367 19.7265C75.9075 19.5484 76.3978 19.4267 76.8972 19.3641L77.7527 19.2444C78.0835 19.1971 78.4144 19.1436 78.75 19.0821C79.0855 19.0222 79.3896 18.9513 79.6621 18.871C79.9331 18.7906 80.1269 18.704 80.2403 18.6095V20.4323C80.2403 21.0026 80.0938 21.5304 79.8024 22.0125C79.5003 22.5059 79.0702 22.9082 78.5577 23.1768C78.0221 23.4682 77.3856 23.6147 76.6546 23.6147ZM90.4084 25.9811V5.3566H86.7644V25.9795H90.41L90.4084 25.9811ZM97.8195 26.293C98.6245 26.293 99.3288 26.1812 99.929 25.9559C100.529 25.7306 101.03 25.4328 101.429 25.0595C101.829 24.6876 102.139 24.2859 102.362 23.8558H102.481V25.9811H105.987V15.6287C105.987 14.6015 105.799 13.746 105.427 13.0607C105.08 12.4036 104.573 11.8445 103.953 11.4348C103.333 11.0315 102.648 10.7398 101.928 10.573C101.199 10.3996 100.452 10.3118 99.7021 10.3115C98.6214 10.3115 97.6351 10.4706 96.7403 10.7904C95.8855 11.0857 95.1106 11.5747 94.4763 12.2194C93.8419 12.8831 93.3846 13.6958 93.1466 14.5826L96.5496 15.0647C96.7308 14.5337 97.0821 14.0737 97.602 13.6845C98.1219 13.2954 98.8309 13.1016 99.7226 13.1016C100.569 13.1016 101.216 13.3096 101.667 13.7255C102.116 14.1414 102.341 14.7291 102.341 15.4869V15.5483C102.341 15.8965 102.212 16.1533 101.953 16.3187C101.695 16.4826 101.284 16.6023 100.72 16.6811C100.156 16.7583 99.4201 16.8434 98.5142 16.9379C97.7792 17.0154 97.0505 17.1449 96.3338 17.3255C95.6682 17.4881 95.0312 17.751 94.4448 18.1053C93.8945 18.4409 93.4402 18.9131 93.1261 19.476C92.8047 20.0463 92.6425 20.7679 92.6425 21.6407C92.6425 22.6537 92.8693 23.5076 93.3231 24.1992C93.7752 24.8893 94.3944 25.4124 95.1758 25.7637C95.9573 26.1166 96.8395 26.293 97.8195 26.293ZM98.7647 23.6147C98.0085 23.6147 97.383 23.443 96.8931 23.1011C96.4031 22.7577 96.1573 22.2504 96.1573 21.5808C96.1573 21.1097 96.2818 20.7253 96.5307 20.4276C96.7781 20.1282 97.1168 19.8951 97.5469 19.7265C98.0177 19.5484 98.5079 19.4267 99.0074 19.3641L99.8628 19.2444C100.194 19.1971 100.525 19.1436 100.86 19.0821C101.196 19.0222 101.5 18.9513 101.772 18.871C102.043 18.7906 102.237 18.704 102.351 18.6095V20.4323C102.351 21.0026 102.206 21.5304 101.913 22.0125C101.61 22.5059 101.18 22.9082 100.668 23.1768C100.132 23.4682 99.4958 23.6147 98.7647 23.6147ZM112.519 25.9811V16.9174C112.519 16.1722 112.66 15.5373 112.938 15.0142C113.217 14.4912 113.603 14.0894 114.096 13.8106C114.615 13.5256 115.2 13.3816 115.792 13.3931C116.733 13.3931 117.469 13.6845 118.003 14.269C118.537 14.852 118.803 15.6618 118.803 16.6953V25.9811H122.449V16.1313C122.457 14.8961 122.239 13.8468 121.8 12.9803C121.359 12.1138 120.743 11.4521 119.947 10.9952C119.151 10.5383 118.22 10.3115 117.152 10.3115C115.997 10.3115 115.028 10.5667 114.247 11.0771C113.478 11.5717 112.882 12.2929 112.541 13.141H112.358V10.5131H108.875V25.9811H112.519ZM132.125 26.2836C133.42 26.2836 134.548 26.0473 135.508 25.5731C136.431 25.1323 137.217 24.4502 137.784 23.599C138.342 22.7561 138.664 21.7872 138.752 20.6938H135.267C135.179 21.2057 134.975 21.691 134.673 22.1133C134.385 22.504 134.027 22.8002 133.602 23.005C133.173 23.2098 132.693 23.3123 132.155 23.3123C131.396 23.3123 130.737 23.109 130.176 22.7025C129.616 22.2961 129.181 21.7163 128.872 20.9601C128.563 20.2054 128.409 19.3011 128.409 18.2471C128.409 17.2073 128.565 16.314 128.877 15.5688C129.189 14.8236 129.627 14.2501 130.191 13.8515C130.755 13.4514 131.41 13.2529 132.155 13.2529C133.034 13.2529 133.737 13.5018 134.265 14.0028C134.791 14.5022 135.125 15.1245 135.267 15.8697H138.752C138.67 14.7559 138.342 13.7807 137.764 12.9441C137.178 12.1011 136.376 11.4303 135.443 11.0015C134.473 10.5415 133.361 10.3115 132.103 10.3115C130.594 10.3115 129.286 10.6486 128.182 11.3229C127.076 11.9991 126.187 12.9777 125.619 14.143C125.015 15.3482 124.713 16.7362 124.713 18.307C124.713 19.8714 125.011 21.2531 125.604 22.4505C126.198 23.6494 127.048 24.5884 128.152 25.2658C129.256 25.9433 130.581 26.2836 132.125 26.2836ZM147.812 26.2836C149.014 26.2836 150.081 26.1008 151.015 25.7338C151.948 25.3682 152.715 24.8515 153.315 24.1835C153.917 23.5155 154.324 22.7309 154.54 21.8313L151.137 21.4485C150.974 21.8849 150.736 22.252 150.421 22.5466C150.106 22.8428 149.733 23.0665 149.303 23.2162C148.839 23.3728 148.352 23.4495 147.863 23.443C147.07 23.443 146.379 23.2744 145.788 22.9341C145.193 22.5908 144.714 22.0794 144.409 21.4642C144.078 20.823 143.915 20.0526 143.915 19.153L143.916 19.2444H154.691V18.1258C154.691 16.7709 154.502 15.6003 154.127 14.6157C153.75 13.6326 153.235 12.8228 152.581 12.1847C151.94 11.5556 151.171 11.0729 150.325 10.7699C149.458 10.4612 148.543 10.3061 147.622 10.3115C146.144 10.3115 144.858 10.6486 143.763 11.3229C142.664 12.0036 141.779 12.9812 141.211 14.143C140.603 15.3482 140.3 16.7457 140.3 18.3369C140.3 19.9549 140.601 21.3602 141.206 22.5513C141.81 23.7439 142.675 24.6624 143.8 25.3115C144.924 25.959 146.262 26.2836 147.812 26.2836ZM143.932 16.6669C143.979 16.106 144.134 15.583 144.394 15.0993C144.705 14.5195 145.143 14.0485 145.707 13.6893C146.296 13.323 146.979 13.1358 147.672 13.1505C148.37 13.1505 148.983 13.308 149.509 13.6231C150.037 13.9398 150.448 14.3715 150.743 14.9181C151.039 15.4664 151.189 16.0887 151.196 16.7866H143.924L143.932 16.6669ZM160.63 25.9811V16.8875C160.63 16.2289 160.782 15.6492 161.083 15.145C161.385 14.6409 161.799 14.247 162.327 13.9618C162.877 13.6708 163.492 13.5234 164.114 13.5333C164.423 13.5333 164.744 13.5554 165.075 13.5995C165.409 13.6436 165.651 13.6908 165.806 13.746V10.3918C165.598 10.3532 165.387 10.328 165.176 10.3162C164.95 10.3004 164.724 10.292 164.498 10.291C163.611 10.291 162.823 10.5352 162.135 11.022C161.446 11.5072 160.963 12.1973 160.681 13.0906H160.519V10.5131H156.985V25.9811H160.63Z" fill="white"/>
</g>
<defs>
<clipPath id="clip0_37_11188">
<rect width="167" height="31.5094" fill="white"/>
</clipPath>
</defs>
</svg>
