<svg width="137" height="25" viewBox="0 0 137 25" fill="none" xmlns="http://www.w3.org/2000/svg">
<g id="Frame" clip-path="url(#clip0_37_11161)">
<g id="Layer 2">
<g id="Layer 1">
<path id="Vector" d="M17.6328 23.333C15.2413 24.1981 13.9249 24.4751 12.4357 24.4751C8.41508 24.4751 5.40405 22.8817 3.50095 21.0114C1.28297 18.7679 0.0270558 15.748 0 12.5933C0.0264266 9.40885 1.27925 6.35706 3.49797 4.07254C4.64268 2.92442 6.00374 2.01474 7.50238 1.39616C9.00102 0.777589 10.6075 0.462402 12.2287 0.468847C13.3367 0.468847 15.1385 0.643075 17.6328 1.64675V8.8184C15.6969 6.42835 13.4066 6.28688 12.4015 6.28688C10.6696 6.28688 9.35323 6.80659 8.24383 7.81026C7.60079 8.4214 7.09055 9.15847 6.74493 9.97551C6.39931 10.7925 6.22572 11.672 6.23499 12.5591C6.23499 14.1525 6.89318 15.9201 8.10534 17.0622C9.1105 17.9974 10.7039 18.6556 12.4015 18.6556C13.295 18.6556 15.5197 18.5528 17.6328 16.2313V23.333Z" fill="white"/>
<path id="Vector_2" d="M52.9391 0.703125V19.073H60.1435V24.1644H46.9453V0.703125H52.9391Z" fill="white"/>
<path id="Vector_3" d="M89.1875 24.2835V0.703125H95.1813L106.231 15.3115V0.703125H112.224V24.2835H106.231L95.1813 10.1502V24.2835H89.1875Z" fill="white"/>
<path id="Vector_4" d="M122.348 12.7234L114 0.703125H121.17L125.535 7.0081L129.727 0.703125H137.001L128.376 12.7234V24.2835H122.348V12.7234Z" fill="white"/>
<path id="Vector_5" d="M32.1913 0.0234376C29.7289 0.0237321 27.3218 0.754199 25.2745 2.12247C23.2272 3.49074 21.6316 5.43536 20.6895 7.71044C19.7474 9.98552 19.501 12.4889 19.9816 14.904C20.4622 17.3191 21.6481 19.5374 23.3894 21.2785C25.1307 23.0196 27.3492 24.2053 29.7644 24.6856C32.1795 25.1658 34.6828 24.9192 36.9578 23.9768C39.2328 23.0344 41.1772 21.4386 42.5452 19.3911C43.9133 17.3436 44.6434 14.9365 44.6434 12.4741C44.6434 10.8389 44.3213 9.21974 43.6955 7.70907C43.0697 6.19839 42.1525 4.82578 40.9962 3.66961C39.8399 2.51345 38.4672 1.59637 36.9564 0.970757C35.4457 0.345142 33.8265 0.023242 32.1913 0.0234376ZM32.1913 19.1603C30.869 19.16 29.5764 18.7676 28.4771 18.0327C27.3777 17.2978 26.521 16.2535 26.0151 15.0317C25.5093 13.81 25.3771 12.4656 25.6353 11.1687C25.8934 9.87183 26.5303 8.68061 27.4655 7.74568C28.4006 6.81074 29.592 6.17409 30.8889 5.91623C32.1859 5.65836 33.5302 5.79085 34.7519 6.29696C35.9735 6.80307 37.0177 7.66005 37.7523 8.75956C38.4869 9.85907 38.879 11.1517 38.879 12.4741C38.879 13.3522 38.706 14.2218 38.3699 15.0331C38.0338 15.8444 37.5412 16.5815 36.9201 17.2024C36.2991 17.8233 35.5619 18.3158 34.7505 18.6517C33.9391 18.9876 33.0695 19.1604 32.1913 19.1603Z" fill="white"/>
<path id="Vector_6" d="M73.8431 0C71.3756 0 68.9635 0.731701 66.9119 2.10257C64.8602 3.47345 63.2611 5.42192 62.3169 7.7016C61.3726 9.98128 61.1255 12.4898 61.6069 14.9099C62.0883 17.33 63.2765 19.553 65.0213 21.2978C66.7661 23.0425 68.9891 24.2308 71.4092 24.7122C73.8293 25.1935 76.3378 24.9465 78.6175 24.0022C80.8971 23.0579 82.8456 21.4589 84.2165 19.4072C85.5874 17.3555 86.3191 14.9434 86.3191 12.4759C86.3191 9.16711 85.0046 5.99381 82.665 3.65412C80.3253 1.31442 77.152 0 73.8431 0ZM73.8431 19.1621C72.5207 19.1621 71.228 18.77 70.1285 18.0353C69.0289 17.3006 68.172 16.2564 67.6659 15.0346C67.1598 13.8129 67.0274 12.4685 67.2854 11.1715C67.5434 9.87453 68.1802 8.68316 69.1153 7.74808C70.0504 6.813 71.2417 6.1762 72.5387 5.91821C73.8357 5.66022 75.1801 5.79263 76.4018 6.2987C77.6236 6.80476 78.6678 7.66174 79.4025 8.76128C80.1372 9.86082 80.5293 11.1535 80.5293 12.4759C80.5289 14.2491 79.8244 15.9495 78.5706 17.2034C77.3167 18.4572 75.6163 19.1617 73.8431 19.1621Z" fill="white" fill-opacity="0.5"/>
<path id="Vector_7" d="M86.3076 12.4736C86.3076 12.414 86.3076 12.3574 86.3166 12.2978C86.281 9.43834 85.2601 6.67864 83.4262 4.48438C81.5557 6.72645 80.5312 9.55373 80.5312 12.4736C80.5312 15.3934 81.5557 18.2207 83.4262 20.4627C85.2588 18.2701 86.2796 15.5127 86.3166 12.6552C86.3151 12.5897 86.3076 12.5331 86.3076 12.4736Z" fill="white"/>
<path id="Vector_8" d="M64.2654 4.48438C62.4309 6.67827 61.4099 9.4382 61.375 12.2978C61.375 12.3574 61.3839 12.414 61.3839 12.4736C61.3839 12.5331 61.3839 12.5897 61.375 12.6478C61.4097 15.5079 62.4306 18.2684 64.2654 20.4627C66.135 18.2203 67.159 15.3932 67.159 12.4736C67.159 9.55396 66.135 6.72683 64.2654 4.48438Z" fill="white"/>
<path id="Vector_9" d="M81.8363 2.89487C79.6428 1.05892 76.8829 0.0363806 74.0228 0C73.9647 0 73.9081 0.00893478 73.8486 0.00893478C73.789 0.00893478 73.7324 0.00893478 73.6728 0C70.8133 0.0356121 68.0536 1.05649 65.8594 2.8904C68.099 4.76567 70.9275 5.79218 73.8486 5.78974C76.7686 5.79359 79.5967 4.76865 81.8363 2.89487Z" fill="white"/>
<path id="Vector_10" d="M65.875 22.0691C68.1147 23.9321 70.936 24.9521 73.8493 24.9521C76.7625 24.9521 79.5839 23.9321 81.8236 22.0691C79.5835 20.207 76.7623 19.1875 73.8493 19.1875C70.9363 19.1875 68.1151 20.207 65.875 22.0691Z" fill="white"/>
<path id="Vector_11" d="M73.8448 15.5959C75.567 15.5959 76.963 14.1998 76.963 12.4776C76.963 10.7555 75.567 9.35938 73.8448 9.35938C72.1226 9.35938 70.7266 10.7555 70.7266 12.4776C70.7266 14.1998 72.1226 15.5959 73.8448 15.5959Z" fill="white"/>
</g>
</g>
</g>
<defs>
<clipPath id="clip0_37_11161">
<rect width="137" height="24.9519" fill="white"/>
</clipPath>
</defs>
</svg>
