<svg width="139" height="36" viewBox="0 0 139 36" fill="none" xmlns="http://www.w3.org/2000/svg">
<g clip-path="url(#clip0_37_11192)">
<path d="M49.5015 35.9953L24.7885 0L0 35.9953H34.5361L24.7885 22.2576L19.9533 29.3956H14.8144L24.7918 15.0441L39.2155 35.997L49.5015 35.9953Z" fill="white"/>
<path d="M70.2063 17.757C69.9245 17.757 69.8038 17.8778 69.8038 18.1595V20.5746C69.8038 20.8564 69.9245 20.9772 70.2063 20.9772H78.2164V25.2103C77.3438 26.548 76.1305 27.6292 74.7015 28.3425C73.2724 29.0559 71.6792 29.3757 70.0855 29.2691C64.088 29.2691 60.3848 25.4116 60.3848 17.9985C60.3848 10.6324 64.732 6.72797 69.683 6.72797C73.5405 6.72797 76.6869 8.25754 77.6932 11.9607C77.71 12.0755 77.7686 12.18 77.8577 12.2543C77.9468 12.3286 78.0602 12.3674 78.1762 12.3632H80.7456C81.0274 12.3632 81.1884 12.2425 81.1884 11.9607C80.1016 6.32545 75.2713 3.50781 69.6763 3.50781C63.397 3.50781 56.8359 8.33805 56.8359 17.9985C56.8359 27.5382 63.0414 32.4892 70.2398 32.4892C72.4107 32.5552 74.5614 32.0556 76.4809 31.0394C78.4003 30.0232 80.0226 28.5254 81.1884 26.6929C81.4764 26.2365 81.617 25.7024 81.5909 25.1634V18.1662C81.5909 17.8845 81.4701 17.7637 81.1884 17.7637L70.2063 17.757ZM111.988 4.31285C111.988 4.03109 111.867 3.91033 111.585 3.91033H107.761C107.625 3.89663 107.487 3.92871 107.371 4.00157C107.254 4.07442 107.165 4.18391 107.117 4.31285L99.3084 22.225L91.4996 4.31285C91.452 4.18391 91.3629 4.07442 91.2463 4.00157C91.1298 3.92871 90.9923 3.89663 90.8555 3.91033H87.0316C86.7498 3.91033 86.6291 4.03109 86.6291 4.31285V31.6842C86.6291 31.9659 86.7498 32.0867 87.0316 32.0867H89.6077C89.8895 32.0867 90.0102 31.9659 90.0102 31.6842V9.18334L97.8929 27.0149C97.9325 27.1217 98.0039 27.2137 98.0975 27.2785C98.1911 27.3433 98.3023 27.3778 98.4162 27.3772H100.201C100.315 27.3778 100.426 27.3433 100.519 27.2785C100.613 27.2137 100.684 27.1217 100.724 27.0149L108.607 9.18334V31.6842C108.607 31.9659 108.727 32.0867 109.009 32.0867H111.585C111.867 32.0867 111.988 31.9659 111.988 31.6842V4.31285ZM120.763 4.31285C120.481 3.95059 120.481 3.91033 120.199 3.91033H117.1C116.818 3.91033 116.697 4.11159 116.818 4.31285L125.351 17.227L115.771 31.6842C115.651 31.8854 115.771 32.0867 116.053 32.0867H119.072C119.354 32.0867 119.434 32.0464 119.716 31.6842L127.371 20.1788L135.012 31.6842C135.294 32.0464 135.374 32.0867 135.656 32.0867H138.675C138.957 32.0867 139.077 31.8854 138.957 31.6842L129.383 17.2337L137.917 4.31956C138.038 4.1183 137.917 3.91704 137.635 3.91704H134.529C134.247 3.91704 134.247 3.95729 133.965 4.31956L127.371 14.2551L120.763 4.31285Z" fill="white"/>
</g>
<defs>
<clipPath id="clip0_37_11192">
<rect width="139" height="35.9953" fill="white"/>
</clipPath>
</defs>
</svg>
