<svg width="157" height="33" viewBox="0 0 157 33" fill="none" xmlns="http://www.w3.org/2000/svg">
<g id="Frame" clip-path="url(#clip0_37_11122)">
<path id="Vector" d="M56.7179 12.5218C56.2849 13.2936 55.626 13.9148 54.8166 14.3102C53.9694 14.762 52.9152 14.9879 51.654 14.9879H49.3197V20.5412H45.5547V5.08594H51.654C52.8776 5.08594 53.9318 5.29301 54.7789 5.72599C55.5884 6.10248 56.2473 6.72371 56.6991 7.49553C57.132 8.28618 57.3579 9.17095 57.3391 10.0745C57.3391 10.9405 57.132 11.7688 56.7179 12.5218ZM52.9717 11.5052C53.3294 11.1664 53.4988 10.6958 53.4988 10.0745C53.4988 9.45332 53.3294 8.9827 52.9717 8.64385C52.614 8.305 52.0869 8.13558 51.3716 8.13558H49.3197V12.0135H51.3716C52.0869 12.0135 52.6329 11.8441 52.9717 11.5052Z" fill="white"/>
<path id="Vector_2" d="M68.922 17.8272H63.1615L62.2391 20.5568H58.3047L63.8957 5.10156H68.2443L73.8353 20.5568H69.8444L68.922 17.8272ZM67.9431 14.9094L66.0229 9.26187L64.1404 14.9094H67.9431Z" fill="white"/>
<path id="Vector_3" d="M89.3409 20.5568H85.576L79.2884 11.0314V20.5568H75.5234V5.10156H79.2884L85.576 14.6835V5.10156H89.3409V20.5568Z" fill="white"/>
<path id="Vector_4" d="M102.315 9.98013C102.052 9.47185 101.619 9.0577 101.11 8.81298C100.546 8.53061 99.9056 8.39883 99.2656 8.39883C98.0419 8.39883 97.063 8.79416 96.3477 9.60363C95.6135 10.3943 95.2559 11.4673 95.237 12.8227C95.237 14.2534 95.6135 15.3641 96.3854 16.1547C97.1572 16.9454 98.2114 17.3595 99.5668 17.3595C100.395 17.3783 101.223 17.1336 101.92 16.663C102.579 16.1547 103.068 15.4394 103.313 14.6299H98.5502V11.8626H106.739V15.3641C106.457 16.3241 105.967 17.2089 105.327 17.9807C104.631 18.809 103.765 19.4679 102.786 19.9385C101.694 20.4468 100.508 20.7103 99.3032 20.6915C97.8725 20.7103 96.4795 20.3715 95.2182 19.6938C94.0511 19.0537 93.0722 18.0749 92.4321 16.9077C91.0955 14.3475 91.0955 11.3167 92.4321 8.75651C93.0722 7.58936 94.0511 6.61046 95.2182 5.95159C96.4607 5.27389 97.8725 4.93504 99.2844 4.95387C101.129 4.95387 102.692 5.40567 103.953 6.29044C105.214 7.17521 106.118 8.49296 106.476 9.99895H102.315V9.98013Z" fill="white"/>
<path id="Vector_5" d="M112.141 19.6902C110.936 19.0314 109.938 18.0525 109.261 16.8665C107.83 14.3439 107.83 11.2378 109.261 8.71529C109.957 7.52932 110.936 6.55042 112.141 5.89155C114.626 4.53615 117.638 4.53615 120.123 5.89155C121.308 6.55042 122.306 7.52932 122.984 8.71529C124.377 11.2567 124.377 14.3251 122.984 16.8665C122.306 18.0525 121.308 19.0314 120.123 19.6902C117.638 21.0456 114.626 21.0456 112.141 19.6902ZM119.106 16.0382C119.84 15.2099 120.217 14.1369 120.217 12.7815C120.217 11.4261 119.84 10.3531 119.106 9.50594C118.372 8.69646 117.374 8.28231 116.15 8.28231C114.908 8.28231 113.929 8.67764 113.176 9.48711C112.442 10.2966 112.065 11.3884 112.065 12.7626C112.065 14.1369 112.442 15.2287 113.176 16.0382C113.91 16.8477 114.908 17.2618 116.15 17.2618C117.393 17.2618 118.372 16.8477 119.106 16.0382Z" fill="white"/>
<path id="Vector_6" d="M129.89 17.6422H134.822V20.5412H126.125V5.08594H129.89V17.6422Z" fill="white"/>
<path id="Vector_7" d="M140.398 5.10156V20.5568H136.633V5.10156H140.398Z" fill="white"/>
<path id="Vector_8" d="M156.943 20.5568H153.178L146.89 11.0314V20.5568H143.125V5.10156H146.89L153.178 14.6835V5.10156H156.943V20.5568Z" fill="white"/>
<path id="Vector_9" d="M18.7344 5.43826L26.0196 0.148438L27.2432 3.91342L18.7344 10.1068V5.43826Z" fill="white"/>
<path id="Vector_10" d="M20.0469 11.1234L29.1205 4.53466L27.6898 0.148438H32.4902L35.7469 10.1445L27.238 16.3379L20.0469 11.1234Z" fill="white"/>
<path id="Vector_11" d="M18.7344 12.1406L27.2244 18.3152L18.7344 24.5651V12.1406Z" fill="white"/>
<path id="Vector_12" d="M18.7344 26.5451L25.662 21.5L27.2432 26.3568L18.7344 32.5691V26.5451Z" fill="white"/>
<path id="Vector_13" d="M17.0948 5.43826L9.80956 0.148438L8.58594 3.91342L17.0948 10.1068V5.43826Z" fill="white"/>
<path id="Vector_14" d="M15.7547 11.1234L6.68107 4.53466L8.11176 0.148438H3.33023L0.0546875 10.1445L8.58238 16.3379L15.7547 11.1234Z" fill="white"/>
<path id="Vector_15" d="M17.0916 12.1406L8.60156 18.3152L17.0916 24.5651V12.1406Z" fill="white"/>
<path id="Vector_16" d="M17.0948 26.5451L10.1672 21.5L8.58594 26.3568L17.0948 32.5691V26.5451Z" fill="white"/>
<path id="Vector_17" d="M45.8386 26.7297C46.0268 26.4285 46.2715 26.1649 46.5916 25.9955C47.2693 25.619 48.0976 25.6378 48.7753 26.052C49.1141 26.259 49.3588 26.5791 49.5094 26.9556H48.7188C48.6247 26.7485 48.4741 26.5979 48.2858 26.4849C48.0976 26.372 47.8717 26.3155 47.6458 26.3343C47.401 26.3343 47.1563 26.3908 46.9304 26.5226C46.7233 26.6355 46.5539 26.8238 46.441 27.0309C46.1962 27.5203 46.1962 28.1039 46.441 28.5933C46.5539 28.8004 46.7233 28.9887 46.9304 29.1204C47.1375 29.2522 47.401 29.3087 47.6458 29.3087C47.8717 29.3087 48.0976 29.2522 48.2858 29.1581C48.4741 29.0451 48.6247 28.8757 48.7188 28.6875H49.5094C49.3777 29.064 49.1141 29.3652 48.7753 29.5722C48.4364 29.7793 48.0411 29.8923 47.6269 29.8923C47.2693 29.8923 46.9116 29.7981 46.5916 29.6287C46.2715 29.4593 46.0268 29.1957 45.8386 28.8945C45.4809 28.198 45.4809 27.4074 45.8386 26.7297Z" fill="white"/>
<path id="Vector_18" d="M50.8265 29.6514C50.5818 29.5196 50.3935 29.3125 50.2618 29.0678C50.1112 28.8043 50.0547 28.5031 50.0547 28.2019C50.0547 27.9007 50.13 27.5995 50.2618 27.3359C50.3935 27.0912 50.6006 26.8841 50.8453 26.7523C51.3724 26.4888 51.9748 26.4888 52.5019 26.7523C52.7467 26.8841 52.9537 27.0912 53.0855 27.3359C53.3679 27.8818 53.3679 28.5219 53.0855 29.0678C52.9349 29.3125 52.7278 29.5196 52.4831 29.6514C52.2196 29.7832 51.9372 29.8585 51.6548 29.8585C51.3536 29.8773 51.0712 29.802 50.8265 29.6514ZM52.1254 29.1619C52.276 29.0866 52.4078 28.9549 52.4831 28.8043C52.5772 28.616 52.6337 28.4278 52.6149 28.2207C52.6149 28.0136 52.5772 27.8065 52.4831 27.6371C52.4078 27.4865 52.276 27.3547 52.1254 27.2794C51.8242 27.11 51.4854 27.11 51.1842 27.2794C51.0336 27.3547 50.9206 27.4865 50.8453 27.6371C50.7512 27.8254 50.7136 28.0136 50.7136 28.2207C50.6947 28.5031 50.7889 28.8043 50.9771 29.0113C51.1465 29.1996 51.3913 29.2937 51.636 29.2937C51.8054 29.2937 51.9748 29.2561 52.1254 29.1619Z" fill="white"/>
<path id="Vector_19" d="M58.4899 26.7319C58.697 26.8449 58.8476 26.9955 58.9606 27.2025C59.0735 27.4284 59.13 27.692 59.13 27.9367V29.8192H58.4711V28.0308C58.4899 27.7861 58.4146 27.5602 58.264 27.372C57.9252 27.0708 57.4169 27.0708 57.0969 27.372C56.9463 27.5602 56.871 27.7861 56.871 28.0308V29.8192H56.2121V28.0308C56.2309 27.7861 56.1556 27.5602 56.005 27.372C55.6662 27.0708 55.1579 27.0708 54.8379 27.372C54.6873 27.5602 54.612 27.7861 54.612 28.0308V29.8192H53.9531V26.619H54.612V26.9766C54.7249 26.8449 54.8567 26.7319 55.0261 26.6754C55.1956 26.6001 55.365 26.5625 55.5532 26.5625C55.798 26.5625 56.0239 26.619 56.2309 26.7319C56.438 26.8449 56.5886 26.9955 56.7016 27.2025C56.7957 27.0143 56.9651 26.8449 57.1534 26.7507C57.3604 26.6378 57.5863 26.5813 57.8122 26.5813C58.057 26.5625 58.2829 26.619 58.4899 26.7319Z" fill="white"/>
<path id="Vector_20" d="M61.0904 26.7131C61.2975 26.619 61.5234 26.5625 61.7493 26.5625C62.2952 26.5625 62.8035 26.8637 63.0482 27.3531C63.18 27.6167 63.2365 27.9179 63.2365 28.2003C63.2365 28.5015 63.18 28.7838 63.0482 29.0662C62.9165 29.3109 62.7282 29.518 62.5023 29.6498C62.2764 29.7816 62.0129 29.8569 61.7493 29.8569C61.5234 29.8569 61.2975 29.8192 61.0904 29.7063C60.921 29.6121 60.7516 29.4804 60.6198 29.3298V31.3064H59.9609V26.6001H60.6198V27.0708C60.7516 26.9202 60.921 26.8072 61.0904 26.7131ZM62.427 27.6355C62.3517 27.4849 62.2199 27.3531 62.0693 27.2778C61.6175 27.0143 61.0528 27.1649 60.7704 27.5979C60.7516 27.6167 60.7516 27.6355 60.7516 27.6543C60.6575 27.8238 60.6198 28.0308 60.6198 28.2191C60.6198 28.4262 60.6575 28.6144 60.7516 28.8027C60.9963 29.2733 61.5611 29.4427 62.0129 29.198C62.0317 29.198 62.0505 29.1792 62.0693 29.1792C62.2199 29.085 62.3517 28.9533 62.427 28.8027C62.5211 28.6332 62.5588 28.4262 62.5588 28.2191C62.5776 28.012 62.5211 27.8049 62.427 27.6355Z" fill="white"/>
<path id="Vector_21" d="M64.4593 29.6514C64.2146 29.5196 64.0264 29.3125 63.8946 29.0678C63.744 28.8043 63.6875 28.5031 63.6875 28.2019C63.6875 27.9007 63.7628 27.5995 63.8946 27.3359C64.0264 27.0912 64.2334 26.8841 64.4781 26.7523C65.0052 26.4888 65.6076 26.4888 66.1347 26.7523C66.3795 26.8841 66.5865 27.0912 66.7183 27.3359C67.0007 27.8818 67.0007 28.5219 66.7183 29.0678C66.5677 29.3125 66.3606 29.5196 66.1159 29.6514C65.8524 29.7832 65.57 29.8585 65.2876 29.8585C64.9864 29.8773 64.704 29.802 64.4593 29.6514ZM65.7582 29.1619C65.9088 29.0678 66.0406 28.9549 66.1159 28.8043C66.21 28.616 66.2665 28.4278 66.2477 28.2207C66.2477 28.0136 66.21 27.8065 66.1159 27.6371C66.0406 27.4865 65.9088 27.3547 65.7582 27.2794C65.6076 27.2041 65.457 27.1477 65.2876 27.1477C65.1182 27.1477 64.9676 27.1853 64.817 27.2794C64.6664 27.3547 64.5534 27.4865 64.4781 27.6371C64.384 27.8254 64.3464 28.0136 64.3464 28.2207C64.3275 28.5031 64.4217 28.8043 64.6099 29.0113C64.7794 29.1996 65.0241 29.2937 65.2688 29.2937C65.4382 29.2937 65.6076 29.2561 65.7582 29.1619Z" fill="white"/>
<path id="Vector_22" d="M70.4836 26.6204V29.8018H69.8247V29.4253C69.7117 29.5571 69.58 29.67 69.4105 29.7265C69.2411 29.8018 69.0529 29.8395 68.8646 29.8395C68.6387 29.8395 68.394 29.783 68.1869 29.6889C67.9799 29.5759 67.8293 29.4253 67.7163 29.2182C67.6034 28.9923 67.5469 28.7288 67.5469 28.4841V26.6016H68.2057V28.3711C68.1869 28.6158 68.2622 28.8417 68.4128 29.03C68.5634 29.1806 68.7705 29.2747 68.9964 29.2559C69.2223 29.2747 69.4294 29.1806 69.58 29.03C69.7306 28.8417 69.8059 28.6158 69.8059 28.3711V26.6016L70.4836 26.6204Z" fill="white"/>
<path id="Vector_23" d="M73.6216 26.7319C73.8286 26.8449 73.9792 26.9955 74.0922 27.2025C74.2051 27.4284 74.2616 27.692 74.2616 27.9367V29.8192H73.6027V28.0308C73.6216 27.7861 73.5463 27.5602 73.3957 27.372C73.2451 27.2214 73.038 27.1272 72.8121 27.1461C72.5862 27.1272 72.3791 27.2214 72.2285 27.372C72.0779 27.5602 72.0026 27.7861 72.0026 28.0308V29.8192H71.3438V26.619H72.0026V26.9766C72.1156 26.8449 72.2662 26.7319 72.4168 26.6754C72.5862 26.6001 72.7744 26.5625 72.9627 26.5625C73.1886 26.5625 73.4145 26.619 73.6216 26.7319Z" fill="white"/>
<path id="Vector_24" d="M75.0711 27.3527C75.3346 26.8632 75.8429 26.562 76.3888 26.562C76.5959 26.562 76.803 26.5997 77.01 26.6938C77.1983 26.7691 77.3677 26.9009 77.4995 27.0515V25.5078H78.1584V29.7999H77.4995V29.3104C77.3865 29.4799 77.2359 29.5928 77.0477 29.6869C76.8406 29.7999 76.6147 29.8375 76.3888 29.8375C76.1253 29.8375 75.8617 29.7622 75.6358 29.6305C75.4099 29.4799 75.2217 29.2916 75.0899 29.0469C74.9581 28.7834 74.8828 28.4822 74.8828 28.181C74.8828 27.8986 74.9393 27.6162 75.0711 27.3527ZM77.3489 27.635C77.2736 27.4844 77.1418 27.3527 76.9912 27.2585C76.69 27.0891 76.3512 27.0891 76.05 27.2585C75.8994 27.3527 75.7864 27.4656 75.6923 27.6162C75.5982 27.7856 75.5605 27.9927 75.5605 28.181C75.5605 28.388 75.5982 28.5763 75.6923 28.7645C75.7676 28.9151 75.8994 29.0469 76.05 29.141C76.2006 29.2352 76.3512 29.2728 76.5206 29.2728C76.69 29.2728 76.8594 29.2352 76.9912 29.141C77.1418 29.0469 77.2736 28.9151 77.3489 28.7645C77.443 28.5951 77.4807 28.388 77.4807 28.181C77.4995 27.9927 77.443 27.8045 77.3489 27.635Z" fill="white"/>
<path id="Vector_25" d="M83.5039 25.7891L82.1673 28.3493V29.8176H81.5084V28.3493L80.1719 25.7891H80.906L81.8473 27.7657L82.7885 25.7891H83.5039Z" fill="white"/>
<path id="Vector_26" d="M84.5999 29.6514C84.3552 29.5196 84.167 29.3125 84.0352 29.0678C83.8846 28.8043 83.8281 28.5031 83.8281 28.2019C83.8281 27.9007 83.9034 27.5995 84.0352 27.3359C84.167 27.0912 84.3741 26.8841 84.6188 26.7523C85.1459 26.4888 85.7483 26.4888 86.2754 26.7523C86.5201 26.8841 86.7272 27.0912 86.8589 27.3359C87.0095 27.5995 87.0848 27.9007 87.066 28.2019C87.066 28.5031 86.9907 28.8043 86.8401 29.0678C86.6895 29.3125 86.4824 29.5196 86.2377 29.6514C85.9742 29.7832 85.6918 29.8585 85.4094 29.8585C85.1271 29.8773 84.8447 29.802 84.5999 29.6514ZM85.88 29.1619C86.0306 29.0678 86.1624 28.9549 86.2377 28.8043C86.3318 28.616 86.3883 28.4278 86.3695 28.2207C86.3695 28.0136 86.3318 27.8065 86.2377 27.6371C86.1624 27.4865 86.0306 27.3547 85.88 27.2794C85.7294 27.2041 85.5788 27.1477 85.4094 27.1477C85.24 27.1477 85.0894 27.1853 84.9388 27.2794C84.7882 27.3736 84.6752 27.4865 84.5999 27.6371C84.5058 27.8254 84.4682 28.0136 84.4682 28.2207C84.4494 28.5031 84.5435 28.8043 84.7317 29.0113C84.9011 29.1996 85.1459 29.2937 85.3906 29.2937C85.5788 29.2937 85.7483 29.2561 85.88 29.1619Z" fill="white"/>
<path id="Vector_27" d="M90.6082 26.6204V29.8018H89.9494V29.4253C89.8364 29.5571 89.7047 29.67 89.5352 29.7265C89.3658 29.8018 89.1776 29.8395 89.0081 29.8395C88.7822 29.8395 88.5375 29.783 88.3304 29.6889C88.1234 29.5947 87.9728 29.4253 87.8598 29.2182C87.7469 28.9923 87.6716 28.7288 87.6904 28.4841V26.6016H88.3493V28.3711C88.3304 28.6158 88.4057 28.8417 88.5563 29.03C88.8952 29.3312 89.4035 29.3312 89.7235 29.03C89.8741 28.8417 89.9494 28.6158 89.9494 28.3711V26.6016L90.6082 26.6204Z" fill="white"/>
<path id="Vector_28" d="M92.5229 26.7099C92.6924 26.6158 92.8994 26.5781 93.0877 26.5781V27.2558H92.9183C92.7112 27.237 92.4853 27.3123 92.3347 27.4441C92.1841 27.6323 92.1088 27.877 92.1276 28.1218V29.7972H91.4688V26.6158H92.1276V27.0864C92.2217 26.917 92.3535 26.7852 92.5229 26.7099Z" fill="white"/>
<path id="Vector_29" d="M95.2511 26.7297C95.4394 26.4285 95.6841 26.1649 96.0041 25.9955C96.6818 25.619 97.5101 25.6378 98.1878 26.052C98.5267 26.259 98.7714 26.5791 98.922 26.9556H98.1313C98.0372 26.7485 97.8866 26.5979 97.6984 26.4849C97.5101 26.372 97.2842 26.3155 97.0583 26.3343C96.8136 26.3343 96.5689 26.3908 96.343 26.5226C96.1359 26.6355 95.9665 26.8238 95.8535 27.0309C95.6088 27.5203 95.6088 28.1039 95.8535 28.5933C95.9665 28.8004 96.1359 28.9887 96.343 29.1204C96.55 29.2522 96.8136 29.3087 97.0583 29.3087C97.2842 29.3087 97.5101 29.2522 97.6984 29.1581C97.8866 29.0451 98.0372 28.8757 98.1313 28.6875H98.922C98.7902 29.064 98.5267 29.3652 98.1878 29.5722C97.849 29.7793 97.4536 29.8923 97.0395 29.8923C96.6818 29.8923 96.3241 29.7981 96.0041 29.6287C95.6841 29.4593 95.4394 29.1957 95.2511 28.8945C94.8746 28.198 94.8746 27.3885 95.2511 26.7297Z" fill="white"/>
<path id="Vector_30" d="M100.241 29.6514C99.9958 29.5196 99.8076 29.3125 99.6758 29.0678C99.5252 28.8043 99.4688 28.5031 99.4688 28.2019C99.4688 27.9007 99.544 27.5995 99.6758 27.3359C99.8076 27.0912 100.015 26.8841 100.259 26.7523C100.786 26.4888 101.389 26.4888 101.916 26.7523C102.161 26.8841 102.368 27.0912 102.5 27.3359C102.65 27.5995 102.725 27.9007 102.707 28.2019C102.707 28.5031 102.631 28.8043 102.481 29.0678C102.33 29.3125 102.123 29.5196 101.878 29.6514C101.615 29.7832 101.332 29.8585 101.05 29.8585C100.768 29.8773 100.485 29.802 100.241 29.6514ZM101.539 29.1619C101.69 29.0678 101.822 28.9549 101.897 28.8043C101.991 28.616 102.048 28.4278 102.029 28.2207C102.029 28.0136 101.991 27.8065 101.897 27.6371C101.822 27.4865 101.69 27.3547 101.539 27.2794C101.389 27.2041 101.238 27.1477 101.069 27.1477C100.899 27.1477 100.749 27.1853 100.598 27.2794C100.448 27.3547 100.335 27.4865 100.259 27.6371C100.165 27.8254 100.128 28.0136 100.128 28.2207C100.109 28.5031 100.203 28.8043 100.391 29.0113C100.561 29.1996 100.805 29.2937 101.05 29.2937C101.219 29.2937 101.389 29.2561 101.539 29.1619Z" fill="white"/>
<path id="Vector_31" d="M107.907 26.7287C108.114 26.8228 108.265 26.9923 108.378 27.1993C108.491 27.4252 108.566 27.6888 108.547 27.9335V29.816H107.888V28.0276C107.907 27.7829 107.832 27.557 107.681 27.3688C107.342 27.0676 106.834 27.0676 106.514 27.3688C106.364 27.557 106.288 27.7829 106.288 28.0276V29.816H105.629V28.0276C105.648 27.7829 105.573 27.557 105.403 27.3688C105.065 27.0676 104.556 27.0676 104.236 27.3688C104.086 27.557 104.01 27.7829 104.01 28.0276V29.816H103.352V26.6346H104.01V26.9923C104.123 26.8605 104.255 26.7476 104.425 26.6911C104.594 26.6158 104.782 26.5781 104.952 26.5781C105.196 26.5781 105.422 26.6346 105.629 26.7476C105.818 26.8605 105.987 27.0111 106.1 27.2182C106.194 27.0299 106.364 26.8605 106.552 26.7664C106.759 26.6534 106.985 26.597 107.211 26.597C107.474 26.5593 107.7 26.6158 107.907 26.7287Z" fill="white"/>
<path id="Vector_32" d="M113.912 26.7319C114.119 26.826 114.269 26.9955 114.382 27.2025C114.495 27.4284 114.571 27.692 114.552 27.9367V29.8192H113.893V28.0308C113.912 27.7861 113.837 27.5602 113.686 27.372C113.535 27.2214 113.328 27.1272 113.102 27.1461C112.876 27.1272 112.669 27.2214 112.519 27.372C112.368 27.5602 112.293 27.7861 112.293 28.0308V29.8192H111.634V28.0308C111.653 27.7861 111.578 27.5602 111.427 27.372C111.276 27.2214 111.069 27.1272 110.843 27.1461C110.617 27.1272 110.41 27.2214 110.26 27.372C110.109 27.5602 110.034 27.7861 110.034 28.0308V29.8192H109.375V26.619H110.034V26.9766C110.147 26.8449 110.279 26.7319 110.448 26.6754C110.617 26.6001 110.806 26.5625 110.975 26.5625C111.22 26.5625 111.446 26.619 111.653 26.7319C111.86 26.8449 112.01 26.9955 112.123 27.2025C112.218 27.0143 112.387 26.8449 112.575 26.7507C112.782 26.6378 113.008 26.5813 113.234 26.5813C113.479 26.5625 113.705 26.619 113.912 26.7319Z" fill="white"/>
<path id="Vector_33" d="M118.277 26.6204V29.8018H117.618V29.4253C117.505 29.5571 117.374 29.67 117.204 29.7265C117.035 29.8018 116.847 29.8395 116.677 29.8395C116.451 29.8395 116.207 29.783 115.999 29.6889C115.792 29.5759 115.642 29.4253 115.529 29.2182C115.416 28.9923 115.359 28.7288 115.359 28.4841V26.6016H116.018V28.3711C115.999 28.6158 116.075 28.8417 116.225 29.03C116.376 29.1806 116.583 29.2747 116.809 29.2559C117.035 29.2747 117.242 29.1806 117.392 29.03C117.543 28.8417 117.618 28.6158 117.618 28.3711V26.6016L118.277 26.6204Z" fill="white"/>
<path id="Vector_34" d="M121.442 26.7319C121.649 26.8449 121.8 26.9955 121.912 27.2025C122.025 27.4284 122.082 27.692 122.082 27.9367V29.8192H121.423V28.0308C121.442 27.7861 121.367 27.5602 121.216 27.372C121.065 27.2214 120.858 27.1272 120.632 27.1461C120.407 27.1272 120.199 27.2214 120.049 27.372C119.898 27.5602 119.823 27.7861 119.823 28.0308V29.8192H119.164V26.619H119.823V26.9766C119.936 26.8449 120.068 26.7319 120.237 26.6754C120.407 26.6001 120.595 26.5625 120.764 26.5625C121.009 26.5625 121.235 26.619 121.442 26.7319Z" fill="white"/>
<path id="Vector_35" d="M122.947 26.0701C122.778 25.9007 122.778 25.6371 122.947 25.4677C123.023 25.3924 123.136 25.3359 123.249 25.3359C123.474 25.3548 123.663 25.5618 123.644 25.7877C123.625 25.9948 123.456 26.1642 123.249 26.1831C123.136 26.2019 123.023 26.1642 122.947 26.0701ZM123.569 26.616V29.7974H122.91V26.616H123.569Z" fill="white"/>
<path id="Vector_36" d="M125.203 27.1647V28.9342C125.203 29.0284 125.221 29.1225 125.278 29.1978C125.353 29.2543 125.466 29.2919 125.56 29.2731H125.974V29.819H125.447C125.203 29.8378 124.958 29.7625 124.77 29.6119C124.6 29.4237 124.506 29.179 124.525 28.9342V27.1647H124.148V26.6188H124.525V25.8281H125.184V26.6188H125.956V27.1647H125.203Z" fill="white"/>
<path id="Vector_37" d="M129.46 26.6172L127.502 31.3046H126.824L127.464 29.761L126.203 26.6172H126.937L127.841 29.0456L128.782 26.6172H129.46Z" fill="white"/>
</g>
<defs>
<clipPath id="clip0_37_11122">
<rect width="157" height="32.5671" fill="white"/>
</clipPath>
</defs>
</svg>
