<svg width="151" height="29" viewBox="0 0 151 29" fill="none" xmlns="http://www.w3.org/2000/svg">
<g clip-path="url(#clip0_37_11180)">
<mask id="mask0_37_11180" style="mask-type:luminance" maskUnits="userSpaceOnUse" x="0" y="0" width="151" height="29">
<path d="M150.687 0H0V28.3646H150.687V0Z" fill="white"/>
</mask>
<g mask="url(#mask0_37_11180)">
<path d="M35.4558 28.3646L19.0579 0L2.65918 28.3646H35.4558ZM7.53427 13.2959L15.0687 0H0L7.53427 13.2959ZM28.7588 24.6101H9.35666L19.0579 7.82907L28.7588 24.6101Z" fill="white"/>
<path d="M129.398 19.7959C129.994 19.7959 130.576 19.7752 131.143 19.7339C131.711 19.6932 132.227 19.6396 132.693 19.5743C133.158 19.5084 133.567 19.447 133.921 19.3896C134.273 19.3322 134.544 19.2786 134.731 19.2294V11.2026C134.731 10.5301 134.639 9.90676 134.451 9.33196C134.265 8.75758 133.966 8.2608 133.559 7.84232C133.148 7.42312 132.612 7.09493 131.953 6.85719C131.293 6.61944 130.487 6.5 129.539 6.5C128.608 6.5 127.812 6.55801 127.151 6.67245C126.491 6.78747 126.002 6.91019 125.686 7.04136L125.937 8.44498C126.179 8.36297 126.561 8.25695 127.081 8.12521C127.603 7.99406 128.393 7.92819 129.455 7.92819C130.198 7.92819 130.799 8.03035 131.255 8.2358C131.711 8.44173 132.065 8.71244 132.317 9.0489C132.566 9.38493 132.73 9.76218 132.804 10.1813C132.868 10.5391 132.898 10.908 132.908 11.2842H132.915V11.4566C132.915 11.4628 132.917 11.4678 132.917 11.474V12.2619H132.915V13.6651H132.917V18.1461C132.544 18.212 132.093 18.2656 131.562 18.3063C131.032 18.3476 130.412 18.3678 129.705 18.3678C129.129 18.3678 128.612 18.3225 128.156 18.232C127.701 18.1423 127.309 17.9989 126.984 17.8018C126.658 17.6048 126.406 17.3425 126.23 17.0131C126.053 16.6849 125.965 16.2837 125.965 15.8071C125.965 15.2652 126.095 14.8309 126.355 14.5022C126.616 14.1741 126.951 13.9151 127.362 13.7264C127.769 13.5378 128.217 13.415 128.7 13.3569C129.185 13.3001 129.651 13.2716 130.097 13.2716C130.447 13.2716 130.76 13.2817 131.043 13.3001V11.9372C131.02 11.9354 130.998 11.9316 130.976 11.9293C130.687 11.9041 130.412 11.8919 130.152 11.8919C129.279 11.8919 128.469 11.9662 127.724 12.114C126.979 12.2619 126.337 12.4958 125.797 12.8156C125.258 13.136 124.839 13.5417 124.541 14.0346C124.244 14.5268 124.095 15.1173 124.095 15.8071C124.095 16.5297 124.23 17.141 124.499 17.641C124.768 18.1423 125.142 18.5525 125.616 18.8728C126.091 19.1926 126.648 19.4264 127.291 19.5743C127.933 19.7216 128.636 19.7959 129.398 19.7959ZM83.3067 19.7959C83.901 19.7959 84.4833 19.7752 85.0506 19.7339C85.6188 19.6932 86.1352 19.6396 86.6007 19.5743C87.0654 19.5084 87.475 19.447 87.8287 19.3896C88.1824 19.3322 88.4527 19.2786 88.6388 19.2294V11.2026C88.6388 10.5301 88.5462 9.90676 88.3601 9.33196C88.1741 8.75758 87.8754 8.2608 87.4666 7.84232C87.057 7.42312 86.5214 7.09493 85.8607 6.85719C85.2 6.61944 84.3958 6.5 83.4464 6.5C82.515 6.5 81.7191 6.55801 81.0588 6.67245C80.398 6.78747 79.9099 6.91019 79.5935 7.04136L79.8444 8.44498C80.086 8.36297 80.4678 8.25695 80.9895 8.12521C81.5101 7.99406 82.3009 7.92819 83.3617 7.92819C84.1071 7.92819 84.7053 8.03035 85.1633 8.2358C85.6188 8.44173 85.9717 8.71244 86.2244 9.0489C86.4747 9.38493 86.6366 9.76218 86.7133 10.1813C86.7767 10.5391 86.8059 10.908 86.8159 11.2842H86.8243V18.1461C86.4514 18.212 86.0017 18.2656 85.4703 18.3063C84.9397 18.3476 84.3207 18.3678 83.6141 18.3678C83.0363 18.3678 82.5193 18.3225 82.0643 18.232C81.6078 18.1423 81.2167 17.9989 80.891 17.8018C80.5652 17.6048 80.3143 17.3425 80.1376 17.0131C79.961 16.6849 79.8729 16.2837 79.8729 15.8071C79.8729 15.2652 80.0028 14.8309 80.2638 14.5022C80.5234 14.1741 80.8585 13.9151 81.2685 13.7264C81.6782 13.5378 82.1248 13.415 82.608 13.3569C83.0926 13.3001 83.5573 13.2716 84.0037 13.2716C84.3549 13.2716 84.6661 13.2817 84.9505 13.3001V11.9372C84.9272 11.9354 84.9072 11.9316 84.883 11.9293C84.5943 11.9041 84.3207 11.8919 84.0604 11.8919C83.1856 11.8919 82.3755 11.9662 81.6318 12.114C80.8871 12.2619 80.245 12.4958 79.7052 12.8156C79.1648 13.136 78.7459 13.5417 78.4483 14.0346C78.1506 14.5268 78.002 15.1173 78.002 15.8071C78.002 16.5297 78.1374 17.141 78.4065 17.641C78.6767 18.1423 79.0487 18.5525 79.523 18.8728C79.9979 19.1926 80.557 19.4264 81.198 19.5743C81.8403 19.7216 82.5432 19.7959 83.3067 19.7959ZM61.1471 19.7959C61.7418 19.7959 62.3236 19.7752 62.8916 19.7339C63.4589 19.6932 63.9756 19.6396 64.4412 19.5743C64.9056 19.5084 65.3162 19.447 65.6694 19.3896C66.0227 19.3322 66.2929 19.2786 66.4789 19.2294V11.2026C66.4789 10.5301 66.3859 9.90676 66.2005 9.33196C66.014 8.75758 65.7156 8.2608 65.3068 7.84232C64.8974 7.42312 64.3619 7.09493 63.7011 6.85719C63.04 6.61944 62.2355 6.5 61.2862 6.5C60.3552 6.5 59.5599 6.55801 58.8991 6.67245C58.238 6.78747 57.7499 6.91019 57.4335 7.04136L57.6851 8.44498C57.9266 8.36297 58.308 8.25695 58.8298 8.12521C59.3503 7.99406 60.1416 7.92819 61.2026 7.92819C61.9467 7.92819 62.547 8.03035 63.0033 8.2358C63.4589 8.44173 63.8134 8.71244 64.0642 9.0489C64.3157 9.38493 64.478 9.76218 64.5529 10.1813C64.6162 10.5391 64.6465 10.908 64.6569 11.2842H64.6641L64.6644 11.4653L64.6646 11.474V12.2619L64.6641 13.6651L64.6646 18.1461C64.2921 18.212 63.8414 18.2656 63.3102 18.3063C62.7804 18.3476 62.1613 18.3678 61.454 18.3678C60.8769 18.3678 60.3601 18.3225 59.9044 18.232C59.4482 18.1423 59.057 17.9989 58.7317 17.8018C58.406 17.6048 58.1545 17.3425 57.9784 17.0131C57.8012 16.6849 57.7131 16.2837 57.7131 15.8071C57.7131 15.2652 57.843 14.8309 58.1038 14.5022C58.3636 14.1741 58.6987 13.9151 59.1087 13.7264C59.5181 13.5378 59.9644 13.415 60.4487 13.3569C60.9324 13.3001 61.3985 13.2716 61.8449 13.2716C62.1947 13.2716 62.5068 13.2817 62.7908 13.3001V11.9372C62.7677 11.9354 62.7473 11.9316 62.7242 11.9293C62.4353 11.9041 62.1612 11.8919 61.9003 11.8919C61.0254 11.8919 60.2159 11.9662 59.4719 12.114C58.7273 12.2619 58.085 12.4958 57.5452 12.8156C57.0049 13.136 56.5861 13.5417 56.2883 14.0346C55.9912 14.5268 55.8422 15.1173 55.8422 15.8071C55.8422 16.5297 55.9774 17.141 56.2466 17.641C56.5168 18.1423 56.8887 18.5525 57.3631 18.8728C57.8385 19.1926 58.3971 19.4264 59.0393 19.5743C59.6815 19.7216 60.3833 19.7959 61.1471 19.7959ZM140.101 24.2279V18.8751C140.42 19.0912 140.93 19.3194 141.631 19.5604C142.334 19.8003 143.163 19.921 144.116 19.921C145.164 19.921 146.096 19.755 146.91 19.4231C147.724 19.0912 148.411 18.6307 148.974 18.0409C149.534 17.4518 149.961 16.7468 150.25 15.9245C150.54 15.1027 150.686 14.2025 150.686 13.2232C150.686 12.1773 150.512 11.2399 150.167 10.4096C149.82 9.5799 149.333 8.87454 148.708 8.29309C148.08 7.7124 147.33 7.26867 146.461 6.96106C145.591 6.65402 144.622 6.5 143.555 6.5C142.263 6.5 141.197 6.57498 140.355 6.72467C139.512 6.87364 138.819 7.03171 138.277 7.19759V24.2279H140.101ZM71.0167 19.7959V8.36714C71.1712 8.30026 71.4941 8.21623 71.9853 8.11492C72.4764 8.01435 73.1266 7.9634 73.9368 7.9634C74.7071 7.9634 75.3282 8.00176 75.8011 8.07715C76.2729 8.15327 76.5857 8.22414 76.7401 8.29103L77.1156 6.87858C76.9036 6.79455 76.5236 6.71096 75.9743 6.62634C75.4251 6.54231 74.8422 6.5 74.225 6.5C73.0114 6.5 71.9801 6.59721 71.1317 6.79045C70.284 6.98384 69.619 7.17373 69.1381 7.35833V19.7959H71.0167ZM42.5986 24.2279V18.8751C42.9162 19.0912 43.4265 19.3194 44.1282 19.5604C44.8305 19.8003 45.6584 19.921 46.613 19.921C47.6612 19.921 48.5926 19.755 49.4066 19.4231C50.2212 19.0912 50.909 18.6307 51.4702 18.0409C52.0319 17.4518 52.4575 16.7468 52.7475 15.9245C53.0381 15.1027 53.183 14.2025 53.183 13.2232C53.183 12.1773 53.0097 11.2399 52.6639 10.4096C52.3169 9.5799 51.8305 8.87454 51.2039 8.29309C50.5765 7.7124 49.8282 7.26867 48.9578 6.96106C48.0867 6.65402 47.1188 6.5 46.0518 6.5C44.7602 6.5 43.6932 6.57498 42.8509 6.72467C42.0086 6.87364 41.3163 7.03171 40.7734 7.19759V24.2279H42.5986ZM95.5572 19.7959C97.2566 19.7959 98.5973 19.4958 99.5783 18.8954C100.558 18.2949 101.048 17.4114 101.048 16.2433C101.048 15.6268 100.927 15.1143 100.685 14.7047C100.44 14.2959 100.124 13.9466 99.7318 13.6546C99.3389 13.3625 98.8851 13.1125 98.3737 12.905C97.8589 12.6979 97.3217 12.4944 96.7619 12.2954C96.2205 12.0958 95.7399 11.9137 95.3186 11.747C94.899 11.5814 94.5436 11.4022 94.2541 11.2105C93.9638 11.0177 93.7452 10.7965 93.5967 10.5454C93.4457 10.2947 93.3715 9.99419 93.3715 9.64255C93.3715 9.62303 93.374 7.31062 93.3757 6.66537L93.3765 6.5H91.5336C91.5303 6.56493 91.5236 9.16995 91.5228 9.69803V9.78946C91.5228 10.3396 91.6346 10.8068 91.859 11.1901C92.0842 11.574 92.3812 11.9035 92.7558 12.1785C93.1287 12.4537 93.5584 12.6952 94.0431 12.9038C94.5294 13.1125 95.0425 13.3166 95.5856 13.5168C96.2572 13.7668 96.8228 13.9835 97.2808 14.1672C97.7371 14.3504 98.1067 14.5426 98.3862 14.7428C98.6673 14.943 98.8667 15.1676 98.9902 15.4181C99.1103 15.6682 99.1712 15.9687 99.1712 16.3188C99.1712 17.0524 98.83 17.5736 98.1484 17.8821C97.4677 18.1911 96.6034 18.3448 95.5572 18.3448C94.9774 18.3448 94.4685 18.3119 94.0306 18.245C93.5909 18.1786 93.2138 18.0986 92.8951 18.0073C92.5773 17.916 92.3253 17.8315 92.1393 17.7573C91.9524 17.6818 91.8306 17.6279 91.7747 17.5946L91.2984 19.0701C91.5228 19.171 91.9708 19.3167 92.644 19.5078C93.3156 19.7002 94.2867 19.7959 95.5572 19.7959ZM108.771 19.7959C109.06 19.2388 109.367 18.6126 109.689 17.9162C110.009 17.2203 110.341 16.4766 110.681 15.6851C111.023 14.8928 111.353 14.0604 111.671 13.1866C111.991 12.314 112.296 11.4205 112.585 10.5066C112.876 11.4184 113.183 12.3096 113.503 13.1812C113.823 14.0523 114.154 14.8836 114.497 15.6746C114.839 16.4662 115.172 17.2095 115.495 17.9048C115.818 18.6 116.127 19.2307 116.422 19.7959H118.178C119.172 17.9892 120.085 16.0789 120.913 14.0643C121.742 12.05 122.507 9.82384 123.209 7.38639H121.341C121.127 8.23615 120.86 9.15343 120.538 10.1388C120.217 11.1241 119.87 12.1012 119.501 13.0681C119.129 14.0354 118.76 14.9544 118.389 15.8253C118.019 16.6969 117.667 17.4358 117.336 18.0435C116.945 17.2432 116.56 16.3869 116.183 15.4739C115.801 14.5615 115.443 13.6372 115.105 12.7019C114.766 11.7656 114.456 10.846 114.175 9.9423C113.894 9.03813 113.668 8.1867 113.495 7.38639H111.862C111.631 8.18559 111.371 9.03705 111.081 9.9418C110.79 10.8465 110.481 11.7627 110.153 12.6911C109.825 13.6198 109.474 14.5409 109.101 15.4542C108.727 16.3684 108.353 17.2231 107.981 18.019C107.651 17.4113 107.294 16.6746 106.916 15.8095C106.534 14.9451 106.16 14.0288 105.789 13.061C105.418 12.0935 105.071 11.1182 104.751 10.1338C104.429 9.15084 104.159 8.23503 103.945 7.38639H101.935C102.632 9.81933 103.392 12.0446 104.218 14.0608C105.044 16.0767 105.954 17.9886 106.951 19.7959H108.771ZM143.992 18.9095C143.551 18.9095 143.13 18.8712 142.728 18.7961C142.324 18.7206 141.949 18.6232 141.604 18.5052C141.258 18.3877 140.956 18.2618 140.697 18.1267C140.438 17.992 140.222 17.8655 140.05 17.7475V8.62668C140.338 8.54259 140.765 8.46233 141.33 8.38608C141.897 8.31062 142.64 8.27279 143.561 8.27279C145.173 8.27279 146.467 8.73213 147.445 9.65006C148.426 10.5682 148.914 11.8859 148.914 13.604C148.914 14.328 148.828 15.0151 148.655 15.6629C148.482 16.3117 148.204 16.8753 147.82 17.3557C147.437 17.8356 146.933 18.2148 146.31 18.4926C145.686 18.7702 144.914 18.9095 143.992 18.9095ZM46.4887 18.9095C46.0468 18.9095 45.6253 18.8712 45.2226 18.7961C44.8193 18.7206 44.4454 18.6232 44.0999 18.5052C43.7545 18.3877 43.4521 18.2618 43.1934 18.1267C42.9348 17.992 42.7188 17.8655 42.5462 17.7475V8.62668C42.8333 8.54259 43.261 8.46233 43.8266 8.38608C44.3927 8.31062 45.1363 8.27279 46.0564 8.27279C47.6686 8.27279 48.9637 8.73213 49.9416 9.65006C50.9206 10.5682 51.4102 11.8859 51.4102 13.604C51.4102 14.328 51.3239 15.0151 51.151 15.6629C50.9786 16.3117 50.7001 16.8753 50.3166 17.3557C49.932 17.8356 49.4288 18.2148 48.8054 18.4926C48.1814 18.7702 47.4093 18.9095 46.4887 18.9095Z" fill="white"/>
</g>
</g>
<defs>
<clipPath id="clip0_37_11180">
<rect width="151" height="28.3646" fill="white"/>
</clipPath>
</defs>
</svg>
