<svg width="291" height="291" viewBox="0 0 291 291" fill="none" xmlns="http://www.w3.org/2000/svg">
<circle cx="145.5" cy="145.5" r="143" fill="url(#paint0_linear_1501_9250)" stroke="url(#paint1_linear_1501_9250)" stroke-width="5"/>
<path d="M58.208 159V138.552H50.144V133.8H72.104V138.552H64.04V159H58.208ZM92.5219 133.8H98.3539V159H92.5219V148.668H81.0739V159H75.2419V133.8H81.0739V143.736H92.5219V133.8ZM110.112 154.32H123.828V159H104.316V133.8H123.36V138.48H110.112V143.952H121.812V148.488H110.112V154.32ZM157.168 145.896C159.976 146.796 161.776 148.956 161.776 152.124C161.776 156.48 158.32 159 151.696 159H138.664V133.8H150.976C157.276 133.8 160.516 136.428 160.516 140.352C160.516 142.872 159.22 144.816 157.168 145.896ZM150.256 138.192H144.46V144.132H150.256C153.1 144.132 154.648 143.124 154.648 141.144C154.648 139.164 153.1 138.192 150.256 138.192ZM151.264 154.608C154.288 154.608 155.908 153.672 155.908 151.512C155.908 149.388 154.288 148.38 151.264 148.38H144.46V154.608H151.264ZM171.987 154.32H185.703V159H166.191V133.8H185.235V138.48H171.987V143.952H183.687V148.488H171.987V154.32ZM209.171 159L206.939 153.6H195.239L193.007 159H187.031L198.263 133.8H204.023L215.291 159H209.171ZM197.111 149.172H205.103L201.107 139.524L197.111 149.172ZM240.226 159H233.962L229.102 151.98H228.814H223.738V159H217.906V133.8H228.814C235.546 133.8 239.758 137.292 239.758 142.944C239.758 146.724 237.85 149.496 234.574 150.9L240.226 159ZM233.854 142.944C233.854 140.172 232.054 138.552 228.49 138.552H223.738V147.336H228.49C232.054 147.336 233.854 145.68 233.854 142.944Z" fill="white"/>
<defs>
<linearGradient id="paint0_linear_1501_9250" x1="105" y1="89" x2="231" y2="283" gradientUnits="userSpaceOnUse">
<stop stop-color="#A8A5FF"/>
<stop offset="0.5" stop-color="#6B70ED"/>
<stop offset="1" stop-color="#423496"/>
</linearGradient>
<linearGradient id="paint1_linear_1501_9250" x1="109.821" y1="346.415" x2="197.031" y2="-150.465" gradientUnits="userSpaceOnUse">
<stop stop-color="#AFAFFF"/>
<stop offset="0.34375" stop-color="#FF8FB8"/>
<stop offset="0.723958" stop-color="#FFBB9B"/>
</linearGradient>
</defs>
</svg>
