<svg width="24" height="24" viewBox="0 0 24 24" fill="none" xmlns="http://www.w3.org/2000/svg">
<path fill-rule="evenodd" clip-rule="evenodd" d="M12 0C5.37063 0 0 5.37063 0 12C0 18.6154 5.37063 23.986 12 24C18.6294 24 24 18.6294 24 12C24 5.37063 18.6294 0 12 0ZM14.2096 6.13949C15.3145 6.3213 16.3774 6.65697 17.3984 7.11851C19.1467 9.69193 20.0138 12.601 19.7061 15.9577C18.5313 16.8388 17.2026 17.4961 15.79 17.9297C15.4683 17.4961 15.1886 17.0486 14.9509 16.573C15.4124 16.4052 15.8599 16.1954 16.2795 15.9437C16.2236 15.9017 16.1711 15.8598 16.1187 15.8178C16.0662 15.7758 16.0138 15.7339 15.9578 15.6919C13.4823 16.8667 10.6012 16.8667 8.12568 15.6919C8.06973 15.7339 8.01729 15.7758 7.96484 15.8178C7.91239 15.8598 7.85994 15.9017 7.804 15.9437C8.22358 16.1954 8.65714 16.4052 9.11868 16.573C8.88092 17.0486 8.6012 17.4961 8.27952 17.9297C6.86693 17.5101 5.55225 16.8388 4.36344 15.9577C4.0977 13.0626 4.64316 10.1395 6.65714 7.13249C7.66414 6.65697 8.74106 6.3213 9.84596 6.13949C9.9998 6.40522 10.1397 6.68494 10.2655 6.97865C11.4404 6.79683 12.6292 6.79683 13.804 6.97865C13.9159 6.71291 14.0697 6.39123 14.2096 6.13949ZM8.06973 12.615C8.06973 13.4682 8.68512 14.1675 9.45435 14.1675C10.2376 14.1675 10.839 13.4682 10.853 12.615C10.853 11.7479 10.2376 11.0486 9.45435 11.0486C8.68512 11.0486 8.06973 11.7619 8.06973 12.615ZM13.2166 12.615C13.2166 13.4682 13.832 14.1675 14.6012 14.1675C15.3704 14.1675 15.9718 13.4821 15.9858 12.615C15.9998 11.7479 15.3844 11.0486 14.6012 11.0486C13.832 11.0486 13.2166 11.7619 13.2166 12.615Z" fill="white"/>
</svg>
