<svg width="326" height="207" viewBox="0 0 326 207" fill="none" xmlns="http://www.w3.org/2000/svg">
<g filter="url(#filter0_d_37_11101)">
<mask id="path-1-outside-1_37_11101" maskUnits="userSpaceOnUse" x="15" y="16" width="296" height="176" fill="black">
<rect fill="white" x="15" y="16" width="296" height="176"/>
<path d="M87.04 79.2C110.56 79.2 127.92 84 139.12 93.6C150.48 103.2 156.16 116 156.16 132C156.16 142.4 153.44 152 148 160.8C142.72 169.44 134.56 176.4 123.52 181.68C112.64 186.8 99.12 189.36 82.96 189.36C71.12 189.36 59.36 187.92 47.68 185.04C36.16 182.16 26.24 178.08 17.92 172.8L34.96 137.04C41.68 141.52 49.04 144.96 57.04 147.36C65.2 149.76 73.36 150.96 81.52 150.96C89.68 150.96 96.16 149.44 100.96 146.4C105.92 143.2 108.4 138.8 108.4 133.2C108.4 127.6 106 123.36 101.2 120.48C96.4 117.6 87.92 116.16 75.76 116.16H30.16L38.56 18H145.6V54.72H77.92L75.76 79.2H87.04ZM255.934 186L232.654 151.92L207.694 186H158.254L207.694 120.96L159.694 55.92H211.054L234.094 88.8L258.094 55.92H306.334L258.334 119.28L308.014 186H255.934Z"/>
</mask>
<path d="M87.04 79.2C110.56 79.2 127.92 84 139.12 93.6C150.48 103.2 156.16 116 156.16 132C156.16 142.4 153.44 152 148 160.8C142.72 169.44 134.56 176.4 123.52 181.68C112.64 186.8 99.12 189.36 82.96 189.36C71.12 189.36 59.36 187.92 47.68 185.04C36.16 182.16 26.24 178.08 17.92 172.8L34.96 137.04C41.68 141.52 49.04 144.96 57.04 147.36C65.2 149.76 73.36 150.96 81.52 150.96C89.68 150.96 96.16 149.44 100.96 146.4C105.92 143.2 108.4 138.8 108.4 133.2C108.4 127.6 106 123.36 101.2 120.48C96.4 117.6 87.92 116.16 75.76 116.16H30.16L38.56 18H145.6V54.72H77.92L75.76 79.2H87.04ZM255.934 186L232.654 151.92L207.694 186H158.254L207.694 120.96L159.694 55.92H211.054L234.094 88.8L258.094 55.92H306.334L258.334 119.28L308.014 186H255.934Z" fill="url(#paint0_linear_37_11101)"/>
<path d="M139.12 93.6L137.818 95.1185L137.829 95.1276L139.12 93.6ZM148 160.8L146.299 159.748L146.293 159.757L148 160.8ZM123.52 181.68L124.372 183.49L124.383 183.484L123.52 181.68ZM47.68 185.04L47.1949 186.98L47.2012 186.982L47.68 185.04ZM17.92 172.8L16.1145 171.94C15.6795 172.853 15.9944 173.947 16.8484 174.489L17.92 172.8ZM34.96 137.04L36.0694 135.376C35.5866 135.054 34.9878 134.958 34.4284 135.112C33.869 135.266 33.4041 135.656 33.1545 136.18L34.96 137.04ZM57.04 147.36L56.4653 149.276L56.4757 149.279L57.04 147.36ZM100.96 146.4L102.03 148.09C102.035 148.087 102.04 148.084 102.044 148.081L100.96 146.4ZM101.2 120.48L100.171 122.195L101.2 120.48ZM30.16 116.16L28.1673 115.989C28.1195 116.548 28.308 117.1 28.6867 117.513C29.0655 117.925 29.5999 118.16 30.16 118.16V116.16ZM38.56 18V16C37.5215 16 36.6558 16.7948 36.5673 17.8295L38.56 18ZM145.6 18H147.6C147.6 16.8954 146.705 16 145.6 16V18ZM145.6 54.72V56.72C146.705 56.72 147.6 55.8246 147.6 54.72H145.6ZM77.92 54.72V52.72C76.8836 52.72 76.0188 53.5118 75.9277 54.5442L77.92 54.72ZM75.76 79.2L73.7677 79.0242C73.7184 79.583 73.9061 80.1369 74.2849 80.5506C74.6638 80.9644 75.199 81.2 75.76 81.2V79.2ZM87.04 81.2C110.35 81.2 127.142 85.9676 137.818 95.1185L140.422 92.0815C128.698 82.0324 110.77 77.2 87.04 77.2V81.2ZM137.829 95.1276C148.702 104.316 154.16 116.538 154.16 132H158.16C158.16 115.462 152.258 102.084 140.411 92.0724L137.829 95.1276ZM154.16 132C154.16 142.031 151.542 151.266 146.299 159.748L149.701 161.852C155.338 152.734 158.16 142.769 158.16 132H154.16ZM146.293 159.757C141.254 168.004 133.422 174.727 122.657 179.876L124.383 183.484C135.698 178.073 144.186 170.876 149.707 161.843L146.293 159.757ZM122.668 179.87C112.13 184.83 98.9217 187.36 82.96 187.36V191.36C99.3183 191.36 113.15 188.77 124.372 183.49L122.668 179.87ZM82.96 187.36C71.284 187.36 59.6847 185.94 48.1588 183.098L47.2012 186.982C59.0353 189.9 70.9561 191.36 82.96 191.36V187.36ZM48.1651 183.1C36.8116 180.261 27.0982 176.256 18.9916 171.111L16.8484 174.489C25.3818 179.904 35.5084 184.059 47.1949 186.98L48.1651 183.1ZM19.7255 173.66L36.7655 137.9L33.1545 136.18L16.1145 171.94L19.7255 173.66ZM33.8506 138.704C40.741 143.298 48.2821 146.821 56.4653 149.276L57.6147 145.444C49.7979 143.099 42.619 139.742 36.0694 135.376L33.8506 138.704ZM56.4757 149.279C64.8111 151.73 73.161 152.96 81.52 152.96V148.96C73.559 148.96 65.5889 147.79 57.6043 145.441L56.4757 149.279ZM81.52 152.96C89.902 152.96 96.7992 151.403 102.03 148.09L99.8899 144.71C95.5208 147.477 89.458 148.96 81.52 148.96V152.96ZM102.044 148.081C107.538 144.536 110.4 139.522 110.4 133.2H106.4C106.4 138.078 104.302 141.864 99.8757 144.719L102.044 148.081ZM110.4 133.2C110.4 126.898 107.632 122.007 102.229 118.765L100.171 122.195C104.368 124.713 106.4 128.302 106.4 133.2H110.4ZM102.229 118.765C96.9211 115.58 87.9488 114.16 75.76 114.16V118.16C87.8912 118.16 95.8789 119.62 100.171 122.195L102.229 118.765ZM75.76 114.16H30.16V118.16H75.76V114.16ZM32.1527 116.331L40.5527 18.1705L36.5673 17.8295L28.1673 115.989L32.1527 116.331ZM38.56 20H145.6V16H38.56V20ZM143.6 18V54.72H147.6V18H143.6ZM145.6 52.72H77.92V56.72H145.6V52.72ZM75.9277 54.5442L73.7677 79.0242L77.7523 79.3758L79.9123 54.8958L75.9277 54.5442ZM75.76 81.2H87.04V77.2H75.76V81.2ZM255.934 186L254.283 187.128C254.656 187.674 255.274 188 255.934 188V186ZM232.654 151.92L234.306 150.792C233.94 150.256 233.336 149.931 232.687 149.92C232.038 149.91 231.424 150.215 231.041 150.738L232.654 151.92ZM207.694 186V188C208.332 188 208.931 187.696 209.308 187.182L207.694 186ZM158.254 186L156.662 184.79C156.202 185.395 156.125 186.208 156.463 186.889C156.8 187.569 157.495 188 158.254 188V186ZM207.694 120.96L209.287 122.17C209.824 121.463 209.831 120.487 209.304 119.772L207.694 120.96ZM159.694 55.92V53.92C158.94 53.92 158.249 54.3449 157.909 55.0187C157.569 55.6924 157.637 56.5003 158.085 57.1076L159.694 55.92ZM211.054 55.92L212.692 54.7723C212.318 54.2381 211.707 53.92 211.054 53.92V55.92ZM234.094 88.8L232.456 89.9477C232.827 90.4763 233.43 90.7937 234.075 90.7999C234.72 90.8061 235.329 90.5005 235.71 89.9791L234.094 88.8ZM258.094 55.92V53.92C257.456 53.92 256.855 54.225 256.479 54.7408L258.094 55.92ZM306.334 55.92L307.929 57.1277C308.387 56.5225 308.463 55.7098 308.125 55.0299C307.787 54.3499 307.094 53.92 306.334 53.92V55.92ZM258.334 119.28L256.74 118.072C256.203 118.782 256.199 119.761 256.73 120.474L258.334 119.28ZM308.014 186V188C308.771 188 309.462 187.573 309.802 186.898C310.141 186.222 310.07 185.412 309.619 184.806L308.014 186ZM257.586 184.872L234.306 150.792L231.003 153.048L254.283 187.128L257.586 184.872ZM231.041 150.738L206.081 184.818L209.308 187.182L234.268 153.102L231.041 150.738ZM207.694 184H158.254V188H207.694V184ZM159.847 187.21L209.287 122.17L206.102 119.75L156.662 184.79L159.847 187.21ZM209.304 119.772L161.304 54.7324L158.085 57.1076L206.085 122.148L209.304 119.772ZM159.694 57.92H211.054V53.92H159.694V57.92ZM209.416 57.0677L232.456 89.9477L235.732 87.6523L212.692 54.7723L209.416 57.0677ZM235.71 89.9791L259.71 57.0991L256.479 54.7408L232.479 87.6208L235.71 89.9791ZM258.094 57.92H306.334V53.92H258.094V57.92ZM304.74 54.7123L256.74 118.072L259.929 120.488L307.929 57.1277L304.74 54.7123ZM256.73 120.474L306.41 187.194L309.619 184.806L259.939 118.086L256.73 120.474ZM308.014 184H255.934V188H308.014V184Z" fill="url(#paint1_linear_37_11101)" mask="url(#path-1-outside-1_37_11101)"/>
</g>
<defs>
<filter id="filter0_d_37_11101" x="0.721874" y="0.799999" width="324.494" height="205.759" filterUnits="userSpaceOnUse" color-interpolation-filters="sRGB">
<feFlood flood-opacity="0" result="BackgroundImageFix"/>
<feColorMatrix in="SourceAlpha" type="matrix" values="0 0 0 0 0 0 0 0 0 0 0 0 0 0 0 0 0 0 127 0" result="hardAlpha"/>
<feOffset/>
<feGaussianBlur stdDeviation="8.6"/>
<feComposite in2="hardAlpha" operator="out"/>
<feColorMatrix type="matrix" values="0 0 0 0 0.364706 0 0 0 0 0.278431 0 0 0 0 1 0 0 0 0.44 0"/>
<feBlend mode="normal" in2="BackgroundImageFix" result="effect1_dropShadow_37_11101"/>
<feBlend mode="normal" in="SourceGraphic" in2="effect1_dropShadow_37_11101" result="shape"/>
</filter>
<linearGradient id="paint0_linear_37_11101" x1="-10.1859" y1="60.2902" x2="113.774" y2="273.029" gradientUnits="userSpaceOnUse">
<stop stop-color="#A79DFF"/>
<stop offset="1" stop-color="#6B70ED"/>
</linearGradient>
<linearGradient id="paint1_linear_37_11101" x1="104.353" y1="-56.4594" x2="319.632" y2="236.912" gradientUnits="userSpaceOnUse">
<stop stop-color="#3A2D8C"/>
<stop offset="0.505208" stop-color="#571E4B"/>
<stop offset="1" stop-color="#163D59"/>
</linearGradient>
</defs>
</svg>
