<svg width="2000" height="540" viewBox="0 0 2000 540" fill="none" xmlns="http://www.w3.org/2000/svg">
<path fill-rule="evenodd" clip-rule="evenodd" d="M1519.69 208.379C1516.79 211.278 1513.14 212.727 1508.76 212.727C1504.37 212.727 1500.73 211.317 1497.83 208.497C1494.93 205.677 1493.48 202.23 1493.48 198.156C1493.48 194.082 1494.93 190.596 1497.83 187.697C1500.73 184.799 1504.37 183.349 1508.76 183.349C1513.14 183.349 1516.79 184.72 1519.69 187.462C1522.58 190.204 1524.03 193.612 1524.03 197.686C1524.03 201.916 1522.58 205.481 1519.69 208.379ZM965.054 363.612C973.28 363.612 981.741 361.732 989.732 358.676L986.442 319.662C982.446 321.543 978.451 322.718 974.69 322.718C968.345 322.718 963.644 319.192 963.644 310.496V186.874H916.169V311.907C916.169 347.395 939.437 363.612 965.054 363.612ZM707.408 351.16C693.463 357.897 677.482 361.266 659.463 361.266H581.67V196.749H659.463C677.482 196.749 693.463 200.117 707.408 206.855C721.353 213.592 732.164 223.15 739.841 235.528C747.519 247.906 751.358 262.399 751.358 279.007C751.358 295.616 747.519 310.109 739.841 322.487C732.164 334.865 721.353 344.422 707.408 351.16ZM628.205 324.129H657.583C671.684 324.129 683.005 320.133 691.544 312.142C700.083 304.152 704.353 293.106 704.353 279.004C704.353 264.903 700.083 253.856 691.544 245.866C683.005 237.875 671.684 233.879 657.583 233.879H628.205V324.129ZM835.501 363.379C859.316 363.379 877.413 356.485 889.791 342.696L866.289 318.254C861.745 322.171 857.24 324.991 852.775 326.715C848.31 328.438 843.021 329.3 836.911 329.3C828.763 329.3 821.987 327.537 816.581 324.012C811.176 320.487 807.533 315.434 805.653 308.853H898.252C898.722 301.802 898.957 298.12 898.957 297.807C898.957 284.175 895.941 272.385 889.909 262.436C883.877 252.486 875.69 244.887 865.349 239.638C855.008 234.389 843.491 231.765 830.8 231.765C817.482 231.765 805.496 234.585 794.841 240.226C784.187 245.866 775.844 253.661 769.811 263.611C763.779 273.56 760.763 284.802 760.763 297.337C760.763 310.028 763.857 321.388 770.046 331.415C776.235 341.443 784.97 349.277 796.252 354.918C807.533 360.558 820.616 363.379 835.501 363.379ZM804.947 285.348H857.123C855.869 278.61 852.932 273.283 848.31 269.366C843.687 265.449 837.929 263.491 831.035 263.491C824.141 263.491 818.383 265.449 813.761 269.366C809.139 273.283 806.201 278.61 804.947 285.348ZM1071.71 361.498C1066.31 362.751 1060.55 363.378 1054.44 363.378C1037.83 363.378 1025.06 359.304 1016.13 351.157C1007.2 343.009 1002.73 330.866 1002.73 314.728V271.953H984.166V238.58H1002.73V205.441H1047.39V238.58H1076.53V271.953H1047.39V314.258C1047.39 318.802 1048.6 322.366 1051.03 324.951C1053.46 327.537 1056.71 328.829 1060.78 328.829C1065.95 328.829 1070.5 327.497 1074.41 324.834L1085.46 356.092C1081.7 358.442 1077.12 360.244 1071.71 361.498ZM1142.32 363.379C1160.97 363.379 1173.5 357.19 1179.93 344.812V361.263H1221.53V290.521C1221.53 270.622 1215.96 255.855 1204.84 246.219C1193.71 236.583 1177.58 231.765 1156.42 231.765C1146.24 231.765 1136.09 233.058 1125.99 235.643C1115.88 238.228 1107.3 241.871 1100.25 246.571L1115.29 276.89C1119.68 273.443 1125.01 270.74 1131.28 268.781C1137.54 266.823 1143.73 265.843 1149.84 265.843C1167.08 265.843 1176.09 272.581 1176.87 286.056H1151.49C1132.22 286.056 1117.96 289.385 1108.71 296.044C1099.47 302.703 1094.85 312.065 1094.85 324.13C1094.85 331.65 1096.69 338.348 1100.37 344.224C1104.05 350.1 1109.5 354.761 1116.7 358.208C1123.91 361.655 1132.45 363.379 1142.32 363.379ZM1142.56 331.649C1145.53 334 1149.61 335.175 1154.78 335.175C1159.95 335.175 1164.49 333.921 1168.41 331.414C1172.33 328.907 1175.15 325.225 1176.87 320.368V309.322H1157.6C1144.59 309.322 1138.09 313.631 1138.09 322.248C1138.09 326.165 1139.58 329.299 1142.56 331.649ZM1278.01 361.266V311.441H1318.66C1339.97 311.441 1356.74 306.348 1368.96 296.164C1381.18 285.98 1387.29 271.956 1387.29 254.095C1387.29 236.233 1381.18 222.21 1368.96 212.025C1356.74 201.841 1339.97 196.749 1318.66 196.749H1254.5V361.266H1278.01ZM1278.01 290.989H1317.96C1332.84 290.989 1344.2 287.816 1352.04 281.471C1359.87 275.125 1363.79 265.998 1363.79 254.09C1363.79 242.182 1359.87 233.056 1352.04 226.71C1344.2 220.364 1332.84 217.191 1317.96 217.191H1278.01V290.989ZM1430.89 361.262V299.215C1430.89 285.741 1434.38 275.36 1441.35 268.075C1448.32 260.789 1457.92 257.146 1470.14 257.146C1472.33 257.146 1474.06 257.224 1475.31 257.381V235.524C1464.34 235.524 1455.02 237.404 1447.34 241.164C1439.66 244.925 1433.87 250.409 1429.95 257.616V236.699H1408.33V361.262H1430.89ZM1520.04 361.261V236.698H1497.48V361.261H1520.04ZM1567.34 297.1V361.262H1544.78V236.699H1566.4V255.266C1570.94 248.842 1576.9 243.945 1584.26 240.577C1591.63 237.208 1600.01 235.524 1609.41 235.524C1619.12 235.524 1627.74 237.482 1635.26 241.399C1642.78 245.316 1648.58 251.035 1652.65 258.556C1657.35 251.349 1663.9 245.708 1672.28 241.634C1680.66 237.561 1690.1 235.524 1700.6 235.524C1716.27 235.524 1728.68 240.068 1737.85 249.155C1747.02 258.243 1751.6 271.717 1751.6 289.579V361.262H1729.04V292.165C1729.04 280.1 1726.26 271.012 1720.69 264.902C1715.13 258.791 1707.18 255.736 1696.84 255.736C1685.4 255.736 1676.31 259.3 1669.58 266.429C1662.84 273.558 1659.47 283.782 1659.47 297.1V361.262H1636.91V292.165C1636.91 280.1 1634.13 271.012 1628.56 264.902C1623 258.791 1615.05 255.736 1604.71 255.736C1593.27 255.736 1584.18 259.3 1577.45 266.429C1570.71 273.558 1567.34 283.782 1567.34 297.1ZM1834.27 362.672C1844.62 362.672 1853.98 360.948 1862.36 357.501C1870.74 354.054 1877.75 349.041 1883.39 342.46L1870.94 327.888C1861.85 337.916 1849.86 342.93 1834.98 342.93C1822.76 342.93 1812.54 339.6 1804.31 332.941C1796.08 326.282 1791.27 317.469 1789.86 306.501H1890.92C1891.23 303.681 1891.39 301.409 1891.39 299.685C1891.39 287.151 1888.76 276.026 1883.51 266.312C1878.26 256.598 1870.98 249.038 1861.66 243.632C1852.33 238.226 1841.72 235.524 1829.81 235.524C1817.9 235.524 1807.21 238.226 1797.73 243.632C1788.25 249.038 1780.81 256.598 1775.4 266.312C1770 276.026 1767.29 286.916 1767.29 298.98C1767.29 311.202 1770.07 322.169 1775.64 331.884C1781.2 341.598 1789.07 349.158 1799.26 354.564C1809.44 359.969 1821.11 362.672 1834.27 362.672ZM1789.86 290.285H1869.76C1868.51 279.788 1864.24 271.209 1856.95 264.55C1849.67 257.891 1840.62 254.562 1829.81 254.562C1819 254.562 1809.95 257.852 1802.66 264.433C1795.38 271.013 1791.11 279.631 1789.86 290.285Z" fill="white"/>
<path fill-rule="evenodd" clip-rule="evenodd" d="M258.491 90.5372C279.494 81.6516 299.568 83.1832 313.653 87.1599C321.738 89.4428 328.564 92.2651 339.02 100.975C349.475 109.684 354.935 122.305 351.107 121.545C350.772 121.478 350.441 121.412 350.111 121.346L350.092 121.343C344.542 120.237 339.625 119.257 332.428 118.587C324.797 117.876 314.279 118.79 310.365 119.204C291.905 121.159 279.866 128.706 270.561 134.56C254.594 144.606 238.533 160.744 226.094 177.938C215.347 192.792 203.752 213.185 194.648 237.95C189.86 250.971 186.443 265.759 186.443 276.083C186.443 281.475 186.846 289.743 190.868 297.871C198.294 283.569 210.91 259.577 220.298 243.316C235.593 216.825 256.714 182.907 282.84 166.455C311.471 148.426 347.658 148.256 379.952 166.901C399.273 178.056 408.761 189.104 426.386 212.387C436.916 226.297 444.236 240.15 451.29 253.5C452.746 256.256 454.191 258.989 455.65 261.698C458.66 267.286 464.941 281.02 471.718 304.586C478.495 328.152 479.49 354.599 477.754 368.594C474.948 391.226 463.585 407.844 453.098 418.054C447.078 423.915 441.221 428.415 428.451 433.115C415.68 437.815 402.02 436.233 404.593 433.298C404.822 433.036 405.049 432.777 405.275 432.52C409.008 428.266 412.315 424.498 416.494 418.601C420.925 412.347 425.392 402.781 426.99 399.185C434.528 382.22 434.012 368.021 433.594 357.035C432.877 338.184 426.932 316.206 418.262 296.837C410.771 280.102 398.907 259.865 382.013 239.598C373.13 228.941 362.032 218.587 353.091 213.425C348.603 210.835 341.629 207.237 333.059 206.446C341.708 219.986 356.329 243.136 365.789 259.522C381.084 286.014 399.897 321.264 401.081 352.116C402.379 385.926 384.434 417.349 352.14 435.994C332.819 447.149 318.507 449.841 289.531 453.464C272.22 455.629 256.562 455.041 241.473 454.475C238.359 454.358 235.27 454.243 232.194 454.152C225.85 453.965 210.815 452.537 187.018 446.623C163.221 440.709 139.82 428.347 128.568 419.847C110.371 406.1 101.66 387.95 98.0618 373.764C95.9961 365.62 95.0273 358.298 97.3423 344.888C99.6574 331.479 107.857 320.439 109.113 324.136C109.225 324.465 109.335 324.791 109.445 325.115C111.263 330.475 112.873 335.223 115.891 341.79C119.091 348.755 125.141 357.406 127.457 360.589C138.38 375.598 150.935 382.251 160.658 387.383C177.341 396.187 199.348 402.028 220.457 404.203C238.695 406.083 262.153 405.928 288.152 401.431C301.823 399.066 316.338 394.631 325.279 389.469C330.043 386.718 337.191 382.107 342.24 374.279C326.379 374.998 298.12 376.14 278.726 376.14C248.136 376.14 208.202 374.807 180.891 360.407C150.962 344.626 132.721 313.373 132.721 276.083C132.721 253.773 137.546 240.032 148.896 213.127C155.677 197.052 164.015 183.786 172.049 171.002L172.049 171.002L172.05 171.001C173.708 168.363 175.353 165.746 176.968 163.128C180.303 157.727 189.057 145.421 206.077 127.769C223.097 110.117 245.503 96.0317 258.491 90.5372ZM341.056 323.607C339.451 319.974 337.541 316.15 335.295 312.126C315.513 276.692 298.053 246.88 288.992 231.575C286.375 235.066 283.741 239 281.101 243.423C260.817 277.415 244.061 306.819 235.153 322.629C239.225 323.084 243.637 323.36 248.416 323.429C288.789 324.011 323.192 323.801 341.056 323.607Z" fill="white"/>
</svg>
