<?xml version="1.0" encoding="utf-8"?>
<!-- Generator: Adobe Illustrator 27.1.1, SVG Export Plug-In . SVG Version: 6.00 Build 0)  -->
<svg version="1.1" id="Layer_1" xmlns="http://www.w3.org/2000/svg" xmlns:xlink="http://www.w3.org/1999/xlink" x="0px" y="0px"
	 viewBox="0 0 141 146" style="enable-background:new 0 0 141 146;" xml:space="preserve">
<style type="text/css">
	.st0{fill:url(#SVGID_1_);stroke:url(#SVGID_00000145039674417064970570000004051544645211066297_);stroke-width:2;}
	.st1{fill:url(#SVGID_00000029724190761760829390000009748841278244185995_);}
	.st2{fill:url(#SVGID_00000182508424649512600160000015828982629820739728_);}
</style>
<linearGradient id="SVGID_1_" gradientUnits="userSpaceOnUse" x1="70.5558" y1="110.7578" x2="70.5558" y2="42.754" gradientTransform="matrix(1 0 0 -1 0 148)">
	<stop  offset="0" style="stop-color:#B2B2FF"/>
	<stop  offset="0.5" style="stop-color:#FFBA94"/>
	<stop  offset="1" style="stop-color:#FF89BD"/>
</linearGradient>
<linearGradient id="SVGID_00000075154280583661886250000014615994829442039201_" gradientUnits="userSpaceOnUse" x1="70.5558" y1="110.7578" x2="70.5558" y2="42.754" gradientTransform="matrix(1 0 0 -1 0 148)">
	<stop  offset="0" style="stop-color:#B2B2FF"/>
	<stop  offset="0.5" style="stop-color:#FFBA94"/>
	<stop  offset="1" style="stop-color:#FF89BD"/>
</linearGradient>
<path style="fill:url(#SVGID_1_);stroke:url(#SVGID_00000075154280583661886250000014615994829442039201_);stroke-width:2;" d="
	M57.51,77.58l-10.32,24.03l0,0c-0.61,1.41-0.17,3.06,1.07,3.98c0.59,0.44,1.29,0.66,1.99,0.66c0.76,0,1.51-0.26,2.12-0.77l0,0
	l42.57-35.37l0,0c1.08-0.89,1.48-2.37,1-3.69l0,0c-0.48-1.32-1.73-2.19-3.13-2.19H80.9l7.49-23.66l0,0c0.46-1.44-0.12-3.01-1.4-3.82
	l0,0c-1.28-0.81-2.95-0.64-4.05,0.39L46.02,71.83c-0.99,0.93-1.32,2.38-0.81,3.65c0.5,1.27,1.73,2.1,3.09,2.1H57.51z M76.36,70.88
	h7.25L58.76,91.53l6.86-15.96c0.44-1.03,0.34-2.21-0.28-3.14h0c-0.61-0.93-1.66-1.5-2.78-1.5h-5.87L78.2,50.72l-5.01,15.83l0,0
	c-0.32,1.01-0.14,2.11,0.49,2.97C74.31,70.37,75.3,70.88,76.36,70.88z"/>
<linearGradient id="SVGID_00000165200707679604794980000003893965592263687072_" gradientUnits="userSpaceOnUse" x1="70.559" y1="136.1113" x2="70.559" y2="9.56">
	<stop  offset="0" style="stop-color:#B2B2FF"/>
	<stop  offset="0.5" style="stop-color:#FFBA94"/>
	<stop  offset="1" style="stop-color:#FF89BD"/>
</linearGradient>
<path style="fill:url(#SVGID_00000165200707679604794980000003893965592263687072_);" d="M139.91,70.35
	C139.91,32.11,108.8,1,70.56,1C32.32,1,1.21,32.11,1.21,70.35c0,30.74,20.6,58.14,50.11,66.64c1.77,0.51,3.61-0.51,4.12-2.27
	c0.51-1.77-0.51-3.61-2.27-4.11l0,0C26.49,122.92,7.86,98.14,7.86,70.35c0-34.57,28.13-62.7,62.7-62.7c34.57,0,62.7,28.13,62.7,62.7
	c0,33-25.64,60.11-58.04,62.51c0.83-1.45,0.47-3.31-0.9-4.32l0,0c-1.48-1.09-3.56-0.77-4.65,0.71c0,0,0,0,0,0l-3.78,5.15l0,0
	c-0.89,1.21-0.86,2.86,0.07,4.03h0l3.95,4.98h0c0.66,0.83,1.63,1.26,2.61,1.26c0.72,0,1.45-0.23,2.06-0.72h0
	c1.36-1.08,1.64-3.01,0.69-4.44C111.32,137.09,139.91,107,139.91,70.35z"/>
<linearGradient id="SVGID_00000091710365121179915300000012964843655918768522_" gradientUnits="userSpaceOnUse" x1="70.5536" y1="119.2986" x2="70.5536" y2="16.7215">
	<stop  offset="0" style="stop-color:#B2B2FF"/>
	<stop  offset="0.5" style="stop-color:#FFBA94"/>
	<stop  offset="1" style="stop-color:#FF89BD"/>
</linearGradient>
<path style="fill:url(#SVGID_00000091710365121179915300000012964843655918768522_);" d="M85.58,16.49c-1.77-0.5-3.6,0.55-4.1,2.31
	l0,0c-0.49,1.77,0.54,3.6,2.31,4.09c21.2,5.9,36.01,25.42,36.01,47.45c0,27.15-22.09,49.25-49.25,49.25
	c-27.15,0-49.25-22.09-49.25-49.25c0-26.29,20.7-47.83,46.66-49.18l-0.01,0.01h0c-1.14,1.44-0.9,3.53,0.54,4.67h0
	c0.61,0.49,1.34,0.72,2.06,0.72c0.98,0,1.95-0.43,2.61-1.26h0l3.95-4.98h0c0.93-1.18,0.96-2.83,0.07-4.03l0,0l-3.78-5.15
	c0,0,0,0,0,0c-1.09-1.48-3.17-1.8-4.65-0.71l0,0c-1.3,0.96-1.7,2.68-1.04,4.09C38.21,16,14.66,40.47,14.66,70.34
	c0,30.82,25.07,55.9,55.9,55.9c30.82,0,55.9-25.08,55.9-55.9C126.45,45.33,109.65,23.19,85.58,16.49z"/>
</svg>
