<svg width="45" height="45" viewBox="0 0 45 45" fill="none" xmlns="http://www.w3.org/2000/svg">
<g id="fi_951681">
<g id="Group">
<g id="Group_2">
<path id="Vector" d="M40.9864 9.02758H30.9097L30.4104 5.59896C30.1919 4.09955 28.8846 2.96875 27.3693 2.96875H17.6308C16.1154 2.96875 14.8081 4.09955 14.5897 5.59914L14.0904 9.02758H4.0137C1.80053 9.02758 0 10.8281 0 13.0412V38.0129C0 40.226 1.80053 42.0266 4.0137 42.0266H40.9864C43.1995 42.0266 45 40.226 45 38.0129V13.0412C45 10.8281 43.1995 9.02758 40.9864 9.02758ZM17.2092 5.98059C17.2394 5.77264 17.4207 5.61584 17.6309 5.61584H27.3694C27.5796 5.61584 27.7609 5.77272 27.7911 5.98059L28.2349 9.02758H16.7654L17.2092 5.98059ZM42.353 38.0129C42.353 38.7664 41.74 39.3796 40.9864 39.3796H4.0137C3.26013 39.3796 2.647 38.7665 2.647 38.0129V25.3966C3.81173 26.3065 5.2752 26.8508 6.86443 26.8508H17.2056V28.1449C17.2056 28.6338 17.475 29.0828 17.9063 29.3127L21.8771 31.4304C22.0718 31.5342 22.2858 31.5861 22.5 31.5861C22.7141 31.5861 22.9282 31.5343 23.1229 31.4304L27.0937 29.3127C27.525 29.0827 27.7944 28.6338 27.7944 28.1449V26.8509H38.1356C39.7247 26.8509 41.1883 26.3066 42.353 25.3967V38.0129ZM19.8527 27.3508V23.5274H25.1474V27.3508L22.5 28.7627L19.8527 27.3508ZM42.353 19.9864C42.353 22.3119 40.4611 24.2038 38.1356 24.2038H27.7944V22.2038C27.7944 21.4729 27.2018 20.8802 26.4708 20.8802H18.5292C17.7983 20.8802 17.2056 21.4728 17.2056 22.2038V24.2038H6.86443C4.53894 24.2039 2.647 22.312 2.647 19.9865V13.0412C2.647 12.3818 3.11643 11.8301 3.73852 11.7024C3.82737 11.6842 3.91939 11.6747 4.01361 11.6747H40.9863C41.0805 11.6747 41.1725 11.6842 41.2613 11.7024C41.8835 11.8301 42.3528 12.3819 42.3528 13.0412V19.9864H42.353Z" fill="white"/>
</g>
</g>
</g>
</svg>
