<?xml version="1.0" encoding="utf-8"?>
<!-- Generator: Adobe Illustrator 27.1.1, SVG Export Plug-In . SVG Version: 6.00 Build 0)  -->
<svg version="1.1" id="Layer_1" xmlns="http://www.w3.org/2000/svg" xmlns:xlink="http://www.w3.org/1999/xlink" x="0px" y="0px"
	 viewBox="0 0 168 160" style="enable-background:new 0 0 168 160;" xml:space="preserve">
<style type="text/css">
	.st0{fill:url(#SVGID_1_);}
	.st1{fill:url(#SVGID_00000041271189092030460790000004397596791768355480_);}
	.st2{fill:url(#SVGID_00000100361522195538084040000000175243624286826670_);}
	.st3{fill:url(#SVGID_00000183217865776053136850000017826884454692070276_);}
</style>
<linearGradient id="SVGID_1_" gradientUnits="userSpaceOnUse" x1="76.2032" y1="153.2812" x2="76.2032" y2="26.213" gradientTransform="matrix(1 0 0 -1 0 162)">
	<stop  offset="0" style="stop-color:#B2B2FF"/>
	<stop  offset="0.5" style="stop-color:#FFBA94"/>
	<stop  offset="1" style="stop-color:#FF89BD"/>
</linearGradient>
<path class="st0" d="M76.2,135.79H21.43c-6.47,0-11.74-5.03-11.74-11.21V19.93c0-6.18,5.26-11.21,11.74-11.21h109.54
	c6.47,0,11.74,5.03,11.74,11.21V88.3c0,2.06-1.75,3.74-3.91,3.74c-2.16,0-3.91-1.67-3.91-3.74V19.93c0-2.06-1.75-3.74-3.91-3.74
	H21.43c-2.16,0-3.91,1.68-3.91,3.74v104.64c0,2.06,1.75,3.74,3.91,3.74H76.2c2.16,0,3.91,1.67,3.91,3.74
	C80.12,134.11,78.36,135.79,76.2,135.79z"/>
<linearGradient id="SVGID_00000126325218415619131530000001428060833491398588_" gradientUnits="userSpaceOnUse" x1="77.5087" y1="118.345" x2="77.5087" y2="26.1562">
	<stop  offset="0" style="stop-color:#B2B2FF"/>
	<stop  offset="0.5" style="stop-color:#FFBA94"/>
	<stop  offset="1" style="stop-color:#FF89BD"/>
</linearGradient>
<path style="fill:url(#SVGID_00000126325218415619131530000001428060833491398588_);" d="M120.91,56.73l-24,16.05l-10.86-6.23
	c-0.94-0.54-2.06-0.68-3.11-0.38c-1.05,0.29-1.92,0.99-2.41,1.92L69.19,89.76l-8.2-24.62l15.83-13.34l18.51,8.84
	c1.28,0.61,2.82,0.51,3.99-0.28l26.08-17.44c1.77-1.18,2.2-3.51,0.96-5.21c-1.24-1.69-3.68-2.1-5.45-0.92L96.73,52.96l-18.78-8.97
	c-1.43-0.68-3.14-0.47-4.34,0.54L58.4,57.36l-4.55-13.65c-0.4-1.19-1.4-2.12-2.66-2.46c-1.26-0.34-2.62-0.06-3.62,0.76l-11.8,9.66
	V29.89c0-2.06-1.75-3.74-3.91-3.74c-2.16,0-3.91,1.67-3.91,3.74v84.71c0,2.07,1.75,3.74,3.91,3.74H73.6c2.16,0,3.91-1.67,3.91-3.74
	c0-2.06-1.75-3.74-3.91-3.74H35.78V86.4l18.8-15.85l10.07,30.24c0.48,1.45,1.84,2.48,3.42,2.59c0.1,0.01,0.2,0.01,0.31,0.01
	c1.47,0,2.83-0.79,3.5-2.07l13.76-26.29l9.42,5.4c1.32,0.76,2.99,0.7,4.26-0.14l26.08-17.44c1.77-1.18,2.2-3.51,0.96-5.21
	C125.12,55.97,122.68,55.55,120.91,56.73z M35.78,76.43V61.52l12.41-10.16l3.8,11.41L35.78,76.43z"/>
<linearGradient id="SVGID_00000090983034732748440310000016301585101558943677_" gradientUnits="userSpaceOnUse" x1="121.2068" y1="82.2422" x2="121.2068" y2="11.26" gradientTransform="matrix(1 0 0 -1 0 162)">
	<stop  offset="0" style="stop-color:#B2B2FF"/>
	<stop  offset="0.5" style="stop-color:#FFBA94"/>
	<stop  offset="1" style="stop-color:#FF89BD"/>
</linearGradient>
<path style="fill:url(#SVGID_00000090983034732748440310000016301585101558943677_);" d="M121.21,150.74
	c-20.49,0-37.15-15.92-37.15-35.49c0-19.57,16.67-35.49,37.15-35.49s37.15,15.92,37.15,35.49
	C158.36,134.82,141.69,150.74,121.21,150.74z M121.21,87.23c-16.17,0-29.33,12.57-29.33,28.02c0,15.45,13.16,28.02,29.33,28.02
	s29.33-12.57,29.33-28.02C150.54,99.8,137.38,87.23,121.21,87.23z"/>
<linearGradient id="SVGID_00000148620274967593700670000001314220567101020337_" gradientUnits="userSpaceOnUse" x1="121.2055" y1="138.912" x2="121.2055" y2="91.5781">
	<stop  offset="0" style="stop-color:#B2B2FF"/>
	<stop  offset="0.5" style="stop-color:#FFBA94"/>
	<stop  offset="1" style="stop-color:#FF89BD"/>
</linearGradient>
<path style="fill:url(#SVGID_00000148620274967593700670000001314220567101020337_);" d="M121.87,111.56
	c-0.05-0.01-4.58-0.92-4.58-3.04v-0.33c0-1.61,1.77-2.97,3.88-2.98c0.01,0,0.02,0,0.04,0c0.01,0,0.02,0,0.04,0
	c1.22,0.01,2.32,0.62,2.69,1.49c0.81,1.91,3.09,2.83,5.1,2.05c2-0.78,2.96-2.96,2.15-4.87c-1.08-2.54-3.33-4.5-6.06-5.47v-3.09
	c0-2.06-1.75-3.74-3.91-3.74s-3.91,1.67-3.91,3.74v3.02c-4.55,1.44-7.83,5.31-7.83,9.85v0.33c0,6.82,6.97,9.75,11.07,10.41
	c0.05,0.01,4.58,0.91,4.58,3.04v0.33c0,1.62-1.79,2.99-3.91,2.99c-1.23,0-2.36-0.61-2.73-1.49c-0.81-1.91-3.1-2.84-5.1-2.05
	c-2,0.78-2.97,2.96-2.15,4.87c1.08,2.54,3.33,4.5,6.07,5.48v3.09c0,2.07,1.75,3.74,3.91,3.74s3.91-1.67,3.91-3.74v-3.03
	c4.55-1.44,7.82-5.31,7.82-9.85v-0.33C132.94,115.14,125.97,112.21,121.87,111.56z"/>
</svg>
