<svg width="150" height="143" viewBox="0 0 150 143" fill="none" xmlns="http://www.w3.org/2000/svg">
<path d="M67.2033 127.787H12.432C5.96001 127.787 0.695312 122.758 0.695312 116.575V11.9306C0.695312 5.74803 5.96001 0.71875 12.432 0.71875H121.975C128.447 0.71875 133.711 5.74803 133.711 11.9306V80.2981C133.711 82.3626 131.96 84.0354 129.799 84.0354C127.638 84.0354 125.887 82.3626 125.887 80.2981V11.9306C125.887 9.86977 124.132 8.19335 121.975 8.19335H12.432C10.2747 8.19335 8.51978 9.86977 8.51978 11.9306V116.575C8.51978 118.636 10.2747 120.312 12.432 120.312H67.2033C69.3645 120.312 71.1155 121.985 71.1155 124.05C71.1155 126.114 69.3645 127.787 67.2033 127.787Z" fill="url(#paint0_linear_950_9837)"/>
<path d="M64.5959 110.345H22.8654C20.7042 110.345 18.9531 108.673 18.9531 106.608V21.8935C18.9531 19.829 20.7042 18.1562 22.8654 18.1562C25.0265 18.1562 26.7776 19.829 26.7776 21.8935V102.871H64.5959C66.757 102.871 68.5081 104.544 68.5081 106.608C68.5081 108.673 66.757 110.345 64.5959 110.345Z" fill="url(#paint1_linear_950_9837)"/>
<path d="M22.8668 80.4467C21.7831 80.4467 20.7057 80.0197 19.9314 79.1815C18.5025 77.634 18.6566 75.2727 20.2778 73.9065L64.6165 36.5335C65.8123 35.5274 67.5277 35.3132 68.9541 35.9933L87.7346 44.9643L111.907 28.7998C113.679 27.6173 116.119 28.0297 117.357 29.7183C118.596 31.4093 118.165 33.7402 116.395 34.924L90.3134 52.3647C89.1367 53.1518 87.6034 53.2589 86.3197 52.6457L67.8143 43.8061L25.4534 79.5124C24.7109 80.1389 23.7863 80.4467 22.8668 80.4467Z" fill="url(#paint2_linear_950_9837)"/>
<path d="M59.3809 95.3989C59.279 95.3989 59.1784 95.3953 59.0752 95.388C57.4884 95.27 56.1347 94.2444 55.652 92.7943L39.1855 43.3566L25.4111 54.6342C23.7721 55.9772 21.3015 55.7984 19.8955 54.229C18.4883 52.6621 18.6793 50.3032 20.3196 48.9601L38.5767 34.0109C39.5726 33.1921 40.9302 32.9087 42.1922 33.253C43.4543 33.596 44.4527 34.5206 44.85 35.7153L60.187 81.7612L71.5289 60.0905C72.0166 59.1598 72.889 58.4651 73.9345 58.1732C74.9801 57.8824 76.1059 58.0223 77.0419 58.5576L87.905 64.7852L111.907 48.735C113.678 47.5501 116.118 47.9662 117.356 49.6535C118.595 51.3446 118.165 53.6755 116.395 54.8592L90.3132 72.3C89.0448 73.1467 87.3803 73.2039 86.0559 72.4423L76.6383 67.0432L62.8792 93.3332C62.2132 94.6058 60.853 95.3989 59.3809 95.3989Z" fill="url(#paint3_linear_950_9837)"/>
<path d="M112.207 142.74C91.7212 142.74 75.0547 126.818 75.0547 107.249C75.0547 87.6791 91.7212 71.7578 112.207 71.7578C132.693 71.7578 149.359 87.6791 149.359 107.249C149.359 126.818 132.693 142.74 112.207 142.74ZM112.207 79.2324C96.0358 79.2324 82.8792 91.8008 82.8792 107.249C82.8792 122.697 96.0358 135.265 112.207 135.265C128.378 135.265 141.535 122.697 141.535 107.249C141.535 91.8008 128.378 79.2324 112.207 79.2324Z" fill="url(#paint4_linear_950_9837)"/>
<path d="M112.205 124.755C107.8 124.755 103.79 122.284 102.226 118.608C101.412 116.695 102.376 114.515 104.377 113.738C106.377 112.957 108.661 113.88 109.475 115.793C109.847 116.669 110.97 117.281 112.205 117.281C114.326 117.281 116.118 115.913 116.118 114.294V113.965C116.118 111.839 111.587 110.933 111.541 110.924C107.443 110.272 100.469 107.341 100.469 100.518V100.188C100.469 94.4201 105.733 89.7266 112.205 89.7266C116.609 89.7266 120.62 92.1974 122.185 95.8751C122.998 97.7875 122.034 99.9676 120.034 100.745C118.027 101.52 115.75 100.601 114.936 98.6902C114.563 97.8131 113.441 97.2011 112.205 97.2011C110.085 97.2011 108.293 98.5686 108.293 100.188V100.517C108.293 102.644 112.824 103.55 112.87 103.559C116.968 104.211 123.942 107.142 123.942 113.965V114.294C123.942 120.062 118.677 124.755 112.205 124.755Z" fill="url(#paint5_linear_950_9837)"/>
<path d="M112.209 97.2073C110.048 97.2073 108.297 95.5345 108.297 93.47V87.3154C108.297 85.2509 110.048 83.5781 112.209 83.5781C114.37 83.5781 116.121 85.2509 116.121 87.3154V93.47C116.121 95.5345 114.37 97.2073 112.209 97.2073Z" fill="url(#paint6_linear_950_9837)"/>
<path d="M112.209 130.912C110.048 130.912 108.297 129.239 108.297 127.174V121.019C108.297 118.954 110.048 117.281 112.209 117.281C114.37 117.281 116.121 118.954 116.121 121.019V127.174C116.121 129.239 114.37 130.912 112.209 130.912Z" fill="url(#paint7_linear_950_9837)"/>
<defs>
<linearGradient id="paint0_linear_950_9837" x1="67.2033" y1="0.71875" x2="67.2033" y2="127.787" gradientUnits="userSpaceOnUse">
<stop stop-color="#B2B2FF"/>
<stop offset="0.5" stop-color="#FFBA94"/>
<stop offset="1" stop-color="#FF89BD"/>
</linearGradient>
<linearGradient id="paint1_linear_950_9837" x1="43.7306" y1="18.1562" x2="43.7306" y2="110.345" gradientUnits="userSpaceOnUse">
<stop stop-color="#B2B2FF"/>
<stop offset="0.5" stop-color="#FFBA94"/>
<stop offset="1" stop-color="#FF89BD"/>
</linearGradient>
<linearGradient id="paint2_linear_950_9837" x1="68.5086" y1="28.125" x2="68.5086" y2="80.4467" gradientUnits="userSpaceOnUse">
<stop stop-color="#B2B2FF"/>
<stop offset="0.5" stop-color="#FFBA94"/>
<stop offset="1" stop-color="#FF89BD"/>
</linearGradient>
<linearGradient id="paint3_linear_950_9837" x1="68.5085" y1="33.1094" x2="68.5085" y2="95.399" gradientUnits="userSpaceOnUse">
<stop stop-color="#B2B2FF"/>
<stop offset="0.5" stop-color="#FFBA94"/>
<stop offset="1" stop-color="#FF89BD"/>
</linearGradient>
<linearGradient id="paint4_linear_950_9837" x1="112.207" y1="71.7578" x2="112.207" y2="142.74" gradientUnits="userSpaceOnUse">
<stop stop-color="#B2B2FF"/>
<stop offset="0.5" stop-color="#FFBA94"/>
<stop offset="1" stop-color="#FF89BD"/>
</linearGradient>
<linearGradient id="paint5_linear_950_9837" x1="112.205" y1="89.7266" x2="112.205" y2="124.755" gradientUnits="userSpaceOnUse">
<stop stop-color="#B2B2FF"/>
<stop offset="0.5" stop-color="#FFBA94"/>
<stop offset="1" stop-color="#FF89BD"/>
</linearGradient>
<linearGradient id="paint6_linear_950_9837" x1="112.209" y1="83.5781" x2="112.209" y2="97.2073" gradientUnits="userSpaceOnUse">
<stop stop-color="#B2B2FF"/>
<stop offset="0.5" stop-color="#FFBA94"/>
<stop offset="1" stop-color="#FF89BD"/>
</linearGradient>
<linearGradient id="paint7_linear_950_9837" x1="112.209" y1="117.281" x2="112.209" y2="130.912" gradientUnits="userSpaceOnUse">
<stop stop-color="#B2B2FF"/>
<stop offset="0.5" stop-color="#FFBA94"/>
<stop offset="1" stop-color="#FF89BD"/>
</linearGradient>
</defs>
</svg>
