<svg xmlns="http://www.w3.org/2000/svg" width="33" height="32" viewBox="0 0 33 32" fill="none">
  <g clip-path="url(#clip0_37_11361)" filter="url(#filter0_d_37_11361)">
    <path fill-rule="evenodd" clip-rule="evenodd" d="M26.5 13C26.5 19.6274 21.1274 25 14.5 25C7.87258 25 2.5 19.6274 2.5 13C2.5 6.37258 7.87258 1 14.5 1C21.1274 1 26.5 6.37258 26.5 13ZM8.71625 10.1822H11.326C11.4419 10.1822 11.5357 10.2761 11.5357 10.3919V18.7759C11.5357 18.8918 11.4419 18.9856 11.326 18.9856H8.71625C8.60043 18.9856 8.50658 18.8918 8.50658 18.7759V10.3919C8.50658 10.2761 8.60043 10.1822 8.71625 10.1822ZM10.0221 6.01426C9.0725 6.01426 8.29996 6.78596 8.29996 7.7345C8.29996 8.68345 9.0725 9.45544 10.0221 9.45544C10.9709 9.45544 11.7428 8.68341 11.7428 7.7345C11.7429 6.78596 10.9709 6.01426 10.0221 6.01426ZM15.6712 10.9364C16.1411 10.4244 16.916 9.97381 17.9642 9.97381C20.9036 9.97381 21.3 12.0986 21.3 14.1772V18.776C21.3 18.8918 21.2061 18.9857 21.0903 18.9857H18.4853C18.3694 18.9857 18.2756 18.8918 18.2756 18.776V14.6997C18.2756 13.5584 18.1912 12.6854 17.13 12.6854C16.1556 12.6854 15.7759 13.2299 15.7759 14.6278V18.7759C15.7759 18.8918 15.6821 18.9856 15.5662 18.9856H12.9622C12.8464 18.9856 12.7525 18.8918 12.7525 18.7759V10.3919C12.7525 10.2761 12.8464 10.1822 12.9622 10.1822H15.4615C15.5773 10.1822 15.6712 10.2761 15.6712 10.3919V10.9364Z" fill="url(#paint0_linear_37_11361)"/>
  </g>
  <defs>
    <filter id="filter0_d_37_11361" x="0.5" y="0" width="32" height="32" filterUnits="userSpaceOnUse" color-interpolation-filters="sRGB">
      <feFlood flood-opacity="0" result="BackgroundImageFix"/>
      <feColorMatrix in="SourceAlpha" type="matrix" values="0 0 0 0 0 0 0 0 0 0 0 0 0 0 0 0 0 0 127 0" result="hardAlpha"/>
      <feOffset dx="2" dy="3"/>
      <feGaussianBlur stdDeviation="2"/>
      <feColorMatrix type="matrix" values="0 0 0 0 0.0915097 0 0 0 0 0.0697569 0 0 0 0 0.341667 0 0 0 0.25 0"/>
      <feBlend mode="normal" in2="BackgroundImageFix" result="effect1_dropShadow_37_11361"/>
      <feBlend mode="normal" in="SourceGraphic" in2="effect1_dropShadow_37_11361" result="shape"/>
    </filter>
    <linearGradient id="paint0_linear_37_11361" x1="26.5" y1="25" x2="26.5" y2="1" gradientUnits="userSpaceOnUse">
      <stop stop-color="#BABAFE"/>
      <stop offset="0.507835" stop-color="#FA91BF"/>
      <stop offset="1" stop-color="#FEC2A5"/>
    </linearGradient>
    <clipPath id="clip0_37_11361">
      <rect width="24" height="24" fill="white" transform="translate(2.5 1)"/>
    </clipPath>
  </defs>
</svg>