<svg width="24" height="24" viewBox="0 0 24 24" fill="none" xmlns="http://www.w3.org/2000/svg">
<g id="Twitter logo">
<g clip-path="url(#clip0_37_8782)">
<path id="Exclude" fill-rule="evenodd" clip-rule="evenodd" d="M24 12C24 18.6274 18.6274 24 12 24C5.37258 24 0 18.6274 0 12C0 5.37258 5.37258 0 12 0C18.6274 0 24 5.37258 24 12ZM17.8808 7.72366C18.5199 7.64734 19.1279 7.47755 19.6939 7.22638C19.2695 7.86111 18.7354 8.4152 18.1167 8.8627C18.1233 8.99815 18.1263 9.13408 18.1263 9.27103C18.1263 13.4425 14.9508 18.2528 9.14455 18.2528C7.36174 18.2528 5.70273 17.7298 4.30547 16.8338C4.55256 16.8636 4.80426 16.8788 5.05893 16.8788C6.53751 16.8788 7.89887 16.374 8.97928 15.527C7.59828 15.5012 6.43243 14.5886 6.0307 13.3349C6.22372 13.3712 6.4213 13.3905 6.62496 13.3905C6.913 13.3905 7.19142 13.3525 7.45672 13.2798C6.01249 12.9897 4.9245 11.7143 4.9245 10.1846V10.1447C5.36287 10.3885 5.85323 10.5239 6.3546 10.5394C5.50767 9.97342 4.95029 9.00723 4.95029 7.91216C4.95029 7.33359 5.10591 6.79133 5.37777 6.32494C6.93471 8.23459 9.26076 9.49135 11.8844 9.6232C11.8309 9.39176 11.8031 9.1507 11.8031 8.90361C11.8031 7.15972 13.2166 5.74682 14.9594 5.74682C15.8674 5.74682 16.6882 6.12984 17.2637 6.74333C17.971 6.60442 18.6491 6.3453 19.2688 5.97724C19.0329 6.71399 18.5331 7.33302 17.8808 7.72366Z" fill="#252948"/>
</g>
</g>
<defs>
<clipPath id="clip0_37_8782">
<rect width="24" height="24" rx="12" fill="white"/>
</clipPath>
</defs>
</svg>
