<svg width="24" height="24" viewBox="0 0 24 24" fill="none" xmlns="http://www.w3.org/2000/svg">
<g id="Linkedin logo/default" clip-path="url(#clip0_37_8769)">
<path id="Exclude" fill-rule="evenodd" clip-rule="evenodd" d="M24 12C24 18.6274 18.6274 24 12 24C5.37258 24 0 18.6274 0 12C0 5.37258 5.37258 0 12 0C18.6274 0 24 5.37258 24 12ZM6.21625 9.18219H8.82603C8.94185 9.18219 9.0357 9.27608 9.0357 9.39186V17.7759C9.0357 17.8918 8.94185 17.9856 8.82603 17.9856H6.21625C6.10043 17.9856 6.00658 17.8918 6.00658 17.7759V9.39186C6.00658 9.27608 6.10043 9.18219 6.21625 9.18219ZM7.52208 5.01426C6.5725 5.01426 5.79996 5.78596 5.79996 6.7345C5.79996 7.68345 6.5725 8.45544 7.52208 8.45544C8.47091 8.45544 9.24282 7.68341 9.24282 6.7345C9.24286 5.78596 8.47091 5.01426 7.52208 5.01426ZM13.1712 9.9364C13.6411 9.42441 14.416 8.97381 15.4642 8.97381C18.4036 8.97381 18.8 11.0986 18.8 13.1772V17.776C18.8 17.8918 18.7061 17.9857 18.5903 17.9857H15.9853C15.8694 17.9857 15.7756 17.8918 15.7756 17.776V13.6997C15.7756 12.5584 15.6912 11.6854 14.63 11.6854C13.6556 11.6854 13.2759 12.2299 13.2759 13.6278V17.7759C13.2759 17.8918 13.1821 17.9856 13.0662 17.9856H10.4622C10.3464 17.9856 10.2525 17.8918 10.2525 17.7759V9.39186C10.2525 9.27608 10.3464 9.18219 10.4622 9.18219H12.9615C13.0773 9.18219 13.1712 9.27608 13.1712 9.39186V9.9364Z" fill="#252948"/>
</g>
<defs>
<clipPath id="clip0_37_8769">
<rect width="24" height="24" fill="white"/>
</clipPath>
</defs>
</svg>
