<svg width="20" height="21" viewBox="0 0 20 21" fill="none" xmlns="http://www.w3.org/2000/svg">
<path d="M0.756899 8.31206L0.756921 8.31197C2.01887 3.24794 7.1479 0.166102 12.211 1.42849L12.211 1.42849C17.2754 2.69088 20.357 7.82021 19.0945 12.884C17.8319 17.9474 12.7029 21.029 7.6382 19.7663C2.57568 18.5039 -0.506217 13.3752 0.756899 8.31206Z" fill="white" stroke="#C4C4C4" stroke-width="0.681761"/>
<path d="M9.70899 2.58594L9.60156 2.95109V13.5469L9.70899 13.6541L14.6274 10.7468L9.70899 2.58594Z" fill="#343434"/>
<path d="M9.7075 2.58594L4.78906 10.7468L9.7075 13.6541V8.51127V2.58594Z" fill="#8C8C8C"/>
<path d="M9.70898 14.5855L9.64844 14.6593V18.4338L9.70898 18.6106L14.6303 11.6797L9.70898 14.5855Z" fill="#3C3C3B"/>
<path d="M9.7075 18.6106V14.5855L4.78906 11.6797L9.7075 18.6106Z" fill="#8C8C8C"/>
<path d="M9.71094 13.6506L14.6293 10.7434L9.71094 8.50781V13.6506Z" fill="#141414"/>
<path d="M4.78906 10.7434L9.70743 13.6506V8.50781L4.78906 10.7434Z" fill="#393939"/>
</svg>
