<svg width="354" height="207" viewBox="0 0 354 207" fill="none" xmlns="http://www.w3.org/2000/svg">
<g filter="url(#filter0_d_1373_10569)">
<mask id="path-1-outside-1_1373_10569" maskUnits="userSpaceOnUse" x="15" y="16" width="324" height="176" fill="black">
<rect fill="white" x="15" y="16" width="324" height="176"/>
<path d="M87.04 79.2C136.72 79.2 156.16 102.24 156.16 132C156.16 162 133.6 189.36 82.96 189.36C59.68 189.36 34.96 183.6 17.92 172.8L34.96 137.04C48.64 146.16 65.44 150.96 81.52 150.96C97.6 150.96 108.4 144.48 108.4 133.2C108.4 122.88 101.44 116.16 75.76 116.16H30.16L38.56 18H145.6V54.72H77.92L75.76 79.2H87.04ZM336.1 186H281.38L246.58 133.92L212.26 186H158.02L219.22 101.04L160.66 18H214.18L247.78 66.48L280.9 18H332.26L273.7 99.12L336.1 186Z"/>
</mask>
<path d="M87.04 79.2C136.72 79.2 156.16 102.24 156.16 132C156.16 162 133.6 189.36 82.96 189.36C59.68 189.36 34.96 183.6 17.92 172.8L34.96 137.04C48.64 146.16 65.44 150.96 81.52 150.96C97.6 150.96 108.4 144.48 108.4 133.2C108.4 122.88 101.44 116.16 75.76 116.16H30.16L38.56 18H145.6V54.72H77.92L75.76 79.2H87.04ZM336.1 186H281.38L246.58 133.92L212.26 186H158.02L219.22 101.04L160.66 18H214.18L247.78 66.48L280.9 18H332.26L273.7 99.12L336.1 186Z" fill="url(#paint0_linear_1373_10569)"/>
<path d="M17.92 172.8L16.1145 171.94C15.6793 172.853 15.9947 173.948 16.8493 174.489L17.92 172.8ZM34.96 137.04L36.0694 135.376C35.5866 135.054 34.9878 134.958 34.4284 135.112C33.869 135.266 33.4041 135.656 33.1545 136.18L34.96 137.04ZM30.16 116.16L28.1673 115.989C28.1195 116.548 28.308 117.1 28.6867 117.513C29.0655 117.925 29.5999 118.16 30.16 118.16V116.16ZM38.56 18V16C37.5215 16 36.6558 16.7948 36.5673 17.8295L38.56 18ZM145.6 18H147.6C147.6 16.8954 146.705 16 145.6 16V18ZM145.6 54.72V56.72C146.705 56.72 147.6 55.8246 147.6 54.72H145.6ZM77.92 54.72V52.72C76.8836 52.72 76.0188 53.5118 75.9277 54.5442L77.92 54.72ZM75.76 79.2L73.7677 79.0242C73.7184 79.583 73.9061 80.1369 74.2849 80.5506C74.6638 80.9644 75.199 81.2 75.76 81.2V79.2ZM87.04 81.2C111.602 81.2 128.348 86.8982 138.929 95.9591C149.465 104.982 154.16 117.573 154.16 132H158.16C158.16 116.667 153.135 102.858 141.531 92.9209C129.972 83.0218 112.158 77.2 87.04 77.2V81.2ZM154.16 132C154.16 146.482 148.726 160.257 137.225 170.432C125.71 180.619 107.927 187.36 82.96 187.36V191.36C108.633 191.36 127.45 184.421 139.875 173.428C152.314 162.423 158.16 147.518 158.16 132H154.16ZM82.96 187.36C59.9444 187.36 35.6257 181.654 18.9907 171.111L16.8493 174.489C34.2943 185.546 59.4156 191.36 82.96 191.36V187.36ZM19.7255 173.66L36.7655 137.9L33.1545 136.18L16.1145 171.94L19.7255 173.66ZM33.8506 138.704C47.8745 148.053 65.0641 152.96 81.52 152.96V148.96C65.8159 148.96 49.4055 144.267 36.0694 135.376L33.8506 138.704ZM81.52 152.96C89.7902 152.96 96.9308 151.299 102.072 147.992C107.294 144.633 110.4 139.589 110.4 133.2H106.4C106.4 138.091 104.106 141.927 99.9079 144.628C95.6292 147.381 89.3298 148.96 81.52 148.96V152.96ZM110.4 133.2C110.4 130.399 109.928 127.714 108.696 125.28C107.454 122.829 105.503 120.753 102.739 119.095C97.3048 115.835 88.6853 114.16 75.76 114.16V118.16C88.5147 118.16 96.2152 119.845 100.681 122.525C102.867 123.837 104.261 125.376 105.127 127.087C106.002 128.816 106.4 130.841 106.4 133.2H110.4ZM75.76 114.16H30.16V118.16H75.76V114.16ZM32.1527 116.331L40.5527 18.1705L36.5673 17.8295L28.1673 115.989L32.1527 116.331ZM38.56 20H145.6V16H38.56V20ZM143.6 18V54.72H147.6V18H143.6ZM145.6 52.72H77.92V56.72H145.6V52.72ZM75.9277 54.5442L73.7677 79.0242L77.7523 79.3758L79.9123 54.8958L75.9277 54.5442ZM75.76 81.2H87.04V77.2H75.76V81.2ZM336.1 186V188C336.85 188 337.537 187.58 337.88 186.913C338.222 186.245 338.162 185.443 337.724 184.833L336.1 186ZM281.38 186L279.717 187.111C280.088 187.667 280.712 188 281.38 188V186ZM246.58 133.92L248.243 132.809C247.871 132.252 247.244 131.918 246.574 131.92C245.903 131.922 245.279 132.26 244.91 132.819L246.58 133.92ZM212.26 186V188C212.932 188 213.56 187.662 213.93 187.101L212.26 186ZM158.02 186L156.397 184.831C155.958 185.44 155.898 186.243 156.24 186.912C156.582 187.58 157.269 188 158.02 188V186ZM219.22 101.04L220.843 102.209C221.341 101.517 221.346 100.585 220.854 99.8874L219.22 101.04ZM160.66 18V16C159.913 16 159.228 16.4163 158.884 17.0795C158.541 17.7426 158.595 18.5421 159.026 19.1526L160.66 18ZM214.18 18L215.824 16.8607C215.45 16.3216 214.836 16 214.18 16V18ZM247.78 66.48L246.136 67.6193C246.511 68.1603 247.128 68.4822 247.787 68.48C248.445 68.4778 249.06 68.1518 249.431 67.6082L247.78 66.48ZM280.9 18V16C280.239 16 279.621 16.3263 279.249 16.8718L280.9 18ZM332.26 18L333.882 19.1706C334.321 18.5617 334.383 17.7579 334.041 17.0893C333.699 16.4207 333.011 16 332.26 16V18ZM273.7 99.12L272.078 97.9494C271.575 98.6468 271.574 99.5881 272.076 100.287L273.7 99.12ZM336.1 184H281.38V188H336.1V184ZM283.043 184.889L248.243 132.809L244.917 135.031L279.717 187.111L283.043 184.889ZM244.91 132.819L210.59 184.899L213.93 187.101L248.25 135.021L244.91 132.819ZM212.26 184H158.02V188H212.26V184ZM159.643 187.169L220.843 102.209L217.597 99.871L156.397 184.831L159.643 187.169ZM220.854 99.8874L162.294 16.8474L159.026 19.1526L217.586 102.193L220.854 99.8874ZM160.66 20H214.18V16H160.66V20ZM212.536 19.1393L246.136 67.6193L249.424 65.3407L215.824 16.8607L212.536 19.1393ZM249.431 67.6082L282.551 19.1282L279.249 16.8718L246.129 65.3518L249.431 67.6082ZM280.9 20H332.26V16H280.9V20ZM330.638 16.8294L272.078 97.9494L275.322 100.291L333.882 19.1706L330.638 16.8294ZM272.076 100.287L334.476 187.167L337.724 184.833L275.324 97.9533L272.076 100.287Z" fill="url(#paint1_linear_1373_10569)" mask="url(#path-1-outside-1_1373_10569)"/>
</g>
<defs>
<filter id="filter0_d_1373_10569" x="0.721874" y="0.799999" width="352.58" height="205.759" filterUnits="userSpaceOnUse" color-interpolation-filters="sRGB">
<feFlood flood-opacity="0" result="BackgroundImageFix"/>
<feColorMatrix in="SourceAlpha" type="matrix" values="0 0 0 0 0 0 0 0 0 0 0 0 0 0 0 0 0 0 127 0" result="hardAlpha"/>
<feOffset/>
<feGaussianBlur stdDeviation="8.6"/>
<feComposite in2="hardAlpha" operator="out"/>
<feColorMatrix type="matrix" values="0 0 0 0 0.364706 0 0 0 0 0.278431 0 0 0 0 1 0 0 0 0.44 0"/>
<feBlend mode="normal" in2="BackgroundImageFix" result="effect1_dropShadow_1373_10569"/>
<feBlend mode="normal" in="SourceGraphic" in2="effect1_dropShadow_1373_10569" result="shape"/>
</filter>
<linearGradient id="paint0_linear_1373_10569" x1="136.765" y1="301.795" x2="217.556" y2="-200.928" gradientUnits="userSpaceOnUse">
<stop stop-color="#AFAFFF"/>
<stop offset="0.34375" stop-color="#FF8FB8"/>
<stop offset="0.723958" stop-color="#FFBB9B"/>
</linearGradient>
<linearGradient id="paint1_linear_1373_10569" x1="112.825" y1="-56.4594" x2="321.489" y2="255.164" gradientUnits="userSpaceOnUse">
<stop stop-color="#3A2D8C"/>
<stop offset="0.505208" stop-color="#571E4B"/>
<stop offset="1" stop-color="#163D59"/>
</linearGradient>
</defs>
</svg>
