<svg width="185" height="158" viewBox="0 0 185 158" fill="none" xmlns="http://www.w3.org/2000/svg">
<g id="fi_9505012" clip-path="url(#clip0_2094_18987)">
<path id="Vector" fill-rule="evenodd" clip-rule="evenodd" d="M162.494 72.9974C176.074 68.0558 181.689 74.968 183.235 77.5494C186.992 83.8225 185.145 92.7782 179.36 96.3398L118.813 133.623C114.596 136.218 109.986 137.532 105.213 137.532C102.853 137.532 100.454 137.211 98.0433 136.565L55.5515 125.18L50.6259 128.023L53.1696 132.517C54.2819 134.483 54.5612 136.769 53.9555 138.954C53.3499 141.139 51.9338 142.955 49.9687 144.067L40.6077 149.365C39.3217 150.093 37.8989 150.464 36.457 150.464C35.6946 150.464 34.9269 150.36 34.1716 150.15C31.9865 149.545 30.1705 148.129 29.0586 146.164L1.53647 97.5355C0.424078 95.5699 0.144866 93.2841 0.750491 91.0994C1.35612 88.9142 2.77221 87.0983 4.73737 85.9863L14.0983 80.6884C16.0639 79.5756 18.3492 79.2968 20.5348 79.9025C22.72 80.5081 24.5355 81.9242 25.6475 83.8893L27.6883 87.4959L51.9846 73.4289C56.4952 70.8172 61.6372 68.3484 67.2686 67.9988C66.0965 63.7073 65.5016 59.2742 65.5016 54.7601C65.5016 27.0768 88.0233 4.55469 115.707 4.55469C143.39 4.55469 165.913 27.0764 165.913 54.7597C165.913 61.0675 164.745 67.2298 162.494 72.9974ZM72.6279 54.7597C72.6279 59.6394 73.4375 64.4051 75.0259 68.9544C75.0718 68.9691 75.1177 68.9812 75.1635 68.9963C76.597 69.4608 78.1992 70.0232 79.899 70.6315C77.7 65.6649 76.5293 60.2548 76.5293 54.7597C76.5293 33.1562 94.1049 15.5806 115.708 15.5806C137.311 15.5806 154.887 33.1567 154.887 54.7597C154.887 66.8005 149.425 77.5886 140.851 84.7813L151.66 78.4859C156.321 71.4389 158.788 63.2549 158.788 54.7601C158.788 31.0054 139.463 11.6797 115.708 11.6797C91.9532 11.6797 72.6279 31.0054 72.6279 54.7597ZM109.001 79.422C109.159 79.4505 109.315 79.4896 109.468 79.5391C113.259 80.7681 116.162 83.4574 117.694 86.746C134.447 85.716 147.762 71.7666 147.762 54.7597C147.762 37.0852 133.383 22.7056 115.708 22.7056C98.0339 22.7056 83.6548 37.0852 83.6548 54.7597C83.6548 61.845 86.0252 68.7581 90.3389 74.3427C96.1525 76.3226 102.552 78.2588 109.001 79.422ZM117.581 97.8521C118.819 97.4549 120.024 96.9121 121.214 96.2187L129.316 91.5002C125.995 92.7341 122.463 93.5308 118.79 93.818C118.719 94.3453 118.618 94.8725 118.477 95.3984C118.243 96.2699 117.943 97.0888 117.581 97.8521ZM46.9695 136.027L19.4478 87.3984C19.2123 86.9816 18.8355 86.8244 18.632 86.7683C18.5416 86.7429 18.4116 86.7175 18.2584 86.7175C18.0669 86.7175 17.8398 86.7576 17.6082 86.8885L8.24733 92.1864C7.61053 92.5471 7.37719 93.3892 7.737 94.026L35.2586 142.655C35.6189 143.291 36.4605 143.524 37.0982 143.165L46.4591 137.867C46.8764 137.631 47.0332 137.255 47.0893 137.051C47.1458 136.847 47.205 136.444 46.9695 136.027ZM158.164 82.9426L124.8 102.376C119.555 105.43 113.92 106.422 107.572 105.406C107.572 105.406 103.303 104.71 103.279 104.705C98.0758 103.641 93.2539 102.264 88.1493 100.806C85.8319 100.145 83.4361 99.4606 80.998 98.8073C79.0974 98.2979 77.9695 96.3447 78.4789 94.4441C78.9888 92.5435 80.9419 91.4174 82.8421 91.925C85.3367 92.5934 87.761 93.2859 90.106 93.9556C95.0223 95.3597 99.67 96.6858 104.548 97.6909C108.371 98.1273 110.742 96.7397 111.595 93.5549C112.398 90.5583 110.632 87.5128 107.474 86.3867C97.4385 84.5466 87.7881 81.0576 80.0214 78.2499C77.3193 77.2733 74.985 76.429 72.9655 75.7744C66.8763 73.7981 60.999 76.4433 55.556 79.5947L31.1987 93.6969L47.1169 121.823L53.2675 118.272C54.086 117.799 55.059 117.671 55.9706 117.916L99.8877 129.683C105.313 131.137 110.422 130.421 115.077 127.556L175.625 90.2729C178.131 88.7299 178.886 84.157 177.122 81.2108C174.535 76.889 167.447 77.5369 158.164 82.9426ZM16.2376 92.9332C14.4109 93.2004 13.1471 94.8975 13.4138 96.7237C13.681 98.5504 15.3781 99.8142 17.2043 99.5474C19.031 99.2802 20.2948 97.5831 20.0281 95.7569C19.7613 93.9307 18.0638 92.666 16.2376 92.9332Z" fill="url(#paint0_linear_2094_18987)"/>
<path id="Vector_2" fill-rule="evenodd" clip-rule="evenodd" d="M112.765 33.3657C114.808 32.4768 116.766 32.628 118.136 33.028C118.921 33.2591 119.585 33.5435 120.602 34.4147C121.62 35.2858 122.154 36.5569 121.775 36.4769L121.68 36.4591C121.137 36.3525 120.663 36.2458 119.964 36.1836C119.223 36.1125 118.197 36.2013 117.817 36.2458C116.024 36.4414 114.852 37.1969 113.946 37.7836C112.394 38.7881 110.834 40.4059 109.618 42.1392C108.575 43.6326 107.445 45.6771 106.557 48.1571C106.092 49.4638 105.756 50.9483 105.756 51.9794C105.756 52.5216 105.799 53.3483 106.187 54.1661C106.911 52.735 108.135 50.326 109.049 48.6904C110.541 46.0326 112.593 42.6281 115.136 40.9837C117.921 39.1792 121.439 39.1614 124.586 41.0281C126.465 42.1481 127.388 43.2592 129.103 45.5882C130.129 46.9838 130.836 48.3704 131.526 49.7127C131.664 49.9882 131.811 50.2638 131.949 50.5305C132.242 51.0905 132.854 52.4683 133.509 54.8328C134.164 57.1973 134.268 59.8462 134.095 61.2507C133.819 63.5174 132.716 65.1885 131.698 66.2107C131.112 66.7974 130.543 67.2508 129.302 67.7219C128.06 68.193 126.732 68.033 126.982 67.7397L127.051 67.6597C127.413 67.233 127.732 66.8508 128.146 66.2641C128.577 65.633 129.008 64.6729 129.164 64.3174C129.897 62.6196 129.845 61.1884 129.81 60.0862C129.741 58.1928 129.164 55.9883 128.319 54.0505C127.586 52.3705 126.439 50.3438 124.792 48.3082C123.93 47.2415 122.844 46.2015 121.982 45.686C121.542 45.4282 120.87 45.0637 120.033 44.9837C120.878 46.3437 122.301 48.6638 123.215 50.3083C124.706 52.9661 126.534 56.5039 126.646 59.5973C126.775 62.9929 125.025 66.1396 121.887 68.0152C120.007 69.1352 118.611 69.4019 115.791 69.7664C114.11 69.9797 112.584 69.9264 111.118 69.8641C110.817 69.8553 110.515 69.8375 110.213 69.8286C109.592 69.8108 108.135 69.6686 105.816 69.073C103.497 68.4775 101.22 67.2419 100.126 66.3885C98.358 65.0107 97.5045 63.1885 97.1596 61.7662C96.9613 60.9484 96.8665 60.2106 97.0906 58.8684C97.3148 57.5262 98.1166 56.415 98.2373 56.7884C98.246 56.8239 98.2632 56.8506 98.2718 56.8861C98.4529 57.4195 98.6081 57.8995 98.9012 58.5573C99.2116 59.2595 99.7979 60.1218 100.031 60.4418C101.091 61.944 102.315 62.6107 103.264 63.1262C104.885 64.0063 107.032 64.5929 109.084 64.8152C110.86 65.0018 113.144 64.9841 115.671 64.5396C116.998 64.2996 118.412 63.8551 119.283 63.3396C119.749 63.064 120.447 62.6018 120.939 61.8107C119.395 61.8818 116.645 61.9973 114.757 61.9973C111.782 61.9973 107.894 61.864 105.238 60.4151C102.324 58.8328 100.548 55.695 100.548 51.9527C100.548 49.7127 101.014 48.3349 102.126 45.6415C102.79 44.0326 103.6 42.6992 104.376 41.4192C104.54 41.1525 104.695 40.8948 104.859 40.6281C105.187 40.0859 106.031 38.8503 107.687 37.0814C109.342 35.3124 111.524 33.8991 112.791 33.348L112.765 33.3657ZM120.801 56.7439C120.645 56.3795 120.456 55.9972 120.24 55.5972C118.317 52.0416 116.619 49.0549 115.731 47.5171C115.472 47.8638 115.222 48.2638 114.964 48.7082C112.989 52.1216 111.36 55.0639 110.489 56.655C110.886 56.6995 111.317 56.7261 111.774 56.735C115.705 56.7973 119.05 56.7706 120.792 56.7528L120.801 56.7439Z" fill="url(#paint1_linear_2094_18987)"/>
</g>
<defs>
<linearGradient id="paint0_linear_2094_18987" x1="92.8147" y1="4.55469" x2="92.8147" y2="150.464" gradientUnits="userSpaceOnUse">
<stop stop-color="#B2B2FF"/>
<stop offset="0.5" stop-color="#FFBA94"/>
<stop offset="1" stop-color="#FF89BD"/>
</linearGradient>
<linearGradient id="paint1_linear_2094_18987" x1="115.565" y1="32.7109" x2="115.565" y2="69.9193" gradientUnits="userSpaceOnUse">
<stop stop-color="#B2B2FF"/>
<stop offset="0.5" stop-color="#FFBA94"/>
<stop offset="1" stop-color="#FF89BD"/>
</linearGradient>
<clipPath id="clip0_2094_18987">
<rect width="185" height="158" fill="white"/>
</clipPath>
</defs>
</svg>
