<svg xmlns="http://www.w3.org/2000/svg" fill="none" viewBox="21.44 37.55 184.75 145.91">
<path fill-rule="evenodd" clip-rule="evenodd" d="M183.494 105.997C197.074 101.056 202.689 107.968 204.235 110.549C207.992 116.823 206.145 125.778 200.36 129.34L139.813 166.623C135.596 169.218 130.986 170.532 126.213 170.532C123.853 170.532 121.454 170.211 119.043 169.565L76.5515 158.18L71.6259 161.023L74.1696 165.517C75.2819 167.483 75.5612 169.769 74.9555 171.954C74.3499 174.139 72.9338 175.955 70.9687 177.067L61.6077 182.365C60.3217 183.093 58.8989 183.464 57.457 183.464C56.6946 183.464 55.9269 183.36 55.1716 183.15C52.9865 182.545 51.1705 181.129 50.0586 179.164L22.5365 130.535C21.4241 128.57 21.1449 126.284 21.7505 124.099C22.3561 121.914 23.7722 120.098 25.7374 118.986L35.0983 113.688C37.0639 112.576 39.3492 112.297 41.5348 112.902C43.72 113.508 45.5355 114.924 46.6475 116.889L48.6883 120.496L72.9846 106.429C77.4952 103.817 82.6372 101.348 88.2686 100.999C87.0965 96.7073 86.5016 92.2742 86.5016 87.7601C86.5016 60.0768 109.023 37.5547 136.707 37.5547C164.39 37.5547 186.913 60.0764 186.913 87.7597C186.913 94.0675 185.745 100.23 183.494 105.997ZM93.6279 87.7597C93.6279 92.6394 94.4375 97.4051 96.0259 101.954C96.0718 101.969 96.1177 101.981 96.1635 101.996C97.597 102.461 99.1992 103.023 100.899 103.631C98.7 98.6649 97.5293 93.2548 97.5293 87.7597C97.5293 66.1562 115.105 48.5806 136.708 48.5806C158.311 48.5806 175.887 66.1567 175.887 87.7597C175.887 99.8005 170.425 110.589 161.851 117.781L172.66 111.486C177.321 104.439 179.788 96.2549 179.788 87.7601C179.788 64.0054 160.463 44.6797 136.708 44.6797C112.953 44.6797 93.6279 64.0054 93.6279 87.7597ZM130.001 112.422C130.159 112.45 130.315 112.49 130.468 112.539C134.259 113.768 137.162 116.457 138.694 119.746C155.447 118.716 168.762 104.767 168.762 87.7597C168.762 70.0852 154.383 55.7056 136.708 55.7056C119.034 55.7056 104.655 70.0852 104.655 87.7597C104.655 94.845 107.025 101.758 111.339 107.343C117.152 109.323 123.552 111.259 130.001 112.422ZM138.581 130.852C139.819 130.455 141.024 129.912 142.214 129.219L150.316 124.5C146.995 125.734 143.463 126.531 139.79 126.818C139.719 127.345 139.618 127.873 139.477 128.398C139.243 129.27 138.943 130.089 138.581 130.852ZM67.9695 169.027L40.4478 120.398C40.2123 119.982 39.8355 119.824 39.632 119.768C39.5416 119.743 39.4116 119.718 39.2584 119.718C39.0669 119.718 38.8398 119.758 38.6082 119.889L29.2473 125.186C28.6105 125.547 28.3772 126.389 28.737 127.026L56.2586 175.655C56.6189 176.291 57.4605 176.524 58.0982 176.165L67.4591 170.867C67.8764 170.631 68.0331 170.255 68.0893 170.051C68.1458 169.847 68.205 169.444 67.9695 169.027ZM179.164 115.943L145.8 135.376C140.555 138.43 134.92 139.422 128.572 138.406C128.572 138.406 124.303 137.71 124.279 137.705C119.076 136.641 114.254 135.264 109.149 133.806C106.832 133.145 104.436 132.461 101.998 131.807C100.097 131.298 98.9695 129.345 99.4789 127.444C99.9888 125.544 101.942 124.417 103.842 124.925C106.337 125.593 108.761 126.286 111.106 126.956C116.022 128.36 120.67 129.686 125.548 130.691C129.371 131.127 131.742 129.74 132.595 126.555C133.398 123.558 131.632 120.513 128.474 119.387C118.439 117.547 108.788 114.058 101.021 111.25C98.3193 110.273 95.985 109.429 93.9655 108.774C87.8763 106.798 81.999 109.443 76.556 112.595L52.1987 126.697L68.1169 154.823L74.2675 151.272C75.086 150.799 76.059 150.671 76.9706 150.916L120.888 162.683C126.313 164.137 131.422 163.421 136.077 160.556L196.625 123.273C199.131 121.73 199.886 117.157 198.122 114.211C195.535 109.889 188.447 110.537 179.164 115.943ZM37.2376 125.933C35.4109 126.2 34.1471 127.897 34.4138 129.724C34.681 131.55 36.3781 132.814 38.2043 132.547C40.031 132.28 41.2948 130.583 41.0281 128.757C40.7613 126.931 39.0638 125.666 37.2376 125.933Z" fill="url(#paint0_linear_949_9764)"/>
<path fill-rule="evenodd" clip-rule="evenodd" d="M133.765 66.3657C135.808 65.4768 137.766 65.628 139.136 66.028C139.921 66.2591 140.585 66.5435 141.602 67.4147C142.62 68.2858 143.154 69.5569 142.775 69.4769L142.68 69.4591C142.137 69.3525 141.663 69.2458 140.964 69.1836C140.223 69.1125 139.197 69.2013 138.817 69.2458C137.024 69.4414 135.852 70.1969 134.946 70.7836C133.394 71.7881 131.834 73.4059 130.618 75.1392C129.575 76.6326 128.445 78.6771 127.557 81.1571C127.092 82.4638 126.756 83.9483 126.756 84.9794C126.756 85.5216 126.799 86.3483 127.187 87.1661C127.911 85.735 129.135 83.326 130.049 81.6904C131.541 79.0326 133.593 75.6281 136.136 73.9837C138.921 72.1792 142.439 72.1614 145.586 74.0281C147.465 75.1481 148.388 76.2592 150.103 78.5882C151.129 79.9838 151.836 81.3704 152.526 82.7127C152.664 82.9882 152.811 83.2638 152.949 83.5305C153.242 84.0905 153.854 85.4683 154.509 87.8328C155.164 90.1973 155.268 92.8462 155.095 94.2507C154.819 96.5174 153.716 98.1885 152.698 99.2107C152.112 99.7974 151.543 100.251 150.302 100.722C149.06 101.193 147.732 101.033 147.982 100.74L148.051 100.66C148.413 100.233 148.732 99.8508 149.146 99.2641C149.577 98.633 150.008 97.6729 150.164 97.3174C150.897 95.6196 150.845 94.1884 150.81 93.0862C150.741 91.1928 150.164 88.9883 149.319 87.0505C148.586 85.3705 147.439 83.3438 145.792 81.3082C144.93 80.2415 143.844 79.2015 142.982 78.686C142.542 78.4282 141.87 78.0637 141.033 77.9837C141.878 79.3437 143.301 81.6638 144.215 83.3083C145.706 85.9661 147.534 89.5039 147.646 92.5973C147.775 95.9929 146.025 99.1396 142.887 101.015C141.007 102.135 139.611 102.402 136.791 102.766C135.11 102.98 133.584 102.926 132.118 102.864C131.817 102.855 131.515 102.837 131.213 102.829C130.592 102.811 129.135 102.669 126.816 102.073C124.497 101.477 122.22 100.242 121.126 99.3885C119.358 98.0107 118.504 96.1885 118.16 94.7662C117.961 93.9484 117.866 93.2106 118.091 91.8684C118.315 90.5262 119.117 89.415 119.237 89.7884C119.246 89.8239 119.263 89.8506 119.272 89.8861C119.453 90.4195 119.608 90.8995 119.901 91.5573C120.212 92.2595 120.798 93.1218 121.031 93.4418C122.091 94.944 123.315 95.6107 124.264 96.1262C125.885 97.0063 128.032 97.5929 130.084 97.8152C131.86 98.0018 134.144 97.9841 136.671 97.5396C137.998 97.2996 139.412 96.8552 140.283 96.3396C140.749 96.064 141.447 95.6018 141.939 94.8107C140.395 94.8818 137.645 94.9973 135.757 94.9973C132.782 94.9973 128.894 94.864 126.238 93.4151C123.324 91.8328 121.548 88.695 121.548 84.9527C121.548 82.7127 122.014 81.3349 123.126 78.6415C123.79 77.0326 124.6 75.6992 125.376 74.4192C125.54 74.1525 125.695 73.8948 125.859 73.6281C126.187 73.0859 127.031 71.8503 128.687 70.0814C130.342 68.3124 132.524 66.8991 133.791 66.348L133.765 66.3657ZM141.801 89.7439C141.645 89.3795 141.456 88.9972 141.24 88.5972C139.317 85.0416 137.619 82.0549 136.731 80.5171C136.472 80.8638 136.222 81.2638 135.964 81.7082C133.989 85.1216 132.36 88.0639 131.489 89.655C131.886 89.6995 132.317 89.7261 132.774 89.735C136.705 89.7973 140.05 89.7706 141.792 89.7528L141.801 89.7439Z" fill="url(#paint1_linear_949_9764)"/>
<defs>
<linearGradient id="paint0_linear_949_9764" x1="113.815" y1="37.5547" x2="113.815" y2="183.464" gradientUnits="userSpaceOnUse">
<stop stop-color="#B2B2FF"/>
<stop offset="0.5" stop-color="#FFBA94"/>
<stop offset="1" stop-color="#FF89BD"/>
</linearGradient>
<linearGradient id="paint1_linear_949_9764" x1="136.565" y1="65.7109" x2="136.565" y2="102.919" gradientUnits="userSpaceOnUse">
<stop stop-color="#B2B2FF"/>
<stop offset="0.5" stop-color="#FFBA94"/>
<stop offset="1" stop-color="#FF89BD"/>
</linearGradient>
</defs>
</svg>