<svg width="144" height="40" viewBox="0 0 144 40" fill="none" xmlns="http://www.w3.org/2000/svg">
<path d="M49.708 11.8438V18.7199H41.138V11.8438H39.4297V27.2253H41.138V20.3923H49.708V27.2253H51.4234V11.8438H49.708Z" fill="white"/>
<path d="M74.5838 21.3987L78.8328 15.75H76.8303L73.6579 20.2L70.1982 15.75H68.1096L72.5238 21.4059L68.0234 27.2196H69.9973L73.4856 22.6332L77.0528 27.2196H79.1128L74.5838 21.3987Z" fill="white"/>
<path d="M90.0176 15.7519L89.9746 17.7759C90.1899 18.1491 90.3478 18.5367 90.4339 18.9602L89.9531 18.7162L89.9746 17.7759C89.9387 17.7185 89.9099 17.6611 89.874 17.6108C89.6014 17.1946 89.264 16.8285 88.8621 16.5126C88.4601 16.1968 88.0008 15.9529 87.4911 15.7734C86.9744 15.6011 86.4217 15.5078 85.8187 15.5078C84.8067 15.5078 83.8952 15.7662 83.0842 16.2758C82.2731 16.7854 81.62 17.4888 81.139 18.386C80.6582 19.2832 80.4141 20.3024 80.4141 21.4651C80.4141 22.6279 80.6509 23.6328 81.1175 24.5299C81.5841 25.4344 82.2228 26.1449 83.0267 26.6617C83.8305 27.1857 84.735 27.444 85.7326 27.444C86.3068 27.444 86.8523 27.3579 87.3691 27.1785C87.8859 27.0062 88.3596 26.7622 88.7759 26.4536C89.1922 26.1449 89.5511 25.7932 89.8382 25.3913C89.8956 25.3123 89.9458 25.2333 89.989 25.1616V24.4151L90.4268 24.128C90.3406 24.4869 90.197 24.8243 89.989 25.1616V27.2287H91.6612V15.759H90.0104L90.0176 15.7519ZM89.5655 23.7404C89.2209 24.4079 88.7472 24.9248 88.1515 25.298C87.5486 25.6712 86.8667 25.8578 86.1058 25.8578C85.345 25.8578 84.6416 25.664 84.0387 25.2836C83.4359 24.9032 82.9693 24.3792 82.632 23.7118C82.2946 23.0442 82.1295 22.2978 82.1295 21.458C82.1295 20.6183 82.3018 19.8574 82.6463 19.1971C82.9908 18.5367 83.4574 18.02 84.0531 17.6395C84.6489 17.2591 85.3307 17.0654 86.1058 17.0654C86.881 17.0654 87.5486 17.2591 88.1515 17.6395C88.7544 18.02 89.2209 18.5439 89.5655 19.1971C89.9099 19.8574 90.0822 20.611 90.0822 21.458C90.0822 22.3049 89.9099 23.0657 89.5655 23.7333V23.7404Z" fill="white"/>
<path d="M90.4263 18.9577C90.3401 18.5343 90.1822 18.1467 89.9669 17.7734L89.9453 18.7137L90.4263 18.9577Z" fill="white"/>
<path d="M89.9922 24.4121V25.1585C90.2004 24.8284 90.3511 24.4838 90.43 24.125L89.9922 24.4121Z" fill="white"/>
<path d="M104.623 17.6897C104.623 17.6897 104.631 17.697 104.637 17.7042C104.839 18.0127 104.975 18.3286 105.069 18.6515L104.609 18.587L104.631 17.6897C104.437 17.3883 104.193 17.1084 103.906 16.85C103.612 16.5844 103.289 16.3548 102.93 16.1466C102.571 15.9384 102.176 15.7806 101.752 15.6729C101.329 15.5653 100.891 15.5078 100.432 15.5078C99.391 15.5078 98.4507 15.7662 97.6182 16.2758C96.7855 16.7854 96.1181 17.496 95.63 18.3932C95.1419 19.2976 94.8906 20.3239 94.8906 21.4795C94.8906 22.6351 95.1347 23.6472 95.6156 24.5443C96.0965 25.4487 96.764 26.1521 97.6037 26.6617C98.4435 27.1713 99.4053 27.4297 100.475 27.4297C101.178 27.4297 101.846 27.2862 102.47 26.9991C103.095 26.712 103.632 26.3315 104.078 25.8578C104.33 25.5851 104.523 25.3051 104.673 25.0109V24.3792L104.939 24.3146C104.881 24.5587 104.788 24.7884 104.673 25.018V26.5827C104.673 27.4943 104.516 28.2551 104.199 28.8652C103.884 29.4825 103.432 29.9418 102.837 30.2576C102.24 30.5734 101.523 30.7314 100.669 30.7314C100.202 30.7314 99.7355 30.6739 99.2834 30.5663C98.8311 30.4586 98.4077 30.3079 98.0201 30.1285C97.6325 29.9418 97.288 29.7337 97.0009 29.504L96.3405 30.8893C96.8358 31.284 97.4675 31.6142 98.2282 31.8798C98.989 32.1453 99.7929 32.2745 100.647 32.2745C101.501 32.2745 102.27 32.1453 102.966 31.8869C103.662 31.6286 104.264 31.2553 104.768 30.7673C105.27 30.2792 105.657 29.6763 105.922 28.9657C106.188 28.2551 106.317 27.4369 106.317 26.5181V15.7519H104.667L104.623 17.6897ZM104.185 23.7477C103.834 24.408 103.353 24.9248 102.743 25.298C102.133 25.6712 101.444 25.8578 100.669 25.8578C99.8934 25.8578 99.1541 25.664 98.5512 25.2836C97.9411 24.9032 97.4674 24.3792 97.1229 23.7118C96.7783 23.0442 96.6061 22.2978 96.6061 21.458C96.6061 20.6183 96.7855 19.8574 97.13 19.1971C97.4818 18.5367 97.9627 18.02 98.5728 17.6395C99.1829 17.2591 99.879 17.0654 100.669 17.0654C101.458 17.0654 102.141 17.2591 102.757 17.6395C103.374 18.02 103.856 18.5439 104.199 19.1971C104.544 19.8574 104.717 20.611 104.717 21.458C104.717 22.3049 104.538 23.0873 104.193 23.7404L104.185 23.7477Z" fill="white"/>
<path d="M104.672 24.3843V25.0159C104.787 24.7862 104.88 24.5566 104.938 24.3125L104.672 24.3771V24.3843Z" fill="white"/>
<path d="M105.068 18.6493C104.981 18.3263 104.838 18.0104 104.638 17.7018C104.638 17.7018 104.63 17.6946 104.622 17.6875L104.602 18.5846L105.06 18.6493H105.068Z" fill="white"/>
<path d="M119.102 24.4121V25.1585C119.31 24.8284 119.461 24.4838 119.539 24.125L119.102 24.4121Z" fill="white"/>
<path d="M119.083 17.7759C119.299 18.1491 119.457 18.5439 119.543 18.9602L119.063 18.7162L119.083 17.7759C119.047 17.7185 119.019 17.6611 118.983 17.6108C118.71 17.1946 118.373 16.8285 117.971 16.5126C117.57 16.1968 117.11 15.9529 116.6 15.7734C116.091 15.6011 115.53 15.5078 114.928 15.5078C113.916 15.5078 113.004 15.7662 112.193 16.2758C111.382 16.7854 110.729 17.4888 110.248 18.386C109.768 19.2832 109.523 20.3024 109.523 21.4651C109.523 22.6279 109.76 23.6328 110.226 24.5299C110.694 25.4344 111.332 26.1449 112.136 26.6617C112.94 27.1857 113.844 27.444 114.834 27.444C115.409 27.444 115.954 27.3579 116.471 27.1785C116.987 27.0062 117.461 26.7622 117.878 26.4536C118.294 26.1449 118.653 25.7932 118.94 25.3913C118.998 25.3123 119.047 25.2333 119.091 25.1616V24.4151L119.529 24.128C119.442 24.4869 119.299 24.8243 119.091 25.1616V27.2287H120.764V15.759H119.112L119.069 17.7831L119.083 17.7759ZM118.682 23.7404C118.337 24.4079 117.863 24.9248 117.261 25.298C116.658 25.6712 115.976 25.8578 115.215 25.8578C114.454 25.8578 113.751 25.664 113.148 25.2836C112.544 24.9032 112.078 24.3792 111.741 23.7118C111.404 23.0442 111.239 22.2978 111.239 21.458C111.239 20.6183 111.41 19.8574 111.755 19.1971C112.1 18.5367 112.566 18.02 113.162 17.6395C113.758 17.2591 114.44 17.0654 115.215 17.0654C115.99 17.0654 116.658 17.2591 117.261 17.6395C117.863 18.02 118.33 18.5439 118.682 19.1971C119.027 19.8574 119.198 20.611 119.198 21.458C119.198 22.3049 119.027 23.0657 118.682 23.7333V23.7404Z" fill="white"/>
<path d="M119.543 18.9577C119.457 18.5343 119.299 18.1395 119.083 17.7734L119.062 18.7137L119.543 18.9577Z" fill="white"/>
<path d="M128.046 15.7496V12.7422H126.402V15.7496H123.805V17.3287H126.402V27.2192H128.046V17.3287H130.946V15.7496H128.046Z" fill="white"/>
<path d="M134.65 20.4141H133.867L134.111 21.7994H134.592C134.592 21.6773 134.571 21.5553 134.571 21.4261C134.571 21.0672 134.599 20.7298 134.65 20.4141Z" fill="white"/>
<path d="M61.8088 21.7928L64.2062 20.4076L64.4645 20.2568L65.9862 19.374H65.9934L65.9789 19.3381C65.9359 19.1515 65.8857 18.9721 65.8211 18.7926C65.5842 18.118 65.2397 17.5366 64.7804 17.0485C64.321 16.5604 63.7683 16.1728 63.1295 15.8929C62.4907 15.6129 61.7873 15.4766 61.0121 15.4766C60.1939 15.4766 59.4331 15.6273 58.7297 15.9288C58.0263 16.2303 57.4234 16.6537 56.9138 17.192C56.4114 17.7375 56.0166 18.3692 55.7367 19.0941C55.4567 19.819 55.3203 20.63 55.3203 21.52C55.3203 22.6757 55.5716 23.7021 56.0668 24.5993C56.5621 25.4964 57.2583 26.1854 58.1411 26.688C58.5862 26.9392 59.067 27.1258 59.5767 27.2477C60.0791 27.3698 60.6174 27.4343 61.1844 27.4343C61.7515 27.4343 62.34 27.3554 62.8998 27.2047C63.4597 27.054 63.9693 26.8458 64.4358 26.5875C64.9023 26.329 65.3044 26.0347 65.6417 25.6974L64.845 24.5993L64.7804 24.5131C64.1344 25.0586 63.5458 25.4175 63.0147 25.6041C62.4835 25.7907 61.9452 25.8769 61.3997 25.8769C61.0768 25.8769 60.7753 25.8481 60.481 25.7978C59.9427 25.7118 59.4618 25.5611 59.0384 25.3242C58.5072 25.0299 58.0837 24.6207 57.7535 24.1256L58.1268 23.9103L61.8017 21.7857L61.8088 21.7928ZM59.0384 21.7928L57.488 22.69L57.1866 22.8623C57.1004 22.5321 57.043 22.1733 57.0214 21.7928C57.0214 21.6709 56.9999 21.5488 56.9999 21.4196C56.9999 21.0608 57.0286 20.7234 57.0789 20.4076C57.1578 19.8908 57.287 19.4243 57.488 19.0223C57.811 18.3763 58.2703 17.8882 58.8732 17.5581C59.4762 17.2279 60.1867 17.0628 61.005 17.0628C61.7084 17.0628 62.3112 17.2135 62.8209 17.5222C63.3233 17.8309 63.7181 18.2256 63.998 18.7209C64.0267 18.7711 64.0482 18.8285 64.0769 18.8787L63.8759 18.9936L61.4356 20.4004L59.0384 21.7857V21.7928Z" fill="white"/>
<path d="M139.37 21.7928L141.769 20.4076L142.027 20.2568L143.548 19.374H143.555L143.541 19.3381C143.498 19.1515 143.448 18.9721 143.383 18.7926C143.147 18.118 142.802 17.5366 142.342 17.0485C141.883 16.5604 141.331 16.1728 140.691 15.8929C140.052 15.6129 139.35 15.4766 138.575 15.4766C137.756 15.4766 136.995 15.6273 136.291 15.9288C135.589 16.2303 134.985 16.6537 134.475 17.192C133.973 17.7375 133.579 18.3692 133.299 19.0941C133.019 19.819 132.883 20.63 132.883 21.52C132.883 22.6757 133.133 23.7021 133.629 24.5993C134.124 25.4964 134.82 26.1854 135.704 26.688C136.148 26.9392 136.63 27.1258 137.139 27.2477C137.641 27.3698 138.179 27.4343 138.746 27.4343C139.313 27.4343 139.902 27.3554 140.462 27.2047C141.022 27.054 141.531 26.8458 141.997 26.5875C142.465 26.329 142.866 26.0347 143.204 25.6974L142.407 24.5993L142.342 24.5131C141.696 25.0586 141.107 25.4175 140.577 25.6041C140.046 25.7907 139.507 25.8769 138.962 25.8769C138.639 25.8769 138.337 25.8481 138.043 25.7978C137.505 25.7118 137.024 25.5611 136.6 25.3242C136.069 25.0299 135.646 24.6207 135.316 24.1256L135.689 23.9103L139.364 21.7857L139.37 21.7928ZM136.6 21.7928L135.05 22.69L134.748 22.8623C134.663 22.5321 134.605 22.1733 134.584 21.7928C134.584 21.6709 134.562 21.5488 134.562 21.4196C134.562 21.0608 134.59 20.7234 134.641 20.4076C134.719 19.8908 134.849 19.4243 135.05 19.0223C135.373 18.3763 135.833 17.8882 136.435 17.5581C137.038 17.2279 137.748 17.0628 138.567 17.0628C139.271 17.0628 139.873 17.2135 140.383 17.5222C140.885 17.8309 141.28 18.2256 141.56 18.7209C141.589 18.7711 141.61 18.8285 141.639 18.8787L141.438 18.9936L138.997 20.4004L136.6 21.7857V21.7928Z" fill="white"/>
<path d="M29.4431 26.6406L17.0547 33.7894V19.5779L29.4431 12.4219V26.6406Z" fill="white"/>
<path d="M17.053 19.5821L4.67188 12.4261L16.9813 5.32031L29.3625 12.4763L17.053 19.5821Z" fill="#D0D0D0"/>
<path d="M17.0036 39.5895C16.8816 39.5895 16.7668 39.5608 16.6591 39.4962L0.344528 30.0793C0.129203 29.9572 0 29.7276 0 29.4835V10.1042C0 9.86019 0.129203 9.63043 0.344528 9.50839L16.6591 0.0915091C16.8744 -0.030503 17.1328 -0.030503 17.3481 0.0915091L33.7631 9.56586C33.9785 9.6879 34.1077 9.91754 34.1077 10.1616V28.9236C34.1077 29.1605 33.9856 29.383 33.7774 29.5123L17.3624 39.489C17.2548 39.5536 17.1328 39.5895 17.0036 39.5895ZM1.37809 29.0888L16.9964 38.1037L32.7296 28.5432V10.5636L17.0036 1.48396L1.37809 10.5061V29.0888Z" fill="white"/>
</svg>
