<svg width="137" height="35" viewBox="0 0 137 35" fill="none" xmlns="http://www.w3.org/2000/svg">
<mask id="mask0_37_10998" style="mask-type:luminance" maskUnits="userSpaceOnUse" x="0" y="0" width="36" height="35">
<path d="M35.8224 0H0V34.6977H35.8224V0Z" fill="white"/>
</mask>
<g mask="url(#mask0_37_10998)">
<path d="M11.8939 1.3951L0.50782 5.27316C0.224908 5.36892 0.0333991 5.63442 0.0304974 5.93329L2.96328e-05 9.50961C-0.00432286 9.99418 0.471549 10.338 0.931461 10.1813L10.3241 6.98224C10.7811 6.82702 11.2556 7.1665 11.2556 7.64819V11.561C11.2556 11.8613 11.0655 12.1284 10.7826 12.2256L6.36917 13.7547C6.08045 13.8548 5.88894 14.129 5.89619 14.4352L5.97164 17.9839C5.9818 18.4597 6.45332 18.7891 6.90307 18.6353L10.3241 17.463C10.7811 17.3063 11.2556 17.6458 11.257 18.129C11.257 21.2729 11.257 28.5546 11.257 31.6405C11.257 31.8582 11.3586 32.0627 11.5298 32.1962C12.9385 33.2872 14.2501 34.062 15.1133 34.5247C15.5819 34.7758 16.1492 34.4348 16.1492 33.9038V0.782848C16.1492 0.288114 15.653 -0.0513795 15.1916 0.125622L11.8969 1.3951H11.8939Z" fill="white"/>
<path d="M34.5961 9.9962L35.7931 6.48085C35.8889 6.20084 35.7394 5.89761 35.4594 5.80186L19.8528 0.486022L18.6878 0.0362636C18.3382 -0.098664 17.9609 0.159584 17.9609 0.535349V34.1627C17.9609 34.5631 18.3846 34.8213 18.7401 34.637L19.0578 34.4731C22.1132 32.8976 25.0918 30.569 27.0983 27.7775C27.0983 27.7775 29.7794 24.1722 30.8646 21.4868C30.9502 21.2764 30.8922 21.0356 30.721 20.8861C30.0159 20.2724 28.6695 19.251 27.934 18.6983C27.6713 18.5009 27.2956 18.5851 27.1432 18.8767C26.6616 19.7937 25.5517 22.5082 23.7729 24.5495C23.4494 24.9209 22.8386 24.696 22.8343 24.2042C22.7965 19.5165 22.8357 10.253 22.8473 7.30203C22.8473 6.93638 23.2086 6.68108 23.5539 6.79855L33.9157 10.3284C34.1957 10.4242 34.4989 10.2748 34.5947 9.99476L34.5961 9.9962Z" fill="white"/>
</g>
<path d="M41.8034 9.80278H47.332V11.9431H41.8034V16.2568H39.4062V5.39062H48.132V7.53105H41.8034V9.80278Z" fill="white"/>
<path d="M60.2712 14.4328L58.4503 16.2538H53.2888L51.1484 14.1134V7.53101L53.2888 5.39062H58.3398L60.1608 7.21159L58.5308 8.84155L57.2203 7.53101H54.4232L53.5455 8.40863V13.2357L54.4232 14.1134H57.3308L58.6413 12.8029L60.2712 14.4328Z" fill="white"/>
<path d="M77.7816 11.5431V14.4358L75.9609 16.2567H69.9994L68.2891 14.5462L69.9192 12.9163L71.1488 14.1462H74.7759L75.3821 13.5402V12.4208L74.9341 11.973L70.2357 11.6864L68.5725 10.0236V7.21159L70.3939 5.39062H75.9698L77.6145 7.03548L75.9849 8.66536L74.8176 7.4982H71.5728L70.9666 8.10415V9.14301L71.4146 9.5908L76.113 9.8774L77.7762 11.5402L77.7816 11.5431Z" fill="white"/>
<path d="M90.5343 5.39062V16.2567H88.1375V11.8148H83.6624V16.2567H81.2656V5.39062H83.6624V9.67437H88.1375V5.39062H90.5343Z" fill="white"/>
<path d="M98.4798 7.53101V14.1134H100.429V16.2538H94.1328V14.1134H96.0823V7.53101H94.1328V5.39062H100.429V7.53101H98.4798Z" fill="white"/>
<path d="M106.413 9.74003H111.942V11.8804H106.413V14.1164H112.742V16.2568H104.016V5.39062H112.742V7.53105H106.413V9.74003Z" fill="white"/>
<path d="M124.452 14.1164V16.2568H116.336V5.39062H118.733V14.1164H124.452Z" fill="white"/>
<path d="M137.001 14.1164L134.86 16.2568H127.75V5.39062H134.86L137.001 7.53105V14.1164ZM134.604 8.41161L133.726 7.53399H130.147V14.1164H133.726L134.604 13.2387V8.41161Z" fill="white"/>
<path d="M40.1507 23.4501H39.5V19.8828H40.1507V23.4501Z" fill="white"/>
<path d="M42.0234 19.8828H42.6712L43.7549 22.4381L43.6922 22.5187V19.8828H44.2922V23.4471H43.6385L42.5638 20.9813L42.6235 20.9007V23.4471H42.0265V19.8828H42.0234Z" fill="white"/>
<path d="M46.6632 23.4051C46.511 23.3454 46.3856 23.2558 46.287 23.1394C46.1885 23.023 46.1169 22.8767 46.0781 22.7006L46.6751 22.4379C46.7199 22.5811 46.7916 22.6886 46.8871 22.7603C46.9826 22.8349 47.099 22.8708 47.2334 22.8708C47.3677 22.8708 47.4842 22.8409 47.5618 22.7782C47.6394 22.7155 47.6781 22.629 47.6781 22.5185V22.3602C47.6781 22.2797 47.6543 22.214 47.6095 22.1603C47.5647 22.1095 47.505 22.0677 47.4304 22.0349C47.3558 22.002 47.2602 21.9722 47.1408 21.9364C47.1349 21.9334 47.1319 21.9304 47.1259 21.9304C47.1199 21.9304 47.1199 21.9304 47.1169 21.9274L47.0841 21.9185C46.8901 21.8587 46.7318 21.7991 46.6065 21.7363C46.4841 21.6737 46.3766 21.5782 46.2901 21.4468C46.2035 21.3155 46.1587 21.1423 46.1587 20.9244V20.8259C46.1587 20.6229 46.2005 20.4468 46.287 20.2975C46.3736 20.1482 46.499 20.0378 46.6602 19.9602C46.8214 19.8825 47.0214 19.8438 47.2572 19.8438C47.4334 19.8438 47.5886 19.8706 47.7259 19.9273C47.8603 19.984 47.9737 20.0676 48.0633 20.181C48.1528 20.2945 48.2215 20.4348 48.2662 20.605L47.699 20.8706C47.6513 20.7363 47.5856 20.6348 47.505 20.5632C47.4244 20.4916 47.3289 20.4587 47.2215 20.4587C47.0841 20.4587 46.9797 20.4885 46.905 20.5453C46.8304 20.602 46.7946 20.6826 46.7946 20.784V20.9035C46.7946 20.993 46.8184 21.0647 46.8692 21.1184C46.9199 21.1722 46.9797 21.2169 47.0512 21.2498C47.1229 21.2826 47.2244 21.3184 47.3498 21.3602C47.3617 21.3602 47.3707 21.3632 47.3826 21.3692C47.3946 21.3751 47.4035 21.3781 47.4125 21.3811C47.4214 21.3811 47.4304 21.3841 47.4363 21.3871C47.4423 21.3871 47.4483 21.3931 47.4572 21.3931C47.6364 21.4498 47.7827 21.5095 47.8991 21.5722C48.0155 21.6349 48.114 21.7304 48.1946 21.8557C48.2752 21.9812 48.314 22.1483 48.314 22.3543V22.5065C48.314 22.7125 48.2692 22.8857 48.1826 23.0349C48.0961 23.1841 47.9647 23.2946 47.7975 23.3722C47.6304 23.4499 47.4274 23.4887 47.1945 23.4887C46.9916 23.4887 46.8155 23.4588 46.6632 23.3991V23.4051Z" fill="white"/>
<path d="M49.7812 19.8828H51.9784V20.4977H49.7812V19.8828ZM50.5604 20.1783H51.2022V23.4501H50.5604V20.1783Z" fill="white"/>
<path d="M54.1351 23.4501H53.4844V19.8828H54.1351V23.4501Z" fill="white"/>
<path d="M55.6328 19.8828H57.8299V20.4977H55.6328V19.8828ZM56.4119 20.1783H57.0538V23.4501H56.4119V20.1783Z" fill="white"/>
<path d="M59.8363 23.3624C59.6751 23.2758 59.5527 23.1475 59.4691 22.9803C59.3855 22.8132 59.3438 22.6132 59.3438 22.3803V19.8906H59.9855V22.3982C59.9855 22.5444 60.0244 22.658 60.099 22.7385C60.1736 22.8191 60.2811 22.8609 60.4184 22.8609C60.5557 22.8609 60.6662 22.8221 60.7408 22.7385C60.8184 22.658 60.8573 22.5444 60.8573 22.3982V19.8906H61.499V22.3803C61.499 22.6132 61.4572 22.8161 61.3707 22.9803C61.2841 23.1475 61.1617 23.2758 61.0006 23.3624C60.8393 23.449 60.6453 23.4938 60.4184 23.4938C60.1915 23.4938 60.0005 23.449 59.8393 23.3624H59.8363Z" fill="white"/>
<path d="M63 19.8828H65.1971V20.4977H63V19.8828ZM63.7792 20.1783H64.421V23.4501H63.7792V20.1783Z" fill="white"/>
<path d="M67.3539 23.4501H66.7031V19.8828H67.3539V23.4501Z" fill="white"/>
<path d="M69.7074 23.3573C69.5403 23.2707 69.4115 23.1454 69.3224 22.9842C69.2327 22.82 69.1875 22.6319 69.1875 22.414V20.9214C69.1875 20.7035 69.2327 20.5124 69.3224 20.3483C69.4115 20.1871 69.5403 20.0616 69.7074 19.9751C69.8746 19.8885 70.0684 19.8438 70.2924 19.8438C70.5164 19.8438 70.713 19.8885 70.8774 19.9751C71.0445 20.0616 71.1726 20.1871 71.2624 20.3483C71.3521 20.5094 71.3966 20.7005 71.3966 20.9214V22.414C71.3966 22.6319 71.3521 22.823 71.2624 22.9842C71.1726 23.1454 71.0445 23.2707 70.8774 23.3573C70.7103 23.4439 70.5164 23.4887 70.2924 23.4887C70.0684 23.4887 69.8711 23.4469 69.7074 23.3573ZM70.5342 22.7901C70.6027 22.7514 70.6568 22.6976 70.6924 22.629C70.7281 22.5573 70.7459 22.4767 70.7459 22.3782V20.9513C70.7459 20.8558 70.7281 20.7751 70.6924 20.7035C70.6568 20.6318 70.6027 20.5781 70.5342 20.5393C70.4657 20.5005 70.3849 20.4826 70.2924 20.4826C70.1999 20.4826 70.1218 20.5005 70.0533 20.5393C69.9848 20.5781 69.9342 20.6318 69.8951 20.7035C69.8595 20.7751 69.8383 20.8558 69.8383 20.9513V22.3782C69.8383 22.4737 69.8567 22.5573 69.8951 22.629C69.9314 22.7006 69.9848 22.7543 70.0533 22.7901C70.1218 22.826 70.1999 22.8469 70.2924 22.8469C70.3849 22.8469 70.4657 22.829 70.5342 22.7901Z" fill="white"/>
<path d="M73.2812 19.8828H73.9286L75.0122 22.4381L74.9499 22.5187V19.8828H75.55V23.4471H74.8958L73.821 20.9813L73.8813 20.9007V23.4471H73.284V19.8828H73.2812Z" fill="white"/>
<path d="M78.323 19.8828H78.7504L79.8574 23.4501H79.195L78.5381 21.0649L77.8811 23.4501H77.2188L78.3264 19.8828H78.323ZM77.8339 22.2799H79.258V22.8889H77.8339V22.2799Z" fill="white"/>
<path d="M81.5156 19.8828H82.154V23.4501H81.5156V19.8828ZM81.7869 22.8352H83.474V23.4501H81.7869V22.8352Z" fill="white"/>
<path d="M87.2969 19.8828H87.9353V23.4501H87.2969V19.8828ZM87.5921 21.45H88.4785C88.5415 21.45 88.5984 21.4351 88.6491 21.4052C88.6998 21.3754 88.7354 21.3336 88.7621 21.2769C88.7888 21.2201 88.8039 21.1575 88.8039 21.0858V20.8739C88.8039 20.7993 88.7922 20.7336 88.7655 20.6738C88.7381 20.6171 88.7025 20.5724 88.6518 20.5425C88.6011 20.5127 88.5443 20.4977 88.4785 20.4977H87.5921V19.8828H88.4758C88.6758 19.8828 88.8518 19.9216 88.9984 19.9962C89.1443 20.0708 89.258 20.1813 89.3382 20.3246C89.419 20.4679 89.4581 20.6351 89.4581 20.8291V21.1336C89.4581 21.3246 89.419 21.4918 89.3382 21.6321C89.258 21.7725 89.1443 21.8799 88.9984 21.9545C88.8491 22.0291 88.6758 22.068 88.4758 22.068H87.5921V21.45Z" fill="white"/>
<path d="M91.2578 19.8828H91.8907V23.4531H91.2578V19.8828ZM91.5263 21.3634H92.4668C92.5264 21.3634 92.5805 21.3486 92.6251 21.3217C92.6703 21.2948 92.7059 21.256 92.7299 21.2082C92.7539 21.1605 92.7655 21.1007 92.7655 21.0351V20.8351C92.7655 20.7665 92.7539 20.7067 92.7299 20.656C92.7059 20.6052 92.673 20.5664 92.6285 20.5395C92.5833 20.5127 92.5299 20.5007 92.4668 20.5007H91.5263V19.8858H92.473C92.6669 19.8858 92.8374 19.9246 92.9806 19.9993C93.1237 20.0739 93.234 20.1843 93.3121 20.3246C93.3895 20.4649 93.4279 20.6321 93.4279 20.8232V21.0321C93.4279 21.2262 93.3895 21.3963 93.3121 21.5396C93.234 21.6829 93.1237 21.7933 92.9806 21.871C92.8374 21.9486 92.6669 21.9874 92.473 21.9874H91.5263V21.3634ZM92.1504 21.8679L92.7895 21.7545L93.5539 23.4501H92.8223L92.1538 21.8679H92.1504Z" fill="white"/>
<path d="M95.8239 23.3573C95.6568 23.2707 95.5287 23.1454 95.4389 22.9842C95.3492 22.82 95.3047 22.6319 95.3047 22.414V20.9214C95.3047 20.7035 95.3492 20.5124 95.4389 20.3483C95.5287 20.1871 95.6568 20.0616 95.8239 19.9751C95.9911 19.8885 96.1856 19.8438 96.4089 19.8438C96.6329 19.8438 96.8302 19.8885 96.9946 19.9751C97.1617 20.0616 97.2898 20.1871 97.3795 20.3483C97.4686 20.5094 97.5138 20.7005 97.5138 20.9214V22.414C97.5138 22.6319 97.4686 22.823 97.3795 22.9842C97.2898 23.1454 97.1617 23.2707 96.9946 23.3573C96.8268 23.4439 96.6329 23.4887 96.4089 23.4887C96.1856 23.4887 95.9883 23.4469 95.8239 23.3573ZM96.6507 22.7901C96.7199 22.7514 96.7733 22.6976 96.8089 22.629C96.8452 22.5573 96.8631 22.4767 96.8631 22.3782V20.9513C96.8631 20.8558 96.8452 20.7751 96.8089 20.7035C96.7733 20.6318 96.7199 20.5781 96.6507 20.5393C96.5822 20.5005 96.5014 20.4826 96.4123 20.4826C96.3226 20.4826 96.2418 20.5005 96.1733 20.5393C96.1048 20.5781 96.0541 20.6318 96.015 20.7035C95.9794 20.7751 95.9616 20.8558 95.9616 20.9513V22.3782C95.9616 22.4737 95.9794 22.5573 96.015 22.629C96.0506 22.7006 96.1048 22.7543 96.1733 22.7901C96.2418 22.826 96.3198 22.8469 96.4123 22.8469C96.5048 22.8469 96.5849 22.829 96.6507 22.7901Z" fill="white"/>
<path d="M99.0312 19.8828H101.228V20.4977H99.0312V19.8828ZM99.8101 20.1783H100.449V23.4501H99.8101V20.1783Z" fill="white"/>
<path d="M102.781 19.8828H103.42V23.4501H102.781V19.8828ZM103.035 19.8828H104.763V20.5037H103.035V19.8828ZM103.035 21.3694H104.569V21.9844H103.035V21.3694ZM103.035 22.8292H104.763V23.4501H103.035V22.8292Z" fill="white"/>
<path d="M106.995 23.3592C106.834 23.2726 106.712 23.1443 106.628 22.9771C106.542 22.8099 106.5 22.6069 106.5 22.3711V20.9711C106.5 20.7352 106.542 20.5322 106.628 20.365C106.714 20.1978 106.837 20.0695 106.995 19.9829C107.156 19.8964 107.347 19.8516 107.575 19.8516C107.801 19.8516 107.984 19.8964 108.136 19.9829C108.288 20.0695 108.407 20.2039 108.491 20.3829C108.574 20.562 108.626 20.7889 108.643 21.0636H107.986C107.978 20.9352 107.954 20.8278 107.921 20.7441C107.888 20.6605 107.84 20.5979 107.784 20.5561C107.727 20.5143 107.655 20.4934 107.578 20.4934C107.491 20.4934 107.417 20.5113 107.353 20.5471C107.291 20.5829 107.243 20.6397 107.21 20.7113C107.177 20.783 107.16 20.8695 107.16 20.968V22.3681C107.16 22.4696 107.177 22.5561 107.21 22.6248C107.243 22.6965 107.291 22.7502 107.353 22.786C107.417 22.8219 107.491 22.8427 107.578 22.8427C107.658 22.8427 107.73 22.8219 107.786 22.7801C107.843 22.7383 107.891 22.6756 107.923 22.592C107.96 22.5084 107.98 22.4009 107.986 22.2726H108.643C108.626 22.5472 108.574 22.7741 108.491 22.9532C108.407 23.1323 108.288 23.2666 108.139 23.3532C107.989 23.4398 107.801 23.4846 107.578 23.4846C107.354 23.4846 107.16 23.4398 106.998 23.3532L106.995 23.3592Z" fill="white"/>
<path d="M110.078 19.8828H112.275V20.4977H110.078V19.8828ZM110.857 20.1783H111.496V23.4501H110.857V20.1783Z" fill="white"/>
<path d="M114.432 23.4501H113.781V19.8828H114.432V23.4501Z" fill="white"/>
<path d="M116.785 23.3573C116.618 23.2707 116.49 23.1454 116.4 22.9842C116.31 22.82 116.266 22.6319 116.266 22.414V20.9214C116.266 20.7035 116.31 20.5124 116.4 20.3483C116.49 20.1871 116.618 20.0616 116.785 19.9751C116.952 19.8885 117.146 19.8438 117.37 19.8438C117.594 19.8438 117.791 19.8885 117.956 19.9751C118.123 20.0616 118.251 20.1871 118.34 20.3483C118.43 20.5094 118.475 20.7005 118.475 20.9214V22.414C118.475 22.6319 118.43 22.823 118.34 22.9842C118.251 23.1454 118.123 23.2707 117.956 23.3573C117.788 23.4439 117.594 23.4887 117.37 23.4887C117.146 23.4887 116.949 23.4469 116.785 23.3573ZM117.612 22.7901C117.681 22.7514 117.734 22.6976 117.77 22.629C117.806 22.5573 117.824 22.4767 117.824 22.3782V20.9513C117.824 20.8558 117.806 20.7751 117.77 20.7035C117.734 20.6318 117.681 20.5781 117.612 20.5393C117.543 20.5005 117.462 20.4826 117.373 20.4826C117.284 20.4826 117.203 20.5005 117.134 20.5393C117.066 20.5781 117.015 20.6318 116.976 20.7035C116.94 20.7751 116.923 20.8558 116.923 20.9513V22.3782C116.923 22.4737 116.94 22.5573 116.976 22.629C117.012 22.7006 117.066 22.7543 117.134 22.7901C117.203 22.826 117.281 22.8469 117.373 22.8469C117.466 22.8469 117.546 22.829 117.612 22.7901Z" fill="white"/>
<path d="M120.367 19.8828H121.015L122.099 22.4381L122.036 22.5187V19.8828H122.636V23.4471H121.982L120.908 20.9813L120.967 20.9007V23.4471H120.37V19.8828H120.367Z" fill="white"/>
<path d="M39.9913 29.2176C39.8391 29.1579 39.7137 29.0684 39.6152 28.9519C39.5167 28.8355 39.445 28.6892 39.4062 28.5131L40.0033 28.2504C40.048 28.3937 40.1197 28.5012 40.2152 28.5728C40.3107 28.6474 40.4272 28.6833 40.5615 28.6833C40.6958 28.6833 40.8123 28.6534 40.8899 28.5907C40.9675 28.528 41.0063 28.4415 41.0063 28.331V28.1728C41.0063 28.0922 40.9824 28.0266 40.9376 27.9728C40.8928 27.922 40.8332 27.8802 40.7585 27.8474C40.6839 27.8145 40.5884 27.7847 40.469 27.7489C40.463 27.7459 40.46 27.743 40.454 27.743C40.4481 27.743 40.4481 27.743 40.445 27.7399L40.4122 27.731C40.2182 27.6713 40.06 27.6116 39.9346 27.5489C39.8122 27.4862 39.7048 27.3907 39.6182 27.2594C39.5316 27.128 39.4868 26.9549 39.4868 26.7369V26.6384C39.4868 26.4354 39.5286 26.2593 39.6152 26.11C39.7018 25.9607 39.8271 25.8503 39.9884 25.7727C40.1495 25.6951 40.3496 25.6562 40.5854 25.6562C40.7615 25.6562 40.9167 25.6832 41.0541 25.7399C41.1884 25.7966 41.3018 25.8802 41.3914 25.9936C41.481 26.107 41.5496 26.2473 41.5944 26.4175L41.0272 26.6832C40.9794 26.5489 40.9137 26.4474 40.8332 26.3757C40.7525 26.3041 40.6571 26.2712 40.5496 26.2712C40.4122 26.2712 40.3078 26.3011 40.2331 26.3578C40.1585 26.4145 40.1227 26.4951 40.1227 26.5966V26.716C40.1227 26.8056 40.1465 26.8772 40.1973 26.931C40.248 26.9847 40.3078 27.0295 40.3794 27.0623C40.4511 27.0952 40.5525 27.131 40.6779 27.1728C40.6899 27.1728 40.6988 27.1758 40.7108 27.1817C40.7227 27.1877 40.7317 27.1906 40.7406 27.1937C40.7496 27.1937 40.7585 27.1967 40.7645 27.1996C40.7705 27.1996 40.7765 27.2056 40.7854 27.2056C40.9645 27.2623 41.1108 27.322 41.2272 27.3847C41.3436 27.4474 41.4421 27.5429 41.5228 27.6683C41.6033 27.7937 41.6422 27.9609 41.6422 28.1668V28.3191C41.6422 28.525 41.5974 28.6982 41.5108 28.8475C41.4243 28.9967 41.2929 29.1071 41.1257 29.1848C40.9585 29.2624 40.7556 29.3012 40.5227 29.3012C40.3197 29.3012 40.1436 29.2713 39.9913 29.2117V29.2176Z" fill="white"/>
<path d="M43.9301 29.1749C43.7689 29.0883 43.6465 28.96 43.5629 28.7928C43.4793 28.6256 43.4375 28.4256 43.4375 28.1928V25.7031H44.0793V28.2107C44.0793 28.3569 44.1181 28.4704 44.1928 28.551C44.2674 28.6316 44.3749 28.6733 44.5122 28.6733C44.6495 28.6733 44.76 28.6346 44.8346 28.551C44.9122 28.4704 44.951 28.3569 44.951 28.2107V25.7031H45.5928V28.1928C45.5928 28.4256 45.5511 28.6286 45.4645 28.7928C45.3779 28.96 45.2555 29.0883 45.0943 29.1749C44.9331 29.2615 44.7391 29.3062 44.5122 29.3062C44.2853 29.3062 44.0943 29.2615 43.933 29.1749H43.9301Z" fill="white"/>
<path d="M48.0648 29.2704H47.4141V25.7031H48.0648V29.2704Z" fill="white"/>
<path d="M49.5703 25.7031H51.7674V26.318H49.5703V25.7031ZM50.3494 25.9986H50.9913V29.2704H50.3494V25.9986Z" fill="white"/>
<path d="M53.3125 25.7031H53.9513V29.2704H53.3125V25.7031ZM53.5662 25.7031H55.2947V26.324H53.5662V25.7031ZM53.5662 27.1897H55.1006V27.8047H53.5662V27.1897ZM53.5662 28.6495H55.2947V29.2704H53.5662V28.6495Z" fill="white"/>
<path d="M59.1797 25.7031H59.8185V29.2704H59.1797V25.7031ZM59.4364 25.7031H61.141V26.318H59.4364V25.7031ZM59.4364 27.2255H60.944V27.8375H59.4364V27.2255Z" fill="white"/>
<path d="M63.3007 29.1776C63.1335 29.0911 63.0052 28.9657 62.9156 28.8045C62.826 28.6403 62.7812 28.4523 62.7812 28.2343V26.7417C62.7812 26.5238 62.826 26.3328 62.9156 26.1686C63.0052 26.0074 63.1335 25.882 63.3007 25.7954C63.4679 25.7089 63.6619 25.6641 63.8858 25.6641C64.1097 25.6641 64.3067 25.7089 64.4709 25.7954C64.6381 25.882 64.7664 26.0074 64.856 26.1686C64.9456 26.3297 64.9903 26.5209 64.9903 26.7417V28.2343C64.9903 28.4523 64.9456 28.6433 64.856 28.8045C64.7664 28.9657 64.6381 29.0911 64.4709 29.1776C64.3037 29.2642 64.1097 29.309 63.8858 29.309C63.6619 29.309 63.4649 29.2672 63.3007 29.1776ZM64.1276 28.6104C64.1963 28.5717 64.25 28.5179 64.2858 28.4493C64.3216 28.3776 64.3395 28.297 64.3395 28.1985V26.7716C64.3395 26.6761 64.3216 26.5955 64.2858 26.5238C64.25 26.4522 64.1963 26.3984 64.1276 26.3596C64.0589 26.3208 63.9784 26.3029 63.8858 26.3029C63.7933 26.3029 63.7157 26.3208 63.6469 26.3596C63.5783 26.3984 63.5276 26.4522 63.4888 26.5238C63.453 26.5955 63.4321 26.6761 63.4321 26.7716V28.1985C63.4321 28.294 63.4499 28.3776 63.4888 28.4493C63.5246 28.5209 63.5783 28.5746 63.6469 28.6104C63.7157 28.6463 63.7933 28.6672 63.8858 28.6672C63.9784 28.6672 64.0589 28.6493 64.1276 28.6104Z" fill="white"/>
<path d="M66.875 25.6953H67.5078V29.2656H66.875V25.6953ZM67.1437 27.176H68.084C68.1437 27.176 68.1974 27.1611 68.2422 27.1342C68.287 27.1073 68.3228 27.0685 68.3467 27.0207C68.3706 26.973 68.3825 26.9133 68.3825 26.8476V26.6476C68.3825 26.579 68.3706 26.5192 68.3467 26.4685C68.3228 26.4177 68.2899 26.3789 68.2452 26.3521C68.2004 26.3252 68.1467 26.3132 68.084 26.3132H67.1437V25.6983H68.0899C68.284 25.6983 68.4541 25.7371 68.5976 25.8118C68.7408 25.8864 68.8511 25.9968 68.9285 26.1371C69.0066 26.2774 69.0449 26.4446 69.0449 26.6357V26.8446C69.0449 27.0387 69.0066 27.2088 68.9285 27.3521C68.8511 27.4954 68.7408 27.6058 68.5976 27.6835C68.4541 27.7611 68.284 27.7999 68.0899 27.7999H67.1437V27.176ZM67.7676 27.6805L68.4064 27.5671L69.1703 29.2626H68.4392L67.7705 27.6805H67.7676Z" fill="white"/>
<path d="M74.7697 25.7031L75.3039 28.1301L75.6232 25.7031H76.2773L75.6382 29.2704H75.032L74.534 26.8733L74.0052 29.2704H73.3962L72.7578 25.7031H73.4113L73.7278 28.1301L74.2621 25.7031H74.7697Z" fill="white"/>
<path d="M77.9062 25.7031H78.5454V29.2704H77.9062V25.7031ZM78.1604 25.7031H79.8886V26.324H78.1604V25.7031ZM78.1604 27.1897H79.6948V27.8047H78.1604V27.1897ZM78.1604 28.6495H79.8886V29.2704H78.1604V28.6495Z" fill="white"/>
<path d="M81.6641 25.7031H82.3025V29.2704H81.6641V25.7031ZM81.986 28.6614H82.819C82.9327 28.6614 83.0217 28.6316 83.0847 28.5748C83.1471 28.5181 83.18 28.4376 83.18 28.333V28.0883C83.18 28.0136 83.1656 27.948 83.1382 27.8972C83.1115 27.8465 83.0697 27.8047 83.0128 27.7779C82.9567 27.7509 82.8909 27.736 82.8128 27.736H81.9833V27.13H82.8039C82.9114 27.13 82.9923 27.1002 83.0519 27.0435C83.1087 26.9867 83.1382 26.9032 83.1382 26.7986V26.6076C83.1382 26.5121 83.1087 26.4405 83.0491 26.3867C82.9888 26.333 82.9087 26.3091 82.8039 26.3091H81.9833V25.7031H82.8491C83.0457 25.7031 83.2128 25.7359 83.3505 25.8046C83.4875 25.8733 83.5923 25.9688 83.667 26.0942C83.7417 26.2195 83.7745 26.3748 83.7745 26.5539V26.748C83.7745 26.8703 83.7506 26.9778 83.7026 27.0733C83.6547 27.1688 83.5862 27.2464 83.4937 27.3092C83.4012 27.3719 83.2937 27.4106 83.1656 27.4315C83.3026 27.4495 83.4218 27.4912 83.5177 27.5569C83.6163 27.6226 83.691 27.7062 83.7417 27.8076C83.7924 27.9122 83.8191 28.0316 83.8191 28.1659V28.4137C83.8191 28.5957 83.7834 28.751 83.7115 28.8793C83.6396 29.0077 83.5355 29.1062 83.3951 29.1719C83.2546 29.2376 83.0909 29.2734 82.8936 29.2734H81.9798V28.6644L81.986 28.6614Z" fill="white"/>
<path d="M85.9211 29.1967C85.778 29.125 85.6677 29.0175 85.593 28.8683C85.5183 28.719 85.4793 28.525 85.4766 28.2892H86.13C86.1362 28.3817 86.1485 28.4563 86.1718 28.513C86.1958 28.5698 86.2287 28.6115 86.2705 28.6385C86.3123 28.6653 86.3691 28.6772 86.4349 28.6772C86.5335 28.6772 86.6109 28.6504 86.6678 28.5937C86.7246 28.5369 86.7513 28.4593 86.7513 28.3549V28.0563C86.7513 27.9489 86.7274 27.8653 86.6794 27.8056C86.6322 27.7458 86.563 27.716 86.4739 27.716H86.2287V27.0951H86.4739C86.5452 27.0951 86.5993 27.0682 86.6376 27.0175C86.6767 26.9637 86.6945 26.8921 86.6945 26.7996V26.5458C86.6945 26.4622 86.6739 26.3965 86.6349 26.3518C86.5958 26.307 86.539 26.2831 86.4643 26.2831C86.4082 26.2831 86.3602 26.298 86.3212 26.3249C86.2828 26.3518 86.2527 26.3995 86.2321 26.4592C86.2109 26.5189 86.1958 26.5996 86.1903 26.6981H85.5362C85.5423 26.4532 85.5814 26.2562 85.6526 26.104C85.7245 25.9518 85.8287 25.8383 85.9629 25.7667C86.0972 25.695 86.2705 25.6562 86.4767 25.6562C86.7575 25.6562 86.9719 25.7308 87.1247 25.8801C87.2767 26.0294 87.3541 26.2413 87.3541 26.513V26.8055C87.3541 26.9339 87.3185 27.0503 87.2466 27.1548C87.1754 27.2593 87.0733 27.3399 86.9425 27.3996C87.0918 27.4414 87.2082 27.519 87.2884 27.6354C87.372 27.7518 87.4137 27.8951 87.4137 28.0683V28.3906C87.4137 28.5817 87.3781 28.7459 87.3035 28.8803C87.2288 29.0146 87.1212 29.1191 86.9808 29.1907C86.8411 29.2624 86.6705 29.2982 86.4705 29.2982C86.2499 29.2982 86.0677 29.2624 85.9211 29.1937V29.1967Z" fill="white"/>
</svg>
