<svg width="158" height="26" viewBox="0 0 158 26" fill="none" xmlns="http://www.w3.org/2000/svg">
<mask id="mask0_37_10987" style="mask-type:luminance" maskUnits="userSpaceOnUse" x="0" y="0" width="158" height="26">
<path d="M157.832 0H0V25.5622H157.832V0Z" fill="white"/>
</mask>
<g mask="url(#mask0_37_10987)">
<path d="M36.7354 12.6134C36.7354 15.7295 39.0662 17.8069 41.8783 17.8069C43.3983 17.8069 44.9184 17.3762 46.2104 16.5909V19.6057C45.6277 19.9603 43.8797 20.619 41.9036 20.619C37.3181 20.619 33.6953 17.1482 33.6953 12.6134C33.6953 8.07858 37.3181 4.6078 41.9036 4.6078C43.8797 4.6078 45.6277 5.26649 46.2104 5.62117V8.63594C44.9184 7.85058 43.3983 7.41989 41.8783 7.41989C39.0662 7.41989 36.7354 9.4973 36.7354 12.6134ZM59.6882 12.7908V20.391H56.8761V13.6775C56.8761 12.3601 56.2935 11.3467 54.7734 11.3467C53.304 11.3467 52.4426 12.2587 52.4426 13.9308V20.3657H49.6559V3.89844H52.468V10.9667C52.6707 10.46 53.456 8.86395 55.8374 8.86395C58.2442 8.88928 59.6882 10.3333 59.6882 12.7908ZM74.9901 18.0096V20.3657H71.3673C71.114 20.391 70.9113 20.1884 70.9113 19.935V17.9083C70.5313 19.251 69.4926 20.5937 67.3392 20.5937C64.4004 20.5937 62.2977 18.415 62.2977 14.7415C62.2977 11.0174 64.6284 8.86395 67.5165 8.86395C70.1766 8.86395 70.7086 11.0427 70.7086 11.0427V9.11729H73.5207V18.0349H74.9901V18.0096ZM70.7593 14.7668C70.7593 12.6387 69.7459 11.3214 68.0485 11.3214C66.4271 11.3214 65.1858 12.5121 65.1858 14.7415C65.1858 16.9709 66.1991 18.1616 67.9219 18.1616C69.6699 18.1869 70.7593 17.0469 70.7593 14.7668ZM81.4503 9.5733V20.391H78.6382V11.4734H76.5862V9.11729H80.9943C81.2477 9.09196 81.4503 9.31996 81.4503 9.5733ZM81.349 6.76121H78.3089V3.92377H81.349V6.76121ZM84.7185 9.11729H87.5052V11.1187C87.6066 10.8147 88.2652 8.88928 90.9 8.88928C93.3321 8.88928 94.7761 10.3333 94.7761 12.7908V20.391H91.9641V13.6775C91.9641 12.3601 91.3814 11.3467 89.8613 11.3467C88.3919 11.3467 87.5306 12.2587 87.5306 13.9308V20.3657H84.7185V9.11729ZM110.078 18.0096V20.3657H106.455C106.202 20.391 105.999 20.1884 105.999 19.935V17.9083C105.619 19.251 104.58 20.5937 102.427 20.5937C99.4883 20.5937 97.3856 18.415 97.3856 14.7415C97.3856 11.0174 99.7163 8.86395 102.604 8.86395C105.265 8.86395 105.797 11.0427 105.797 11.0427V9.11729H108.609V18.0349H110.078V18.0096ZM105.847 14.7668C105.847 12.6387 104.834 11.3214 103.136 11.3214C101.515 11.3214 100.274 12.5121 100.274 14.7415C100.274 16.9709 101.312 18.1616 103.01 18.1616C104.758 18.1869 105.847 17.0469 105.847 14.7668ZM115.829 4.6078V20.391H112.991V6.30519H111.243V3.94911H115.145C115.525 3.92377 115.829 4.22779 115.829 4.6078ZM120.896 25.5845H118.084V23.2285H120.161C120.896 23.2285 121.25 23.0005 121.504 22.3164L122.34 20.1884L118.008 9.11729H121.149L123.784 17.0722L126.52 9.11729H129.661L124.113 23.3805C123.505 24.9005 122.542 25.5845 120.896 25.5845ZM131.207 19.6563V16.9202C131.587 17.1736 133.132 18.1869 134.88 18.1869C136.198 18.1869 136.806 17.8069 136.806 17.0722C136.806 14.8428 131.055 16.4895 131.055 12.2587C131.055 10.3333 132.676 8.86395 135.666 8.86395C137.312 8.86395 138.478 9.29463 138.934 9.5733V12.2841C138.376 11.9294 137.236 11.1947 135.716 11.1947C134.374 11.1947 133.892 11.6 133.892 12.2334C133.892 14.0575 139.618 12.7908 139.618 16.9456C139.618 19.2003 137.743 20.619 135.007 20.619C133.208 20.619 131.739 20.011 131.207 19.6563ZM146.331 9.5733V20.391H143.519V11.4734H141.467V9.11729H145.901C146.154 9.09196 146.357 9.31996 146.331 9.5733ZM146.255 6.76121H143.215V3.92377H146.255V6.76121ZM149.346 19.6563V16.9202C149.726 17.1736 151.271 18.1869 153.02 18.1869C154.362 18.1869 154.945 17.8069 154.945 17.0722C154.945 14.8428 149.194 16.4895 149.194 12.2587C149.194 10.3333 150.815 8.86395 153.805 8.86395C155.452 8.86395 156.617 9.29463 157.073 9.5733V12.2841C156.136 11.6 154.996 11.2454 153.856 11.1947C152.513 11.1947 152.032 11.6 152.032 12.2334C152.032 14.0575 157.757 12.7908 157.757 16.9456C157.757 19.2003 155.882 20.619 153.146 20.619C151.347 20.619 149.878 20.011 149.346 19.6563Z" fill="white"/>
</g>
<mask id="mask1_37_10987" style="mask-type:luminance" maskUnits="userSpaceOnUse" x="0" y="0" width="158" height="26">
<path d="M157.832 0H0V25.5622H157.832V0Z" fill="white"/>
</mask>
<g mask="url(#mask1_37_10987)">
<path d="M12.7688 0C13.0474 0 13.3768 0.0253358 13.3768 0.0253358C12.4141 1.16538 11.8314 2.60943 11.7301 4.10415C8.00593 4.71217 5.14316 7.67627 4.61114 11.4257C2.96442 11.6031 1.08969 12.3631 0.000315113 13.4525C-0.253027 6.02955 5.44717 0 12.7688 0ZM14.6182 22.2941C14.2888 22.3448 13.9341 22.3701 13.6048 22.3701C13.0221 22.3701 12.4141 22.3195 11.8314 22.2181C11.3754 23.3075 10.7674 24.3462 10.0327 25.2836C5.34584 24.2449 1.64704 20.6981 0.430996 16.0619C1.59637 14.6939 4.25647 13.9085 5.90319 13.9085C9.42465 13.9085 11.2994 15.7832 11.9581 18.6967C9.83 18.114 8.56328 16.9233 7.75259 15.1752C7.27124 14.9979 6.76455 14.9219 6.23254 14.9219C5.77652 14.9219 5.29517 14.9979 4.86449 15.1499C5.80185 18.722 9.24731 21.3821 13.4781 21.3821C17.3543 21.3821 19.0263 19.406 19.0263 19.406V16.3659C19.0263 16.3659 17.1263 18.342 14.7448 18.7473C14.1875 14.9472 11.198 11.9578 7.39791 11.4257C8.00593 8.41097 10.3113 6.71357 13.4528 6.71357C16.5942 6.71357 19.1023 8.99365 19.1023 8.99365V6.00422C19.1023 6.00422 17.4809 4.48416 14.5928 4.18015C14.6688 2.86277 15.5302 1.19071 16.4676 0.582688C20.3944 1.79873 24.1692 5.11751 25.2585 9.95635C25.2585 9.95635 23.5358 11.6791 20.293 11.6791C17.6329 11.6791 15.9355 10.3364 14.9982 8.00562C14.4915 7.82828 13.9848 7.75228 13.4528 7.75228C12.9714 7.75228 12.4648 7.82828 12.0087 8.00562C13.0474 11.7551 16.3662 14.2632 20.0397 14.2632C23.6372 14.2632 25.5879 12.6164 25.5879 12.6164C25.5879 20.1154 19.8624 25.4609 13.0728 25.6129C13.8328 24.8022 14.4408 23.1302 14.6182 22.2941Z" fill="white"/>
</g>
</svg>
