<svg width="174" height="173" viewBox="0 0 174 173" fill="none" xmlns="http://www.w3.org/2000/svg">
<path d="M128.023 74.7042C128.97 70.4762 132.728 67.3254 137.243 67.3254C142.461 67.3254 146.705 71.5534 146.705 76.7508C146.705 78.232 147.922 79.4438 149.409 79.4438C150.896 79.4438 152.112 78.232 152.112 76.7508C152.112 68.5911 145.434 61.9395 137.243 61.9395C135.08 61.9395 133.025 62.4242 131.187 63.2321C128.591 58.7079 123.779 55.7995 118.318 55.7995C110.126 55.7995 103.448 62.4511 103.448 70.6108V70.6916C98.0948 70.2338 92.6336 69.9914 87.2265 69.9914C84.9825 69.9914 82.7926 70.0453 80.6297 70.1261C80.3594 69.2913 80.062 68.4565 79.7375 67.6216C79.0617 66.0597 78.2506 64.4978 77.2503 63.0166C76.331 61.6702 75.3307 60.4583 74.2493 59.3542C73.249 58.3309 72.2216 57.4153 71.0591 56.5535C66.3008 53.0257 60.7044 51.1406 54.8106 51.1406C42.7256 51.1406 32.0194 59.2465 28.8022 70.7993C28.4237 72.065 28.1533 73.4923 27.964 75.0004C27.8559 75.9968 27.7748 77.0201 27.7748 78.0704C27.7748 78.4743 27.7748 78.8513 27.8289 79.2553V79.6862C27.91 80.4671 27.9911 81.275 28.0992 82.0829C21.1781 86.5532 19.6641 91.1044 19.6641 94.2282V115.772C19.6641 117.253 20.8807 118.465 22.3676 118.465C23.8546 118.465 25.0712 117.253 25.0712 115.772V104.192C28.0722 106.724 32.1546 108.932 37.0751 110.817C48.2138 115.88 67.8148 118.465 87.2535 118.465C106.692 118.465 126.293 115.853 137.432 110.817C142.325 108.932 146.435 106.724 149.436 104.192V142.163C145.678 150.269 121.21 158.86 87.2535 158.86C53.2966 158.86 28.8292 150.269 25.0712 142.163V129.237C25.0712 102.595 23.8546 101.383 22.3676 101.383C20.8807 101.383 19.6641 102.595 19.6641 129.237V142.702C19.6641 143.025 19.7181 143.348 19.8263 143.644C24.909 157.163 57.5952 164.246 87.2535 164.246C116.912 164.246 149.571 157.163 154.681 143.644C154.789 143.348 154.843 143.025 154.843 142.702V94.2282C154.843 85.3145 143.677 78.7167 128.05 74.6772L128.023 74.7042ZM108.855 70.6108C108.855 65.4134 113.1 61.1854 118.318 61.1854C121.94 61.1854 125.131 63.1782 126.726 66.2751C124.779 68.2141 123.373 70.6916 122.751 73.4654C118.345 72.5498 113.667 71.7957 108.855 71.2302V70.5839V70.6108ZM125.077 100.368C126.563 100.368 127.78 99.1564 127.78 97.6752V93.3934C136.729 95.8709 141.298 98.8871 141.298 100.988C141.298 102.28 139.568 103.869 136.215 105.512C125.212 109.901 108.017 113.106 87.2265 113.106C66.436 113.106 49.2412 109.901 38.2376 105.512C34.8852 103.869 33.1549 102.28 33.1549 100.988C33.1549 100.234 34.0201 98.9948 36.21 97.5944C36.9129 98.2677 37.6429 98.8871 38.4269 99.4795C40.022 100.691 41.6982 101.688 43.3744 102.469C46.9702 104.165 50.8093 105 54.7565 105C64.8408 105 74.006 99.4526 78.6832 90.5388C78.9535 90.0541 79.1698 89.5155 79.3861 89.0039C81.9545 88.9231 84.577 88.8423 87.1724 88.8423C93.0662 88.8423 98.4463 89.0846 103.394 89.4617V91.5353C103.394 93.0164 104.61 94.2282 106.097 94.2282C107.584 94.2282 108.801 93.0164 108.801 91.5353V89.9464C113.911 90.5119 118.399 91.239 122.319 92.0738V97.6752C122.319 99.1564 123.535 100.368 125.022 100.368H125.077ZM108.855 84.5604V76.6431C113.722 77.2086 118.264 77.9627 122.373 78.8783V86.6071C118.182 85.7723 113.613 85.0721 108.855 84.5604ZM87.2265 75.3774C92.931 75.3774 98.3382 75.6467 103.448 76.0776V84.0757C98.1489 83.6718 92.6877 83.4563 87.2265 83.4563C85.1988 83.4563 83.2252 83.5371 81.1975 83.6179C81.3867 82.7561 81.5489 81.9213 81.6301 81.0596C81.7382 80.0632 81.8193 79.0937 81.8193 78.0973C81.8193 77.2356 81.7652 76.3738 81.6841 75.5121C83.5226 75.4582 85.334 75.4043 87.2265 75.4043V75.3774ZM33.2901 75.6467C33.4523 74.4349 33.6686 73.3038 33.966 72.2535C36.5344 62.9897 45.1047 56.4996 54.7835 56.4996C59.4878 56.4996 63.9757 58.0077 67.7607 60.8084C68.6799 61.5086 69.518 62.2626 70.3291 63.0705C71.1942 63.9592 71.9783 64.9287 72.7082 66.0058C73.4923 67.1908 74.1682 68.4295 74.7089 69.6683C75.8174 72.3343 76.3851 75.162 76.3851 78.0165C76.3851 78.7975 76.331 79.5515 76.2499 80.3594C76.1148 81.4905 75.9255 82.5946 75.6011 83.6987C75.1955 85.2337 74.6278 86.661 73.9249 87.9805C70.1669 95.1169 62.8402 99.5603 54.7835 99.5603C51.6203 99.5603 48.5653 98.8871 45.6725 97.5137C44.3207 96.8943 42.9959 96.0864 41.7253 95.1169C40.806 94.4167 39.9679 93.6627 39.1839 92.8548C36.6696 90.2426 34.8582 86.9841 33.8849 83.4294C33.5334 82.0021 33.2901 80.6018 33.236 79.3091V78.7705C33.1819 78.5012 33.1549 78.232 33.1549 77.9896C33.1549 77.1548 33.209 76.3469 33.2901 75.5659V75.6467ZM25.0442 94.2282C25.0442 92.1008 26.6393 89.8117 29.5862 87.6304C30.3702 89.704 31.4246 91.643 32.6953 93.4473C30.0188 95.2785 28.4237 97.2982 27.937 99.5065C26.0715 97.756 25.0712 95.9787 25.0712 94.2282H25.0442ZM146.516 99.5334C145.353 94.4437 138.135 90.5388 127.78 87.8459V80.1978C141.352 83.9141 149.409 89.2462 149.409 94.2552C149.409 96.0056 148.381 97.8099 146.516 99.5603V99.5334Z" fill="url(#paint0_linear_950_9858)"/>
<path d="M65.6785 31.2408C65.7596 32.8836 66.0299 34.6071 66.4895 36.4383C67.6791 40.8817 69.9501 44.9481 73.1133 48.2335C74.1136 49.2569 75.141 50.1725 76.2765 51.0342C77.8716 52.2461 79.5478 53.2425 81.224 54.0234C84.8198 55.72 88.6589 56.5548 92.6061 56.5548C102.69 56.5548 111.856 51.0073 116.533 42.0935C117.425 40.4508 118.128 38.6465 118.642 36.7614C119.02 35.415 119.317 33.9877 119.453 32.5873C119.561 31.5909 119.642 30.6215 119.642 29.6251C119.642 26.0434 118.939 22.5156 117.533 19.1763C116.857 17.5875 116.019 16.0525 115.046 14.5713C114.127 13.2248 113.126 12.013 112.045 10.9089C111.044 9.88556 110.017 8.96994 108.855 8.10819C104.096 4.5804 98.4999 2.69531 92.6061 2.69531C80.5211 2.69531 69.8149 10.8012 66.5977 22.354C66.2192 23.6197 65.9488 25.0201 65.7596 26.5551C65.6514 27.5515 65.5703 28.5748 65.5703 29.6251C65.5703 30.029 65.5703 30.406 65.6244 30.81V31.2408H65.6785ZM71.1667 27.2283C71.3289 26.0165 71.5452 24.8854 71.8426 23.8352C74.411 14.5713 82.9813 8.08126 92.6602 8.08126C97.3644 8.08126 101.852 9.58933 105.637 12.39C106.557 13.0902 107.395 13.8442 108.206 14.6521C109.071 15.5408 109.855 16.5103 110.585 17.5875C111.369 18.7724 112.045 20.0111 112.586 21.2499C113.694 23.916 114.262 26.7167 114.262 29.5981C114.262 30.3791 114.208 31.1331 114.127 31.941C114.018 33.0721 113.802 34.1762 113.478 35.2803C113.072 36.8153 112.504 38.2426 111.801 39.5621C108.044 46.6985 100.717 51.1419 92.6602 51.1419C89.497 51.1419 86.4419 50.4687 83.5491 49.0953C82.1973 48.4759 80.8726 47.668 79.6019 46.6985C78.6827 45.9984 77.8446 45.2443 77.0605 44.4364C74.5462 41.8242 72.7348 38.5657 71.7885 35.011C71.41 33.5837 71.1938 32.1834 71.1397 30.8908V30.3522C71.0856 30.0829 71.0586 29.8136 71.0586 29.5712C71.0586 28.7364 71.1126 27.9285 71.1938 27.1475L71.1667 27.2283Z" fill="url(#paint1_linear_950_9858)"/>
<path d="M27.2048 30.8461C27.2529 31.8245 27.4134 32.851 27.6861 33.9418C28.3921 36.5883 29.7398 39.0104 31.617 40.9672C32.2107 41.5768 32.8204 42.1221 33.4942 42.6354C34.4409 43.3572 35.4356 43.9507 36.4304 44.4158C38.5643 45.4263 40.8426 45.9236 43.1851 45.9236C49.1697 45.9236 54.6088 42.6193 57.3845 37.3101C57.914 36.3317 58.3311 35.257 58.636 34.1342C58.8606 33.3322 59.0371 32.4821 59.1173 31.6481C59.1815 31.0546 59.2296 30.4771 59.2296 29.8837C59.2296 27.7504 58.8125 25.6491 57.9782 23.6602C57.577 22.7138 57.0797 21.7995 56.5021 20.9173C55.9566 20.1154 55.3629 19.3936 54.7211 18.7359C54.1275 18.1264 53.5178 17.581 52.8279 17.0678C50.004 14.9665 46.6828 13.8438 43.1851 13.8438C36.0132 13.8438 29.6596 18.6718 27.7503 25.5529C27.5257 26.3068 27.3652 27.1408 27.2529 28.0551C27.1888 28.6486 27.1406 29.2581 27.1406 29.8837C27.1406 30.1243 27.1406 30.3488 27.1727 30.5894V30.8461H27.2048ZM30.4618 28.4561C30.5581 27.7343 30.6865 27.0606 30.8629 26.4351C32.3872 20.9174 37.4733 17.0517 43.2172 17.0517C46.009 17.0517 48.6723 17.95 50.9186 19.6181C51.4641 20.0352 51.9615 20.4843 52.4428 20.9655C52.9562 21.4948 53.4215 22.0722 53.8547 22.7138C54.32 23.4196 54.7211 24.1574 55.042 24.8952C55.6998 26.4832 56.0368 28.1513 56.0368 29.8676C56.0368 30.3328 56.0047 30.7819 55.9566 31.2631C55.8924 31.9368 55.764 32.5944 55.5715 33.252C55.3308 34.1663 54.9939 35.0164 54.5767 35.8024C52.3465 40.053 47.9985 42.6995 43.2172 42.6995C41.34 42.6995 39.527 42.2985 37.8102 41.4805C37.008 41.1116 36.2218 40.6304 35.4677 40.053C34.9222 39.6359 34.4248 39.1868 33.9595 38.7056C32.4674 37.1497 31.3924 35.2089 30.8309 33.0916C30.6062 32.2415 30.4779 31.4075 30.4458 30.6375V30.3167C30.4137 30.1563 30.3977 29.9959 30.3977 29.8516C30.3977 29.3543 30.4297 28.8731 30.4779 28.408L30.4618 28.4561Z" fill="url(#paint2_linear_950_9858)"/>
<path fill-rule="evenodd" clip-rule="evenodd" d="M90.3045 14.353C91.9631 13.6617 93.5517 13.7792 94.6644 14.0903C95.3012 14.27 95.8401 14.4912 96.6658 15.1686C97.4916 15.8461 97.9255 16.8345 97.6176 16.7723L97.5406 16.7585C97.0997 16.6755 96.7148 16.5926 96.148 16.5442C95.5461 16.4889 94.7134 16.558 94.4054 16.5926C92.9498 16.7447 91.9981 17.3322 91.2633 17.7885C90.0036 18.5696 88.7369 19.8276 87.7502 21.1756C86.9034 22.3369 85.9866 23.9267 85.2658 25.8553C84.8879 26.8715 84.615 28.0258 84.615 28.8277C84.615 29.2494 84.65 29.8922 84.9649 30.5282C85.5528 29.4153 86.5465 27.542 87.2883 26.2701C88.499 24.2032 90.1645 21.5558 92.229 20.277C94.4894 18.8737 97.3447 18.8599 99.899 20.3115C101.425 21.1825 102.173 22.0465 103.566 23.8576C104.399 24.9429 104.973 26.0212 105.533 27.065C105.644 27.2793 105.763 27.4936 105.875 27.701C106.113 28.1364 106.61 29.2079 107.142 31.0466C107.674 32.8853 107.758 34.9452 107.618 36.0374C107.394 37.8001 106.498 39.0996 105.672 39.8946C105.197 40.3508 104.735 40.7033 103.727 41.0697C102.719 41.4361 101.642 41.3116 101.844 41.0835L101.9 41.0213C102.194 40.6895 102.453 40.3923 102.789 39.9361C103.139 39.4453 103.489 38.6987 103.615 38.4222C104.21 37.1019 104.168 35.989 104.14 35.1319C104.084 33.6595 103.615 31.9452 102.929 30.4383C102.334 29.1318 101.404 27.5558 100.067 25.9728C99.3671 25.1433 98.4854 24.3346 97.7856 23.9337C97.4286 23.7332 96.8828 23.4498 96.204 23.3876C96.8898 24.4452 98.0445 26.2493 98.7863 27.5281C99.997 29.595 101.481 32.3462 101.572 34.7517C101.677 37.3923 100.256 39.8393 97.7086 41.2978C96.183 42.1688 95.0493 42.3762 92.7609 42.6596C91.3962 42.8255 90.1575 42.784 88.9679 42.7356C88.7229 42.7287 88.478 42.7149 88.2331 42.708C87.7292 42.6941 86.5465 42.5835 84.664 42.1204C82.7815 41.6573 80.934 40.6964 80.0452 40.0328C78.6106 38.9614 77.9178 37.5443 77.6378 36.4383C77.4769 35.8024 77.3999 35.2287 77.5818 34.1849C77.7638 33.1411 78.4146 32.277 78.5126 32.5674C78.5196 32.595 78.5336 32.6157 78.5406 32.6434C78.6876 33.0581 78.8135 33.4314 79.0515 33.9429C79.3034 34.489 79.7793 35.1595 79.9682 35.4084C80.829 36.5766 81.8227 37.095 82.5925 37.496C83.9082 38.1803 85.6507 38.6365 87.3163 38.8093C88.7579 38.9545 90.6124 38.9407 92.6629 38.595C93.7406 38.4084 94.8883 38.0628 95.5951 37.6619C95.973 37.4476 96.5399 37.0881 96.9388 36.4729C95.6861 36.5282 93.4537 36.6181 91.9211 36.6181C89.5067 36.6181 86.3505 36.5144 84.1951 35.3876C81.8297 34.1572 80.3881 31.7171 80.3881 28.807C80.3881 27.065 80.766 25.9936 81.6688 23.8991C82.2076 22.6479 82.8655 21.6111 83.4953 20.6157C83.6283 20.4083 83.7542 20.2078 83.8872 20.0005C84.1531 19.5788 84.8389 18.618 86.1826 17.2424C87.5262 15.8668 89.2968 14.7677 90.3255 14.3391L90.3045 14.353ZM96.8268 32.5328C96.7008 32.2494 96.5469 31.9521 96.3719 31.6411C94.8113 28.8761 93.4327 26.5535 92.7119 25.3576C92.5019 25.6272 92.299 25.9383 92.089 26.2839C90.4865 28.9383 89.1638 31.2263 88.457 32.4637C88.7789 32.4982 89.1288 32.519 89.4997 32.5259C92.6909 32.5743 95.4062 32.5535 96.8198 32.5397L96.8268 32.5328Z" fill="url(#paint3_linear_950_9858)"/>
<path d="M38.5037 29.8359C38.5037 29.8359 38.5037 29.8617 38.5037 29.8745H38.5158C38.5158 29.8745 38.5759 30.0034 38.6361 30.042L42.8713 32.7089L47.1065 30.042C47.2629 29.939 47.3231 29.7071 47.2148 29.5396L42.8593 22.0156L38.5037 29.5396C38.4556 29.6169 38.4556 29.7071 38.4676 29.7844V29.823L38.5037 29.8359Z" fill="url(#paint4_linear_950_9858)"/>
<path d="M42.601 36.9729C42.6649 37.0604 42.7672 37.1105 42.8695 37.1105C42.9718 37.1105 43.0741 37.0604 43.1381 36.9729L47.8697 31.0452C47.972 30.9202 47.8185 30.7576 47.6906 30.8451L42.8695 33.8715L38.0484 30.8451C37.9205 30.7576 37.7671 30.9327 37.8694 31.0452L42.601 36.9729Z" fill="url(#paint5_linear_950_9858)"/>
<g clip-path="url(#clip0_950_9858)">
<path d="M46.0336 86.1697C45.0675 86.1697 44.1011 86.1734 43.1351 86.167C42.9036 86.1655 42.6691 86.1489 42.4415 86.1081C41.8452 86.0017 41.4522 85.343 41.6703 84.7697C41.8209 84.3742 42.0288 83.9982 42.2353 83.6278C44.7569 79.1068 47.2833 74.5885 49.8081 70.0694C50.9411 68.0414 52.0724 66.0126 53.2086 63.9864C53.3431 63.7468 53.4886 63.5102 53.6564 63.2944C54.0507 62.7877 54.799 62.7611 55.2146 63.2506C55.4196 63.4921 55.5842 63.7731 55.7415 64.0511C56.7035 65.7506 57.6577 67.4546 58.6151 69.1568C58.9278 69.7128 59.1129 70.3036 59.1019 70.9503C59.0912 71.5697 58.8933 72.1318 58.597 72.6639C56.8853 75.739 55.1742 78.8146 53.4607 81.889C52.9757 82.7593 52.4877 83.6278 51.9935 84.4929C51.5118 85.3363 50.809 85.8923 49.8626 86.0885C49.5407 86.1552 49.2035 86.1631 48.873 86.1667C47.9268 86.1764 46.9801 86.17 46.0339 86.17L46.0336 86.1697Z" fill="url(#paint6_linear_950_9858)"/>
<path d="M62.1341 86.173C60.8907 86.173 59.647 86.1757 58.4036 86.1706C58.1721 86.1697 57.9374 86.1536 57.7098 86.1128C57.1099 86.0053 56.7118 85.3329 56.9403 84.7603C57.1102 84.3345 57.3414 83.9317 57.569 83.5325C58.6672 81.6061 59.7723 79.6836 60.8788 77.7623C61.0183 77.5199 61.168 77.2803 61.3397 77.0612C61.7375 76.5533 62.5048 76.5366 62.9053 77.0449C63.1573 77.3646 63.3659 77.723 63.5709 78.0778C64.733 80.0888 65.889 82.1038 67.0446 84.1187C67.1389 84.2834 67.2172 84.4575 67.3019 84.6279C67.6239 85.2746 67.1642 86.1183 66.3832 86.1431C65.8785 86.1591 65.3736 86.1706 64.869 86.1733C63.9574 86.1781 63.046 86.1745 62.1344 86.1745V86.1733L62.1341 86.173Z" fill="url(#paint7_linear_950_9858)"/>
</g>
<defs>
<linearGradient id="paint0_linear_950_9858" x1="87.2535" y1="51.1406" x2="87.2535" y2="164.246" gradientUnits="userSpaceOnUse">
<stop stop-color="#B2B2FF"/>
<stop offset="0.5" stop-color="#FFBA94"/>
<stop offset="1" stop-color="#FF89BD"/>
</linearGradient>
<linearGradient id="paint1_linear_950_9858" x1="92.6061" y1="2.69531" x2="92.6061" y2="56.5548" gradientUnits="userSpaceOnUse">
<stop stop-color="#B2B2FF"/>
<stop offset="0.5" stop-color="#FFBA94"/>
<stop offset="1" stop-color="#FF89BD"/>
</linearGradient>
<linearGradient id="paint2_linear_950_9858" x1="43.1851" y1="13.8438" x2="43.1851" y2="45.9236" gradientUnits="userSpaceOnUse">
<stop stop-color="#B2B2FF"/>
<stop offset="0.5" stop-color="#FFBA94"/>
<stop offset="1" stop-color="#FF89BD"/>
</linearGradient>
<linearGradient id="paint3_linear_950_9858" x1="92.5773" y1="13.8437" x2="92.5773" y2="42.7785" gradientUnits="userSpaceOnUse">
<stop stop-color="#B2B2FF"/>
<stop offset="0.5" stop-color="#FFBA94"/>
<stop offset="1" stop-color="#FF89BD"/>
</linearGradient>
<linearGradient id="paint4_linear_950_9858" x1="42.8653" y1="22.0156" x2="42.8653" y2="32.7089" gradientUnits="userSpaceOnUse">
<stop stop-color="#B2B2FF"/>
<stop offset="0.5" stop-color="#FFBA94"/>
<stop offset="1" stop-color="#FF89BD"/>
</linearGradient>
<linearGradient id="paint5_linear_950_9858" x1="42.8695" y1="30.8203" x2="42.8695" y2="37.1105" gradientUnits="userSpaceOnUse">
<stop stop-color="#B2B2FF"/>
<stop offset="0.5" stop-color="#FFBA94"/>
<stop offset="1" stop-color="#FF89BD"/>
</linearGradient>
<linearGradient id="paint6_linear_950_9858" x1="50.3559" y1="62.8984" x2="50.3559" y2="86.1721" gradientUnits="userSpaceOnUse">
<stop stop-color="#B2B2FF"/>
<stop offset="0.5" stop-color="#FFBA94"/>
<stop offset="1" stop-color="#FF89BD"/>
</linearGradient>
<linearGradient id="paint7_linear_950_9858" x1="62.1404" y1="76.6719" x2="62.1404" y2="86.1758" gradientUnits="userSpaceOnUse">
<stop stop-color="#B2B2FF"/>
<stop offset="0.5" stop-color="#FFBA94"/>
<stop offset="1" stop-color="#FF89BD"/>
</linearGradient>
<clipPath id="clip0_950_9858">
<rect width="25.797" height="23.2736" fill="white" transform="translate(41.6094 62.8984)"/>
</clipPath>
</defs>
</svg>
