<svg width="136" height="163" viewBox="0 0 136 163" fill="none" xmlns="http://www.w3.org/2000/svg">
<path d="M109.023 72.7042C109.97 68.4762 113.728 65.3254 118.243 65.3254C123.461 65.3254 127.705 69.5534 127.705 74.7508C127.705 76.232 128.922 77.4438 130.409 77.4438C131.896 77.4438 133.112 76.232 133.112 74.7508C133.112 66.5911 126.434 59.9395 118.243 59.9395C116.08 59.9395 114.025 60.4242 112.187 61.2321C109.591 56.7079 104.779 53.7995 99.3176 53.7995C91.1257 53.7995 84.4479 60.4511 84.4479 68.6108V68.6916C79.0948 68.2338 73.6336 67.9914 68.2265 67.9914C65.9825 67.9914 63.7926 68.0453 61.6297 68.1261C61.3594 67.2913 61.062 66.4565 60.7375 65.6216C60.0617 64.0597 59.2506 62.4978 58.2503 61.0166C57.331 59.6702 56.3307 58.4583 55.2493 57.3542C54.249 56.3309 53.2216 55.4153 52.0591 54.5535C47.3008 51.0257 41.7044 49.1406 35.8106 49.1406C23.7256 49.1406 13.0194 57.2465 9.80215 68.7993C9.42365 70.065 9.15329 71.4923 8.96404 73.0004C8.8559 73.9968 8.77479 75.0201 8.77479 76.0704C8.77479 76.4743 8.77479 76.8513 8.82887 77.2553V77.6862C8.90997 78.4671 8.99108 79.275 9.09922 80.0829C2.17807 84.5532 0.664062 89.1044 0.664062 92.2282V113.772C0.664062 115.253 1.88067 116.465 3.36764 116.465C4.85461 116.465 6.07122 115.253 6.07122 113.772V102.192C9.07219 104.724 13.1546 106.932 18.0751 108.817C29.2138 113.88 48.8148 116.465 68.2535 116.465C87.6922 116.465 107.293 113.853 118.432 108.817C123.325 106.932 127.435 104.724 130.436 102.192V140.163C126.678 148.269 102.21 156.86 68.2535 156.86C34.2966 156.86 9.82919 148.269 6.07122 140.163V127.237C6.07122 100.595 4.85461 99.3833 3.36764 99.3833C1.88067 99.3833 0.664062 100.595 0.664062 127.237V140.702C0.664062 141.025 0.718134 141.348 0.826277 141.644C5.909 155.163 38.5952 162.246 68.2535 162.246C97.9117 162.246 130.571 155.163 135.681 141.644C135.789 141.348 135.843 141.025 135.843 140.702V92.2282C135.843 83.3145 124.677 76.7167 109.05 72.6772L109.023 72.7042ZM89.8551 68.6108C89.8551 63.4134 94.0997 59.1854 99.3176 59.1854C102.94 59.1854 106.131 61.1782 107.726 64.2751C105.779 66.2141 104.373 68.6916 103.751 71.4654C99.3446 70.5498 94.6674 69.7957 89.8551 69.2302V68.5839V68.6108ZM106.077 98.3682C107.563 98.3682 108.78 97.1564 108.78 95.6752V91.3934C117.729 93.8709 122.298 96.8871 122.298 98.9876C122.298 100.28 120.568 101.869 117.215 103.512C106.212 107.901 89.017 111.106 68.2265 111.106C47.436 111.106 30.2412 107.901 19.2376 103.512C15.8852 101.869 14.1549 100.28 14.1549 98.9876C14.1549 98.2336 15.0201 96.9948 17.21 95.5944C17.9129 96.2677 18.6429 96.8871 19.4269 97.4795C21.022 98.6914 22.6982 99.6878 24.3744 100.469C27.9702 102.165 31.8093 103 35.7565 103C45.8408 103 55.006 97.4526 59.6832 88.5388C59.9535 88.0541 60.1698 87.5155 60.3861 87.0039C62.9545 86.9231 65.577 86.8423 68.1724 86.8423C74.0662 86.8423 79.4463 87.0846 84.3939 87.4617V89.5353C84.3939 91.0164 85.6105 92.2282 87.0974 92.2282C88.5844 92.2282 89.801 91.0164 89.801 89.5353V87.9464C94.9108 88.5119 99.3987 89.239 103.319 90.0738V95.6752C103.319 97.1564 104.535 98.3682 106.022 98.3682H106.077ZM89.8551 82.5604V74.6431C94.7215 75.2086 99.2635 75.9627 103.373 76.8783V84.6071C99.1824 83.7723 94.6134 83.0721 89.8551 82.5604ZM68.2265 73.3774C73.931 73.3774 79.3382 73.6467 84.4479 74.0776V82.0757C79.1489 81.6718 73.6877 81.4563 68.2265 81.4563C66.1988 81.4563 64.2252 81.5371 62.1975 81.6179C62.3867 80.7561 62.5489 79.9213 62.6301 79.0596C62.7382 78.0632 62.8193 77.0937 62.8193 76.0973C62.8193 75.2356 62.7652 74.3738 62.6841 73.5121C64.5226 73.4582 66.334 73.4043 68.2265 73.4043V73.3774ZM14.2901 73.6467C14.4523 72.4349 14.6686 71.3038 14.966 70.2535C17.5344 60.9897 26.1047 54.4996 35.7835 54.4996C40.4878 54.4996 44.9757 56.0077 48.7607 58.8084C49.6799 59.5086 50.518 60.2626 51.3291 61.0705C52.1942 61.9592 52.9783 62.9287 53.7082 64.0058C54.4923 65.1908 55.1682 66.4295 55.7089 67.6683C56.8174 70.3343 57.3851 73.162 57.3851 76.0165C57.3851 76.7975 57.331 77.5515 57.2499 78.3594C57.1148 79.4905 56.9255 80.5946 56.6011 81.6987C56.1955 83.2337 55.6278 84.661 54.9249 85.9805C51.1669 93.1169 43.8402 97.5603 35.7835 97.5603C32.6203 97.5603 29.5653 96.8871 26.6725 95.5137C25.3207 94.8943 23.9959 94.0864 22.7253 93.1169C21.806 92.4167 20.9679 91.6627 20.1839 90.8548C17.6696 88.2426 15.8582 84.9841 14.8849 81.4294C14.5334 80.0021 14.2901 78.6018 14.236 77.3091V76.7705C14.1819 76.5012 14.1549 76.232 14.1549 75.9896C14.1549 75.1548 14.209 74.3469 14.2901 73.5659V73.6467ZM6.04418 92.2282C6.04418 90.1008 7.63929 87.8117 10.5862 85.6304C11.3702 87.704 12.4246 89.643 13.6953 91.4473C11.0188 93.2785 9.42365 95.2982 8.93701 97.5065C7.07154 95.756 6.07122 93.9787 6.07122 92.2282H6.04418ZM127.516 97.5334C126.353 92.4437 119.135 88.5388 108.78 85.8459V78.1978C122.352 81.9141 130.409 87.2462 130.409 92.2552C130.409 94.0056 129.381 95.8099 127.516 97.5603V97.5334Z" fill="url(#paint0_linear_950_9859)"/>
<path d="M46.6785 29.2408C46.7596 30.8836 47.0299 32.6071 47.4895 34.4383C48.6791 38.8817 50.9501 42.9481 54.1133 46.2335C55.1136 47.2569 56.141 48.1725 57.2765 49.0342C58.8716 50.2461 60.5478 51.2425 62.224 52.0234C65.8198 53.72 69.6589 54.5548 73.6061 54.5548C83.6904 54.5548 92.8556 49.0073 97.5327 40.0935C98.4249 38.4508 99.1279 36.6465 99.6415 34.7614C100.02 33.415 100.317 31.9877 100.453 30.5873C100.561 29.5909 100.642 28.6215 100.642 27.6251C100.642 24.0434 99.9389 20.5156 98.5331 17.1763C97.8572 15.5875 97.0191 14.0525 96.0458 12.5713C95.1266 11.2248 94.1262 10.013 93.0448 8.90889C92.0445 7.88556 91.0171 6.96994 89.8546 6.10819C85.0963 2.5804 79.4999 0.695312 73.6061 0.695312C61.5211 0.695312 50.8149 8.80117 47.5977 20.354C47.2192 21.6197 46.9488 23.0201 46.7596 24.5551C46.6514 25.5515 46.5703 26.5748 46.5703 27.6251C46.5703 28.029 46.5703 28.406 46.6244 28.81V29.2408H46.6785ZM52.1667 25.2283C52.3289 24.0165 52.5452 22.8854 52.8426 21.8352C55.411 12.5713 63.9813 6.08126 73.6602 6.08126C78.3644 6.08126 82.8523 7.58933 86.6373 10.39C87.5565 11.0902 88.3946 11.8442 89.2057 12.6521C90.0709 13.5408 90.8549 14.5103 91.5849 15.5875C92.3689 16.7724 93.0448 18.0111 93.5855 19.2499C94.694 21.916 95.2617 24.7167 95.2617 27.5981C95.2617 28.3791 95.2077 29.1331 95.1266 29.941C95.0184 31.0721 94.8021 32.1762 94.4777 33.2803C94.0722 34.8153 93.5044 36.2426 92.8015 37.5621C89.0435 44.6985 81.7168 49.1419 73.6602 49.1419C70.497 49.1419 67.4419 48.4687 64.5491 47.0953C63.1973 46.4759 61.8726 45.668 60.6019 44.6985C59.6827 43.9984 58.8446 43.2443 58.0605 42.4364C55.5462 39.8242 53.7348 36.5657 52.7885 33.011C52.41 31.5837 52.1938 30.1834 52.1397 28.8908V28.3522C52.0856 28.0829 52.0586 27.8136 52.0586 27.5712C52.0586 26.7364 52.1126 25.9285 52.1938 25.1475L52.1667 25.2283Z" fill="url(#paint1_linear_950_9859)"/>
<path d="M8.2048 28.8461C8.25294 29.8245 8.41338 30.851 8.68614 31.9418C9.3921 34.5883 10.7398 37.0104 12.617 38.9672C13.2107 39.5768 13.8204 40.1221 14.4942 40.6354C15.4409 41.3572 16.4356 41.9507 17.4304 42.4158C19.5643 43.4263 21.8426 43.9236 24.1851 43.9236C30.1697 43.9236 35.6088 40.6193 38.3845 35.3101C38.914 34.3317 39.3311 33.257 39.636 32.1342C39.8606 31.3322 40.0371 30.4821 40.1173 29.6481C40.1815 29.0546 40.2296 28.4771 40.2296 27.8837C40.2296 25.7504 39.8125 23.6491 38.9782 21.6602C38.577 20.7138 38.0797 19.7995 37.5021 18.9173C36.9566 18.1154 36.3629 17.3936 35.7211 16.7359C35.1275 16.1264 34.5178 15.581 33.8279 15.0678C31.004 12.9665 27.6828 11.8438 24.1851 11.8438C17.0132 11.8438 10.6596 16.6718 8.75032 23.5529C8.52569 24.3068 8.36525 25.1408 8.25294 26.0551C8.18876 26.6486 8.14062 27.2581 8.14062 27.8837C8.14062 28.1243 8.14063 28.3488 8.17271 28.5894V28.8461H8.2048ZM11.4618 26.4561C11.5581 25.7343 11.6865 25.0606 11.8629 24.4351C13.3872 18.9174 18.4733 15.0517 24.2172 15.0517C27.009 15.0517 29.6723 15.95 31.9186 17.6181C32.4641 18.0352 32.9615 18.4843 33.4428 18.9655C33.9562 19.4948 34.4215 20.0722 34.8547 20.7138C35.32 21.4196 35.7211 22.1574 36.042 22.8952C36.6998 24.4832 37.0368 26.1513 37.0368 27.8676C37.0368 28.3328 37.0047 28.7819 36.9566 29.2631C36.8924 29.9368 36.764 30.5944 36.5715 31.252C36.3308 32.1663 35.9939 33.0164 35.5767 33.8024C33.3465 38.053 28.9985 40.6995 24.2172 40.6995C22.34 40.6995 20.527 40.2985 18.8102 39.4805C18.008 39.1116 17.2218 38.6304 16.4677 38.053C15.9222 37.6359 15.4248 37.1868 14.9595 36.7056C13.4674 35.1497 12.3924 33.2089 11.8309 31.0916C11.6062 30.2415 11.4779 29.4075 11.4458 28.6375V28.3167C11.4137 28.1563 11.3977 27.9959 11.3977 27.8516C11.3977 27.3543 11.4297 26.8731 11.4779 26.408L11.4618 26.4561Z" fill="url(#paint2_linear_950_9859)"/>
<path fill-rule="evenodd" clip-rule="evenodd" d="M71.3045 12.353C72.9631 11.6617 74.5517 11.7792 75.6644 12.0903C76.3012 12.27 76.8401 12.4912 77.6658 13.1686C78.4916 13.8461 78.9255 14.8345 78.6176 14.7723L78.5406 14.7585C78.0997 14.6755 77.7148 14.5926 77.148 14.5442C76.5461 14.4889 75.7134 14.558 75.4054 14.5926C73.9498 14.7447 72.9981 15.3322 72.2633 15.7885C71.0036 16.5696 69.7369 17.8276 68.7502 19.1756C67.9034 20.3369 66.9866 21.9267 66.2658 23.8553C65.8879 24.8715 65.615 26.0258 65.615 26.8277C65.615 27.2494 65.65 27.8922 65.9649 28.5282C66.5528 27.4153 67.5465 25.542 68.2883 24.2701C69.499 22.2032 71.1645 19.5558 73.229 18.277C75.4894 16.8737 78.3447 16.8599 80.899 18.3115C82.4246 19.1825 83.1734 20.0465 84.566 21.8576C85.3988 22.9429 85.9727 24.0212 86.5325 25.065C86.6445 25.2793 86.7635 25.4936 86.8754 25.701C87.1134 26.1364 87.6102 27.2079 88.1421 29.0466C88.674 30.8853 88.7579 32.9452 88.618 34.0374C88.394 35.8001 87.4983 37.0996 86.6725 37.8946C86.1966 38.3508 85.7347 38.7033 84.727 39.0697C83.7193 39.4361 82.6415 39.3116 82.8445 39.0835L82.9005 39.0213C83.1944 38.6895 83.4533 38.3923 83.7892 37.9361C84.1391 37.4453 84.4891 36.6987 84.615 36.4222C85.2099 35.1019 85.1679 33.989 85.1399 33.1319C85.0839 31.6595 84.615 29.9452 83.9292 28.4383C83.3344 27.1318 82.4036 25.5558 81.067 23.9728C80.3671 23.1433 79.4854 22.3346 78.7856 21.9337C78.4286 21.7332 77.8828 21.4498 77.204 21.3876C77.8898 22.4452 79.0445 24.2493 79.7863 25.5281C80.997 27.595 82.4806 30.3462 82.5716 32.7517C82.6765 35.3923 81.2559 37.8393 78.7086 39.2978C77.183 40.1688 76.0493 40.3762 73.7609 40.6596C72.3962 40.8255 71.1575 40.784 69.9679 40.7356C69.7229 40.7287 69.478 40.7149 69.2331 40.708C68.7292 40.6941 67.5465 40.5835 65.664 40.1204C63.7815 39.6573 61.934 38.6964 61.0452 38.0328C59.6106 36.9614 58.9178 35.5443 58.6378 34.4383C58.4769 33.8024 58.3999 33.2287 58.5818 32.1849C58.7638 31.1411 59.4146 30.277 59.5126 30.5674C59.5196 30.595 59.5336 30.6157 59.5406 30.6434C59.6876 31.0581 59.8135 31.4314 60.0515 31.9429C60.3034 32.489 60.7793 33.1595 60.9682 33.4084C61.829 34.5766 62.8227 35.095 63.5925 35.496C64.9082 36.1803 66.6507 36.6365 68.3163 36.8093C69.7579 36.9545 71.6124 36.9407 73.6629 36.595C74.7406 36.4084 75.8883 36.0628 76.5951 35.6619C76.973 35.4476 77.5399 35.0881 77.9388 34.4729C76.6861 34.5282 74.4537 34.6181 72.9211 34.6181C70.5067 34.6181 67.3505 34.5144 65.1951 33.3876C62.8297 32.1572 61.3881 29.7171 61.3881 26.807C61.3881 25.065 61.766 23.9936 62.6688 21.8991C63.2076 20.6479 63.8655 19.6111 64.4953 18.6157C64.6283 18.4083 64.7542 18.2078 64.8872 18.0005C65.1531 17.5788 65.8389 16.618 67.1826 15.2424C68.5262 13.8668 70.2968 12.7677 71.3255 12.3391L71.3045 12.353ZM77.8268 30.5328C77.7008 30.2494 77.5469 29.9521 77.3719 29.6411C75.8113 26.8761 74.4327 24.5535 73.7119 23.3576C73.5019 23.6272 73.299 23.9383 73.089 24.2839C71.4865 26.9383 70.1638 29.2263 69.457 30.4637C69.7789 30.4982 70.1288 30.519 70.4997 30.5259C73.6909 30.5743 76.4062 30.5535 77.8198 30.5397L77.8268 30.5328Z" fill="url(#paint3_linear_950_9859)"/>
<path d="M19.5037 27.8359C19.5037 27.8359 19.5037 27.8617 19.5037 27.8745H19.5158C19.5158 27.8745 19.5759 28.0034 19.6361 28.042L23.8713 30.7089L28.1065 28.042C28.2629 27.939 28.3231 27.7071 28.2148 27.5396L23.8593 20.0156L19.5037 27.5396C19.4556 27.6169 19.4556 27.7071 19.4676 27.7844V27.823L19.5037 27.8359Z" fill="url(#paint4_linear_950_9859)"/>
<path d="M23.601 34.9729C23.6649 35.0604 23.7672 35.1105 23.8695 35.1105C23.9718 35.1105 24.0741 35.0604 24.1381 34.9729L28.8697 29.0452C28.972 28.9202 28.8185 28.7576 28.6906 28.8451L23.8695 31.8715L19.0484 28.8451C18.9205 28.7576 18.7671 28.9327 18.8694 29.0452L23.601 34.9729Z" fill="url(#paint5_linear_950_9859)"/>
<defs>
<linearGradient id="paint0_linear_950_9859" x1="68.2535" y1="49.1406" x2="68.2535" y2="162.246" gradientUnits="userSpaceOnUse">
<stop stop-color="#B2B2FF"/>
<stop offset="0.5" stop-color="#FFBA94"/>
<stop offset="1" stop-color="#FF89BD"/>
</linearGradient>
<linearGradient id="paint1_linear_950_9859" x1="73.6061" y1="0.695312" x2="73.6061" y2="54.5548" gradientUnits="userSpaceOnUse">
<stop stop-color="#B2B2FF"/>
<stop offset="0.5" stop-color="#FFBA94"/>
<stop offset="1" stop-color="#FF89BD"/>
</linearGradient>
<linearGradient id="paint2_linear_950_9859" x1="24.1851" y1="11.8438" x2="24.1851" y2="43.9236" gradientUnits="userSpaceOnUse">
<stop stop-color="#B2B2FF"/>
<stop offset="0.5" stop-color="#FFBA94"/>
<stop offset="1" stop-color="#FF89BD"/>
</linearGradient>
<linearGradient id="paint3_linear_950_9859" x1="73.5773" y1="11.8437" x2="73.5773" y2="40.7785" gradientUnits="userSpaceOnUse">
<stop stop-color="#B2B2FF"/>
<stop offset="0.5" stop-color="#FFBA94"/>
<stop offset="1" stop-color="#FF89BD"/>
</linearGradient>
<linearGradient id="paint4_linear_950_9859" x1="23.8653" y1="20.0156" x2="23.8653" y2="30.7089" gradientUnits="userSpaceOnUse">
<stop stop-color="#B2B2FF"/>
<stop offset="0.5" stop-color="#FFBA94"/>
<stop offset="1" stop-color="#FF89BD"/>
</linearGradient>
<linearGradient id="paint5_linear_950_9859" x1="23.8695" y1="28.8203" x2="23.8695" y2="35.1105" gradientUnits="userSpaceOnUse">
<stop stop-color="#B2B2FF"/>
<stop offset="0.5" stop-color="#FFBA94"/>
<stop offset="1" stop-color="#FF89BD"/>
</linearGradient>
</defs>
</svg>
