<svg width="80" height="119" viewBox="0 0 80 119" fill="none" xmlns="http://www.w3.org/2000/svg">
<g clip-path="url(#clip0_949_9756)">
<path d="M46.7032 103.901C47.8827 103.867 48.9526 103.319 49.6591 102.387C50.3891 101.425 50.6064 100.219 50.2588 99.0718L46.2283 85.7687L46.2275 85.7661C46.1172 85.3949 46.2651 85.0193 46.5433 84.7956L46.5448 84.7943C49.0228 82.8169 50.4156 79.9049 50.3765 76.8016C50.3425 74.1686 49.2801 71.6758 47.3782 69.7807C45.4742 67.8853 42.9483 66.806 40.2626 66.7407C37.4351 66.6773 34.7689 67.7008 32.7508 69.6363L32.7506 69.6365C30.7303 71.5725 29.6217 74.1614 29.6217 76.9304C29.6217 79.983 31.0163 82.8487 33.4569 84.7961L33.4579 84.7969C33.7205 85.0074 33.8903 85.3733 33.7753 85.7512L46.7032 103.901ZM46.7032 103.901H46.5837H33.4145C32.1879 103.901 31.0694 103.348 30.3391 102.385C29.6091 101.423 29.3919 100.217 29.7394 99.07L33.7748 85.7526L46.7032 103.901ZM6.31562 49.0789L6.69831 48.9865V48.5929V33.2357C6.69831 24.8877 9.89531 16.9387 15.7023 10.8512C21.4837 4.79241 29.297 1.14385 37.705 0.580318C47.0875 -0.0475475 55.9659 3.02166 62.7136 9.22016L62.7137 9.22021C69.5424 15.4915 73.3035 24.1172 73.3035 33.5181V48.5929V48.9865L73.6862 49.0789C77.0268 49.8851 79.5018 52.8518 79.5018 56.3635V111C79.5018 115.128 76.0832 118.501 71.864 118.501H71.8623H8.13774C3.91856 118.501 0.5 115.128 0.5 111V56.3635C0.5 52.8518 2.975 49.8851 6.31562 49.0789ZM37.9047 3.43276L37.904 3.43281C30.2418 3.9463 23.116 7.27203 17.8424 12.8009C12.5428 18.3554 9.62356 25.6126 9.62356 33.2357V50.2698C9.62356 51.0627 8.96515 51.7221 8.13774 51.7221C5.54662 51.7221 3.42524 53.7956 3.42524 56.3635V111C3.42524 113.568 5.54662 115.642 8.13774 115.642H71.8623C74.4534 115.642 76.5748 113.568 76.5748 111V56.3635C76.5748 53.7956 74.4534 51.7221 71.8623 51.7221C71.0349 51.7221 70.3764 51.0627 70.3764 50.2698V33.5181C70.3764 24.9225 66.944 17.0296 60.7102 11.3043L60.372 11.6725L60.7102 11.3043C55.0865 6.13941 47.83 3.35977 40.091 3.35977H40.0892C39.3641 3.35977 38.6359 3.38472 37.9047 3.43276ZM40.4982 69.6123V69.5946H39.9982C38.0435 69.5946 36.2027 70.3295 34.7991 71.6756L34.799 71.6757C33.3495 73.0669 32.547 74.9333 32.547 76.9304C32.547 79.1268 33.5563 81.1863 35.3063 82.5818C36.5245 83.554 37.0179 85.117 36.5793 86.5645L32.5435 99.8834L32.5433 99.8839C32.4343 100.245 32.5714 100.53 32.6864 100.683C32.8069 100.843 33.0446 101.044 33.4127 101.044H46.5819C46.953 101.044 47.1887 100.842 47.3083 100.683C47.4233 100.53 47.5604 100.245 47.4513 99.8839L47.4512 99.8834L43.4207 86.5805C43.4207 86.5805 43.4207 86.5804 43.4207 86.5803C42.9799 85.1225 43.4732 83.553 44.6921 82.5799C46.4685 81.1621 47.4782 79.0701 47.4494 76.838C47.4008 73.0353 44.3074 69.8645 40.4982 69.6123ZM18.8523 35.1652V35.1643L18.8487 33.2357C18.8487 33.2354 18.8487 33.2351 18.8487 33.2348C18.8492 21.7826 28.3303 12.4497 40 12.4497C51.67 12.4497 61.1512 21.7831 61.1513 33.2356C61.1513 33.2356 61.1513 33.2357 61.1513 33.2357L61.1477 50.2697V50.2698C61.1477 51.0627 60.4893 51.7221 59.6619 51.7221H20.3381C19.5107 51.7221 18.8523 51.0627 18.8523 50.2698V35.1652ZM21.7775 48.3631V48.8631H22.2775H57.7225H58.2225V48.3631V32.8972H58.2226L58.2224 32.8874C58.0332 23.1533 49.9248 15.3087 40 15.3087C30.0752 15.3087 21.9503 23.1694 21.7776 32.9164H21.7775V32.9252V33.2357V48.3631Z" fill="url(#paint0_linear_949_9756)" stroke="url(#paint1_linear_949_9756)"/>
</g>
<defs>
<linearGradient id="paint0_linear_949_9756" x1="30.192" y1="141.662" x2="81.3854" y2="-54.425" gradientUnits="userSpaceOnUse">
<stop stop-color="#AFAFFF"/>
<stop offset="0.34375" stop-color="#FF8FB8"/>
<stop offset="0.723958" stop-color="#FFBB9B"/>
</linearGradient>
<linearGradient id="paint1_linear_949_9756" x1="30.192" y1="141.662" x2="81.3854" y2="-54.425" gradientUnits="userSpaceOnUse">
<stop stop-color="#AFAFFF"/>
<stop offset="0.34375" stop-color="#FF8FB8"/>
<stop offset="0.723958" stop-color="#FFBB9B"/>
</linearGradient>
<clipPath id="clip0_949_9756">
<rect width="80" height="119" fill="white"/>
</clipPath>
</defs>
</svg>
