<svg width="80" height="120" viewBox="0 0 80 120" fill="none" xmlns="http://www.w3.org/2000/svg">
<path d="M8.13774 120.001C3.65048 120.001 0 116.382 0 111.933V56.8372C0 53.0519 2.64419 49.8662 6.19831 49.0012V33.515C6.19831 24.9662 9.44556 16.826 15.3406 10.5943C21.2088 4.39279 29.1396 0.65876 37.6716 0.082118C47.1868 -0.559972 56.2006 2.57972 63.0519 8.92633C69.9853 15.3472 73.8035 24.1808 73.8035 33.7998V49.0012C77.3576 49.8662 80.0018 53.0519 80.0018 56.8372V111.933C80.0018 116.382 76.3513 120.001 71.864 120.001H71.8623H8.13774ZM40.0892 3.8922C39.3755 3.8922 38.6583 3.91697 37.9375 3.96473C30.3992 4.47415 23.3909 7.77304 18.2042 13.2565C12.9926 18.7646 10.1236 25.9585 10.1236 33.515V50.6922C10.1236 51.7783 9.23324 52.6609 8.13774 52.6609C5.81471 52.6609 3.92524 54.5341 3.92524 56.8372V111.933C3.92524 114.236 5.81471 116.109 8.13774 116.109H71.8623C74.1853 116.109 76.0748 114.236 76.0748 111.933V56.8372C76.0748 54.5341 74.1853 52.6609 71.8623 52.6609C70.7668 52.6609 69.8764 51.7783 69.8764 50.6922V33.7998C69.8764 25.2704 66.5007 17.4468 60.372 11.7706C54.8428 6.64983 47.7077 3.8922 40.091 3.8922H40.0892ZM46.5837 105.279H33.4145C32.0335 105.279 30.7668 104.649 29.9407 103.551C29.1146 102.452 28.8666 101.069 29.2609 99.7564L33.2968 86.3255C33.3414 86.1787 33.2807 86.0125 33.1451 85.9028C30.5883 83.8456 29.1217 80.8121 29.1217 77.5769C29.1217 74.6459 30.2868 71.9042 32.4047 69.8576C34.5207 67.8111 37.3166 66.7303 40.2748 66.7975C43.0885 66.8665 45.7362 68.0074 47.7309 70.0097C49.7239 72.0121 50.8408 74.6512 50.8765 77.4406C50.9175 80.7289 49.4527 83.812 46.8567 85.901C46.7193 86.0125 46.6604 86.1858 46.7068 86.3432L50.7373 99.7581C51.1316 101.071 50.8836 102.454 50.0575 103.552C49.2315 104.651 47.9647 105.28 46.5837 105.28V105.279ZM39.9982 70.6837C38.1712 70.6837 36.4548 71.3753 35.1452 72.6418C33.7928 73.9507 33.047 75.7019 33.047 77.5769C33.047 79.634 33.9837 81.5674 35.618 82.8816C36.9918 83.9871 37.5574 85.7754 37.0579 87.4381L33.022 100.869C32.9738 101.03 33.0309 101.152 33.0862 101.226C33.1415 101.301 33.245 101.389 33.4127 101.389H46.5819C46.7514 101.389 46.8531 101.301 46.9084 101.226C46.9637 101.152 47.0208 101.03 46.9727 100.869L42.9421 87.4541C42.4408 85.7825 43.0046 83.9871 44.3802 82.8798C46.0395 81.5444 46.9762 79.5809 46.9495 77.4902C46.9031 73.8304 43.8646 70.7774 40.1766 70.6872C40.1472 70.6872 40.1173 70.6868 40.0874 70.6863C40.0575 70.6859 40.0277 70.6854 39.9982 70.6854V70.6837ZM59.6619 52.6609H20.3381C19.2426 52.6609 18.3523 51.7783 18.3523 50.6922V35.4607L18.3487 33.515C18.3487 21.6797 28.0619 12.0501 40 12.0501C51.9381 12.0501 61.6513 21.6797 61.6513 33.515L61.6477 50.6922C61.6477 51.7783 60.7574 52.6609 59.6619 52.6609ZM22.2775 48.7695H57.7225V33.1736C57.5387 23.6396 49.6597 15.9416 40 15.9416C30.3403 15.9416 22.4452 23.6555 22.2775 33.2019V33.515V48.7695Z" fill="url(#paint0_linear_949_9757)"/>
<path d="M8.13774 120.001C3.65048 120.001 0 116.382 0 111.933V56.8372C0 53.0519 2.64419 49.8662 6.19831 49.0012V33.515C6.19831 24.9662 9.44556 16.826 15.3406 10.5943C21.2088 4.39279 29.1396 0.65876 37.6716 0.082118C47.1868 -0.559972 56.2006 2.57972 63.0519 8.92633C69.9853 15.3472 73.8035 24.1808 73.8035 33.7998V49.0012C77.3576 49.8662 80.0018 53.0519 80.0018 56.8372V111.933C80.0018 116.382 76.3513 120.001 71.864 120.001H71.8623H8.13774ZM40.0892 3.8922C39.3755 3.8922 38.6583 3.91697 37.9375 3.96473C30.3992 4.47415 23.3909 7.77304 18.2042 13.2565C12.9926 18.7646 10.1236 25.9585 10.1236 33.515V50.6922C10.1236 51.7783 9.23324 52.6609 8.13774 52.6609C5.81471 52.6609 3.92524 54.5341 3.92524 56.8372V111.933C3.92524 114.236 5.81471 116.109 8.13774 116.109H71.8623C74.1853 116.109 76.0748 114.236 76.0748 111.933V56.8372C76.0748 54.5341 74.1853 52.6609 71.8623 52.6609C70.7668 52.6609 69.8764 51.7783 69.8764 50.6922V33.7998C69.8764 25.2704 66.5007 17.4468 60.372 11.7706C54.8428 6.64983 47.7077 3.8922 40.091 3.8922H40.0892ZM46.5837 105.279H33.4145C32.0335 105.279 30.7668 104.649 29.9407 103.551C29.1146 102.452 28.8666 101.069 29.2609 99.7564L33.2968 86.3255C33.3414 86.1787 33.2807 86.0125 33.1451 85.9028C30.5883 83.8456 29.1217 80.8121 29.1217 77.5769C29.1217 74.6459 30.2868 71.9042 32.4047 69.8576C34.5207 67.8111 37.3166 66.7303 40.2748 66.7975C43.0885 66.8665 45.7362 68.0074 47.7309 70.0097C49.7239 72.0121 50.8408 74.6512 50.8765 77.4406C50.9175 80.7289 49.4527 83.812 46.8567 85.901C46.7193 86.0125 46.6604 86.1858 46.7068 86.3432L50.7373 99.7581C51.1316 101.071 50.8836 102.454 50.0575 103.552C49.2315 104.651 47.9647 105.28 46.5837 105.28V105.279ZM39.9982 70.6837C38.1712 70.6837 36.4548 71.3753 35.1452 72.6418C33.7928 73.9507 33.047 75.7019 33.047 77.5769C33.047 79.634 33.9837 81.5674 35.618 82.8816C36.9918 83.9871 37.5574 85.7754 37.0579 87.4381L33.022 100.869C32.9738 101.03 33.0309 101.152 33.0862 101.226C33.1415 101.301 33.245 101.389 33.4127 101.389H46.5819C46.7514 101.389 46.8531 101.301 46.9084 101.226C46.9637 101.152 47.0208 101.03 46.9727 100.869L42.9421 87.4541C42.4408 85.7825 43.0046 83.9871 44.3802 82.8798C46.0395 81.5444 46.9762 79.5809 46.9495 77.4902C46.9031 73.8304 43.8646 70.7774 40.1766 70.6872C40.1472 70.6872 40.1173 70.6868 40.0874 70.6863C40.0575 70.6859 40.0277 70.6854 39.9982 70.6854V70.6837ZM59.6619 52.6609H20.3381C19.2426 52.6609 18.3523 51.7783 18.3523 50.6922V35.4607L18.3487 33.515C18.3487 21.6797 28.0619 12.0501 40 12.0501C51.9381 12.0501 61.6513 21.6797 61.6513 33.515L61.6477 50.6922C61.6477 51.7783 60.7574 52.6609 59.6619 52.6609ZM22.2775 48.7695H57.7225V33.1736C57.5387 23.6396 49.6597 15.9416 40 15.9416C30.3403 15.9416 22.4452 23.6555 22.2775 33.2019V33.515V48.7695Z" stroke="url(#paint1_linear_949_9757)"/>
<defs>
<linearGradient id="paint0_linear_949_9757" x1="30.192" y1="142.852" x2="82.1934" y2="-54.6696" gradientUnits="userSpaceOnUse">
<stop stop-color="#AFAFFF"/>
<stop offset="0.34375" stop-color="#FF8FB8"/>
<stop offset="0.723958" stop-color="#FFBB9B"/>
</linearGradient>
<linearGradient id="paint1_linear_949_9757" x1="30.192" y1="142.852" x2="82.1934" y2="-54.6696" gradientUnits="userSpaceOnUse">
<stop stop-color="#AFAFFF"/>
<stop offset="0.34375" stop-color="#FF8FB8"/>
<stop offset="0.723958" stop-color="#FFBB9B"/>
</linearGradient>
</defs>
</svg>
