<svg width="142" height="34" viewBox="0 0 142 34" fill="none" xmlns="http://www.w3.org/2000/svg">
<g clip-path="url(#clip0_37_11069)">
<path fill-rule="evenodd" clip-rule="evenodd" d="M42.4364 13.3061C41.3992 13.3061 40.5464 13.6663 39.8784 14.3649C39.2331 15.0626 38.91 15.9415 38.91 17C38.91 19.0953 40.3389 20.6944 42.4364 20.6944C44.4874 20.6944 45.9625 19.2298 45.9625 17C45.9625 14.7701 44.4874 13.3061 42.4364 13.3061ZM49.12 10.9415V23.0598H45.9624V21.3488C45.133 22.6772 43.6579 23.3759 41.9292 23.3759C38.472 23.3759 35.8912 20.5825 35.8912 17.0007C35.8452 13.4642 38.4954 10.5589 41.9292 10.6261C43.6579 10.6261 45.133 11.3023 45.9624 12.6311V10.9415H49.12Z" fill="white"/>
<path fill-rule="evenodd" clip-rule="evenodd" d="M60.9412 22.6309C60.2266 23.0808 59.0281 23.3742 57.899 23.3742C54.834 23.3742 53.2205 21.6622 53.2205 18.3284V13.6206H50.5703V10.9398H53.2205V7.71875H56.3548V10.9398H60.4805V13.6206H56.3548V18.3056C56.3548 19.8375 57.0232 20.6481 58.3139 20.6481C59.0054 20.6481 59.6508 20.4907 60.25 20.1751L60.9412 22.6309Z" fill="white"/>
<path fill-rule="evenodd" clip-rule="evenodd" d="M68.4051 13.329C66.285 13.329 64.8329 14.9285 64.8329 17.0002C64.8329 18.0587 65.1555 18.9147 65.8236 19.6134C66.4921 20.3115 67.3448 20.6494 68.4051 20.6494C69.4653 20.6494 70.3181 20.3115 70.9865 19.6134C71.6549 18.9147 72.0003 18.0587 72.0003 17.0002C72.0003 14.9285 70.5485 13.329 68.4051 13.329ZM68.4049 10.6255C72.2076 10.6255 74.996 13.3736 74.996 17.0001C74.996 20.6266 72.2076 23.3753 68.4049 23.3753C64.6945 23.4197 61.7445 20.582 61.8137 17.0001C61.7445 13.419 64.6945 10.5801 68.4049 10.6255Z" fill="white"/>
<path fill-rule="evenodd" clip-rule="evenodd" d="M97.0122 23.0588H93.8776V16.4371C93.8776 14.3871 93.0021 13.3058 91.4118 13.3058C89.7753 13.3058 88.5772 14.725 88.5772 16.7296V23.0588H85.4198V16.4371C85.4198 14.3871 84.5439 13.3058 82.9536 13.3058C82.1473 13.3058 81.4554 13.6211 80.9257 14.2745C80.3956 14.9277 80.119 15.7384 80.119 16.7296V23.0588H76.9844V10.9403H80.119V12.675C80.7874 11.4357 82.1012 10.625 83.6912 10.625C85.6269 10.625 87.0559 11.4585 87.8626 12.9903C88.6689 11.5483 90.1214 10.625 92.0802 10.625C95.1453 10.625 97.0122 12.7197 97.0122 16.2114V23.0588Z" fill="white"/>
<mask id="mask0_37_11069" style="mask-type:alpha" maskUnits="userSpaceOnUse" x="0" y="0" width="131" height="34">
<path fill-rule="evenodd" clip-rule="evenodd" d="M0 34H130.867V0H0V34Z" fill="white"/>
</mask>
<g mask="url(#mask0_37_11069)">
<path fill-rule="evenodd" clip-rule="evenodd" d="M99.524 23.0612H102.659V10.9429H99.524V23.0612ZM101.092 5.67188C102.198 5.67188 103.051 6.4832 103.051 7.49659C103.051 8.55504 102.221 9.32097 101.092 9.32097C99.9625 9.32097 99.1328 8.55504 99.1328 7.49659C99.1328 6.4832 99.9625 5.67188 101.092 5.67188Z" fill="white"/>
<path fill-rule="evenodd" clip-rule="evenodd" d="M111.233 10.6255C113.607 10.6255 115.634 11.6843 116.764 13.419L114.207 14.8375C113.56 13.9142 112.501 13.3289 111.233 13.3289C109.113 13.3289 107.661 14.9279 107.661 17.0001C107.661 18.0586 107.984 18.9146 108.652 19.6133C109.32 20.3113 110.173 20.6492 111.233 20.6492C112.523 20.6492 113.584 20.1086 114.207 19.1399L116.764 20.582C115.634 22.294 113.607 23.3753 111.233 23.3753C107.523 23.4197 104.573 20.582 104.642 17.0001C104.573 13.419 107.523 10.5801 111.233 10.6255Z" fill="white"/>
<path fill-rule="evenodd" clip-rule="evenodd" d="M124.186 13.3061C123.149 13.3061 122.296 13.6663 121.628 14.3649C120.983 15.0626 120.66 15.9415 120.66 17C120.66 19.0953 122.088 20.6944 124.186 20.6944C126.238 20.6944 127.712 19.2298 127.712 17C127.712 14.7701 126.238 13.3061 124.186 13.3061ZM130.87 10.9415V23.0598H127.712V21.3488C126.883 22.6772 125.408 23.3759 123.679 23.3759C120.222 23.3759 117.641 20.5825 117.641 17.0007C117.595 13.4642 120.246 10.5589 123.679 10.6261C125.408 10.6261 126.883 11.3023 127.712 12.6311V10.9415H130.87Z" fill="white"/>
<path fill-rule="evenodd" clip-rule="evenodd" d="M16.8614 16.9982C16.8614 18.4642 15.6455 19.6523 14.1455 19.6523C12.6456 19.6523 11.4297 18.4642 11.4297 16.9982C11.4297 15.5323 12.6456 14.3438 14.1455 14.3438C15.6455 14.3438 16.8614 15.5323 16.8614 16.9982Z" fill="white"/>
<path fill-rule="evenodd" clip-rule="evenodd" d="M14.2276 0C18.5929 0 22.9231 1.70184 26.0581 4.68092C27.345 5.90389 28.1014 7.48217 28.2634 9.23078C28.5935 12.7785 25.9188 15.4057 22.289 15.0511C20.2628 14.8531 18.3466 13.5568 17.1652 11.9706C15.2023 9.3359 13.5558 6.4855 10.3841 5.06048C7.70208 3.8556 4.68343 4.12251 1.9375 4.97583C5.08258 1.90151 9.42828 0 14.2276 0Z" fill="white"/>
<path fill-rule="evenodd" clip-rule="evenodd" d="M14.0635 0C9.91197 0 5.79152 1.53937 2.70197 4.2529C1.48844 5.31851 0.569637 6.68723 0.194225 8.23889C-0.782193 12.2743 2.0416 15.4378 6.00245 15.0511C8.02863 14.8531 9.94444 13.5568 11.1262 11.9706C13.0888 9.3359 14.7354 6.4855 17.9074 5.06048C20.5894 3.8556 23.608 4.12251 26.3536 4.97583C23.2085 1.90151 18.8632 0 14.0635 0Z" fill="white"/>
<path fill-rule="evenodd" clip-rule="evenodd" d="M14.0634 33.9972C9.69848 33.9972 5.3678 32.2957 2.23321 29.3163C0.946329 28.0933 0.189919 26.5153 0.0275308 24.7667C-0.302482 21.2186 2.37254 18.5915 6.00234 18.9461C8.02851 19.1441 9.94433 20.4404 11.1261 22.027C13.0887 24.6617 14.7353 27.5117 17.9073 28.937C20.5892 30.1419 23.6079 29.875 26.3535 29.0217C23.2084 32.0956 18.8631 33.9972 14.0634 33.9972Z" fill="white"/>
<path fill-rule="evenodd" clip-rule="evenodd" d="M14.2276 33.9972C18.5929 33.9972 22.9231 32.2957 26.0581 29.3163C27.345 28.0933 28.1014 26.5153 28.2634 24.7667C28.5935 21.2186 25.9188 18.5915 22.289 18.9461C20.2628 19.1441 18.3466 20.4404 17.1652 22.027C15.2023 24.6617 13.5558 27.5117 10.3841 28.937C7.70208 30.1419 4.68343 29.875 1.9375 29.0217C5.08258 32.0956 9.42828 33.9972 14.2276 33.9972Z" fill="white"/>
</g>
<path fill-rule="evenodd" clip-rule="evenodd" d="M138.95 11.9217V14.0637H138.234V10.6328H138.964L140.118 12.6126L141.274 10.6328H141.996V14.0637H141.27V11.9357L140.421 13.3915H139.809L138.95 11.9217ZM136.371 11.2913V14.0639H135.626V11.2913H134.531V10.633H137.471V11.2913H136.371Z" fill="white"/>
</g>
<defs>
<clipPath id="clip0_37_11069">
<rect width="142" height="34" fill="white"/>
</clipPath>
</defs>
</svg>
