<svg width="159" height="159" viewBox="0 0 159 159" fill="none" xmlns="http://www.w3.org/2000/svg">
<g clip-path="url(#clip0_949_9768)">
<path d="M78.938 138.462C80.3016 136.615 81.0385 134.39 81.0385 132.05C81.0385 126.082 76.1831 121.227 70.2146 121.227H17.6417C14.7491 121.227 12.031 122.352 9.98772 124.396C7.94349 126.44 6.81777 129.158 6.81777 132.05C6.81777 134.447 7.60206 136.663 8.9254 138.458C4.001 141.048 0.632812 146.212 0.632812 152.152V155.244C0.632812 156.952 2.01769 158.337 3.72545 158.337H84.1309C85.8386 158.337 87.2235 156.952 87.2235 155.244V152.152C87.2235 146.215 83.8587 141.053 78.938 138.462ZM14.361 128.769C15.2365 127.893 16.4018 127.411 17.6417 127.411H70.2146C72.7725 127.411 74.8533 129.492 74.8533 132.05C74.8533 133.29 74.3708 134.455 73.495 135.331C72.6195 136.207 71.4541 136.689 70.2143 136.689H17.6417C15.0838 136.689 13.003 134.608 13.003 132.05C13.003 130.81 13.4852 129.645 14.361 128.769ZM6.81777 152.152C6.81777 147.036 10.9798 142.874 16.0954 142.874H17.6417H70.2146H71.7609C76.8765 142.874 81.0385 147.036 81.0385 152.152H6.81777Z" fill="url(#paint0_linear_949_9768)"/>
<path d="M156.099 129.929C155.048 128.301 153.795 126.862 152.374 125.651L137.923 113.047C137.811 112.878 137.68 112.717 137.531 112.568C137.28 112.317 136.995 112.121 136.693 111.974L127.954 104.353L87.5053 69.0684C89.1611 67.3375 90.0728 65.074 90.0728 62.667C90.0728 60.1873 89.1076 57.857 87.3532 56.1029C86.5881 55.3387 85.7184 54.7378 84.7891 54.2977L88.5312 50.5556C89.5771 50.8336 90.6518 50.9759 91.7274 50.9759C94.8946 50.9756 98.062 49.7701 100.473 47.3591C102.81 45.022 104.098 41.9154 104.098 38.6115C104.098 35.3077 102.81 32.2011 100.473 29.864L74.233 3.62426C71.8959 1.28715 68.789 0 65.4842 0C62.181 0 59.075 1.28715 56.7382 3.62426C53.5083 6.85421 52.4451 11.4403 53.5417 15.5665L16.2059 52.902C15.1742 52.6277 14.1007 52.4829 13.0041 52.4829C9.69864 52.4829 6.59333 53.7692 4.25808 56.1041C-0.565194 60.9274 -0.565194 68.7756 4.25808 73.5991L30.4982 99.8395C32.9101 102.251 36.0779 103.457 39.2457 103.457C42.4138 103.457 45.5816 102.251 47.9935 99.8395C51.2235 96.6093 52.2867 92.0235 51.1901 87.8973L54.9244 84.1627C55.3732 85.0997 55.9821 85.9644 56.7386 86.7206C58.4908 88.4729 60.8205 89.4381 63.2996 89.4381C65.7041 89.4381 67.9667 88.5279 69.7001 86.874L112.782 136.373C112.901 136.558 113.04 136.735 113.202 136.897C113.257 136.952 113.316 137.003 113.374 137.053L126.212 151.803C126.531 152.18 126.872 152.55 127.227 152.904C130.752 156.429 135.41 158.342 140.299 158.342C141.161 158.342 142.031 158.282 142.902 158.162C148.725 157.356 153.758 153.872 156.709 148.603C159.942 142.828 159.701 135.496 156.099 129.929ZM61.1122 7.99786C62.2809 6.82916 63.834 6.18527 65.4845 6.18527C67.1372 6.18527 68.6913 6.82916 69.8597 7.99786L96.1001 34.2379C97.2688 35.4066 97.9124 36.9601 97.9124 38.6119C97.9124 40.2636 97.2688 41.8171 96.0998 42.9858C93.6891 45.3971 89.7657 45.3971 87.355 42.9858L61.1137 16.7445C61.1131 16.7438 61.1128 16.7435 61.1122 16.7429C58.7008 14.3319 58.7008 10.4089 61.1122 7.99786ZM43.6199 95.4659C41.2083 97.8776 37.2834 97.8779 34.8718 95.4659L8.63169 69.2258C6.21974 66.8139 6.21974 62.89 8.63169 60.4777C9.79823 59.3109 11.3513 58.6682 13.0041 58.6682C14.6564 58.6682 16.2086 59.3105 17.3749 60.4765L43.6196 86.7212C46.0312 89.1319 46.0312 93.0552 43.6199 95.4659ZM56.6405 73.7L47.9932 82.3476L21.7503 56.1047L56.7382 21.1162L82.9808 47.3591L74.3177 56.0225C74.2896 56.0491 74.262 56.075 74.2324 56.1044L56.7472 73.5899C56.711 73.6254 56.6761 73.6625 56.6405 73.7ZM67.6831 80.1515C67.6769 80.1577 67.671 80.1636 67.6648 80.1697L65.487 82.3476C64.9028 82.9315 64.1262 83.2531 63.2993 83.2531C62.4726 83.2531 61.6957 82.9315 61.1119 82.3473C60.527 81.7628 60.2051 80.9853 60.2051 80.158C60.2051 79.3484 60.514 78.5866 61.0747 78.012L78.6412 60.4455C79.8452 59.2747 81.7917 59.2892 82.9814 60.4777C83.5659 61.0622 83.8879 61.8397 83.8879 62.667C83.8879 63.4936 83.5669 64.269 82.9811 64.8532L80.816 67.0183C80.8011 67.0329 80.7863 67.0477 80.7717 67.0625L67.6831 80.1515ZM74.0873 82.4942L83.1258 73.4556L121.395 106.836L107.43 120.801L74.0873 82.4942ZM111.5 125.477L126.066 110.911L130.739 114.986L115.571 130.154L111.5 125.477ZM151.313 145.581C149.317 149.145 145.942 151.497 142.054 152.035C138.176 152.572 134.365 151.294 131.599 148.53C131.361 148.293 131.134 148.045 130.922 147.794C130.912 147.782 130.902 147.77 130.892 147.759L119.641 134.831L135.41 119.061L148.322 130.324C148.332 130.332 148.341 130.341 148.352 130.349C149.318 131.171 150.176 132.158 150.903 133.285C153.242 136.899 153.406 141.841 151.313 145.581Z" fill="url(#paint1_linear_949_9768)"/>
</g>
<defs>
<linearGradient id="paint0_linear_949_9768" x1="43.9282" y1="121.227" x2="43.9282" y2="158.337" gradientUnits="userSpaceOnUse">
<stop stop-color="#B2B2FF"/>
<stop offset="0.5" stop-color="#FFBA94"/>
<stop offset="1" stop-color="#FF89BD"/>
</linearGradient>
<linearGradient id="paint1_linear_949_9768" x1="79.8088" y1="0" x2="79.8088" y2="158.342" gradientUnits="userSpaceOnUse">
<stop stop-color="#B2B2FF"/>
<stop offset="0.5" stop-color="#FFBA94"/>
<stop offset="1" stop-color="#FF89BD"/>
</linearGradient>
<clipPath id="clip0_949_9768">
<rect width="158.343" height="158.343" fill="white" transform="translate(0.632812)"/>
</clipPath>
</defs>
</svg>
