<svg width="141" height="146" viewBox="0 0 141 146" fill="none" xmlns="http://www.w3.org/2000/svg">
<path d="M57.5148 77.5768L47.1907 101.609L47.1907 101.609C46.5843 103.021 47.024 104.665 48.2559 105.585C48.8465 106.026 49.5469 106.246 50.2451 106.246C51.0005 106.246 51.7554 105.988 52.3696 105.479L52.3699 105.478L94.9426 70.1115L94.9427 70.1114C96.0195 69.2166 96.4203 67.7427 95.9455 66.4253L95.945 66.4239C95.4685 65.1079 94.2198 64.2295 92.8181 64.2295H80.9028L88.3918 40.5707L88.3919 40.5701C88.8476 39.1275 88.2721 37.5593 86.9925 36.7532L86.992 36.7529C85.7103 35.9466 84.0467 36.1085 82.945 37.1435L46.0172 71.8286C45.0235 72.762 44.7003 74.2077 45.2024 75.476C45.7039 76.7446 46.9304 77.5768 48.2937 77.5768H57.5148ZM76.3631 70.8788H83.6125L58.7589 91.526L65.6159 75.5639C66.0573 74.5365 65.9523 73.3567 65.3378 72.4234L65.3377 72.4234C64.7228 71.4897 63.6799 70.9272 62.5612 70.9272H56.6896L78.2043 50.719L73.1932 66.5501L73.193 66.5507C72.874 67.5608 73.0543 68.6629 73.6814 69.5188C74.3074 70.3735 75.3035 70.8788 76.3631 70.8788Z" fill="url(#paint0_linear_950_9848)" stroke="url(#paint1_linear_950_9848)" stroke-width="2"/>
<path d="M81.4841 18.7993L81.484 18.7996C80.9921 20.5678 82.0252 22.4017 83.7946 22.8942C104.993 28.7968 119.802 48.3093 119.802 70.3426C119.802 97.4967 97.7086 119.59 70.5535 119.59C43.3995 119.59 21.3056 97.4967 21.3056 70.3426C21.3056 43.1882 43.3995 21.0946 70.5535 21.0946C72.3901 21.0946 73.8783 19.6063 73.8783 17.7698C73.8783 15.9335 72.39 14.4453 70.5535 14.4453C39.7311 14.4453 14.6562 39.5202 14.6562 70.3426C14.6562 101.165 39.7311 126.24 70.5535 126.24C101.377 126.24 126.452 101.165 126.451 70.3426C126.451 45.3336 109.647 23.1909 85.5798 16.4891C83.8058 15.9918 81.9756 17.0343 81.4841 18.7993Z" fill="url(#paint2_linear_950_9848)" stroke="url(#paint3_linear_950_9848)" stroke-width="2"/>
<path d="M53.1664 130.604L53.1659 130.603C26.4938 122.918 7.85994 98.1375 7.85994 70.3478C7.85994 35.7763 35.9869 7.64931 70.5584 7.64931C105.13 7.64931 133.257 35.7763 133.257 70.3478C133.257 104.919 105.13 133.046 70.5584 133.046C68.7219 133.046 67.2336 134.534 67.2336 136.371C67.2336 138.207 68.7223 139.696 70.5584 139.696C108.798 139.696 139.907 108.587 139.907 70.3481C139.907 32.1082 108.798 1 70.5584 1C32.3192 1 1.21094 32.1083 1.21094 70.3481C1.21094 101.087 21.8152 128.491 51.3244 136.993C53.0951 137.503 54.9319 136.483 55.4396 134.719C55.9478 132.954 54.9297 131.113 53.1664 130.604Z" fill="url(#paint4_linear_950_9848)" stroke="url(#paint5_linear_950_9848)" stroke-width="2"/>
<path d="M65.5669 25.939L65.5668 25.939C64.0009 24.9807 63.5069 22.9348 64.4656 21.3679C64.4656 21.3679 64.4657 21.3678 64.4657 21.3677L66.6703 17.7636L64.4565 14.0988C64.4565 14.0987 64.4564 14.0987 64.4564 14.0986C63.507 12.5274 64.0105 10.4832 65.5826 9.53378L65.5669 25.939ZM65.5669 25.939C66.1078 26.27 66.7078 26.4276 67.3003 26.4276C68.4167 26.4276 69.5101 25.8635 70.1378 24.8389L70.1381 24.8383L73.3974 19.5096L73.3975 19.5095C74.0453 18.4502 74.0494 17.1185 73.4064 16.0549L70.1473 10.66L70.1469 10.6594M65.5669 25.939L70.1469 10.6594M70.1469 10.6594C69.1973 9.0901 67.1546 8.58421 65.5829 9.53365L70.1469 10.6594Z" fill="url(#paint6_linear_950_9848)" stroke="url(#paint7_linear_950_9848)" stroke-width="2"/>
<path d="M71.9067 143.417L71.9071 143.417C72.564 144.244 73.5354 144.675 74.5135 144.675C75.2366 144.675 75.9672 144.44 76.5778 143.955L76.5782 143.955C78.0156 142.814 78.2575 140.723 77.117 139.284L77.1167 139.284L74.7408 136.289L77.0228 133.185L77.0229 133.185C78.1103 131.705 77.7913 129.625 76.3129 128.538L76.312 128.537C74.8314 127.45 72.7522 127.765 71.6644 129.248C71.6643 129.248 71.6642 129.248 71.6641 129.248L67.8799 134.397L67.8796 134.398C66.9929 135.605 67.0225 137.257 67.9535 138.432L67.9538 138.432L71.9067 143.417Z" fill="url(#paint8_linear_950_9848)" stroke="url(#paint9_linear_950_9848)" stroke-width="2"/>
<path d="M71.9026 70.8762H76.3649C78.2015 70.8762 79.6897 69.3875 79.6897 67.5514C79.6897 65.7148 78.2015 64.2266 76.3649 64.2266H71.9026C70.0662 64.2266 68.5781 65.7153 68.5781 67.5514C68.5781 69.3879 70.0667 70.8762 71.9026 70.8762Z" fill="url(#paint10_linear_950_9848)" stroke="url(#paint11_linear_950_9848)" stroke-width="2"/>
<defs>
<linearGradient id="paint0_linear_950_9848" x1="70.5557" y1="37.2422" x2="70.5557" y2="105.246" gradientUnits="userSpaceOnUse">
<stop stop-color="#B2B2FF"/>
<stop offset="0.5" stop-color="#FFBA94"/>
<stop offset="1" stop-color="#FF89BD"/>
</linearGradient>
<linearGradient id="paint1_linear_950_9848" x1="70.5557" y1="37.2422" x2="70.5557" y2="105.246" gradientUnits="userSpaceOnUse">
<stop stop-color="#B2B2FF"/>
<stop offset="0.5" stop-color="#FFBA94"/>
<stop offset="1" stop-color="#FF89BD"/>
</linearGradient>
<linearGradient id="paint2_linear_950_9848" x1="70.5539" y1="15.4453" x2="70.5539" y2="125.24" gradientUnits="userSpaceOnUse">
<stop stop-color="#B2B2FF"/>
<stop offset="0.5" stop-color="#FFBA94"/>
<stop offset="1" stop-color="#FF89BD"/>
</linearGradient>
<linearGradient id="paint3_linear_950_9848" x1="70.5539" y1="15.4453" x2="70.5539" y2="125.24" gradientUnits="userSpaceOnUse">
<stop stop-color="#B2B2FF"/>
<stop offset="0.5" stop-color="#FFBA94"/>
<stop offset="1" stop-color="#FF89BD"/>
</linearGradient>
<linearGradient id="paint4_linear_950_9848" x1="70.559" y1="2" x2="70.559" y2="138.696" gradientUnits="userSpaceOnUse">
<stop stop-color="#B2B2FF"/>
<stop offset="0.5" stop-color="#FFBA94"/>
<stop offset="1" stop-color="#FF89BD"/>
</linearGradient>
<linearGradient id="paint5_linear_950_9848" x1="70.559" y1="2" x2="70.559" y2="138.696" gradientUnits="userSpaceOnUse">
<stop stop-color="#B2B2FF"/>
<stop offset="0.5" stop-color="#FFBA94"/>
<stop offset="1" stop-color="#FF89BD"/>
</linearGradient>
<linearGradient id="paint6_linear_950_9848" x1="68.9313" y1="10.0547" x2="68.9313" y2="25.4276" gradientUnits="userSpaceOnUse">
<stop stop-color="#B2B2FF"/>
<stop offset="0.5" stop-color="#FFBA94"/>
<stop offset="1" stop-color="#FF89BD"/>
</linearGradient>
<linearGradient id="paint7_linear_950_9848" x1="68.9313" y1="10.0547" x2="68.9313" y2="25.4276" gradientUnits="userSpaceOnUse">
<stop stop-color="#B2B2FF"/>
<stop offset="0.5" stop-color="#FFBA94"/>
<stop offset="1" stop-color="#FF89BD"/>
</linearGradient>
<linearGradient id="paint8_linear_950_9848" x1="72.5354" y1="128.891" x2="72.5354" y2="143.675" gradientUnits="userSpaceOnUse">
<stop stop-color="#B2B2FF"/>
<stop offset="0.5" stop-color="#FFBA94"/>
<stop offset="1" stop-color="#FF89BD"/>
</linearGradient>
<linearGradient id="paint9_linear_950_9848" x1="72.5354" y1="128.891" x2="72.5354" y2="143.675" gradientUnits="userSpaceOnUse">
<stop stop-color="#B2B2FF"/>
<stop offset="0.5" stop-color="#FFBA94"/>
<stop offset="1" stop-color="#FF89BD"/>
</linearGradient>
<linearGradient id="paint10_linear_950_9848" x1="74.1339" y1="65.2266" x2="74.1339" y2="69.8762" gradientUnits="userSpaceOnUse">
<stop stop-color="#B2B2FF"/>
<stop offset="0.5" stop-color="#FFBA94"/>
<stop offset="1" stop-color="#FF89BD"/>
</linearGradient>
<linearGradient id="paint11_linear_950_9848" x1="74.1339" y1="65.2266" x2="74.1339" y2="69.8762" gradientUnits="userSpaceOnUse">
<stop stop-color="#B2B2FF"/>
<stop offset="0.5" stop-color="#FFBA94"/>
<stop offset="1" stop-color="#FF89BD"/>
</linearGradient>
</defs>
</svg>
