<svg width="145" height="147" viewBox="0 0 145 147" fill="none" xmlns="http://www.w3.org/2000/svg">
<path d="M59.3388 77.9748L48.7232 102.136L49.5793 102.512L48.7232 102.136C48.0954 103.565 48.556 105.221 49.8148 106.14C49.8147 106.14 49.8146 106.14 49.8146 106.14L59.3388 77.9748ZM59.3388 77.9748H49.8281C48.4513 77.9748 47.1959 77.1526 46.6786 75.8734C46.1592 74.5904 46.497 73.1323 47.5149 72.1975L85.4854 37.3267L59.3388 77.9748ZM67.324 72.7935L67.3241 72.7936C67.9565 73.7327 68.0661 74.9245 67.6102 75.9619L60.5343 92.067L86.1738 71.241H78.6901C77.6189 71.241 76.6041 70.7418 75.962 69.8848L67.324 72.7935ZM67.324 72.7935C66.6926 71.8561 65.6293 71.3003 64.4985 71.3003H58.4318L80.6323 50.9121M67.324 72.7935L80.6323 50.9121M80.6323 50.9121L75.4596 66.8899L75.4594 66.8905C75.1296 67.9117 75.3173 69.0244 75.9619 69.8846L80.6323 50.9121Z" fill="url(#paint0_linear_1159_9083)" stroke="url(#paint1_linear_1159_9083)" stroke-width="2"/>
<path d="M83.9889 18.8834L83.9888 18.8836C83.4778 20.6798 84.5574 22.5133 86.3492 23.0008C108.168 28.9412 123.388 48.5687 123.388 70.7068C123.388 97.988 100.68 120.223 72.7209 120.223C44.7631 120.223 22.054 97.988 22.054 70.7068C22.054 43.4252 44.7631 21.1898 72.7209 21.1898C74.5724 21.1898 76.1114 19.7171 76.1114 17.8526C76.1114 15.9883 74.5723 14.5156 72.7209 14.5156C41.0651 14.5156 15.2734 39.7012 15.2734 70.7068C15.2734 101.712 41.0651 126.898 72.7209 126.898C104.378 126.898 130.169 101.712 130.169 70.7068C130.169 45.5508 112.883 23.3001 88.1583 16.5686C86.3702 16.0785 84.4969 17.0998 83.9889 18.8834Z" fill="url(#paint2_linear_1159_9083)" stroke="url(#paint3_linear_1159_9083)" stroke-width="2"/>
<path d="M54.8261 131.295L54.8256 131.295C27.3784 123.563 8.22559 98.6391 8.22559 70.7136C8.22559 35.9752 37.1381 7.6742 72.7227 7.6742C108.307 7.6742 137.221 35.9752 137.221 70.7136C137.221 105.452 108.307 133.753 72.7227 133.753C70.8713 133.753 69.3323 135.225 69.3323 137.09C69.3323 138.955 70.8717 140.427 72.7227 140.427C112.005 140.427 144.001 109.176 144.001 70.714C144.001 32.2513 112.005 1 72.7227 1C33.4407 1 1.44531 32.2513 1.44531 70.714C1.44531 101.631 22.6387 129.17 52.9592 137.712C54.7442 138.215 56.6237 137.216 57.1483 135.434C57.6761 133.641 56.612 131.8 54.8261 131.295Z" fill="url(#paint4_linear_1159_9083)" stroke="url(#paint5_linear_1159_9083)" stroke-width="2"/>
<path d="M67.6146 26.0715L67.6145 26.0715C66.0167 25.1154 65.4965 23.0544 66.4884 21.4696C66.4884 21.4695 66.4884 21.4695 66.4885 21.4694L68.7517 17.8517L66.479 14.1731C66.479 14.173 66.4789 14.173 66.4789 14.1729C65.4966 12.5835 66.0268 10.5245 67.6307 9.57737L67.6146 26.0715ZM67.6146 26.0715C68.1652 26.4009 68.7739 26.5568 69.3737 26.5568C70.5019 26.5568 71.6172 25.9997 72.262 24.9707L72.2623 24.9701L75.6136 19.6128L75.6137 19.6128C76.2813 18.5454 76.2856 17.1999 75.6229 16.1281L72.2717 10.7044L72.2713 10.7038M67.6146 26.0715L72.2713 10.7038M72.2713 10.7038C71.2973 9.12991 69.2215 8.63778 67.6309 9.57724L72.2713 10.7038Z" fill="url(#paint6_linear_1159_9083)" stroke="url(#paint7_linear_1159_9083)" stroke-width="2"/>
<path d="M74.1409 144.179L74.1414 144.18C74.8143 145.008 75.8035 145.434 76.7923 145.434C77.524 145.434 78.266 145.201 78.8888 144.718L78.8892 144.718C80.3615 143.575 80.6167 141.466 79.4404 140.014L79.4401 140.014L77.0012 137.008L79.3433 133.893L79.3435 133.893C80.4661 132.4 80.1297 130.301 78.6172 129.213L78.6163 129.213C77.1147 128.135 75.0047 128.441 73.892 129.924C73.8919 129.924 73.8918 129.924 73.8917 129.924L70.0006 135.101L70.0004 135.101C69.087 136.317 69.1181 137.986 70.0762 139.168L70.0764 139.168L74.1409 144.179Z" fill="url(#paint8_linear_1159_9083)" stroke="url(#paint9_linear_1159_9083)" stroke-width="2"/>
<path d="M74.1011 71.237H78.6894C80.5409 71.237 82.0798 69.7639 82.0798 67.8998C82.0798 66.0352 80.5408 64.5625 78.6894 64.5625H74.1011C72.2498 64.5625 70.7109 66.0357 70.7109 67.8998C70.7109 69.7643 72.2503 71.237 74.1011 71.237Z" fill="url(#paint10_linear_1159_9083)" stroke="url(#paint11_linear_1159_9083)" stroke-width="2"/>
<defs>
<linearGradient id="paint0_linear_1159_9083" x1="72.7188" y1="37.4297" x2="72.7188" y2="105.797" gradientUnits="userSpaceOnUse">
<stop stop-color="#B2B2FF"/>
<stop offset="0.5" stop-color="#FFBA94"/>
<stop offset="1" stop-color="#FF89BD"/>
</linearGradient>
<linearGradient id="paint1_linear_1159_9083" x1="72.7188" y1="37.4297" x2="72.7188" y2="105.797" gradientUnits="userSpaceOnUse">
<stop stop-color="#B2B2FF"/>
<stop offset="0.5" stop-color="#FFBA94"/>
<stop offset="1" stop-color="#FF89BD"/>
</linearGradient>
<linearGradient id="paint2_linear_1159_9083" x1="72.7212" y1="15.5156" x2="72.7212" y2="125.898" gradientUnits="userSpaceOnUse">
<stop stop-color="#B2B2FF"/>
<stop offset="0.5" stop-color="#FFBA94"/>
<stop offset="1" stop-color="#FF89BD"/>
</linearGradient>
<linearGradient id="paint3_linear_1159_9083" x1="72.7212" y1="15.5156" x2="72.7212" y2="125.898" gradientUnits="userSpaceOnUse">
<stop stop-color="#B2B2FF"/>
<stop offset="0.5" stop-color="#FFBA94"/>
<stop offset="1" stop-color="#FF89BD"/>
</linearGradient>
<linearGradient id="paint4_linear_1159_9083" x1="72.7234" y1="2" x2="72.7234" y2="139.427" gradientUnits="userSpaceOnUse">
<stop stop-color="#B2B2FF"/>
<stop offset="0.5" stop-color="#FFBA94"/>
<stop offset="1" stop-color="#FF89BD"/>
</linearGradient>
<linearGradient id="paint5_linear_1159_9083" x1="72.7234" y1="2" x2="72.7234" y2="139.427" gradientUnits="userSpaceOnUse">
<stop stop-color="#B2B2FF"/>
<stop offset="0.5" stop-color="#FFBA94"/>
<stop offset="1" stop-color="#FF89BD"/>
</linearGradient>
<linearGradient id="paint6_linear_1159_9083" x1="71.0508" y1="10.1016" x2="71.0508" y2="25.5568" gradientUnits="userSpaceOnUse">
<stop stop-color="#B2B2FF"/>
<stop offset="0.5" stop-color="#FFBA94"/>
<stop offset="1" stop-color="#FF89BD"/>
</linearGradient>
<linearGradient id="paint7_linear_1159_9083" x1="71.0508" y1="10.1016" x2="71.0508" y2="25.5568" gradientUnits="userSpaceOnUse">
<stop stop-color="#B2B2FF"/>
<stop offset="0.5" stop-color="#FFBA94"/>
<stop offset="1" stop-color="#FF89BD"/>
</linearGradient>
<linearGradient id="paint8_linear_1159_9083" x1="74.7584" y1="129.57" x2="74.7584" y2="144.434" gradientUnits="userSpaceOnUse">
<stop stop-color="#B2B2FF"/>
<stop offset="0.5" stop-color="#FFBA94"/>
<stop offset="1" stop-color="#FF89BD"/>
</linearGradient>
<linearGradient id="paint9_linear_1159_9083" x1="74.7584" y1="129.57" x2="74.7584" y2="144.434" gradientUnits="userSpaceOnUse">
<stop stop-color="#B2B2FF"/>
<stop offset="0.5" stop-color="#FFBA94"/>
<stop offset="1" stop-color="#FF89BD"/>
</linearGradient>
<linearGradient id="paint10_linear_1159_9083" x1="76.3954" y1="65.5625" x2="76.3954" y2="70.237" gradientUnits="userSpaceOnUse">
<stop stop-color="#B2B2FF"/>
<stop offset="0.5" stop-color="#FFBA94"/>
<stop offset="1" stop-color="#FF89BD"/>
</linearGradient>
<linearGradient id="paint11_linear_1159_9083" x1="76.3954" y1="65.5625" x2="76.3954" y2="70.237" gradientUnits="userSpaceOnUse">
<stop stop-color="#B2B2FF"/>
<stop offset="0.5" stop-color="#FFBA94"/>
<stop offset="1" stop-color="#FF89BD"/>
</linearGradient>
</defs>
</svg>
