<svg width="160" height="163" viewBox="0 0 160 163" fill="none" xmlns="http://www.w3.org/2000/svg">
<g clip-path="url(#clip0_949_9760)">
<path d="M155.53 77.3404C159.585 73.316 161.016 67.4095 159.266 61.9286C157.519 56.4455 152.954 52.5242 147.352 51.6949L112.762 46.5747C111.006 46.3137 109.489 45.1908 108.704 43.571L93.2347 11.637C90.7297 6.46847 85.6585 3.25781 79.9997 3.25781C74.341 3.25781 69.2697 6.46847 66.7647 11.637C66.7647 11.6373 51.2957 43.5707 51.2957 43.5707C50.5107 45.1912 48.9935 46.314 47.2404 46.5744L12.6485 51.6946C7.04598 52.5242 2.48067 56.4455 0.734731 61.9257C-1.01621 67.4095 0.414732 73.3163 4.46817 77.3394L29.4988 102.198C30.7685 103.459 31.3479 105.274 31.0488 107.053L25.1388 142.153C24.1838 147.836 26.4335 153.47 31.01 156.857C35.5875 160.245 41.5438 160.684 46.555 158.003L77.4932 141.432C79.0625 140.591 80.9366 140.592 82.5044 141.431L113.445 158.003C118.456 160.685 124.413 160.245 128.99 156.857C133.566 153.47 135.816 147.836 134.861 142.153L128.951 107.054C128.652 105.274 129.231 103.459 130.502 102.197L155.53 77.3404ZM119.71 108.666L125.621 143.768C125.975 145.87 125.174 147.876 123.48 149.13C122.539 149.826 121.45 150.194 120.328 150.194C119.837 150.194 118.895 150.131 117.805 149.547L86.8672 132.977C84.7554 131.847 82.3819 131.251 80.0004 131.251C77.6176 131.251 75.2425 131.848 73.1332 132.977L42.1922 149.549C40.0669 150.687 37.94 150.181 36.521 149.131C34.826 147.876 34.0257 145.871 34.3794 143.765L40.2891 108.668C41.1091 103.786 39.521 98.8121 36.0419 95.3582L11.0125 70.5007C9.51067 69.0098 9.00192 66.9096 9.65004 64.8804C10.2979 62.8474 11.9222 61.4536 13.9972 61.1464L48.5879 56.0262C53.3997 55.3112 57.5525 52.2358 59.7025 47.7982L75.1713 15.8655C76.0988 13.9515 77.9041 12.8089 80 12.8089C82.096 12.8089 83.9013 13.9515 84.8288 15.8655L100.297 47.7979C102.448 52.2361 106.602 55.3115 111.409 56.0259C119.077 57.1602 133.764 59.3327 146.002 61.1464C148.078 61.4536 149.703 62.8483 150.349 64.8772C150.998 66.9106 150.489 69.0102 148.988 70.4998L123.958 95.3585C120.478 98.8121 118.891 103.787 119.71 108.666Z" fill="url(#paint0_linear_949_9760)"/>
<path fill-rule="evenodd" clip-rule="evenodd" d="M76.2041 60.4304C78.6901 59.3477 81.0712 59.5317 82.739 60.019C83.6936 60.3005 84.5012 60.647 85.739 61.708C86.9767 62.7691 87.6271 64.3174 87.1655 64.22L87.0502 64.1983C86.3893 64.0684 85.8124 63.9385 84.9628 63.8627C84.0607 63.7761 82.8124 63.8843 82.3509 63.9385C80.1691 64.1767 78.7426 65.097 77.6412 65.8116C75.7531 67.0351 73.8545 69.0057 72.3755 71.117C71.1063 72.936 69.7322 75.4263 68.6517 78.4472C68.0853 80.0388 67.6762 81.847 67.6762 83.1029C67.6762 83.7634 67.7287 84.7703 68.2007 85.7665C69.0818 84.0233 70.5713 81.089 71.6832 79.0968C73.4978 75.8594 75.9943 71.7125 79.0887 69.7095C82.4768 67.5115 86.7565 67.4899 90.5851 69.7636C92.8718 71.1279 93.9942 72.4813 96.0815 75.318C97.3298 77.0179 98.1899 78.707 99.0291 80.3419C99.1969 80.6776 99.3752 81.0132 99.543 81.3381C99.8997 82.0202 100.644 83.6984 101.442 86.5785C102.239 89.4586 102.365 92.6852 102.155 94.3959C101.819 97.1569 100.477 99.1924 99.2389 100.438C98.5256 101.152 97.8333 101.704 96.3228 102.278C94.8123 102.852 93.197 102.657 93.5012 102.3L93.5851 102.202C94.0256 101.683 94.4137 101.217 94.9172 100.503C95.4417 99.7338 95.9662 98.5644 96.155 98.1313C97.0466 96.0633 96.9836 94.3201 96.9417 92.9775C96.8578 90.6713 96.155 87.9861 95.127 85.6257C94.2354 83.5793 92.8403 81.1107 90.8368 78.6312C89.7879 77.3319 88.4662 76.0651 87.4173 75.4371C86.8823 75.1232 86.0642 74.6792 85.0467 74.5818C86.0746 76.2384 87.8054 79.0643 88.9173 81.0674C90.7319 84.3048 92.9557 88.6141 93.0921 92.382C93.2494 96.518 91.1201 100.351 87.3019 102.636C85.0152 104 83.3159 104.325 79.8859 104.769C77.8405 105.028 75.9838 104.963 74.2006 104.888C73.8335 104.877 73.4664 104.855 73.0993 104.844C72.344 104.823 70.5713 104.649 67.7497 103.924C64.928 103.199 62.1588 101.694 60.8266 100.654C58.6763 98.9759 57.6379 96.7563 57.2183 95.0239C56.977 94.0278 56.8616 93.1291 57.1344 91.4941C57.4071 89.8592 58.3826 88.5058 58.5295 88.9605C58.54 89.0039 58.5609 89.0363 58.5714 89.0796C58.7917 89.7293 58.9805 90.314 59.3371 91.1152C59.7148 91.9706 60.428 93.0208 60.7113 93.4106C62.0015 95.2404 63.491 96.0525 64.6448 96.6805C66.6168 97.7524 69.2287 98.467 71.7251 98.7377C73.886 98.965 76.6656 98.9434 79.739 98.402C81.3544 98.1097 83.0747 97.5683 84.1341 96.9403C84.7005 96.6047 85.5502 96.0416 86.1481 95.078C84.2705 95.1646 80.9244 95.3054 78.6272 95.3054C75.0083 95.3054 70.2776 95.143 67.0469 93.3781C63.5014 91.4508 61.3406 87.6288 61.3406 83.0704C61.3406 80.3419 61.9071 78.6637 63.2602 75.383C64.0679 73.4233 65.0539 71.7991 65.9979 70.24C66.1972 69.9152 66.386 69.6012 66.5853 69.2764C66.9839 68.6159 68.0119 67.1109 70.0259 64.9562C72.0398 62.8016 74.6936 61.08 76.2356 60.4088L76.2041 60.4304ZM85.9802 88.9064C85.7914 88.4625 85.5607 87.9969 85.2984 87.5097C82.9593 83.1787 80.8929 79.5407 79.8125 77.6676C79.4978 78.0899 79.1936 78.5771 78.8789 79.1185C76.4768 83.2762 74.4943 86.86 73.4349 88.7981C73.9174 88.8523 74.4419 88.8847 74.9978 88.8956C79.781 88.9714 83.8509 88.9389 85.9698 88.9172L85.9802 88.9064Z" fill="url(#paint1_linear_949_9760)"/>
</g>
<defs>
<linearGradient id="paint0_linear_949_9760" x1="80" y1="3.25781" x2="80" y2="159.745" gradientUnits="userSpaceOnUse">
<stop stop-color="#B2B2FF"/>
<stop offset="0.5" stop-color="#FFBA94"/>
<stop offset="1" stop-color="#FF89BD"/>
</linearGradient>
<linearGradient id="paint1_linear_949_9760" x1="79.6107" y1="59.6328" x2="79.6107" y2="104.955" gradientUnits="userSpaceOnUse">
<stop stop-color="#B2B2FF"/>
<stop offset="0.5" stop-color="#FFBA94"/>
<stop offset="1" stop-color="#FF89BD"/>
</linearGradient>
<clipPath id="clip0_949_9760">
<rect width="160" height="163" fill="white"/>
</clipPath>
</defs>
</svg>
