<svg width="160" height="160" viewBox="0 0 160 160" fill="none" xmlns="http://www.w3.org/2000/svg">
<g filter="url(#filter0_dd_91_9153)">
<g filter="url(#filter1_ii_91_9153)">
<circle cx="73" cy="73" r="50" fill="url(#paint0_linear_91_9153)"/>
</g>
<g filter="url(#filter2_i_91_9153)">
<path fill-rule="evenodd" clip-rule="evenodd" d="M67.8984 40.0513C71.4517 38.548 74.8478 38.8071 77.2307 39.4799C78.5986 39.8661 79.7535 40.3436 81.5223 41.8171C83.2912 43.2906 84.2149 45.4259 83.5672 45.2971L83.3956 45.2629C82.4565 45.0759 81.6247 44.9101 80.4072 44.7968C79.116 44.6765 77.3367 44.8311 76.6746 44.9012C73.5514 45.2319 71.5146 46.5086 69.9404 47.4992C67.2391 49.1987 64.5219 51.9289 62.4174 54.8378C60.5993 57.3509 58.6377 60.801 57.0973 64.9906C56.2874 67.1937 55.7093 69.6954 55.7093 71.4421C55.7093 72.355 55.7775 73.7553 56.4594 75.1313C57.7155 72.712 59.8509 68.651 61.4399 65.8989C64.0275 61.417 67.6008 55.6788 72.0209 52.8955C76.8647 49.8453 82.9867 49.8166 88.4502 52.9709C91.719 54.8581 93.3242 56.7273 96.306 60.6662C98.0875 63.0195 99.326 65.3633 100.519 67.6219L100.52 67.6224C100.766 68.0884 101.01 68.5507 101.257 69.0087C101.766 69.9541 102.829 72.2777 103.975 76.2646C105.122 80.2514 105.29 84.7258 104.997 87.0934C104.522 90.9224 102.599 93.7339 100.825 95.4612C99.8068 96.4527 98.8158 97.2141 96.6553 98.0092C94.4948 98.8043 92.1838 98.5367 92.6191 98.0401L92.7346 97.9085L92.7346 97.9084C93.3661 97.1888 93.9256 96.5513 94.6324 95.5536C95.3821 94.4956 96.1379 92.8773 96.4083 92.2688C97.6835 89.3988 97.5962 86.9965 97.5255 85.1379C97.4043 81.9487 96.3985 78.2304 94.9316 74.9535C93.6642 72.1224 91.6571 68.6986 88.799 65.2698C87.2961 63.4668 85.4185 61.7153 83.9059 60.8419C83.1472 60.4039 81.9684 59.7959 80.52 59.6614C81.9833 61.9522 84.4567 65.8686 86.0572 68.6407C88.6448 73.1226 91.8276 79.0863 92.028 84.3059C92.2476 90.0258 89.2115 95.342 83.748 98.4964C80.4792 100.384 78.0579 100.839 73.1558 101.452C70.227 101.818 67.578 101.719 65.0253 101.623C64.4985 101.603 63.9758 101.584 63.4555 101.568C62.3821 101.537 59.8385 101.295 55.8126 100.295C51.7866 99.2941 47.8275 97.2027 45.9239 95.7646C42.8453 93.439 41.3717 90.3683 40.7629 87.9683C40.4134 86.5905 40.2495 85.3517 40.6411 83.0831C41.0328 80.8145 42.4201 78.9468 42.6325 79.5721C42.6514 79.6278 42.6701 79.683 42.6887 79.7379C42.9962 80.6446 43.2686 81.4479 43.7792 82.559C44.3206 83.7372 45.3442 85.2009 45.7359 85.7393C47.5839 88.2787 49.708 89.4042 51.3529 90.2723C54.1754 91.7619 57.8985 92.75 61.4698 93.1181C64.5553 93.4361 68.524 93.4098 72.9225 92.649C75.2354 92.2489 77.691 91.4986 79.2036 90.6253C80.0098 90.1599 81.2195 89.3795 82.0736 88.0547C79.3915 88.1762 74.6056 88.3697 71.3217 88.3697C66.1465 88.3697 59.3904 88.1442 54.7699 85.708C49.7065 83.0382 46.6206 77.7508 46.6206 71.4421C46.6206 67.6676 47.4368 65.3429 49.357 60.7911C50.5043 58.0716 51.9148 55.8272 53.2741 53.6644L53.2741 53.6644C53.5546 53.218 53.833 52.7751 54.1064 52.3323C54.6705 51.4185 56.1515 49.3365 59.031 46.3502C61.9104 43.3638 65.7012 40.9808 67.8984 40.0513ZM81.8726 79.4822C81.601 78.8676 81.2781 78.2209 80.8982 77.5403C77.5504 71.5438 74.5957 66.4991 73.0631 63.9104C72.6199 64.5015 72.1738 65.1677 71.7267 65.9169C68.2949 71.6678 65.4601 76.6424 63.953 79.3171C64.6411 79.3939 65.3865 79.4404 66.194 79.4521C73.0286 79.5506 78.852 79.515 81.8726 79.4822Z" fill="white"/>
</g>
</g>
<defs>
<filter id="filter0_dd_91_9153" x="0" y="0" width="160" height="160" filterUnits="userSpaceOnUse" color-interpolation-filters="sRGB">
<feFlood flood-opacity="0" result="BackgroundImageFix"/>
<feColorMatrix in="SourceAlpha" type="matrix" values="0 0 0 0 0 0 0 0 0 0 0 0 0 0 0 0 0 0 127 0" result="hardAlpha"/>
<feOffset dx="7" dy="7"/>
<feGaussianBlur stdDeviation="15"/>
<feComposite in2="hardAlpha" operator="out"/>
<feColorMatrix type="matrix" values="0 0 0 0 1 0 0 0 0 0.372549 0 0 0 0 0.635294 0 0 0 0.2 0"/>
<feBlend mode="normal" in2="BackgroundImageFix" result="effect1_dropShadow_91_9153"/>
<feColorMatrix in="SourceAlpha" type="matrix" values="0 0 0 0 0 0 0 0 0 0 0 0 0 0 0 0 0 0 127 0" result="hardAlpha"/>
<feOffset dx="2" dy="2"/>
<feGaussianBlur stdDeviation="5"/>
<feComposite in2="hardAlpha" operator="out"/>
<feColorMatrix type="matrix" values="0 0 0 0 1 0 0 0 0 0.370833 0 0 0 0 0.635083 0 0 0 0.12 0"/>
<feBlend mode="normal" in2="effect1_dropShadow_91_9153" result="effect2_dropShadow_91_9153"/>
<feBlend mode="normal" in="SourceGraphic" in2="effect2_dropShadow_91_9153" result="shape"/>
</filter>
<filter id="filter1_ii_91_9153" x="21.4227" y="21.4227" width="103.155" height="103.155" filterUnits="userSpaceOnUse" color-interpolation-filters="sRGB">
<feFlood flood-opacity="0" result="BackgroundImageFix"/>
<feBlend mode="normal" in="SourceGraphic" in2="BackgroundImageFix" result="shape"/>
<feColorMatrix in="SourceAlpha" type="matrix" values="0 0 0 0 0 0 0 0 0 0 0 0 0 0 0 0 0 0 127 0" result="hardAlpha"/>
<feOffset dx="1.57726" dy="1.57726"/>
<feGaussianBlur stdDeviation="0.788631"/>
<feComposite in2="hardAlpha" operator="arithmetic" k2="-1" k3="1"/>
<feColorMatrix type="matrix" values="0 0 0 0 1 0 0 0 0 1 0 0 0 0 1 0 0 0 0.25 0"/>
<feBlend mode="normal" in2="shape" result="effect1_innerShadow_91_9153"/>
<feColorMatrix in="SourceAlpha" type="matrix" values="0 0 0 0 0 0 0 0 0 0 0 0 0 0 0 0 0 0 127 0" result="hardAlpha"/>
<feOffset dx="-1.57726" dy="-1.57726"/>
<feGaussianBlur stdDeviation="0.788631"/>
<feComposite in2="hardAlpha" operator="arithmetic" k2="-1" k3="1"/>
<feColorMatrix type="matrix" values="0 0 0 0 0.355716 0 0 0 0 0.305851 0 0 0 0 0.929167 0 0 0 0.35 0"/>
<feBlend mode="normal" in2="effect1_innerShadow_91_9153" result="effect2_innerShadow_91_9153"/>
</filter>
<filter id="filter2_i_91_9153" x="40.4141" y="38.9453" width="65.1053" height="63.1599" filterUnits="userSpaceOnUse" color-interpolation-filters="sRGB">
<feFlood flood-opacity="0" result="BackgroundImageFix"/>
<feBlend mode="normal" in="SourceGraphic" in2="BackgroundImageFix" result="shape"/>
<feColorMatrix in="SourceAlpha" type="matrix" values="0 0 0 0 0 0 0 0 0 0 0 0 0 0 0 0 0 0 127 0" result="hardAlpha"/>
<feOffset dx="0.394315" dy="0.394315"/>
<feGaussianBlur stdDeviation="1.3801"/>
<feComposite in2="hardAlpha" operator="arithmetic" k2="-1" k3="1"/>
<feColorMatrix type="matrix" values="0 0 0 0 0.603922 0 0 0 0 0.592157 0 0 0 0 1 0 0 0 0.45 0"/>
<feBlend mode="normal" in2="shape" result="effect1_innerShadow_91_9153"/>
</filter>
<linearGradient id="paint0_linear_91_9153" x1="9.95238" y1="41" x2="64.4286" y2="128.333" gradientUnits="userSpaceOnUse">
<stop stop-color="#A79DFF"/>
<stop offset="1" stop-color="#6B70ED"/>
</linearGradient>
</defs>
</svg>
