<svg width="86" height="86" viewBox="0 0 86 86" fill="none" xmlns="http://www.w3.org/2000/svg">
<g id="no./1">
<g id="Ellipse 26" filter="url(#filter0_d_91_8819)">
<circle cx="41.0003" cy="41.0003" r="32.2581" fill="#FFFBFB"/>
<circle cx="41.0003" cy="41.0003" r="30.7581" stroke="url(#paint0_linear_91_8819)" stroke-width="3"/>
</g>
<path id="1" d="M34.3264 55.5538C33.4456 55.5538 32.7987 55.3611 32.3858 54.9758C32.0004 54.5629 31.8077 53.971 31.8077 53.2003C31.8077 52.7323 31.9316 52.2781 32.1793 51.8377C32.4271 51.3973 32.7849 50.9293 33.2529 50.4338L41.5522 41.5977C42.8185 40.2764 43.7269 39.079 44.2774 38.0054C44.8279 36.9044 45.1032 35.8033 45.1032 34.7022C45.1032 33.3259 44.6628 32.2799 43.7819 31.5642C42.9286 30.8485 41.6761 30.4906 40.0245 30.4906C39.0886 30.4906 38.1527 30.6282 37.2168 30.9035C36.2808 31.1513 35.3312 31.5917 34.3677 32.2248C33.8722 32.5551 33.4043 32.6928 32.9638 32.6377C32.5509 32.5826 32.1793 32.4037 31.849 32.1009C31.5462 31.7981 31.3398 31.4265 31.2297 30.9861C31.1195 30.5457 31.1333 30.1052 31.2709 29.6648C31.4361 29.1968 31.7664 28.7977 32.2619 28.4674C33.4456 27.6691 34.7669 27.0635 36.2258 26.6506C37.7122 26.2377 39.1987 26.0312 40.6851 26.0312C42.7772 26.0312 44.5389 26.3478 45.9703 26.9809C47.4017 27.614 48.489 28.5362 49.2322 29.7474C49.9755 30.9586 50.3471 32.4313 50.3471 34.1654C50.3471 35.3216 50.1544 36.4502 49.769 37.5513C49.4112 38.6523 48.8469 39.7672 48.0761 40.8958C47.3329 42.0244 46.3557 43.2218 45.1445 44.488L37.3819 52.5809V51.1771H49.5213C50.2645 51.1771 50.8288 51.356 51.2142 51.7138C51.5995 52.0717 51.7922 52.6085 51.7922 53.3242C51.7922 54.0399 51.5995 54.5904 51.2142 54.9758C50.8288 55.3611 50.2645 55.5538 49.5213 55.5538H34.3264Z" fill="url(#paint1_linear_91_8819)"/>
</g>
<defs>
<filter id="filter0_d_91_8819" x="0.742188" y="0.742188" width="84.5156" height="84.5156" filterUnits="userSpaceOnUse" color-interpolation-filters="sRGB">
<feFlood flood-opacity="0" result="BackgroundImageFix"/>
<feColorMatrix in="SourceAlpha" type="matrix" values="0 0 0 0 0 0 0 0 0 0 0 0 0 0 0 0 0 0 127 0" result="hardAlpha"/>
<feOffset dx="2" dy="2"/>
<feGaussianBlur stdDeviation="5"/>
<feComposite in2="hardAlpha" operator="out"/>
<feColorMatrix type="matrix" values="0 0 0 0 1 0 0 0 0 0.370833 0 0 0 0 0.635083 0 0 0 0.12 0"/>
<feBlend mode="normal" in2="BackgroundImageFix" result="effect1_dropShadow_91_8819"/>
<feBlend mode="normal" in="SourceGraphic" in2="effect1_dropShadow_91_8819" result="shape"/>
</filter>
<linearGradient id="paint0_linear_91_8819" x1="33.0679" y1="99.1705" x2="80.6618" y2="-79.5709" gradientUnits="userSpaceOnUse">
<stop offset="0.0176677" stop-color="#C0BEFF"/>
<stop offset="0.251887" stop-color="#FFCEE0"/>
<stop offset="0.505278" stop-color="#FFDECC"/>
</linearGradient>
<linearGradient id="paint1_linear_91_8819" x1="40.0481" y1="61.16" x2="53.373" y2="13.0321" gradientUnits="userSpaceOnUse">
<stop stop-color="#AFAFFF"/>
<stop offset="0.34375" stop-color="#FF8FB8"/>
<stop offset="0.723958" stop-color="#FFBB9B"/>
</linearGradient>
</defs>
</svg>
