<svg width="62" height="62" viewBox="0 0 62 62" fill="none" xmlns="http://www.w3.org/2000/svg">
<path d="M25.8304 42.2787C25.1478 42.2787 24.6464 42.1293 24.3264 41.8307C24.0278 41.5107 23.8784 41.052 23.8784 40.4547C23.8784 40.092 23.9744 39.74 24.1664 39.3987C24.3584 39.0573 24.6358 38.6947 24.9984 38.3107L31.4304 31.4627C32.4118 30.4387 33.1158 29.5107 33.5424 28.6787C33.9691 27.8253 34.1824 26.972 34.1824 26.1187C34.1824 25.052 33.8411 24.2413 33.1584 23.6867C32.4971 23.132 31.5264 22.8547 30.2464 22.8547C29.5211 22.8547 28.7958 22.9613 28.0704 23.1747C27.3451 23.3667 26.6091 23.708 25.8624 24.1987C25.4784 24.4547 25.1158 24.5613 24.7744 24.5187C24.4544 24.476 24.1664 24.3373 23.9104 24.1027C23.6758 23.868 23.5158 23.58 23.4304 23.2387C23.3451 22.8973 23.3558 22.556 23.4624 22.2147C23.5904 21.852 23.8464 21.5427 24.2304 21.2867C25.1478 20.668 26.1718 20.1987 27.3024 19.8787C28.4544 19.5587 29.6064 19.3987 30.7584 19.3987C32.3798 19.3987 33.7451 19.644 34.8544 20.1347C35.9638 20.6253 36.8064 21.34 37.3824 22.2787C37.9584 23.2173 38.2464 24.3587 38.2464 25.7027C38.2464 26.5987 38.0971 27.4733 37.7984 28.3267C37.5211 29.18 37.0838 30.044 36.4864 30.9187C35.9104 31.7933 35.1531 32.7213 34.2144 33.7027L28.1984 39.9747V38.8867H37.6064C38.1824 38.8867 38.6198 39.0253 38.9184 39.3027C39.2171 39.58 39.3664 39.996 39.3664 40.5507C39.3664 41.1053 39.2171 41.532 38.9184 41.8307C38.6198 42.1293 38.1824 42.2787 37.6064 42.2787H25.8304Z" fill="#252948"/>
<circle cx="31" cy="31" r="23.75" stroke="#252948" stroke-width="2.5"/>
</svg>
