<svg width="62" height="61" viewBox="0 0 62 61" fill="none" xmlns="http://www.w3.org/2000/svg">
<path d="M30.7264 41.664C29.5744 41.664 28.3798 41.519 27.1424 41.2291C25.9051 40.9392 24.8278 40.5044 23.9104 39.9246C23.4838 39.6554 23.1958 39.3448 23.0464 38.9928C22.8971 38.6407 22.8544 38.3094 22.9184 37.9988C23.0038 37.6675 23.1638 37.388 23.3984 37.1602C23.6544 36.9324 23.9638 36.7978 24.3264 36.7564C24.7104 36.715 25.1264 36.8082 25.5744 37.0359C26.4491 37.4915 27.2918 37.8228 28.1024 38.0299C28.9131 38.2162 29.7451 38.3094 30.5984 38.3094C31.5371 38.3094 32.3264 38.1852 32.9664 37.9367C33.6064 37.6882 34.0864 37.3155 34.4064 36.8185C34.7478 36.3216 34.9184 35.721 34.9184 35.017C34.9184 33.9816 34.5558 33.2155 33.8304 32.7185C33.1264 32.2008 32.0918 31.942 30.7264 31.942H28.6784C28.0811 31.942 27.6224 31.7971 27.3024 31.5072C27.0038 31.2173 26.8544 30.8135 26.8544 30.2958C26.8544 29.7781 27.0038 29.3743 27.3024 29.0844C27.6224 28.7945 28.0811 28.6496 28.6784 28.6496H30.3424C31.1531 28.6496 31.8464 28.5253 32.4224 28.2768C32.9984 28.0077 33.4464 27.6349 33.7664 27.1587C34.0864 26.6824 34.2464 26.1026 34.2464 25.4193C34.2464 24.4667 33.9158 23.742 33.2544 23.245C32.6144 22.7481 31.6758 22.4996 30.4384 22.4996C29.6491 22.4996 28.9024 22.5927 28.1984 22.7791C27.5158 22.9448 26.7584 23.2657 25.9264 23.742C25.5424 23.9698 25.1691 24.063 24.8064 24.0215C24.4651 23.9801 24.1771 23.8455 23.9424 23.6178C23.7078 23.39 23.5478 23.1208 23.4624 22.8102C23.3771 22.4789 23.3984 22.1475 23.5264 21.8162C23.6544 21.4642 23.9211 21.164 24.3264 20.9155C25.2438 20.3357 26.2571 19.9008 27.3664 19.6109C28.4758 19.3003 29.6171 19.145 30.7904 19.145C32.3478 19.145 33.6811 19.3832 34.7904 19.8594C35.8998 20.315 36.7424 20.9776 37.3184 21.8473C37.9158 22.6963 38.2144 23.7316 38.2144 24.9534C38.2144 25.8231 38.0438 26.6203 37.7024 27.345C37.3611 28.0491 36.8811 28.6496 36.2624 29.1465C35.6438 29.6435 34.8971 29.9955 34.0224 30.2026V29.8299C35.5584 30.0784 36.7531 30.6996 37.6064 31.6935C38.4598 32.6667 38.8864 33.8885 38.8864 35.3587C38.8864 36.6425 38.5558 37.7607 37.8944 38.7132C37.2331 39.6657 36.2944 40.4008 35.0784 40.9185C33.8624 41.4155 32.4118 41.664 30.7264 41.664Z" fill="#252948"/>
<path d="M54.75 30.4058C54.75 43.0824 44.1521 53.4219 31 53.4219C17.8479 53.4219 7.25 43.0824 7.25 30.4058C7.25 17.7292 17.8479 7.38965 31 7.38965C44.1521 7.38965 54.75 17.7292 54.75 30.4058Z" stroke="#252948" stroke-width="2.5"/>
</svg>
