<svg width="62" height="62" viewBox="0 0 62 62" fill="none" xmlns="http://www.w3.org/2000/svg">
<path d="M25.5662 42.2786C25.0115 42.2786 24.5742 42.1293 24.2542 41.8306C23.9555 41.5106 23.8062 41.084 23.8062 40.5506C23.8062 39.996 23.9555 39.58 24.2542 39.3026C24.5742 39.0253 25.0115 38.8866 25.5662 38.8866H29.1502V23.1746H31.1342L26.4302 26.0226C26.0248 26.2573 25.6408 26.3533 25.2782 26.3106C24.9368 26.2466 24.6382 26.0973 24.3822 25.8626C24.1475 25.6066 23.9875 25.308 23.9022 24.9666C23.8168 24.6253 23.8382 24.284 23.9662 23.9426C24.1155 23.58 24.3928 23.2813 24.7982 23.0466L29.2142 20.3906C29.6408 20.1346 30.0675 19.9213 30.4942 19.7506C30.9208 19.5586 31.3155 19.4626 31.6782 19.4626C32.1262 19.4626 32.4995 19.5906 32.7982 19.8466C33.0968 20.0813 33.2462 20.476 33.2462 21.0306V38.8866H36.5102C37.0648 38.8866 37.4915 39.0253 37.7902 39.3026C38.1102 39.58 38.2702 39.996 38.2702 40.5506C38.2702 41.1053 38.1102 41.532 37.7902 41.8306C37.4915 42.1293 37.0648 42.2786 36.5102 42.2786H25.5662Z" fill="url(#paint0_linear_602_1519)"/>
<circle cx="31" cy="31" r="23.75" stroke="url(#paint1_linear_602_1519)" stroke-width="2.5"/>
<defs>
<linearGradient id="paint0_linear_602_1519" x1="28.1826" y1="18.726" x2="45.578" y2="33.8054" gradientUnits="userSpaceOnUse">
<stop stop-color="#3A2D8C"/>
<stop offset="0.505208" stop-color="#571E4B"/>
<stop offset="1" stop-color="#163D59"/>
</linearGradient>
<linearGradient id="paint1_linear_602_1519" x1="21.1289" y1="4.38576" x2="57.8281" y2="54.5688" gradientUnits="userSpaceOnUse">
<stop stop-color="#3A2D8C"/>
<stop offset="0.505208" stop-color="#571E4B"/>
<stop offset="1" stop-color="#163D59"/>
</linearGradient>
</defs>
</svg>
