<svg width="86" height="86" viewBox="0 0 86 86" fill="none" xmlns="http://www.w3.org/2000/svg">
<g id="no./3">
<g id="Ellipse 26" filter="url(#filter0_d_91_8823)">
<circle cx="41.0003" cy="41.0003" r="32.2581" fill="#FFFBFB"/>
<circle cx="41.0003" cy="41.0003" r="30.7581" stroke="url(#paint0_linear_91_8823)" stroke-width="3"/>
</g>
<path id="1" d="M40.6511 55.9667C39.1646 55.9667 37.6231 55.774 36.0265 55.3887C34.43 55.0033 33.0399 54.4252 31.8562 53.6545C31.3057 53.2966 30.9341 52.8837 30.7414 52.4158C30.5487 51.9478 30.4936 51.5074 30.5762 51.0945C30.6863 50.654 30.8928 50.2824 31.1956 49.9796C31.5259 49.6768 31.925 49.4979 32.393 49.4429C32.8885 49.3878 33.4253 49.5117 34.0033 49.8145C35.1319 50.4201 36.2192 50.8605 37.2653 51.1358C38.3113 51.3835 39.3848 51.5074 40.4859 51.5074C41.6971 51.5074 42.7156 51.3422 43.5414 51.0119C44.3672 50.6816 44.9865 50.1861 45.3995 49.5254C45.8399 48.8648 46.0601 48.0665 46.0601 47.1306C46.0601 45.7543 45.5921 44.7358 44.6562 44.0751C43.7478 43.387 42.4128 43.0429 40.6511 43.0429H38.0085C37.2377 43.0429 36.6459 42.8502 36.233 42.4648C35.8476 42.0794 35.6549 41.5426 35.6549 40.8545C35.6549 40.1663 35.8476 39.6295 36.233 39.2442C36.6459 38.8588 37.2377 38.6661 38.0085 38.6661H40.1556C41.2016 38.6661 42.0962 38.5009 42.8394 38.1706C43.5827 37.8128 44.1607 37.3173 44.5736 36.6842C44.9865 36.051 45.193 35.2803 45.193 34.3719C45.193 33.1057 44.7663 32.1422 43.913 31.4816C43.0872 30.8209 41.876 30.4906 40.2794 30.4906C39.261 30.4906 38.2975 30.6145 37.3891 30.8622C36.5083 31.0824 35.5311 31.5091 34.4575 32.1422C33.962 32.445 33.4803 32.5689 33.0124 32.5138C32.5719 32.4588 32.2003 32.2799 31.8975 31.9771C31.5947 31.6743 31.3883 31.3164 31.2782 30.9035C31.1681 30.4631 31.1956 30.0226 31.3607 29.5822C31.5259 29.1143 31.87 28.7151 32.393 28.3848C33.5767 27.614 34.8842 27.036 36.3156 26.6506C37.747 26.2377 39.2197 26.0312 40.7336 26.0312C42.7431 26.0312 44.4635 26.3478 45.8949 26.9809C47.3263 27.5865 48.4136 28.4674 49.1569 29.6235C49.9276 30.7521 50.313 32.1285 50.313 33.7525C50.313 34.9087 50.0928 35.9685 49.6524 36.9319C49.2119 37.8678 48.5926 38.6661 47.7943 39.3267C46.996 39.9874 46.0326 40.4553 44.904 40.7306V40.2351C46.8859 40.5654 48.4274 41.3913 49.5285 42.7125C50.6296 44.0063 51.1801 45.6304 51.1801 47.5848C51.1801 49.2915 50.7534 50.7779 49.9001 52.0442C49.0468 53.3104 47.8356 54.2876 46.2665 54.9758C44.6975 55.6364 42.8257 55.9667 40.6511 55.9667Z" fill="url(#paint1_linear_91_8823)"/>
</g>
<defs>
<filter id="filter0_d_91_8823" x="0.742188" y="0.742188" width="84.5156" height="84.5156" filterUnits="userSpaceOnUse" color-interpolation-filters="sRGB">
<feFlood flood-opacity="0" result="BackgroundImageFix"/>
<feColorMatrix in="SourceAlpha" type="matrix" values="0 0 0 0 0 0 0 0 0 0 0 0 0 0 0 0 0 0 127 0" result="hardAlpha"/>
<feOffset dx="2" dy="2"/>
<feGaussianBlur stdDeviation="5"/>
<feComposite in2="hardAlpha" operator="out"/>
<feColorMatrix type="matrix" values="0 0 0 0 1 0 0 0 0 0.370833 0 0 0 0 0.635083 0 0 0 0.12 0"/>
<feBlend mode="normal" in2="BackgroundImageFix" result="effect1_dropShadow_91_8823"/>
<feBlend mode="normal" in="SourceGraphic" in2="effect1_dropShadow_91_8823" result="shape"/>
</filter>
<linearGradient id="paint0_linear_91_8823" x1="33.0679" y1="99.1705" x2="80.6618" y2="-79.5709" gradientUnits="userSpaceOnUse">
<stop offset="0.0176677" stop-color="#C0BEFF"/>
<stop offset="0.251887" stop-color="#FFCEE0"/>
<stop offset="0.505278" stop-color="#FFDECC"/>
</linearGradient>
<linearGradient id="paint1_linear_91_8823" x1="40.0553" y1="61.16" x2="53.3802" y2="13.0321" gradientUnits="userSpaceOnUse">
<stop stop-color="#AFAFFF"/>
<stop offset="0.34375" stop-color="#FF8FB8"/>
<stop offset="0.723958" stop-color="#FFBB9B"/>
</linearGradient>
</defs>
</svg>
