<svg width="148" height="30" viewBox="0 0 148 30" fill="none" xmlns="http://www.w3.org/2000/svg">
<path fill-rule="evenodd" clip-rule="evenodd" d="M20.6116 5.35378C19.7264 6.00655 19.5639 6.13544 19.0755 6.5747C18.2857 7.2844 17.5015 8.09729 16.9031 8.82636C16.7402 9.02445 16.5646 9.23202 16.5129 9.28737C16.4613 9.34233 16.2167 9.66021 15.9697 9.99391C15.4245 10.7301 15.4518 10.7123 15.0735 10.5755C14.5756 10.396 14.5594 10.3885 13.1925 9.71912C11.4154 8.8489 10.9049 8.7378 9.99484 9.02168C9.22046 9.26325 8.71868 9.72189 8.26107 10.6067C8.01215 11.0879 7.92063 11.1856 7.56836 11.3433C6.38529 11.8739 4.89217 12.62 4.44758 12.9035C4.05507 13.1537 3.95408 13.1601 3.75447 12.947C3.26176 12.4215 1.78125 13.0446 1.78125 13.778C1.78125 14.8009 2.67318 14.8096 3.61482 13.7958C4.03534 13.3431 4.07519 13.3182 4.83852 13.028C8.16285 11.7652 8.9889 11.6679 9.74079 12.4512C9.96092 12.6805 10.0071 12.7876 10.2781 13.7037C10.316 13.8306 10.3684 13.9939 10.3952 14.0663C10.4221 14.1386 10.5254 14.4205 10.6248 14.6922C11.282 16.4887 12.3002 17.5697 13.7144 17.9722C15.4533 18.4672 16.0238 18.7198 16.3165 19.1251C16.6983 19.6533 16.535 20.2843 15.7776 21.204C15.6802 21.3222 15.746 21.3712 15.894 21.2906C15.9607 21.2542 16.4443 21.011 16.969 20.7501C19.1493 19.666 20.0408 19.0053 19.9761 18.521C19.9051 17.99 19.3217 16.688 18.8349 15.9728C18.5607 15.5711 18.5879 15.4477 18.9619 15.3912C19.5631 15.3002 21.2677 14.8171 21.6132 14.6396C21.6803 14.6052 21.9576 14.4648 22.2286 14.328C22.8563 14.0113 23.3391 13.7049 23.8488 13.2996C24.0709 13.1233 24.3001 12.979 24.3585 12.979C24.4165 12.979 24.4642 12.9343 24.4642 12.8801C24.4642 12.8256 24.4938 12.7813 24.5297 12.7813C24.5731 12.7813 24.5956 11.4501 24.5956 8.91928V5.05725L24.4303 5.09876C24.2827 5.13593 23.3494 5.72939 22.2752 6.46874C21.7975 6.79809 21.7754 6.78702 21.5501 6.11725C21.2641 5.2668 21.1623 5.00546 21.1186 5.00783C21.0961 5.00941 20.8681 5.16479 20.6116 5.35378Z" fill="#FAFAFA"/>
<path fill-rule="evenodd" clip-rule="evenodd" d="M11.2779 0.0668002C11.2554 0.103175 11.0928 0.132828 10.9161 0.132828C10.7398 0.132828 10.5769 0.162481 10.5548 0.198855C10.5323 0.234835 10.3828 0.264488 10.2218 0.264488C10.0064 0.264488 9.9299 0.290583 9.9299 0.363332C9.9299 0.438058 9.84982 0.462176 9.60129 0.462176C9.42062 0.462176 9.27269 0.491829 9.27269 0.528203C9.27269 0.564578 9.18274 0.594231 9.07308 0.594231C8.9567 0.594231 8.85808 0.63535 8.83599 0.693075C8.81272 0.753963 8.71291 0.791919 8.57524 0.791919C8.45255 0.791919 8.35196 0.821572 8.35196 0.857551C8.35196 0.893926 8.2486 0.923579 8.12197 0.923579C7.99534 0.923579 7.89199 0.953232 7.89199 0.989606C7.89199 1.02559 7.78745 1.05524 7.65963 1.05524C7.51407 1.05524 7.41347 1.09201 7.38981 1.15408C7.36614 1.21537 7.26633 1.25293 7.12866 1.25293C7.00597 1.25293 6.90577 1.27942 6.90577 1.31144C6.90577 1.34386 6.80202 1.38973 6.67539 1.41345C6.54876 1.43717 6.44541 1.48501 6.44541 1.51981C6.44541 1.5542 6.37164 1.58267 6.28091 1.58267C6.19057 1.58267 6.1168 1.61232 6.1168 1.6483C6.1168 1.68468 6.01305 1.71433 5.88642 1.71433C5.75979 1.71433 5.65644 1.74082 5.65644 1.77285C5.65644 1.80527 5.55308 1.85073 5.42645 1.87485C5.29982 1.89857 5.19607 1.94641 5.19607 1.98081C5.19607 2.01561 5.1223 2.04368 5.03196 2.04368C4.94163 2.04368 4.86746 2.07333 4.86746 2.10971C4.86746 2.14608 4.79724 2.17573 4.71125 2.17573C4.62525 2.17573 4.51795 2.22001 4.47298 2.27458C4.42801 2.32874 4.32307 2.37342 4.24023 2.37342C4.15739 2.37342 4.07967 2.4007 4.06745 2.4347C4.05561 2.46831 3.95699 2.50548 3.84851 2.51694C3.74002 2.52841 3.61024 2.57664 3.56053 2.62409C3.51043 2.67153 3.42917 2.69486 3.37986 2.67549C3.32857 2.65611 3.28952 2.683 3.28952 2.73796C3.28952 2.79568 3.2268 2.83443 3.13251 2.83443C3.04652 2.83443 2.89306 2.87752 2.79207 2.93011C2.69108 2.98269 2.58339 3.00998 2.55301 2.991C2.52224 2.97202 2.50528 2.99574 2.51554 3.04398C2.52856 3.10724 2.42126 3.1365 2.12263 3.15073C1.89659 3.1614 1.71158 3.19857 1.71158 3.23297C1.71158 3.26776 1.60073 3.29662 1.46502 3.29781C1.32932 3.29899 1.16245 3.34249 1.09381 3.39468C1.02517 3.44686 0.943906 3.47375 0.912742 3.45438C0.881972 3.4354 0.856725 3.452 0.856725 3.49154C0.856725 3.53108 0.805047 3.58327 0.741929 3.60739C0.601098 3.66076 0.462239 3.79282 0.462239 3.87308C0.462239 3.9059 0.38847 3.97232 0.298133 4.02056C0.194777 4.07591 0.133632 4.16605 0.133632 4.26252C0.133632 4.34713 0.104046 4.41593 0.067753 4.41593C-0.0225843 4.41593 -0.0225843 12.0368 0.067753 12.0929C0.107596 12.1174 0.133632 12.597 0.133632 13.3103C0.133632 13.9801 0.160063 14.4968 0.195172 14.5091C0.228703 14.5213 0.263812 14.8677 0.27328 15.2793C0.285509 15.8233 0.313518 16.0364 0.376241 16.0605C0.436992 16.0839 0.462239 16.2432 0.462239 16.6006C0.462239 16.8794 0.490247 17.1359 0.524173 17.1703C0.558493 17.2047 0.593208 17.3874 0.601887 17.576C0.611355 17.7883 0.650409 17.9322 0.704059 17.9532C0.753369 17.9722 0.79124 18.0868 0.79124 18.2193C0.79124 18.347 0.820827 18.4518 0.856725 18.4518C0.893018 18.4518 0.922604 18.5087 0.922604 18.5783C0.922604 18.721 1.12655 19.1097 1.2019 19.1105C1.22912 19.1108 1.25121 19.1528 1.25121 19.2042C1.25121 19.322 1.46463 19.7031 1.5309 19.7035C1.55773 19.7039 1.58021 19.7355 1.58021 19.7747C1.58021 19.8134 1.6169 19.8866 1.66227 19.9368C1.8599 20.1578 1.91119 20.2309 1.86779 20.2309C1.84255 20.2309 1.93762 20.3424 2.07884 20.4788C2.22046 20.6153 2.38062 20.8153 2.43467 20.9236C2.53684 21.1273 2.66268 21.2854 2.72264 21.2854C2.77353 21.2854 3.19011 21.7247 3.33173 21.9271C3.39879 22.0232 3.53173 22.1841 3.6268 22.2837C3.72188 22.3838 3.78342 22.4818 3.76369 22.5016C3.74397 22.5214 3.77513 22.5376 3.83312 22.5376C3.89072 22.5376 4.00591 22.6336 4.08875 22.7515C4.23668 22.9622 4.90888 23.6577 4.96451 23.6577C5.02289 23.6577 5.35781 24.0222 5.34321 24.0696C5.33453 24.0965 5.37201 24.1191 5.42645 24.1191C5.48049 24.1191 5.52507 24.1653 5.52507 24.2219C5.52507 24.278 5.55071 24.3085 5.58188 24.2891C5.61344 24.2697 5.70653 24.3421 5.78898 24.45C5.87143 24.5579 5.97912 24.6461 6.02804 24.6461C6.07656 24.6461 6.1168 24.6758 6.1168 24.7121C6.1168 24.7481 6.14836 24.7778 6.18702 24.7778C6.27814 24.7778 6.44541 24.9454 6.44541 25.0367C6.44541 25.0755 6.47894 25.1075 6.51996 25.1075C6.59847 25.1075 6.90538 25.4349 6.90538 25.5191C6.90577 25.5464 6.93339 25.5685 6.96771 25.5685C7.00163 25.5685 7.16455 25.7022 7.32945 25.865C7.49474 26.0283 7.66082 26.1616 7.69869 26.1616C7.73695 26.1616 7.75115 26.1893 7.73025 26.2229C7.70973 26.2565 7.75826 26.3047 7.83834 26.3304C8.00875 26.3846 8.15471 26.5174 8.15471 26.6182C8.15471 26.657 8.18824 26.689 8.22927 26.689C8.2703 26.689 8.40127 26.7926 8.5208 26.9195C8.63993 27.0464 8.76222 27.15 8.7922 27.15C8.82218 27.15 8.90227 27.2243 8.97012 27.3149C9.03836 27.4054 9.13383 27.4798 9.18314 27.4798C9.23245 27.4798 9.27269 27.5094 9.27269 27.5454C9.27269 27.5818 9.31687 27.6114 9.37131 27.6114C9.42535 27.6114 9.46993 27.6423 9.46993 27.6802C9.46993 27.7842 9.77881 28.0728 9.88966 28.0728C9.94331 28.0728 10.0056 28.1317 10.0285 28.2045C10.0514 28.2768 10.1421 28.3539 10.2301 28.3761C10.3181 28.3982 10.3903 28.4579 10.3903 28.5081C10.3903 28.5587 10.4364 28.5999 10.4928 28.5999C10.5492 28.5999 10.5769 28.6295 10.5548 28.6659C10.5323 28.7019 10.5603 28.7315 10.6163 28.7315C10.6727 28.7315 10.7189 28.7612 10.7189 28.7975C10.7189 28.8339 10.7638 28.8636 10.8191 28.8636C10.8739 28.8636 10.9528 28.9375 10.9938 29.0281C11.0352 29.119 11.1161 29.1929 11.1741 29.1929C11.2317 29.1929 11.3674 29.2961 11.4759 29.4222C11.584 29.5484 11.7094 29.652 11.7544 29.6527C11.7998 29.6535 11.8368 29.7006 11.8368 29.7571C11.8368 29.8133 11.8621 29.8441 11.8929 29.8251C11.9236 29.8058 12.0049 29.8326 12.0735 29.8848C12.2582 30.0248 12.3272 30.007 12.5883 29.7532C12.7185 29.6263 12.8562 29.5223 12.8937 29.5223C12.9315 29.5223 12.9457 29.4958 12.9256 29.4634C12.8901 29.4056 13.0716 29.2937 13.1682 29.3143C13.1951 29.3198 13.214 29.3024 13.2097 29.2752C13.1887 29.1439 13.2239 29.0573 13.283 29.0941C13.3193 29.1166 13.3489 29.1059 13.3489 29.0704C13.3489 29.0352 13.3118 28.9913 13.2669 28.9731C13.2215 28.9545 13.214 28.9375 13.2503 28.9347C13.2937 28.9312 13.3099 27.069 13.298 23.4521L13.2803 17.9745L13.4625 18.0184C13.5627 18.0425 13.7631 18.0928 13.9079 18.1303C14.0523 18.1675 14.2744 18.2106 14.401 18.226C14.6326 18.2545 14.5284 18.2173 13.7107 17.9777C12.2834 17.5602 11.2783 16.4923 10.621 14.6957C10.5216 14.4241 10.4175 14.1422 10.3891 14.0698C10.3607 13.9975 10.2873 13.7602 10.2258 13.5428C10.0218 12.82 9.96462 12.6939 9.73266 12.4511C8.98747 11.6715 8.15432 11.7703 4.83472 13.0316C4.07139 13.3218 4.03155 13.3467 3.61103 13.7994C2.66939 14.8131 1.77745 14.8044 1.77745 13.7816C1.77745 13.0482 3.25796 12.425 3.75067 12.9505C3.95028 13.1636 4.05127 13.1573 4.44379 12.907C4.88837 12.6235 6.3815 11.8775 7.56456 11.3469C7.91684 11.1891 8.00836 11.0914 8.25728 10.6103C8.71488 9.72543 9.21667 9.26679 9.99104 9.02522C10.9027 8.74094 11.4278 8.8556 13.1529 9.71594C13.8515 10.0647 14.4507 10.341 14.4842 10.33C14.5174 10.3189 14.4606 10.2703 14.3576 10.2216C14.255 10.1734 14.1264 10.1082 14.072 10.0765C14.018 10.0453 13.8527 9.96107 13.7047 9.8899C13.2515 9.67087 13.2799 10.022 13.2988 4.86152C13.3118 1.2462 13.2976 0.132432 13.2365 0.0754984C13.1351 -0.0197871 11.3362 -0.0272992 11.2779 0.0668002ZM20.4169 5.44312L20.2197 5.61313L20.4331 5.47119C20.5506 5.3933 20.6469 5.31699 20.6469 5.30118C20.6469 5.25175 20.6189 5.26915 20.4169 5.44312ZM23.5728 5.54077C23.4643 5.61036 23.4091 5.66769 23.4505 5.66769C23.4915 5.66808 23.5949 5.60957 23.6805 5.5384C23.8758 5.37511 23.8288 5.3763 23.5728 5.54077ZM19.8907 5.84284C19.6926 6.01997 19.678 6.04448 19.8307 5.94208C20.0126 5.8203 20.2414 5.5985 20.1783 5.60482C20.1648 5.60601 20.0354 5.71316 19.8907 5.84284ZM22.0935 6.52486C21.9025 6.67431 21.7893 6.69013 21.7424 6.57428C21.7164 6.50944 21.7081 6.51023 21.7041 6.57626C21.6943 6.73797 21.8891 6.73204 22.1373 6.56321C22.2745 6.46951 22.3578 6.3936 22.3223 6.39439C22.2868 6.39518 22.1838 6.45369 22.0935 6.52486ZM18.7699 6.80479L18.51 7.08471L18.7897 6.82456C19.0492 6.58219 19.0993 6.52486 19.0492 6.52486C19.0386 6.52486 18.9131 6.65059 18.7699 6.80479ZM17.6188 7.9581L17.3924 8.20521L17.6389 7.97787C17.7746 7.85293 17.8855 7.74183 17.8855 7.73076C17.8855 7.68054 17.8299 7.72799 17.6188 7.9581ZM16.0239 9.82506C15.9221 9.967 15.8519 10.0832 15.8681 10.0832C15.9135 10.0832 16.2582 9.6163 16.2318 9.59021C16.2192 9.57756 16.1257 9.68312 16.0239 9.82506ZM15.6499 10.3466C15.573 10.4553 15.5245 10.5442 15.5426 10.5442C15.5604 10.5442 15.6385 10.4553 15.7158 10.3466C15.7931 10.2378 15.8417 10.1489 15.8235 10.1489C15.8054 10.1489 15.7273 10.2378 15.6499 10.3466ZM23.1472 13.8097C23.0217 13.8982 22.9475 13.971 22.9826 13.9706C23.0178 13.9706 23.1353 13.8974 23.2438 13.8081C23.4971 13.6001 23.4418 13.6009 23.1472 13.8097ZM22.34 14.2722C22.0943 14.4059 22.1093 14.4616 22.3562 14.3335C22.4647 14.277 22.5534 14.2173 22.5534 14.1999C22.5534 14.1576 22.5463 14.16 22.34 14.2722ZM21.5384 14.6649C21.3743 14.7894 21.4351 14.7886 21.6749 14.6633C21.7787 14.6091 21.8189 14.5656 21.7645 14.5664C21.7104 14.5676 21.6087 14.6119 21.5384 14.6649ZM19.4962 15.2888C19.4133 15.3247 19.4011 15.3457 19.4634 15.3457C19.5175 15.3457 19.6212 15.32 19.6934 15.2888C19.7763 15.2532 19.7885 15.2322 19.7266 15.2322C19.6721 15.2322 19.5688 15.2579 19.4962 15.2888ZM18.6469 15.5299C18.6094 15.6272 18.8835 16.1455 18.9723 16.1455C18.9905 16.1455 18.9246 16.0238 18.8263 15.8747C18.6528 15.6118 18.6512 15.6007 18.7719 15.5121C18.8741 15.4374 18.8776 15.4208 18.7928 15.4208C18.7352 15.4208 18.6697 15.4698 18.6469 15.5299ZM19.1017 16.4092C19.1581 16.518 19.2185 16.6069 19.2366 16.6069C19.2548 16.6069 19.2236 16.518 19.1676 16.4092C19.1116 16.3005 19.0508 16.2116 19.0327 16.2116C19.0145 16.2116 19.0457 16.3005 19.1017 16.4092ZM19.6895 19.1275L19.4962 19.3414L19.71 19.148C19.8276 19.0417 19.9238 18.9452 19.9238 18.9337C19.9238 18.8827 19.8694 18.9278 19.6895 19.1275ZM16.1687 20.5769C16.1261 20.6587 15.9742 20.8659 15.8318 21.0379C15.5545 21.3728 15.6105 21.5448 15.9245 21.3242C16.0066 21.2668 16.0436 21.2194 16.0066 21.2194C15.9695 21.2194 15.9044 21.2546 15.8614 21.2977C15.7596 21.3997 15.6815 21.3198 15.7738 21.2075C16.1225 20.7841 16.3529 20.4286 16.2792 20.4286C16.2614 20.4286 16.2113 20.4955 16.1687 20.5769Z" fill="#A9A9A9"/>
<path fill-rule="evenodd" clip-rule="evenodd" d="M14.3323 0.366661C14.3323 0.429921 14.3638 0.451667 14.4143 0.422805C14.4802 0.385639 14.4802 0.394338 14.4143 0.46511C14.309 0.579373 14.2928 10.0826 14.3981 10.0826C14.434 10.0826 14.4636 10.1269 14.4636 10.1815C14.4636 10.2431 14.526 10.2803 14.6289 10.2803C14.72 10.2803 14.8455 10.306 14.9086 10.3372C15.1335 10.4495 15.4498 10.5314 15.4498 10.4768C15.4498 10.4464 15.4885 10.3823 15.5354 10.3345C15.5824 10.2862 15.7177 10.1048 15.8364 9.93079C15.9552 9.75683 16.1315 9.53305 16.2278 9.43341C16.3244 9.33378 16.4909 9.1349 16.5982 8.99178C16.7051 8.84865 16.8826 8.64187 16.9927 8.53235C17.1023 8.42244 17.2696 8.22989 17.3643 8.10377C17.5738 7.82503 18.8381 6.56813 19.0661 6.41195C19.1564 6.34988 19.3071 6.22336 19.4002 6.13124C19.4937 6.03872 19.6787 5.88887 19.8109 5.79873C19.943 5.70858 20.0515 5.61211 20.0519 5.58522C20.0519 5.55794 20.0965 5.5358 20.1509 5.5358C20.205 5.5358 20.2495 5.51326 20.2495 5.48559C20.2495 5.45831 20.4432 5.30411 20.6803 5.1428L21.1111 4.85022L21.2697 5.04474C21.3569 5.15149 21.4295 5.30411 21.4306 5.38358C21.4318 5.46305 21.4626 5.54608 21.4989 5.56862C21.5348 5.59115 21.5644 5.69474 21.5644 5.79912C21.5644 5.90389 21.592 6.0059 21.6251 6.02686C21.6587 6.04742 21.7048 6.151 21.7281 6.25657C21.7912 6.54598 21.9092 6.61359 22.0764 6.45703C22.1537 6.38507 22.2303 6.32655 22.2468 6.32655C22.2634 6.32655 22.6567 6.07074 23.1206 5.758C24.1064 5.09377 24.3605 4.94274 24.4922 4.94274C24.6023 4.94274 24.6276 4.64502 24.523 4.58018C24.4871 4.55764 24.4575 4.48094 24.4575 4.40938C24.4575 4.33781 24.413 4.2623 24.3589 4.24174C24.3045 4.22078 24.2603 4.16029 24.2603 4.10731C24.2603 3.99819 24.1049 3.82224 24.009 3.82224C23.9739 3.82224 23.9285 3.77796 23.9076 3.7234C23.8867 3.66923 23.8244 3.62456 23.7692 3.62456C23.7139 3.62456 23.6686 3.60083 23.6686 3.57158C23.6686 3.49092 23.1873 3.29521 22.9889 3.29521C22.8926 3.29521 22.8137 3.26555 22.8137 3.22918C22.8137 3.19281 22.6405 3.16355 22.4263 3.16355C22.1427 3.16355 22.0287 3.13706 22.0011 3.0647C21.979 3.00698 21.8804 2.96586 21.764 2.96586C21.6543 2.96586 21.5644 2.93621 21.5644 2.89983C21.5644 2.86346 21.4938 2.8338 21.407 2.8338C21.3206 2.8338 21.2326 2.78952 21.2121 2.73496C21.19 2.67724 21.0914 2.63612 20.975 2.63612C20.8653 2.63612 20.7754 2.60646 20.7754 2.57048C20.7754 2.53411 20.7182 2.50446 20.648 2.50446C20.5778 2.50446 20.502 2.4748 20.4795 2.43843C20.4574 2.40245 20.3371 2.3728 20.2129 2.3728C20.0555 2.3728 19.9864 2.34235 19.9864 2.27395C19.9864 2.21227 19.9245 2.17511 19.8223 2.17511C19.732 2.17511 19.6578 2.14546 19.6578 2.10908C19.6578 2.07271 19.5541 2.04305 19.4278 2.04305C19.2669 2.04305 19.1975 2.0134 19.1975 1.94421C19.1975 1.88332 19.1359 1.84537 19.0373 1.84537C18.9489 1.84537 18.8582 1.81571 18.8361 1.77973C18.8136 1.74336 18.7083 1.71371 18.6018 1.71371C18.4957 1.71371 18.4085 1.68405 18.4085 1.64768C18.4085 1.6117 18.3051 1.58205 18.1785 1.58205C18.0179 1.58205 17.9485 1.552 17.9485 1.4832C17.9485 1.41401 17.8791 1.38436 17.7181 1.38436C17.5915 1.38436 17.4881 1.3547 17.4881 1.31833C17.4881 1.28196 17.4179 1.2523 17.3319 1.2523C17.2459 1.2523 17.1414 1.21118 17.0996 1.16058C17.0282 1.07438 16.8913 1.03287 16.3867 0.945491C16.2692 0.925327 16.1733 0.882231 16.1733 0.84981C16.1733 0.817389 16.0727 0.791295 15.95 0.791295C15.8124 0.791295 15.7126 0.753339 15.6893 0.692451C15.664 0.627214 15.5611 0.593607 15.3863 0.593607C15.2404 0.593607 15.1212 0.563954 15.1212 0.527579C15.1212 0.491205 15.021 0.461552 14.898 0.461552C14.7607 0.461552 14.6605 0.423991 14.6372 0.362708C14.5867 0.231048 14.3323 0.234211 14.3323 0.366661ZM24.2492 13.0978C24.237 13.125 24.0942 13.2504 23.9313 13.3761C23.7688 13.5018 23.6208 13.6236 23.6027 13.6469C23.5845 13.6703 23.4062 13.7897 23.2066 13.9122C23.007 14.0348 22.7849 14.1708 22.7135 14.2147C22.3455 14.4404 21.2038 14.9588 21.0744 14.9588C21.0176 14.9588 20.9198 14.9845 20.8567 15.0157C20.6223 15.1331 20.2748 15.2411 20.0357 15.2711C19.9004 15.2881 19.7892 15.3285 19.7892 15.3613C19.7892 15.3937 19.6783 15.4206 19.5426 15.421C19.4073 15.4218 19.1856 15.4605 19.0507 15.5076C18.7899 15.5989 18.6653 15.6835 18.7923 15.6835C18.8341 15.6835 18.8688 15.7183 18.8688 15.761C18.8688 15.8033 18.9103 15.8848 18.9608 15.9421C19.0957 16.0943 19.4251 16.6973 19.5935 17.1005C19.7438 17.4603 19.8736 17.7576 19.9304 17.8739C19.9612 17.9368 19.9864 18.0629 19.9864 18.1538C19.9864 18.2448 20.016 18.3195 20.0523 18.3195C20.414 18.3195 19.7766 19.3961 19.3308 19.538C19.2578 19.5613 19.1975 19.608 19.1975 19.642C19.1975 19.6756 19.1556 19.7033 19.1044 19.7033C19.0531 19.7033 19.0014 19.7254 18.9896 19.7527C18.9651 19.8073 18.4329 20.1647 18.3757 20.1647C18.3564 20.1647 18.2231 20.2386 18.0799 20.3292C17.9367 20.4201 17.7769 20.494 17.7252 20.494C17.6732 20.494 17.6207 20.5162 17.6089 20.5435C17.5797 20.6095 16.2274 21.2884 16.1295 21.2864C16.0873 21.2856 16.0428 21.3069 16.0309 21.3342C15.9927 21.42 15.5725 21.6165 15.5098 21.5778C15.3824 21.4987 15.4672 21.3034 15.7808 20.9554C15.9603 20.7562 16.1074 20.5557 16.1074 20.5106C16.1074 20.4652 16.1299 20.428 16.1572 20.428C16.2104 20.428 16.3583 20.0445 16.4144 19.7614C16.4708 19.4763 15.9366 18.7809 15.6617 18.7809C15.6262 18.7809 15.5607 18.7362 15.5157 18.682C15.4707 18.6275 15.3504 18.5832 15.2487 18.5832C15.1465 18.5832 15.0451 18.5535 15.0226 18.5172C15.0001 18.4808 14.8802 18.4511 14.7555 18.4511C14.6313 18.4511 14.5295 18.4215 14.5295 18.3855C14.5295 18.3491 14.4841 18.3195 14.4285 18.3195C14.3386 18.3195 14.3299 18.8552 14.3465 23.2617C14.3567 25.9799 14.3429 28.2039 14.3157 28.2039C14.2889 28.2039 14.2664 28.2505 14.2664 28.3075C14.2664 28.3996 14.2774 28.4 14.365 28.3122C14.4194 28.2576 14.4636 28.1813 14.4636 28.1426C14.4636 28.1038 14.5015 28.0722 14.548 28.0722C14.5942 28.0722 14.6747 28.0129 14.7267 27.9401C14.7788 27.8678 14.8522 27.8085 14.8897 27.8085C14.9275 27.8085 15.038 27.7346 15.1354 27.6436C15.2329 27.5531 15.3437 27.4791 15.3812 27.4791C15.4191 27.4791 15.4498 27.4455 15.4498 27.4044C15.4498 27.3253 15.7769 27.0181 15.8609 27.0177C15.8881 27.0177 15.9102 26.9861 15.9102 26.947C15.9102 26.86 16.0759 26.6884 16.1603 26.6884C16.1946 26.6884 16.3355 26.5844 16.4735 26.4575C16.612 26.3306 16.7485 26.227 16.7777 26.227C16.8069 26.227 16.8305 26.1823 16.8305 26.1281C16.8305 26.0736 16.8625 26.0293 16.9012 26.0293C16.9923 26.0293 17.1595 25.8617 17.1595 25.7703C17.1595 25.7316 17.1903 25.6999 17.2282 25.6999C17.3173 25.6999 17.6195 25.3967 17.6195 25.3073C17.6195 25.2694 17.6641 25.2385 17.7181 25.2385C17.7726 25.2385 17.8168 25.2089 17.8168 25.1725C17.8168 25.1365 17.8621 25.1069 17.9177 25.1069C17.973 25.1069 18.0353 25.0622 18.0562 25.008C18.0767 24.9535 18.1189 24.9092 18.1497 24.9092C18.2278 24.9092 18.9028 24.228 18.8842 24.1679C18.8756 24.1406 18.9004 24.1184 18.9391 24.1184C18.9777 24.1184 19.2436 23.8812 19.5304 23.591C19.8168 23.3012 20.0811 23.064 20.1174 23.064C20.1541 23.064 20.1837 23.0379 20.1837 23.0063C20.1837 22.9746 20.4945 22.6291 20.874 22.2388C21.2539 21.8482 21.5644 21.4742 21.5644 21.407C21.5644 21.3397 21.5955 21.2848 21.6334 21.2848C21.706 21.2848 22.3533 20.6613 22.3533 20.5913C22.3533 20.5688 22.3904 20.5091 22.4358 20.4589C22.6058 20.2683 22.6823 20.169 22.6823 20.1378C22.6823 20.12 22.7561 20.0255 22.8464 19.9279C22.9372 19.8298 23.011 19.7235 23.011 19.691C23.011 19.6586 23.0713 19.5669 23.1455 19.4874C23.2981 19.3229 23.4713 18.9983 23.4713 18.8766C23.4713 18.8315 23.5155 18.7777 23.5699 18.7568C23.624 18.7362 23.6686 18.6587 23.6686 18.5852C23.6686 18.5116 23.6981 18.4511 23.734 18.4511C23.7703 18.4511 23.7999 18.3475 23.7999 18.2206C23.7999 18.0937 23.8295 17.9901 23.8658 17.9901C23.9017 17.9901 23.9313 17.8545 23.9313 17.6889C23.9313 17.509 23.9711 17.3476 24.0299 17.2887C24.0974 17.2211 24.1285 17.0551 24.1285 16.766C24.1285 16.5276 24.1573 16.3426 24.1944 16.3426C24.2339 16.3426 24.2603 16.0773 24.2603 15.6788C24.2603 15.177 24.2844 14.9912 24.3589 14.9165C24.4997 14.7749 24.5049 13.0479 24.3644 13.0479C24.3131 13.0479 24.2611 13.0701 24.2492 13.0978ZM14.0411 28.4391C13.9271 28.5534 13.9117 28.5992 13.9879 28.5992C14.0151 28.5992 14.0747 28.5399 14.1196 28.4676C14.2183 28.3094 14.1831 28.2968 14.0411 28.4391ZM13.0604 29.3129C12.9405 29.4457 12.9141 29.5529 13.017 29.4892C13.0857 29.4465 13.2376 29.1923 13.1942 29.1923C13.1804 29.1923 13.1204 29.2465 13.0604 29.3129Z" fill="#6D6D6D"/>
<path fill-rule="evenodd" clip-rule="evenodd" d="M13.328 0.176813C13.304 0.20093 13.2843 2.33161 13.2843 4.91104C13.2843 10.1442 13.2401 9.66424 13.7446 9.90938C13.8712 9.97066 14.0192 10.045 14.0732 10.0746C14.4452 10.2779 14.4677 10.2838 14.4677 10.1826C14.4677 10.128 14.4381 10.0833 14.4022 10.0833C14.2969 10.0833 14.3131 0.580096 14.4184 0.465832C14.4843 0.39506 14.4843 0.386362 14.4184 0.423527C14.3687 0.451994 14.3363 0.431434 14.3363 0.371337C14.3363 0.303728 14.2791 0.277238 14.1557 0.287518C14.0563 0.29582 13.9355 0.264586 13.8878 0.217932C13.7971 0.129367 13.4042 0.100505 13.328 0.176813ZM20.6753 5.14945C20.4615 5.2989 20.2765 5.44717 20.2647 5.4788C20.2525 5.51043 20.2008 5.53652 20.1495 5.53652C20.0982 5.53652 20.056 5.55866 20.056 5.58595C20.0556 5.61283 19.9471 5.7093 19.815 5.79945C19.6828 5.88959 19.4978 6.03944 19.4043 6.13196C19.3112 6.22408 19.1605 6.3506 19.0702 6.41268C18.8422 6.56885 17.5778 7.82575 17.3684 8.10449C17.2737 8.23061 17.1064 8.42316 16.9968 8.53307C16.8867 8.64259 16.7092 8.84937 16.6023 8.9925C16.495 9.13563 16.3285 9.3345 16.2319 9.43413C16.1356 9.53377 15.9593 9.75755 15.8405 9.93152C15.7218 10.1055 15.5865 10.287 15.5395 10.3352C15.4926 10.383 15.4539 10.4471 15.4539 10.4775C15.4539 10.5321 15.1375 10.4502 14.9127 10.338C14.8496 10.3067 14.7312 10.2826 14.6496 10.2842C14.5411 10.287 14.5719 10.315 14.7636 10.3882C14.9084 10.4431 15.078 10.5159 15.1407 10.5495C15.3715 10.6725 15.4882 10.6052 15.775 10.1838C15.9332 9.95089 16.1115 9.70694 16.1715 9.64171C16.2311 9.57647 16.437 9.33015 16.6295 9.0949C17.9068 7.5304 19.5822 5.95562 20.7878 5.18583L21.157 4.95018L21.2588 5.19373C21.3144 5.32776 21.4055 5.55629 21.4608 5.701C21.5507 5.93506 21.5621 5.94495 21.5653 5.78759C21.5669 5.68993 21.5389 5.59188 21.503 5.56934C21.4667 5.5468 21.4371 5.4697 21.4371 5.39814C21.4371 5.26885 21.189 4.87743 21.1069 4.87743C21.0836 4.87743 20.8895 4.9996 20.6753 5.14945ZM24.2368 5.02965C24.1673 5.07275 23.6999 5.38233 23.1973 5.71761C22.6951 6.05288 22.2699 6.32727 22.2525 6.32727C22.2347 6.32727 22.1578 6.38579 22.0805 6.45775C21.9132 6.61432 21.7953 6.54671 21.7322 6.25729C21.6864 6.04932 21.5685 5.92755 21.5685 6.08886C21.5685 6.14303 21.5945 6.20352 21.6257 6.2229C21.6572 6.24266 21.701 6.34823 21.7227 6.45775C21.7689 6.68786 21.8643 6.70525 22.0947 6.52496C22.185 6.45379 22.2809 6.39528 22.3081 6.39449C22.3349 6.3937 22.5645 6.24464 22.8178 6.06356C23.0711 5.88248 23.3054 5.73421 23.3385 5.73421C23.3717 5.73421 23.4083 5.71167 23.4206 5.68439C23.4506 5.6156 24.2596 5.09687 24.4616 5.017C24.5985 4.96244 24.604 4.95176 24.4944 4.95137C24.4222 4.95137 24.3062 4.98656 24.2368 5.02965ZM24.1326 13.1218C24.0423 13.1957 23.9085 13.306 23.8356 13.3665C23.3685 13.7544 22.8738 14.0656 22.1744 14.4103C21.9835 14.5044 21.8418 14.5966 21.86 14.6147C21.8904 14.6452 22.4162 14.4004 22.7176 14.2154C22.789 14.1715 23.0111 14.0355 23.2107 13.9129C23.4103 13.7904 23.5886 13.671 23.6068 13.6477C23.6249 13.6243 23.7728 13.5029 23.9354 13.378C24.0983 13.2531 24.2462 13.1321 24.2644 13.1095C24.2821 13.087 24.3413 13.0514 24.3957 13.0305C24.4833 12.9973 24.4833 12.9925 24.3957 12.9901C24.3413 12.9886 24.2233 13.0475 24.1326 13.1218ZM21.598 14.6839C21.5637 14.7136 21.3176 14.8089 21.0509 14.8955C20.7846 14.982 20.6024 15.0651 20.6465 15.0797C20.6907 15.0947 20.7905 15.0769 20.8682 15.0406C20.946 15.0042 21.1369 14.9362 21.2923 14.8895C21.5744 14.8045 21.8608 14.6361 21.7298 14.6321C21.6915 14.631 21.6324 14.6543 21.598 14.6839ZM20.1878 15.1608C20.0974 15.1916 19.8607 15.26 19.6619 15.3134C19.3136 15.4067 19.3092 15.4102 19.5467 15.4154C19.6824 15.4185 19.7933 15.3913 19.7933 15.3549C19.7933 15.3185 19.8895 15.2881 20.0071 15.2865C20.1246 15.2853 20.2947 15.2418 20.385 15.19C20.5633 15.088 20.4521 15.0714 20.1878 15.1608ZM18.7731 15.5122C18.6524 15.6008 18.6548 15.6131 18.8418 15.891C18.9479 16.0492 19.1751 16.4453 19.3463 16.7715C19.5175 17.0977 19.6588 17.3274 19.6599 17.2815C19.6611 17.2357 19.6276 17.1317 19.5858 17.0506C19.544 16.9696 19.4895 16.8589 19.4651 16.8047C19.3589 16.5715 19.0497 16.0385 18.9649 15.9428C18.9144 15.8855 18.8729 15.8064 18.8729 15.7669C18.8729 15.7277 18.8359 15.6815 18.7909 15.6645C18.7392 15.6455 18.7577 15.6166 18.8402 15.5878C19.2019 15.4608 19.2449 15.43 19.0662 15.4253C18.9739 15.4229 18.8418 15.462 18.7731 15.5122ZM19.6954 17.4966C19.7199 17.569 19.7889 17.7766 19.8489 17.9576C19.9341 18.2154 19.9625 18.2534 19.9799 18.1312C19.9917 18.0458 19.9696 17.9434 19.9306 17.9039C19.8911 17.8647 19.8592 17.7849 19.8592 17.7267C19.8592 17.6682 19.8122 17.5631 19.755 17.4927C19.6524 17.3666 19.6517 17.3666 19.6954 17.4966ZM13.2992 23.4522C13.3111 27.0707 13.2949 28.9301 13.2515 28.9313C13.2152 28.9325 13.2385 28.9645 13.3032 29.0021C13.401 29.059 13.4831 29.0084 13.7868 28.7039C13.988 28.5019 14.1793 28.3536 14.2117 28.3734C14.244 28.3936 14.2705 28.3639 14.2705 28.3074C14.2705 28.2508 14.293 28.2046 14.3198 28.2046C14.347 28.2046 14.3608 25.9806 14.3505 23.2624C14.334 18.8559 14.3427 18.3202 14.4326 18.3202C14.4882 18.3202 14.5336 18.3499 14.5336 18.3862C14.5336 18.4222 14.6314 18.4519 14.7506 18.4519C14.8697 18.4519 14.9995 18.4843 15.0389 18.5234C15.078 18.563 15.1802 18.5835 15.2658 18.5693C15.3908 18.5487 15.3636 18.527 15.1253 18.4578C14.9624 18.4103 14.7703 18.3471 14.6981 18.3174C14.6255 18.2878 14.4776 18.2482 14.3691 18.2301C14.2606 18.2115 14.0535 18.1664 13.9091 18.1296C13.7643 18.0929 13.5639 18.0426 13.4637 18.0185L13.2815 17.9746L13.2992 23.4522ZM20.0276 18.478C20.1538 18.9821 19.325 19.6068 16.9005 20.8356C15.622 21.4832 15.4346 21.5188 15.833 21.038C16.1388 20.6691 16.4413 20.1409 16.4378 19.9816C16.435 19.8305 16.2488 20.1512 16.2453 20.3137C16.2441 20.3769 16.2133 20.4287 16.1774 20.4287C16.1411 20.4287 16.1115 20.4659 16.1115 20.5114C16.1115 20.5564 15.9644 20.7569 15.7849 20.9562C15.4713 21.3041 15.3865 21.4994 15.5139 21.5785C15.5766 21.6172 15.9967 21.4207 16.035 21.3349C16.0468 21.3077 16.0914 21.2863 16.1336 21.2871C16.2315 21.2891 17.5838 20.6102 17.6129 20.5442C17.6248 20.5169 17.6772 20.4948 17.7293 20.4948C17.781 20.4948 17.9408 20.4208 18.084 20.3299C18.2272 20.2394 18.3605 20.1654 18.3798 20.1654C18.437 20.1654 18.9692 19.808 18.9936 19.7534C19.0055 19.7262 19.0572 19.704 19.1084 19.704C19.1597 19.704 19.2015 19.6763 19.2015 19.6427C19.2015 19.6087 19.2619 19.5621 19.3349 19.5387C19.7818 19.3964 20.4177 18.3202 20.0552 18.3202C20.0173 18.3202 20.0055 18.389 20.0276 18.478ZM15.5198 18.6828C15.5648 18.7369 15.6413 18.7816 15.6894 18.7816C15.7865 18.7816 16.2311 19.2003 16.3541 19.4075C16.4153 19.5103 16.4334 19.5162 16.4366 19.4348C16.4417 19.2869 16.0583 18.8781 15.7644 18.7187C15.4685 18.5582 15.4097 18.5495 15.5198 18.6828Z" fill="white"/>
<path fill-rule="evenodd" clip-rule="evenodd" d="M28.0801 9.90838C28.0801 13.5023 28.0678 14.0246 27.9814 14.0578C27.8954 14.0911 27.8828 14.5667 27.8828 17.7878V21.4802H30.0197H32.1567V21.092C32.1567 20.8077 32.1831 20.6934 32.2553 20.6658C32.3405 20.6329 32.3539 20.2811 32.3539 18.0559V15.4836H33.0443C33.4604 15.4836 33.7346 15.5097 33.7346 15.5496C33.7346 15.5927 34.9619 15.6156 37.285 15.6156H40.8354V15.4132C40.8354 15.3017 40.8795 15.1661 40.934 15.1119C41.0196 15.0261 41.0326 14.424 41.0326 10.5038V5.99456H35.911C31.4198 5.99456 30.7854 5.9827 30.7519 5.89572C30.7204 5.81269 30.5073 5.79688 29.3972 5.79688H28.0801V9.90838ZM68.778 9.3513C68.778 11.4306 68.7547 12.591 68.7121 12.6171C68.6695 12.6436 68.6466 14.2215 68.6466 17.1351V21.6119H70.053C71.2427 21.6119 71.4652 21.6273 71.4976 21.7107C71.5272 21.7886 71.6621 21.8096 72.1291 21.8096H72.7228V21.2497C72.7228 20.92 72.7501 20.6895 72.7887 20.6895C72.8309 20.6895 72.8542 19.9537 72.8542 18.6138C72.8542 16.8124 72.8672 16.538 72.9528 16.538C73.0073 16.538 73.0514 16.5823 73.0514 16.6369C73.0514 16.6911 73.081 16.7357 73.1173 16.7357C73.1536 16.7357 73.1832 16.795 73.1832 16.8674C73.1832 16.9409 73.227 16.9994 73.2818 16.9994C73.3359 16.9994 73.3805 17.0437 73.3805 17.0983C73.3805 17.1525 73.41 17.1971 73.4459 17.1971C73.4822 17.1971 73.5126 17.2489 73.5138 17.3122C73.5165 17.4549 73.6645 17.6581 73.7655 17.6581C73.8069 17.6581 73.8404 17.7028 73.8404 17.757C73.8404 17.8115 73.87 17.8558 73.9063 17.8558C73.9426 17.8558 73.9722 17.9151 73.9722 17.9879C73.9722 18.061 74.016 18.1195 74.0708 18.1195C74.1248 18.1195 74.1694 18.1638 74.1694 18.2184C74.1694 18.2726 74.199 18.3172 74.2349 18.3172C74.2712 18.3172 74.3008 18.3655 74.3008 18.4248C74.3008 18.4841 74.4041 18.6304 74.5308 18.7498C74.6574 18.8696 74.7612 19.0285 74.7612 19.1036C74.7612 19.1807 74.8038 19.2396 74.8598 19.2396C74.9138 19.2396 74.9584 19.2843 74.9584 19.3385C74.9584 19.393 74.988 19.4373 75.0239 19.4373C75.0602 19.4373 75.0898 19.486 75.0898 19.5449C75.0898 19.6042 75.1931 19.7505 75.3197 19.8699C75.4464 19.9897 75.5501 20.149 75.5501 20.2237C75.5501 20.2989 75.5817 20.3601 75.6203 20.3601C75.7284 20.3601 75.8787 20.5349 75.8787 20.6606C75.8787 20.7223 75.9821 20.8706 76.1087 20.9904C76.2353 21.1098 76.3391 21.2422 76.3391 21.2845C76.3391 21.3268 76.4401 21.4628 76.5636 21.5866L76.7876 21.8116L79.0125 21.7942L81.237 21.7768L81.2579 21.5621C81.2721 21.4142 81.2465 21.3351 81.1755 21.3078C81.1191 21.2861 81.0729 21.2122 81.0729 21.1438C81.0729 21.075 81.0433 21.0188 81.007 21.0188C80.9707 21.0188 80.9412 20.9745 80.9412 20.92C80.9412 20.8658 80.897 20.8211 80.8425 20.8211C80.7885 20.8211 80.7439 20.7674 80.7439 20.7017C80.7439 20.6361 80.6847 20.5191 80.6126 20.4412C80.5404 20.3633 80.4812 20.27 80.4812 20.234C80.4812 20.198 80.407 20.094 80.3167 20.0035C80.2264 19.913 80.1522 19.7971 80.1522 19.7461C80.1522 19.6951 80.0784 19.5979 79.9881 19.5298C79.8978 19.4618 79.8236 19.3689 79.8236 19.3231C79.8236 19.2772 79.794 19.2396 79.7577 19.2396C79.7218 19.2396 79.6922 19.1847 79.6922 19.1171C79.6922 19.0499 79.6181 18.9392 79.5277 18.8708C79.4374 18.8028 79.3632 18.6802 79.3632 18.5979C79.3632 18.5161 79.3317 18.4489 79.293 18.4489C79.1865 18.4489 79.0346 18.2749 79.0346 18.1524C79.0346 18.0302 78.8827 17.8558 78.7762 17.8558C78.7376 17.8558 78.706 17.7926 78.706 17.7155C78.706 17.6384 78.6023 17.4771 78.4756 17.3577C78.349 17.2379 78.2456 17.0912 78.2456 17.0319C78.2456 16.9101 78.0938 16.7357 77.9873 16.7357C77.9486 16.7357 77.917 16.6744 77.917 16.5993C77.917 16.4534 77.7746 16.2743 77.6586 16.2743C77.62 16.2743 77.588 16.2004 77.588 16.1098C77.588 16.0193 77.5585 15.945 77.5226 15.945C77.4863 15.945 77.4567 15.9003 77.4567 15.8461C77.4567 15.7916 77.4271 15.7473 77.3908 15.7473C77.3549 15.7473 77.3253 15.7018 77.3253 15.6465C77.3253 15.5907 77.2807 15.5283 77.2267 15.5077C77.1143 15.4642 77.0914 15.2859 77.1983 15.2859C77.2748 15.2859 77.4567 15.1238 77.4567 15.0554C77.4567 15.0004 77.6318 14.8249 77.6867 14.8249C77.7549 14.8249 77.917 14.6426 77.917 14.5659C77.917 14.5272 77.9486 14.4951 77.9873 14.4951C78.0638 14.4951 78.2456 14.333 78.2456 14.2646C78.2456 14.2097 78.4208 14.0341 78.4756 14.0341C78.5439 14.0341 78.706 13.8519 78.706 13.7752C78.706 13.7364 78.7376 13.7044 78.7762 13.7044C78.8528 13.7044 79.0346 13.5423 79.0346 13.4739C79.0346 13.4189 79.2098 13.2434 79.2646 13.2434C79.3328 13.2434 79.495 13.0611 79.495 12.9844C79.495 12.9457 79.5265 12.9136 79.5652 12.9136C79.6417 12.9136 79.8236 12.7515 79.8236 12.6831C79.8236 12.6282 79.9987 12.4526 80.0536 12.4526C80.1218 12.4526 80.284 12.2704 80.284 12.1937C80.284 12.1549 80.3155 12.1229 80.3542 12.1229C80.4307 12.1229 80.6126 11.9608 80.6126 11.8924C80.6126 11.8374 80.7877 11.6619 80.8425 11.6619C80.9108 11.6619 81.0729 11.4796 81.0729 11.4029C81.0729 11.3642 81.1045 11.3321 81.1431 11.3321C81.2343 11.3321 81.4015 11.1645 81.4015 11.0736C81.4015 11.0344 81.4311 11.0028 81.4674 11.0028C81.5033 11.0028 81.5329 10.9435 81.5329 10.8711C81.5329 10.7414 81.4891 10.7391 78.9005 10.7391H76.2685L75.9809 11.0356C75.8227 11.1989 75.661 11.3321 75.6215 11.3321C75.5821 11.3321 75.5501 11.3606 75.5501 11.395C75.5501 11.4768 74.9051 12.1229 74.8235 12.1229C74.7892 12.1229 74.7612 12.1549 74.7612 12.1937C74.7612 12.2704 74.599 12.4526 74.5308 12.4526C74.4759 12.4526 74.3008 12.6282 74.3008 12.6831C74.3008 12.7515 74.1189 12.9136 74.0424 12.9136C74.0037 12.9136 73.9722 12.9457 73.9722 12.9844C73.9722 13.0611 73.81 13.2434 73.7418 13.2434C73.687 13.2434 73.5118 13.4189 73.5118 13.4739C73.5118 13.5423 73.33 13.7044 73.2534 13.7044C73.2148 13.7044 73.1832 13.7364 73.1832 13.7752C73.1832 13.8665 73.0159 14.0341 72.9248 14.0341C72.8755 14.0341 72.8542 13.0955 72.8542 10.9368C72.8542 8.22764 72.8668 7.83978 72.9528 7.83978C73.0357 7.83978 73.0514 7.70061 73.0514 6.983V6.12662H70.9149H68.778V9.3513ZM82.8481 10.5414V14.9565H87.5819H92.3158V17.2628V19.5694H88.5023C86.004 19.5694 84.6888 19.5465 84.6888 19.5034C84.6888 19.4622 84.3049 19.4373 83.6682 19.4373H82.6477L82.6655 20.6072L82.6836 21.7768L89.0774 21.7934C93.2641 21.8044 95.4717 21.8329 95.4717 21.876C95.4717 21.9148 95.7257 21.9416 96.0961 21.9416H96.7206V17.757C96.7206 15.0115 96.7435 13.5727 96.7865 13.5727C96.8232 13.5727 96.8524 13.3972 96.8524 13.1773V12.782H92.0526H87.2529V10.6402V8.49887H91.8881C94.9348 8.49887 96.5234 8.47633 96.5234 8.43284C96.5234 8.39647 96.5679 8.36682 96.622 8.36682C96.6835 8.36682 96.7206 8.30474 96.7206 8.20234C96.7206 8.1118 96.7502 8.03747 96.7865 8.03747C96.8228 8.03747 96.8524 7.93704 96.8524 7.81369C96.8524 7.67609 96.8898 7.57567 96.951 7.55234C97.005 7.53139 97.0496 7.45429 97.0496 7.38075C97.0496 7.30681 97.0792 7.24672 97.1151 7.24672C97.1514 7.24672 97.181 7.14313 97.181 7.01621C97.181 6.8893 97.2105 6.78531 97.2468 6.78531C97.2827 6.78531 97.3123 6.68173 97.3123 6.55481V6.32431H92.8396C88.9244 6.32431 88.3618 6.31165 88.3287 6.22546C88.296 6.13967 87.9279 6.12662 85.5697 6.12662H82.8481V10.5414ZM98.6275 11.4243C98.6275 15.9137 98.6157 16.5286 98.5281 16.5622C98.4414 16.5954 98.4307 16.9291 98.4457 19.1886L98.463 21.7768L99.3999 21.795C99.9507 21.8056 100.337 21.8396 100.337 21.8776C100.337 21.9167 100.798 21.9416 101.52 21.9416H102.704V17.5265V13.1113H104.347H105.99L106.007 17.5099L106.024 21.9084L108.145 21.9258L110.265 21.9432V16.4072V10.8711H106.55H102.835V8.59771V6.32431H100.731H98.6275V11.4243ZM111.711 8.13552V9.94832H113.749H115.788V8.37393C115.788 7.00554 115.801 6.79441 115.891 6.76001C115.958 6.73391 115.986 6.65721 115.973 6.5386L115.952 6.35712L113.831 6.33973L111.711 6.32233V8.13552ZM130.646 8.73135C130.646 10.6932 130.633 11.0123 130.548 11.0447C130.461 11.0783 130.449 11.754 130.449 16.578V22.0733H132.586H134.723V19.0819C134.723 16.4839 134.736 16.0857 134.822 16.0529C134.908 16.0197 134.92 15.4231 134.92 11.2357V6.45597H132.783H130.646V8.73135ZM143.862 7.97144C143.862 8.93813 143.838 9.48731 143.796 9.48731C143.756 9.48731 143.73 9.78384 143.73 10.2448V11.0028H139.95H136.169V14.66C136.169 17.8835 136.157 18.3172 136.07 18.3172C135.983 18.3172 135.972 18.5517 135.987 20.1787L136.005 22.0405L141.906 22.0571L147.807 22.0741V19.8003C147.807 17.823 147.82 17.5265 147.905 17.5265C147.992 17.5265 148.004 16.8674 148.004 11.9912V6.45597H145.933H143.862V7.97144ZM36.5615 10.8051V13.2434H34.4577H32.3539V10.8051V8.36682H34.4577H36.5615V10.8051ZM42.2815 13.7752C42.2815 16.6788 42.2681 17.154 42.1829 17.2394C42.0997 17.3229 42.0843 17.6562 42.0843 19.4093V21.4802H44.9443C46.8075 21.4802 47.8043 21.5032 47.8043 21.5463C47.8043 21.589 48.7906 21.6119 50.6316 21.6119H53.4589V21.4474C53.4589 21.3446 53.496 21.2825 53.5575 21.2825C53.6124 21.2825 53.6562 21.224 53.6562 21.1509C53.6562 21.0781 53.6857 21.0188 53.7216 21.0188C53.7579 21.0188 53.7875 20.9449 53.7875 20.8544C53.7875 20.7638 53.8171 20.6895 53.8534 20.6895C53.8893 20.6895 53.9189 20.6155 53.9189 20.5246C53.9189 20.4222 53.9564 20.3601 54.0175 20.3601C54.079 20.3601 54.1161 20.2977 54.1161 20.1953C54.1161 20.1047 54.1457 20.0304 54.182 20.0304C54.2183 20.0304 54.2479 19.8972 54.2479 19.7339V19.4373H50.303H46.3582V18.4821V17.5265H50.1385H53.9189V14.0341V10.5414H50.6356C48.5176 10.5414 47.3377 10.5181 47.3112 10.4757C47.2856 10.4334 46.3684 10.4097 44.7763 10.4097H42.2815V13.7752ZM55.6941 14.8838C55.6941 18.7126 55.6822 19.2302 55.5939 19.2642C55.5087 19.297 55.4964 19.4709 55.5118 20.4408L55.53 21.5791L61.0362 21.5961L66.5424 21.6127V21.3818C66.5424 21.2205 66.5724 21.1509 66.641 21.1509C66.7026 21.1509 66.7397 21.0884 66.7397 20.986C66.7397 20.8955 66.7693 20.8211 66.8056 20.8211C66.8418 20.8211 66.8714 20.7504 66.8714 20.6634C66.8714 20.5768 66.9156 20.4886 66.9701 20.4681C67.0241 20.4471 67.0687 20.3696 67.0687 20.2961C67.0687 20.2225 67.0983 20.1624 67.1342 20.1624C67.1704 20.1624 67.2 20.0585 67.2 19.9315C67.2 19.8046 67.2296 19.701 67.2659 19.701C67.3018 19.701 67.3314 19.6417 67.3314 19.5694C67.3314 19.4389 67.2876 19.4373 63.551 19.4373H59.7707V16.1992C59.7707 13.1928 59.779 12.9551 59.8855 12.8737C59.9778 12.8037 60.6725 12.7859 63.3704 12.784C66.3207 12.7824 66.7397 12.7697 66.7397 12.6831C66.7397 12.6286 66.7693 12.5843 66.8056 12.5843C66.8418 12.5843 66.8714 12.4803 66.8714 12.3538C66.8714 12.1925 66.901 12.1229 66.9701 12.1229C67.0312 12.1229 67.0687 12.0608 67.0687 11.9584C67.0687 11.8679 67.0983 11.7935 67.1342 11.7935C67.1704 11.7935 67.2 11.6896 67.2 11.563C67.2 11.4361 67.2296 11.3321 67.2659 11.3321C67.3022 11.3321 67.3314 11.1566 67.3314 10.9368V10.5414H61.5127H55.6941V14.8838ZM111.711 11.1934C111.711 11.4191 111.681 11.5271 111.612 11.5539C111.526 11.5871 111.514 12.2277 111.514 16.7666V21.9416H113.585H115.656V20.7555C115.656 20.0086 115.68 19.5694 115.722 19.5694C115.765 19.5694 115.788 18.0757 115.788 15.2203V10.8711H113.749H111.711V11.1934ZM117.08 10.915C117.056 10.9391 117.037 13.43 117.037 16.4503V21.9416H122.724H128.411V21.7768C128.411 21.6862 128.44 21.6119 128.476 21.6119C128.511 21.6119 128.559 21.538 128.581 21.4474C128.604 21.3569 128.649 21.2825 128.681 21.2825C128.713 21.2825 128.74 21.1786 128.74 21.052C128.74 20.9251 128.769 20.8211 128.806 20.8211C128.842 20.8211 128.871 20.7472 128.871 20.6567C128.871 20.5539 128.909 20.4918 128.97 20.4918C129.024 20.4918 129.068 20.4341 129.068 20.3641C129.068 20.2937 129.098 20.2178 129.134 20.1953C129.171 20.1727 129.2 20.0968 129.2 20.0264C129.2 19.9019 129.124 19.8987 126.044 19.8987C123.283 19.8987 122.888 19.8865 122.888 19.7999C122.888 19.7173 122.75 19.701 122.034 19.701H121.179V18.7786V17.8558H123.842C125.573 17.8558 126.504 17.8792 126.504 17.9219C126.504 17.9634 126.921 17.9879 127.622 17.9879H128.74V14.4951C128.74 11.4349 128.728 11.0028 128.641 11.0028C128.587 11.0028 128.543 10.9731 128.543 10.9368C128.543 10.8624 117.155 10.8407 117.08 10.915ZM49.7113 13.9681V15.1542H48.0347H46.3582V13.9681V12.782H48.0347H49.7113V13.9681ZM124.664 13.8032C124.664 14.2571 124.645 14.3635 124.565 14.3635C124.484 14.3635 124.466 14.4769 124.466 14.9894V15.6156H122.888H121.31V14.4295V13.2434H122.987H124.664V13.8032ZM143.73 16.5709V19.8987H141.988H140.246V16.7428C140.246 13.9981 140.258 13.5818 140.344 13.549C140.398 13.528 140.443 13.4506 140.443 13.377C140.443 13.2461 140.478 13.2434 142.086 13.2434H143.73V16.5709Z" fill="white"/>
</svg>
