<svg width="79" height="119" viewBox="0 0 79 119" fill="none" xmlns="http://www.w3.org/2000/svg">
<g clip-path="url(#clip0_949_9758)">
<path d="M70.9411 119H8.05892C3.61542 119 0 115.4 0 110.976V56.3828C0 51.9588 3.61542 48.3592 8.05892 48.3592H57.0009V32.8926C56.8195 23.4376 49.0372 15.8034 39.5 15.8034C29.9628 15.8034 22.1647 23.4534 21.9991 32.9207V33.2312C21.9991 37.1342 18.81 40.3093 14.8916 40.3093H13.2301C9.30987 40.3093 6.12084 37.1342 6.12084 33.2312C6.12084 24.3761 9.57768 16.0437 15.8571 9.77253C22.133 3.50309 30.4861 0.0315752 39.3767 0C39.4172 0 39.4577 0 39.4982 0C48.2901 0 56.6027 3.44696 62.9192 9.71289C69.3413 16.0841 72.8792 24.5234 72.8792 33.4768V48.596C76.3889 49.4626 79 52.6254 79 56.3846V110.978C79 115.402 75.3846 119.002 70.9411 119.002V119ZM8.05892 52.2202C5.7526 52.2202 3.87618 54.0884 3.87618 56.3846V110.978C3.87618 113.274 5.7526 115.143 8.05892 115.143H70.9411C73.2474 115.143 75.1238 113.274 75.1238 110.978V56.3846C75.1238 54.0884 73.2474 52.2202 70.9411 52.2202H69.003V33.4768C69.003 25.5584 65.8703 18.0891 60.1829 12.4477C54.573 6.88164 47.1801 3.83113 39.389 3.86095C31.5309 3.88901 24.1486 6.95707 18.6004 12.5003C13.0504 18.0435 9.99525 25.4075 9.99525 33.2347C9.99525 35.0099 11.4453 36.4536 13.2283 36.4536H14.8898C16.6253 36.4536 18.0454 35.0853 18.1194 33.375V33.2347C18.1194 21.4975 27.7111 11.9477 39.5 11.9477C51.2889 11.9477 60.8806 21.4975 60.8806 33.2347L60.8771 52.2219H8.05892V52.2202ZM46.0014 104.402H32.9968C31.6314 104.402 30.3822 103.777 29.5664 102.688C28.7507 101.599 28.5058 100.227 28.8951 98.9252L32.8805 85.6057C32.9246 85.4601 32.8647 85.2952 32.7308 85.1864C30.206 83.1481 28.7577 80.1379 28.7577 76.9295C28.7577 74.0228 29.9082 71.3039 31.9996 69.2743C34.0892 67.2447 36.8501 66.1659 39.7713 66.2395C42.5498 66.308 45.1645 67.4394 47.1343 69.4251C49.1023 71.4109 50.2053 74.0281 50.2405 76.7944C50.2811 80.0555 48.8345 83.113 46.271 85.1847C46.1353 85.2952 46.0772 85.4671 46.123 85.6232L50.1031 98.9269C50.4925 100.229 50.2476 101.6 49.4318 102.69C48.6161 103.779 47.3651 104.403 46.0014 104.403V104.402ZM39.4982 70.0935C37.6941 70.0935 35.9991 70.7794 34.7059 72.0354C33.3704 73.3335 32.6339 75.0701 32.6339 76.9295C32.6339 78.9696 33.5589 80.8869 35.1728 82.1903C36.5294 83.2867 37.088 85.0601 36.5964 86.7091L32.611 100.029C32.5634 100.188 32.6198 100.309 32.6744 100.383C32.729 100.457 32.8312 100.544 32.9968 100.544H46.0014C46.1688 100.544 46.2692 100.457 46.3238 100.383C46.3785 100.309 46.4348 100.188 46.3873 100.029L42.4071 86.7249C41.912 85.0672 42.4688 83.2867 43.8272 82.1885C45.4658 80.8641 46.3908 78.917 46.3644 76.8436C46.3185 73.2142 43.318 70.1865 39.6762 70.097C39.618 70.097 39.5581 70.0952 39.5 70.0952L39.4982 70.0935Z" fill="url(#paint0_linear_949_9758)"/>
</g>
<defs>
<linearGradient id="paint0_linear_949_9758" x1="29.814" y1="141.663" x2="81.5731" y2="-54.1064" gradientUnits="userSpaceOnUse">
<stop stop-color="#AFAFFF"/>
<stop offset="0.34375" stop-color="#FF8FB8"/>
<stop offset="0.723958" stop-color="#FFBB9B"/>
</linearGradient>
<clipPath id="clip0_949_9758">
<rect width="79" height="119" fill="white"/>
</clipPath>
</defs>
</svg>
