<svg width="80" height="120" viewBox="0 0 80 120" fill="none" xmlns="http://www.w3.org/2000/svg">
<path d="M71.8391 120H8.16093C3.66118 120 0 116.37 0 111.909V56.8566C0 52.3954 3.66118 48.7656 8.16093 48.7656H57.7225V33.169C57.5387 23.6345 49.6579 15.9362 40 15.9362C30.3421 15.9362 22.4452 23.6505 22.2775 33.1973V33.5104C22.2775 37.4463 19.0481 40.648 15.0801 40.648H13.3976C9.42772 40.648 6.19831 37.4463 6.19831 33.5104C6.19831 24.5809 9.69892 16.1785 16.0578 9.85465C22.4131 3.53253 30.872 0.0318406 39.8751 0C39.9161 0 39.9572 0 39.9982 0C48.9014 0 57.3192 3.47593 63.7156 9.79451C70.219 16.2192 73.8017 24.7295 73.8017 33.7581V49.0044C77.3558 49.8782 80 53.0676 80 56.8584V111.911C80 116.372 76.3388 120.002 71.8391 120.002V120ZM8.16093 52.659C5.82542 52.659 3.92524 54.5429 3.92524 56.8584V111.911C3.92524 114.226 5.82542 116.11 8.16093 116.11H71.8391C74.1746 116.11 76.0748 114.226 76.0748 111.911V56.8584C76.0748 54.5429 74.1746 52.659 71.8391 52.659H69.8764V33.7581C69.8764 25.7732 66.7041 18.2411 60.9447 12.5523C55.2638 6.93947 47.7773 3.86332 39.8876 3.89339C31.9301 3.9217 24.4543 7.01554 18.8358 12.6053C13.2156 18.1951 10.1218 25.621 10.1218 33.514C10.1218 35.3041 11.5902 36.7599 13.3958 36.7599H15.0783C16.8357 36.7599 18.2738 35.3802 18.3487 33.6555V33.514C18.3487 21.6781 28.0619 12.0481 40 12.0481C51.9381 12.0481 61.6513 21.6781 61.6513 33.514L61.6477 52.6608H8.16093V52.659ZM46.5837 105.279H33.4145C32.0318 105.279 30.7668 104.649 29.9407 103.551C29.1146 102.452 28.8666 101.069 29.2609 99.7565L33.2968 86.3251C33.3414 86.1783 33.2807 86.012 33.1451 85.9023C30.5883 83.8468 29.1217 80.8113 29.1217 77.576C29.1217 74.6449 30.2868 71.9031 32.4047 69.8564C34.5207 67.8098 37.3166 66.7219 40.2748 66.7962C43.0884 66.8652 45.7362 68.0061 47.7309 70.0085C49.7239 72.011 50.8408 74.6502 50.8765 77.4398C50.9175 80.7282 49.4527 83.8114 46.8567 85.9005C46.7193 86.012 46.6604 86.1853 46.7068 86.3428L50.7373 99.7583C51.1316 101.071 50.8836 102.454 50.0575 103.553C49.2315 104.651 47.9647 105.281 46.5837 105.281V105.279ZM39.9982 70.6825C38.1712 70.6825 36.4548 71.3742 35.1452 72.6407C33.7928 73.9497 33.047 75.7009 33.047 77.576C33.047 79.6332 33.9837 81.5667 35.618 82.881C36.9918 83.9866 37.5574 85.7749 37.0596 87.4377L33.0238 100.869C32.9756 101.03 33.0327 101.152 33.088 101.226C33.1433 101.301 33.2468 101.389 33.4145 101.389H46.5837C46.7532 101.389 46.8549 101.301 46.9102 101.226C46.9655 101.152 47.0226 101.03 46.9744 100.869L42.9439 87.4536C42.4426 85.782 43.0064 83.9866 44.382 82.8792C46.0413 81.5437 46.978 79.5802 46.9512 77.4893C46.9049 73.8294 43.8664 70.7763 40.1784 70.686C40.1195 70.686 40.0589 70.6843 40 70.6843L39.9982 70.6825Z" fill="url(#paint0_linear_949_9759)"/>
<defs>
<linearGradient id="paint0_linear_949_9759" x1="30.1914" y1="142.853" x2="82.1946" y2="-54.6693" gradientUnits="userSpaceOnUse">
<stop stop-color="#AFAFFF"/>
<stop offset="0.34375" stop-color="#FF8FB8"/>
<stop offset="0.723958" stop-color="#FFBB9B"/>
</linearGradient>
</defs>
</svg>
