<svg width="20" height="21" viewBox="0 0 20 21" fill="none" xmlns="http://www.w3.org/2000/svg">
<path d="M19.4252 12.9743C18.1171 18.2204 12.8031 21.4131 7.55574 20.1048C2.31055 18.7969 -0.882542 13.4832 0.426156 8.23736C1.73363 2.99063 7.04769 -0.202389 12.2935 1.10554C17.5405 2.41348 20.7333 7.72784 19.4252 12.9743Z" fill="#50AF95"/>
<path fill-rule="evenodd" clip-rule="evenodd" d="M11.1024 11.6397C11.0392 11.6444 10.7125 11.6638 9.98376 11.6638C9.40414 11.6638 8.99261 11.6465 8.84823 11.6397C6.60827 11.5416 4.93634 11.1536 4.93634 10.689C4.93634 10.2244 6.60827 9.83688 8.84823 9.73725V11.2532C8.99472 11.2637 9.41415 11.2884 9.99377 11.2884C10.6893 11.2884 11.0376 11.2595 11.1003 11.2538V9.7383C13.3355 9.83741 15.0038 10.2255 15.0038 10.689C15.0038 11.1526 13.3361 11.5406 11.1003 11.6392L11.1024 11.6397ZM11.1024 9.58151V8.22494H14.2218V6.15625H5.72883V8.22494H8.84771V9.58099C6.31267 9.69687 4.40625 10.1966 4.40625 10.7955C4.40625 11.3943 6.31267 11.8935 8.84771 12.0099V16.357H11.1019V12.0083C13.6311 11.8925 15.5344 11.3932 15.5344 10.7949C15.5344 10.1966 13.6332 9.69792 11.1024 9.58151Z" fill="white"/>
</svg>
