<svg xmlns="http://www.w3.org/2000/svg" width="160" height="160" viewBox="0 0 160 160" fill="none">
<g filter="url(#filter0_dd_91_8711)">
<path d="M123 73C123 100.614 100.614 123 73 123C45.3858 123 23 100.614 23 73C23 45.3858 45.3858 23 73 23C100.614 23 123 45.3858 123 73Z" fill="white"/>
<path fill-rule="evenodd" clip-rule="evenodd" d="M73 116.182C96.8487 116.182 116.182 96.8487 116.182 73C116.182 49.1513 96.8487 29.8182 73 29.8182C49.1513 29.8182 29.8182 49.1513 29.8182 73C29.8182 96.8487 49.1513 116.182 73 116.182ZM73 123C100.614 123 123 100.614 123 73C123 45.3858 100.614 23 73 23C45.3858 23 23 45.3858 23 73C23 100.614 45.3858 123 73 123Z" fill="#D9D9D9"/>
<path fill-rule="evenodd" clip-rule="evenodd" d="M73 116.182C96.8487 116.182 116.182 96.8487 116.182 73C116.182 49.1513 96.8487 29.8182 73 29.8182C49.1513 29.8182 29.8182 49.1513 29.8182 73C29.8182 96.8487 49.1513 116.182 73 116.182ZM73 123C100.614 123 123 100.614 123 73C123 45.3858 100.614 23 73 23C45.3858 23 23 45.3858 23 73C23 100.614 45.3858 123 73 123Z" fill="url(#paint0_linear_91_8711)"/>
<g filter="url(#filter1_i_91_8711)">
<path fill-rule="evenodd" clip-rule="evenodd" d="M67.9414 40.3377C71.4613 38.8486 74.8253 39.1053 77.1858 39.7717C78.5408 40.1543 79.6848 40.6273 81.4369 42.0869C83.1891 43.5465 84.1042 45.6617 83.4626 45.5341L83.2925 45.5003C82.3624 45.3149 81.5384 45.1508 80.3323 45.0385C79.0533 44.9194 77.2907 45.0725 76.6349 45.142C73.5411 45.4696 71.5236 46.7342 69.9641 47.7154C67.2883 49.399 64.5967 52.1034 62.5121 54.9849C60.7111 57.4743 58.768 60.8919 57.2421 65.042C56.4398 67.2243 55.8672 69.7025 55.8672 71.4327C55.8672 72.3378 55.9349 73.7266 56.6121 75.0908C57.8562 72.6947 59.9724 68.6699 61.547 65.9427C64.1102 61.5031 67.6498 55.819 72.0283 53.0619C76.8264 50.0405 82.8908 50.0119 88.3028 53.1366C91.5407 55.006 93.1308 56.8576 96.0845 60.7593C97.8492 63.0904 99.076 65.4121 100.258 67.6494L100.258 67.6495L100.259 67.6501C100.502 68.1116 100.744 68.5695 100.989 69.0232C101.493 69.9597 102.546 72.2614 103.681 76.2107C104.817 80.16 104.984 84.5922 104.693 86.9375C104.223 90.7303 102.318 93.5154 100.561 95.2264C99.5523 96.2085 98.5707 96.9627 96.4305 97.7504C94.2904 98.538 92.0011 98.2729 92.4324 97.781L92.5467 97.6507C93.1723 96.9378 93.7264 96.3063 94.4267 95.318C95.1693 94.2699 95.918 92.6669 96.1858 92.0641C97.449 89.2211 97.3625 86.8415 97.2925 85.0004C97.1724 81.8413 96.1761 78.158 94.723 74.912C93.4676 72.1076 91.4795 68.716 88.6482 65.3195C87.1595 63.5335 85.2996 61.7985 83.8012 60.9334C83.0481 60.4986 81.8771 59.8947 80.4382 59.7631C81.8877 62.0323 84.3382 65.9124 85.9239 68.6589C88.4871 73.0985 91.6399 79.006 91.8384 84.1764C92.0559 89.8424 89.0485 95.1085 83.6365 98.2331C80.3985 100.103 78 100.554 73.1441 101.161C70.2429 101.524 67.6189 101.425 65.0902 101.33C64.5684 101.311 64.0506 101.291 63.5352 101.276C62.4719 101.245 59.9523 101.006 55.9643 100.014C51.9763 99.0234 48.0545 96.9517 46.1688 95.5272C43.1193 93.2234 41.6595 90.1817 41.0565 87.8043C40.7103 86.4395 40.5479 85.2123 40.9359 82.9651C41.3238 80.7179 42.6981 78.8678 42.9084 79.4873C42.9272 79.5424 42.9457 79.5971 42.9641 79.6514C43.2687 80.5497 43.5385 81.3453 44.0443 82.446C44.5807 83.6131 45.5946 85.063 45.9827 85.5963C47.8132 88.1117 49.9172 89.2267 51.5467 90.0866C54.3426 91.5621 58.0306 92.5409 61.5683 92.9055C64.6246 93.2206 68.5559 93.1945 72.913 92.4409C75.2041 92.0445 77.6366 91.3014 79.1349 90.4363C79.9337 89.9751 81.1324 89.2019 81.9784 87.889C79.3208 88.0093 74.5835 88.2008 71.3325 88.2008C66.206 88.2008 59.5136 87.9774 54.9367 85.5641C49.921 82.9195 46.8641 77.6819 46.8641 71.4327C46.8641 67.6938 47.6726 65.391 49.5748 60.8821C50.7112 58.1882 52.1085 55.965 53.455 53.8225L53.455 53.8224C53.7329 53.3803 54.0086 52.9416 54.2794 52.503C54.8382 51.5978 56.3052 49.5355 59.1576 46.5772C62.0099 43.619 65.7649 41.2585 67.9414 40.3377ZM81.7782 79.3971C81.5093 78.7886 81.1896 78.1484 80.8135 77.4746C77.4999 71.5393 74.5751 66.5454 73.056 63.9793C72.6185 64.5632 72.1781 65.2211 71.7368 65.9606C68.3377 71.6568 65.5297 76.5842 64.0368 79.2339C64.7174 79.3098 65.4546 79.3557 66.253 79.3672C73.019 79.4648 78.7845 79.4295 81.7782 79.3971Z" fill="url(#paint1_linear_91_8711)"/>
</g>
</g>
<defs>
<filter id="filter0_dd_91_8711" x="0" y="0" width="160" height="160" filterUnits="userSpaceOnUse" color-interpolation-filters="sRGB">
<feFlood flood-opacity="0" result="BackgroundImageFix"/>
<feColorMatrix in="SourceAlpha" type="matrix" values="0 0 0 0 0 0 0 0 0 0 0 0 0 0 0 0 0 0 127 0" result="hardAlpha"/>
<feOffset dx="7" dy="7"/>
<feGaussianBlur stdDeviation="15"/>
<feComposite in2="hardAlpha" operator="out"/>
<feColorMatrix type="matrix" values="0 0 0 0 1 0 0 0 0 0.372549 0 0 0 0 0.635294 0 0 0 0.2 0"/>
<feBlend mode="normal" in2="BackgroundImageFix" result="effect1_dropShadow_91_8711"/>
<feColorMatrix in="SourceAlpha" type="matrix" values="0 0 0 0 0 0 0 0 0 0 0 0 0 0 0 0 0 0 127 0" result="hardAlpha"/>
<feOffset dx="2" dy="2"/>
<feGaussianBlur stdDeviation="5"/>
<feComposite in2="hardAlpha" operator="out"/>
<feColorMatrix type="matrix" values="0 0 0 0 1 0 0 0 0 0.370833 0 0 0 0 0.635083 0 0 0 0.12 0"/>
<feBlend mode="normal" in2="effect1_dropShadow_91_8711" result="effect2_dropShadow_91_8711"/>
<feBlend mode="normal" in="SourceGraphic" in2="effect2_dropShadow_91_8711" result="shape"/>
</filter>
<filter id="filter1_i_91_8711" x="40.7109" y="39.2422" width="64.4301" height="62.5004" filterUnits="userSpaceOnUse" color-interpolation-filters="sRGB">
<feFlood flood-opacity="0" result="BackgroundImageFix"/>
<feBlend mode="normal" in="SourceGraphic" in2="BackgroundImageFix" result="shape"/>
<feColorMatrix in="SourceAlpha" type="matrix" values="0 0 0 0 0 0 0 0 0 0 0 0 0 0 0 0 0 0 127 0" result="hardAlpha"/>
<feOffset dx="0.32071" dy="0.32071"/>
<feGaussianBlur stdDeviation="1.12249"/>
<feComposite in2="hardAlpha" operator="arithmetic" k2="-1" k3="1"/>
<feColorMatrix type="matrix" values="0 0 0 0 0.603922 0 0 0 0 0.592157 0 0 0 0 1 0 0 0 0.45 0"/>
<feBlend mode="normal" in2="shape" result="effect1_innerShadow_91_8711"/>
</filter>
<linearGradient id="paint0_linear_91_8711" x1="14.0322" y1="59.6179" x2="56.2679" y2="132.351" gradientUnits="userSpaceOnUse">
<stop stop-color="#ABA1FF"/>
<stop offset="1" stop-color="#878CFF"/>
</linearGradient>
<linearGradient id="paint1_linear_91_8711" x1="34.9619" y1="62.0098" x2="60.8182" y2="107.919" gradientUnits="userSpaceOnUse">
<stop stop-color="#9D92FF"/>
<stop offset="1" stop-color="#7075FD"/>
</linearGradient>
</defs>
</svg>