<svg width="121" height="121" viewBox="0 0 121 121" fill="none" xmlns="http://www.w3.org/2000/svg">
<g id="$sPRIME-2 1" clip-path="url(#clip0_2191_11455)">
<path id="Vector" d="M120.051 60.3915C120.051 93.7448 93.1767 120.783 60.0255 120.783C26.8744 120.783 0 93.7448 0 60.3915C0 27.0382 26.8744 0 60.0255 0C93.1767 0 120.051 27.0382 120.051 60.3915Z" fill="white"/>
<path id="Vector_2" fill-rule="evenodd" clip-rule="evenodd" d="M60.0255 112.548C88.656 112.548 111.866 89.1966 111.866 60.3915C111.866 31.5865 88.656 8.23522 60.0255 8.23522C31.395 8.23522 8.1853 31.5865 8.1853 60.3915C8.1853 89.1966 31.395 112.548 60.0255 112.548ZM60.0255 120.783C93.1767 120.783 120.051 93.7448 120.051 60.3915C120.051 27.0382 93.1767 0 60.0255 0C26.8744 0 0 27.0382 0 60.3915C0 93.7448 26.8744 120.783 60.0255 120.783Z" fill="#D9D9D9"/>
<path id="Vector_3" fill-rule="evenodd" clip-rule="evenodd" d="M60.0255 112.548C88.656 112.548 111.866 89.1966 111.866 60.3915C111.866 31.5865 88.656 8.23522 60.0255 8.23522C31.395 8.23522 8.1853 31.5865 8.1853 60.3915C8.1853 89.1966 31.395 112.548 60.0255 112.548ZM60.0255 120.783C93.1767 120.783 120.051 93.7448 120.051 60.3915C120.051 27.0382 93.1767 0 60.0255 0C26.8744 0 0 27.0382 0 60.3915C0 93.7448 26.8744 120.783 60.0255 120.783Z" fill="url(#paint0_linear_2191_11455)"/>
<g id="Group" filter="url(#filter0_i_2191_11455)">
<path id="Vector_4" fill-rule="evenodd" clip-rule="evenodd" d="M53.9549 20.9404C58.1805 19.1419 62.2191 19.4518 65.0528 20.2569C66.6795 20.7189 68.0528 21.2901 70.1563 23.0532C72.2598 24.8161 73.3583 27.3708 72.5881 27.2168L72.384 27.1759C71.2674 26.952 70.2781 26.7537 68.8301 26.6182C67.2948 26.4742 65.1787 26.6591 64.3914 26.7431C60.6774 27.1389 58.2551 28.6662 56.3831 29.8514C53.1708 31.8849 49.9394 35.1513 47.4369 38.6316C45.2746 41.6385 42.9421 45.7663 41.1102 50.7789C40.1469 53.4148 39.4595 56.408 39.4595 58.4977C39.4595 59.5914 39.5409 61.2697 40.3548 62.9182C41.8481 60.0243 44.3896 55.1615 46.2804 51.8666C49.3575 46.5042 53.6069 39.6388 58.8633 36.3086C64.6235 32.6592 71.9038 32.6249 78.401 36.399C82.2882 38.6569 84.1971 40.8932 87.7431 45.6058C89.8616 48.4214 91.3343 51.2257 92.7535 53.9278C93.0465 54.4855 93.3371 55.039 93.6306 55.5872C94.2363 56.7185 95.4999 59.4985 96.8632 64.2685C98.2267 69.0385 98.4268 74.3918 98.0778 77.2246C97.5132 81.8059 95.2269 85.1697 93.1172 87.2362C91.9062 88.4225 90.7276 89.3335 88.1584 90.2848C85.5893 91.2362 82.8409 90.9159 83.3586 90.3218L83.4959 90.1642C84.2469 89.3033 84.9123 88.5404 85.7528 87.3468C86.6444 86.081 87.5431 84.1447 87.8646 83.4168C89.381 79.9828 89.2773 77.1087 89.1932 74.885C89.049 71.0694 87.853 66.6206 86.1085 62.6999C84.6015 59.3126 82.2145 55.2162 78.8158 51.1137C77.0285 48.9566 74.7956 46.861 72.9969 45.8161C72.0925 45.2909 70.6861 44.5611 68.9581 44.4025C70.6981 47.1432 73.6404 51.8303 75.5442 55.1479C78.6214 60.5103 82.4064 67.6455 82.6446 73.8904C82.9058 80.7341 79.2952 87.0946 72.7982 90.8687C68.911 93.1266 66.0315 93.6717 60.2019 94.405C56.7191 94.8431 53.5688 94.7242 50.5331 94.6096C49.9067 94.586 49.2851 94.5626 48.6665 94.5441C47.39 94.5064 44.3651 94.2173 39.5775 93.0202C34.7899 91.8231 30.0816 89.3208 27.8179 87.6002C24.1569 84.8179 22.4043 81.144 21.6805 78.2724C21.2648 76.6241 21.0699 75.1418 21.5357 72.4274C22.0014 69.7132 23.6512 67.4787 23.9037 68.2268C23.9262 68.2934 23.9485 68.3595 23.9706 68.4252C24.3362 69.5099 24.6602 70.4711 25.2674 71.8005C25.9113 73.2102 27.1285 74.9614 27.5943 75.6055C29.792 78.6438 32.3179 79.9903 34.274 81.0291C37.6306 82.8112 42.058 83.9935 46.305 84.4338C49.9743 84.8143 54.6938 84.783 59.9244 83.8726C62.6749 83.394 65.5951 82.4962 67.394 81.4514C68.3531 80.8943 69.7922 79.9603 70.808 78.3741C67.6178 78.5196 61.9293 78.7508 58.0259 78.7508C51.8714 78.7508 43.8372 78.4811 38.3424 75.5663C32.3211 72.3719 28.6513 66.0459 28.6513 58.4977C28.6513 53.982 29.6219 51.2006 31.9054 45.7546C33.2697 42.5008 34.9472 39.8154 36.5636 37.2277C36.8973 36.6938 37.2282 36.1638 37.5533 35.6339C38.2243 34.5406 39.9854 32.0496 43.4097 28.4767C46.834 24.9036 51.3419 22.0526 53.9549 20.9404ZM70.5671 68.1175C70.2443 67.3827 69.8605 66.6095 69.4092 65.7959C65.4312 58.6272 61.9201 52.5956 60.0962 49.496C59.5712 50.2011 59.043 50.9954 58.5134 51.8881C54.4325 58.7686 51.0613 64.7203 49.2691 67.9205C50.0857 68.012 50.9701 68.0675 51.9279 68.0813C60.0514 68.1993 66.9735 68.1566 70.5671 68.1175Z" fill="url(#paint1_linear_2191_11455)"/>
</g>
</g>
<defs>
<filter id="filter0_i_2191_11455" x="21.2656" y="19.6172" width="77.1662" height="75.3068" filterUnits="userSpaceOnUse" color-interpolation-filters="sRGB">
<feFlood flood-opacity="0" result="BackgroundImageFix"/>
<feBlend mode="normal" in="SourceGraphic" in2="BackgroundImageFix" result="shape"/>
<feColorMatrix in="SourceAlpha" type="matrix" values="0 0 0 0 0 0 0 0 0 0 0 0 0 0 0 0 0 0 127 0" result="hardAlpha"/>
<feOffset dx="0.205255" dy="0.205255"/>
<feGaussianBlur stdDeviation="0.718391"/>
<feComposite in2="hardAlpha" operator="arithmetic" k2="-1" k3="1"/>
<feColorMatrix type="matrix" values="0 0 0 0 0.603922 0 0 0 0 0.592157 0 0 0 0 1 0 0 0 0.45 0"/>
<feBlend mode="normal" in2="shape" result="effect1_innerShadow_2191_11455"/>
</filter>
<linearGradient id="paint0_linear_2191_11455" x1="-10.766" y1="44.2281" x2="40.4008" y2="131.807" gradientUnits="userSpaceOnUse">
<stop stop-color="#ABA1FF"/>
<stop offset="1" stop-color="#878CFF"/>
</linearGradient>
<linearGradient id="paint1_linear_2191_11455" x1="14.3637" y1="47.1168" x2="45.6919" y2="102.405" gradientUnits="userSpaceOnUse">
<stop stop-color="#9D92FF"/>
<stop offset="1" stop-color="#7075FD"/>
</linearGradient>
<clipPath id="clip0_2191_11455">
<rect width="120.051" height="120.783" fill="white"/>
</clipPath>
</defs>
</svg>
