<svg width="24" height="24" viewBox="0 0 24 24" fill="none" xmlns="http://www.w3.org/2000/svg">
<path fill-rule="evenodd" clip-rule="evenodd" d="M12 0C5.37063 0 0 5.37063 0 12C0 18.6154 5.37063 23.986 12 24C18.6294 24 24 18.6294 24 12C24 5.37063 18.6294 0 12 0ZM14.2109 6.13542C15.3158 6.31724 16.3787 6.6529 17.3997 7.11444C19.148 9.68786 20.0151 12.597 19.7074 15.9536C18.5326 16.8347 17.2039 17.4921 15.7913 17.9256C15.4696 17.4921 15.1899 17.0445 14.9522 16.569C15.4137 16.4011 15.8612 16.1914 16.2808 15.9396C16.2249 15.8976 16.1724 15.8557 16.12 15.8137C16.0676 15.7718 16.0151 15.7298 15.9592 15.6879C13.4836 16.8627 10.6025 16.8627 8.12698 15.6879C8.07103 15.7298 8.01858 15.7718 7.96613 15.8137C7.91369 15.8557 7.86124 15.8976 7.8053 15.9396C8.22488 16.1914 8.65845 16.4011 9.11999 16.569C8.88222 17.0445 8.6025 17.4921 8.28082 17.9256C6.86824 17.506 5.55355 16.8347 4.36474 15.9536C4.099 13.0585 4.64446 10.1354 6.65845 7.12842C7.66544 6.6529 8.74236 6.31724 9.84726 6.13542C10.0011 6.40115 10.141 6.68087 10.2668 6.97458C11.4417 6.79276 12.6305 6.79276 13.8053 6.97458C13.9172 6.70884 14.071 6.38717 14.2109 6.13542ZM8.07103 12.6109C8.07103 13.4641 8.68642 14.1634 9.45565 14.1634C10.2389 14.1634 10.8403 13.4641 10.8543 12.6109C10.8543 11.7438 10.2389 11.0445 9.45565 11.0445C8.68642 11.0445 8.07103 11.7578 8.07103 12.6109ZM13.2179 12.6109C13.2179 13.4641 13.8333 14.1634 14.6025 14.1634C15.3717 14.1634 15.9731 13.4781 15.9871 12.6109C16.0011 11.7438 15.3857 11.0445 14.6025 11.0445C13.8333 11.0445 13.2179 11.7578 13.2179 12.6109Z" fill="#504EC2"/>
</svg>
