<svg width="24" height="24" viewBox="0 0 24 24" fill="none" xmlns="http://www.w3.org/2000/svg">
<path fill-rule="evenodd" clip-rule="evenodd" d="M12.0397 0C5.37773 0 0 5.50392 0 12.3222C0 17.744 3.45138 22.3443 8.26725 23.9872C8.90937 24.0694 9.0699 23.7408 9.0699 23.4122V21.2763C5.69879 22.0157 4.97641 19.6334 4.97641 19.6334C4.41455 18.2369 3.61191 17.8261 3.61191 17.8261C2.4882 17.0868 3.69217 17.0868 3.69217 17.0868C4.89614 17.1689 5.53826 18.319 5.53826 18.319C6.5817 20.2084 8.34752 19.6334 9.0699 19.3048C9.15016 18.4833 9.47122 17.9904 9.87254 17.6618C7.22381 17.3332 4.41455 16.2653 4.41455 11.5829C4.41455 10.2685 4.89614 9.11843 5.61852 8.29695C5.45799 7.96836 5.05667 6.73614 5.69879 5.01103C5.69879 5.01103 6.74223 4.68244 8.98963 6.24325C9.95281 5.99681 10.9962 5.83251 12.0397 5.83251C13.0831 5.83251 14.1266 5.99681 15.0897 6.24325C17.4174 4.68244 18.3806 5.01103 18.3806 5.01103C19.0227 6.73614 18.6214 7.96836 18.4609 8.29695C19.2635 9.11843 19.6648 10.2685 19.6648 11.5829C19.6648 16.3475 16.8556 17.3332 14.2068 17.6618C14.6082 18.0726 15.0095 18.8119 15.0095 19.962V23.33C15.0095 23.6586 15.2503 24.0694 15.8121 23.9051C20.628 22.2621 23.9991 17.6618 23.9991 12.2401C24.0794 5.50392 18.7016 0 12.0397 0Z" fill="white"/>
</svg>
