<svg width="24" height="24" viewBox="0 0 24 24" fill="none" xmlns="http://www.w3.org/2000/svg">
<path fill-rule="evenodd" clip-rule="evenodd" d="M12 24C18.6274 24 24 18.6274 24 12C24 5.37258 18.6274 0 12 0C5.37258 0 0 5.37258 0 12C0 18.6274 5.37258 24 12 24ZM8.55173 16.4924C11.0158 16.4924 13.0134 14.4811 13.0134 12.0001C13.0134 9.51902 11.016 7.50759 8.55173 7.50759C6.08747 7.50759 4.08984 9.51946 4.08984 12.0001C4.08984 14.4807 6.08763 16.4924 8.55173 16.4924ZM15.6772 16.2294C16.9093 16.2294 17.9081 14.3355 17.9081 12.0001C17.9081 9.66409 16.9092 7.77072 15.677 7.77072C14.4449 7.77072 13.4463 9.66469 13.4463 12.0001C13.4463 14.3355 14.4451 16.2294 15.6772 16.2294ZM19.1255 15.7889C19.5589 15.7889 19.9102 14.092 19.9102 12.0001C19.9102 9.90753 19.5588 8.21128 19.1255 8.21128C18.6923 8.21128 18.3411 9.90769 18.3411 12.0001C18.3411 14.0925 18.6922 15.7889 19.1255 15.7889Z" fill="white"/>
</svg>
