<svg width="24" height="24" viewBox="0 0 24 24" fill="none" xmlns="http://www.w3.org/2000/svg">
<path fill-rule="evenodd" clip-rule="evenodd" d="M24 12C24 18.6274 18.6274 24 12 24C5.37258 24 0 18.6274 0 12C0 5.37258 5.37258 0 12 0C18.6274 0 24 5.37258 24 12ZM17.8806 7.72363C18.5198 7.64731 19.1277 7.47752 19.6937 7.22635C19.2693 7.86108 18.7352 8.41517 18.1165 8.86267C18.1231 8.99811 18.1262 9.13405 18.1262 9.271C18.1262 13.4425 14.9507 18.2528 9.14437 18.2528C7.36157 18.2528 5.70255 17.7297 4.3053 16.8338C4.55239 16.8636 4.80408 16.8788 5.05875 16.8788C6.53734 16.8788 7.8987 16.3739 8.9791 15.527C7.59811 15.5012 6.43225 14.5886 6.03053 13.3349C6.22355 13.3712 6.42113 13.3904 6.62478 13.3904C6.91282 13.3904 7.19125 13.3525 7.45655 13.2798C6.01231 12.9897 4.92433 11.7142 4.92433 10.1846V10.1447C5.3627 10.3885 5.85306 10.5238 6.35442 10.5394C5.5075 9.97339 4.95012 9.0072 4.95012 7.91212C4.95012 7.33356 5.10573 6.7913 5.3776 6.32491C6.93454 8.23456 9.26058 9.49131 11.8842 9.62317C11.8307 9.39173 11.8029 9.15067 11.8029 8.90358C11.8029 7.15969 13.2164 5.74679 14.9593 5.74679C15.8673 5.74679 16.688 6.12981 17.2635 6.7433C17.9708 6.60438 18.649 6.34527 19.2687 5.97721C19.0327 6.71396 18.5329 7.33299 17.8806 7.72363Z" fill="white"/>
</svg>
